mtllib skull2.mtl
# vertices
v 10.09374999558429 12.749999999847205 -15.624999999774445
v 10 9.375 -13
v 9.750000000014463 12.500000000009534 -13
v 10.343749999742613 9.375 -15.249999999792635
v 16.37499999999813 7.500000000000634 -13
v 15.281249999901911 8.124999999999968 -14.874999999999357
v 15.2812499995307 12 -15.624999999792635
v 16.374999999963052 11.500000000015778 -13
v 11.5 15 -13
v 10.093749999923602 12.75 -15.624999999796273
v 9.750000000000533 12.499999999999726 -13
v 11.968749999798456 14.62500000000005 -15
v 16.375000000007773 11.499999999998632 -13
v 15.281250001201208 12 -15.624999999796273
v 15.499999999999986 15 -13
v 14.406249997806299 14.62500000000005 -15
v 12.97814849204164 8.670112782852863 -14.057330825719742
v 12.933913930140989 8.719262296075613 -15.053278688724276
v 14.031249996609404 7.5 -14.874999999996362
v 14.031249996609404 7.5 -13
v 13.187499995388793 8.437500001356236 -13
v 16.374999999999993 7.5 -13
v 15.28124999928448 8.124999999999456 -14.874999999999858
v 9.749999999978627 12.499999999985448 -13
v 10 9.375 -13
v 10.093749995556248 12.750000000191008 -10.37499999997878
v 10.343749999739442 9.375 -10.750000000000327
v 16.374999999992724 7.5 -13
v 15.281249999898964 8.124999999999726 -11.124999999793728
v 15.281249999527448 12 -10.375000000000327
v 16.37500000004344 11.499999999977916 -13
v 9.74999999999909 12.500000000001364 -13
v 10.093749999919964 12.75 -10.375000000014552
v 11.499999999999453 15 -13
v 11.968749999798629 14.62500000000291 -11
v 16.374999999959982 11.500000000007276 -13
v 15.281250001211447 12 -10.37500000001455
v 14.406249998210114 14.62500000000291 -11
v 15.50000000000744 15 -13
v 13.1874999953893 8.437500001355684 -13
v 14.031249996607585 7.5 -13
v 14.031249996607585 7.5 -11.124999999797339
v 12.933913930139681 8.719262296075447 -10.94672131106898
v 12.978148492041267 8.670112782852641 -11.942669174162996
v 16.37499999999726 7.5 -13
v 15.281249999279968 8.125000000000004 -11.12499999979339

# texture coordinates
vt 1.2207031 0.99609375
vt 1.015625 0.7324219
vt 1.015625 0.9765625
vt 1.1914062 0.7324219
vt 0.78125 1.015625
vt 0.80810547 1.1914062
vt 1.2792969 1.015625
vt 1.1938477 1.1621094
vt 1.1938477 0.9375
vt 0.80810547 0.7324219
vt 0.7885742 0.99609375
vt 0.25585938 0.1796875
vt 0.15234375 0.1953125
vt 0.15625 0.14648438
vt 0.25585938 0.1171875
vt 1.1938477 0.6347656
vt 2.3876953 2.4414062
vt 1.5771484 2.4414062
vt 1.5234375 2.03125
vt 2.5585938 2.03125
vt 1.015625 0.5859375
vt 1.1621094 0.6347656
vt 1.2207031 0.9375
vt 1.015625 0.8984375
vt 1.015625 1.171875
vt 0.7885742 1.2207031
vt 0.8984375 1.015625
vt 0.9350586 1.171875
vt 2.421875 2.34375
vt 1.796875 2.34375
vt 1.5234375 1.953125
vt 2.5585938 1.796875
vt 1.1254883 1.171875
vt 1.2109375 1.015625
vt 0.9350586 1.1425781
vt 1.1254883 1.1425781
vt 1.171875 1.1425781
vt 1.0982289 0.67735255
vt 1.1760374 0.68119234
vt 1.1621094 0.5859375
vt 1.015625 0.6591797
vt 2.0605469 1.3183594
vt 2.1923828 1.171875
vt 2.5585938 1.171875
vt 1.0961914 1.015625
vt 1.0961914 1.1621094
vt 1.0961914 0.5859375
vt 1.010462 0.68119234
vt 2.3876953 2.3242188
vt 2.020924 2.3520749
vt 2.0278356 2.1964579
vt 2.0605469 2.03125
vt -0.984375 0.9765625
vt -0.984375 0.7324219
vt -0.7792969 0.99609375
vt -0.80859375 0.7324219
vt 1.2792969 -0.984375
vt 0.80810547 -0.80859375
vt 0.78125 -0.984375
vt 1.1938477 -0.8378906
vt 1.5234375 -1.96875
vt 1.5771484 -1.5585938
vt 2.3876953 -1.5585938
vt 2.5585938 -1.96875
vt -0.7792969 0.9375
vt -0.8378906 0.6347656
vt -0.984375 0.5859375
vt -0.984375 0.8984375
vt -0.984375 1.171875
vt 0.8984375 -0.984375
vt 0.7885742 -0.7792969
vt 0.9350586 -0.828125
vt 1.2109375 -0.984375
vt 1.1254883 -0.828125
vt -0.828125 1.1425781
vt -0.984375 0.6591797
vt -0.8378906 0.5859375
vt -0.82396257 0.68119234
vt -0.901771 0.67735255
vt 1.0961914 -0.8378906
vt 1.0961914 -0.984375
vt 2.0278356 -1.803542
vt 2.020924 -1.6479251
vt 2.3876953 -1.6757812
vt 2.0605469 -1.96875

# normals
vn -0.9874396496997332 -0.0789951719759809 -0.13683092123256985
vn -0.9845500524516996 -0.0896426757339956 -0.15041736902567263
vn -0.28190450500996683 -0.9584753170338861 -0.04306874379265141
vn -0.22787802365852 -0.9558217103395913 -0.18567838963375782
vn -0.016134600523311626 -0.11159765370470034 -0.9936224828140509
vn 0 0 1
vn 0.026449489891293424 -0.18995542754756037 -0.981436375945845
vn 0.14218570183475415 0.9834511051072398 0.11228156597192299
vn 0.14807901615858496 0.9810234820506254 0.12516202554597644
vn 0.8441307395947368 -0.10187784777488612 -0.5263688807328941
vn 0.9230769230075538 0 -0.38461538478187074
vn -0.8180981705757402 0.5726687194030181 -0.05259202523134368
vn -0.6293167755878957 0.7237142918257643 -0.28319254893232365
vn -0.14829692840446637 -0.9824671506795897 -0.11298813593173798
vn -0.1419165052766085 -0.9815891617388539 -0.12783748701726128
vn -0 0.9828721869343219 -0.18428853505018536
vn -0 0.3162277659227568 -0.948683298081874
vn 0.03506370896673906 0.24252398707981382 -0.9695115533114631
vn 0.7803278395121916 0.37861701370458767 -0.49773247816036204
vn 0.9133672718115772 0.2283418179528943 -0.337076016585938
vn -0.7432941462471664 -0.6689647316224497 -0
vn 0 -1 0
vn 0.05010274633473278 -0.10020549288997227 -0.9937044701541777
vn 0.2426068115220385 0.9694163842234735 0.03706492954528279
vn 0.27882859227557083 0.9480172137369397 0.15335572564489774
vn 0.3903600285183054 -0.7807200587546206 -0.4879500363698825
vn -0.9874396497011099 -0.07899517197695319 0.13683092122207324
vn -0.984550052454069 -0.089642675732544 0.15041736901102873
vn -0.28190450501012987 -0.9584753170340302 0.0430687437883797
vn -0.22787802366096732 -0.9558217103430365 0.18567838961301888
vn -0.016134600523311626 -0.11159765370470034 0.9936224828140509
vn 0 -0 -1
vn 0.026449489891293424 -0.18995542754756037 0.981436375945845
vn 0.14218570183489523 0.9834511051082157 -0.1122815659631971
vn 0.14807901615876756 0.9810234820518351 -0.12516202553627973
vn 0.8441307396233172 -0.10187784776633543 0.5263688806887156
vn 0.9230769230183011 0 0.3846153847560771
vn -0.8180981705759183 0.5726687194031428 0.052592025227215795
vn -0.6293167755716239 0.7237142918403369 0.2831925489312423
vn -0.1482969284046154 -0.9824671506805769 0.11298813592295862
vn -0.14191650527679106 -0.9815891617401166 0.12783748700736408
vn 0 0.31622776601683794 0.9486832980505138
vn 0 0.9828721869343219 0.18428853505018536
vn 0.03506370897763397 0.2425239871551703 0.9695115532922186
vn 0.7803278394970906 0.37861701373826606 0.49773247815841837
vn 0.9133672718197453 0.22834181795493633 0.3370760165624223
vn 0.05010274633473278 -0.10020549288997227 0.9937044701541777
vn 0.2426068115223326 0.9694163842235396 -0.037064929541630064
vn 0.2788285922764064 0.9480172137393749 -0.15335572562832392
vn 0.39036002852854673 -0.7807200587751032 0.4879500363289173

o entity2_brush0
usemtl kh-floor2
f  1/1/1  2/2/1  3/3/1
usemtl kh-floor2
f  4/4/2  2/2/2  1/1/2
usemtl kh-floor2
f  2/5/3  4/6/3  5/7/3
usemtl kh-floor2
f  5/7/4  4/6/4  6/8/4
usemtl kh-floor2
f  7/9/5  4/10/5  1/11/5
usemtl entitiy/skip
f  8/12/6  3/13/6  2/14/6  5/15/6
usemtl kh-floor2
f  6/16/7  4/10/7  7/9/7
usemtl entitiy/skip
f  7/17/8  1/18/8  3/19/8
usemtl entitiy/skip
f  7/17/9  3/19/9  8/20/9
usemtl kh-floor2
f  5/21/10  6/22/10  7/23/10
usemtl kh-floor2
f  5/21/11  7/23/11  8/24/11

o entity2_brush1
usemtl kh-floor2
f  9/25/12  10/1/12  11/3/12
usemtl kh-floor2
f  10/26/13  9/27/13  12/28/13
usemtl entitiy/skip
f  11/19/14  10/18/14  13/20/14
usemtl entitiy/skip
f  13/20/15  10/18/15  14/17/15
usemtl entitiy/skip
f  15/29/6  9/30/6  11/31/6  13/32/6
usemtl kh-floor2
f  16/33/16  12/28/16  9/27/16  15/34/16
usemtl kh-floor2
f  10/11/17  12/35/17  16/36/17
usemtl kh-floor2
f  14/9/18  10/11/18  16/36/18
usemtl kh-floor2
f  14/23/19  16/37/19  15/25/19
usemtl kh-floor2
f  15/25/20  13/24/20  14/23/20

o entity2_brush2
usemtl kh-floor2
f  17/38/21  18/39/21  19/40/21  20/21/21  21/41/21
usemtl entitiy/skip
f  21/42/6  20/43/6  22/44/6
usemtl kh-floor2
f  22/7/22  20/45/22  19/46/22
usemtl kh-floor2
f  19/47/23  18/48/23  23/16/23
usemtl entitiy/skip
f  23/49/24  18/50/24  17/51/24
usemtl entitiy/skip
f  23/49/25  17/51/25  21/52/25  22/20/25
usemtl kh-floor2
f  19/46/26  23/8/26  22/7/26

o entity3_brush0
usemtl kh-floor2
f  24/53/27  25/54/27  26/55/27
usemtl kh-floor2
f  26/55/28  25/54/28  27/56/28
usemtl kh-floor2
f  28/57/29  27/58/29  25/59/29
usemtl kh-floor2
f  29/60/30  27/58/30  28/57/30
usemtl kh-floor2
f  26/11/31  27/10/31  30/9/31
usemtl entitiy/skip
f  28/15/32  25/14/32  24/13/32  31/12/32
usemtl kh-floor2
f  30/9/33  27/10/33  29/16/33
usemtl entitiy/skip
f  24/61/34  26/62/34  30/63/34
usemtl entitiy/skip
f  31/64/35  24/61/35  30/63/35
usemtl kh-floor2
f  30/65/36  29/66/36  28/67/36
usemtl kh-floor2
f  31/68/37  30/65/37  28/67/37

o entity3_brush1
usemtl kh-floor2
f  32/53/38  33/55/38  34/69/38
usemtl kh-floor2
f  34/70/39  33/71/39  35/72/39
usemtl entitiy/skip
f  36/64/40  33/62/40  32/61/40
usemtl entitiy/skip
f  37/63/41  33/62/41  36/64/41
usemtl kh-floor2
f  38/36/42  35/35/42  33/11/42
usemtl kh-floor2
f  39/73/43  34/70/43  35/72/43  38/74/43
usemtl entitiy/skip
f  36/32/32  32/31/32  34/30/32  39/29/32
usemtl kh-floor2
f  38/36/44  33/11/44  37/9/44
usemtl kh-floor2
f  39/69/45  38/75/45  37/65/45
usemtl kh-floor2
f  39/69/46  37/65/46  36/68/46

o entity3_brush2
usemtl kh-floor2
f  40/76/21  41/67/21  42/77/21  43/78/21  44/79/21
usemtl kh-floor2
f  42/80/22  41/81/22  45/57/22
usemtl entitiy/skip
f  45/44/32  41/43/32  40/42/32
usemtl kh-floor2
f  46/16/47  43/48/47  42/47/47
usemtl entitiy/skip
f  44/82/48  43/83/48  46/84/48
usemtl entitiy/skip
f  45/64/49  40/85/49  44/82/49  46/84/49
usemtl kh-floor2
f  45/57/50  46/60/50  42/80/50

