# Exported from Nomad Sculpt
o Default
usemtl CBMaterial
v -11.4145641 10.95006370 -3.37308359 0.999999940 0.999999940 0.999999940
v -11.8769064 10.23304748 -3.37920022 0.999999940 0.999999940 0.999999940
v -12.3162165 10.66950893 -1.5420711 0.999999940 0.999999940 0.999999940
v -11.6212645 11.17708015 -1.54064572 0.999999940 0.999999940 0.999999940
v -8.0800066 12.37072944 -1.64951193 0.999999940 0.999999940 0.999999940
v -6.66983032 12.33965778 -4.72865868 0.999999940 0.999999940 0.999999940
v -9.65058708 8.875339508 -4.60031414 0.999999940 0.999999940 0.999999940
v -10.5172844 8.092929840 -4.65189028 0.999999940 0.999999940 0.999999940
v -4.52657604 9.329981803 -6.82422543 0.999999940 0.999999940 0.999999940
v -13.3262548 8.008191108 -3.75559807 0.999999940 0.999999940 0.999999940
v -14.0089359 8.556388855 -1.67047477 0.999999940 0.999999940 0.999999940
v -11.1783705 5.826815605 -4.85583878 0.999999940 0.999999940 0.999999940
v -12.0843468 10.46010875 0.174428060 0.999999940 0.999999940 0.999999940
v -11.4200497 11.03886699 0.083483092 0.999999940 0.999999940 0.999999940
v -13.4291382 8.078085899 0.217622995 0.999999940 0.999999940 0.999999940
v -7.66754007 12.06647205 1.441659569 0.999999940 0.999999940 0.999999940
v -3.52534223 12.00024128 3.239736557 0.999999940 0.999999940 0.999999940
v -5.26394892 13.38448143 -1.76067924 0.999999940 0.999999940 0.999999940
v -2.84297967 13.06368160 -5.58773613 0.999999940 0.999999940 0.999999940
v -0.00080013 11.88050079 -6.5086503 0.999999940 0.999999940 0.999999940
v -3.50403428 5.081755638 -7.51960754 0.999999940 0.999999940 0.999999940
v -7.56472969 4.858921051 -5.43677902 0.999999940 0.999999940 0.999999940
v -0.00080032 5.167222023 -8.0082798 0.999999940 0.999999940 0.999999940
v -8.50460434 5.172022342 -4.55060768 0.999999940 0.999999940 0.999999940
v -8.82119083 0.766027927 -3.78013468 0.999999940 0.999999940 0.999999940
v -9.18048573 2.931694984 -1.58470285 0.999999940 0.999999940 0.999999940
v -9.55190086 1.922401547 -1.65632403 0.999999940 0.999999940 0.999999940
v -13.2318869 -0.33486927 -5.53906298 0.999999940 0.999999940 0.999999940
v -16.925272 2.191728353 -4.90079832 0.999999940 0.999999940 0.999999940
v -10.9995022 -1.67681003 -1.66681838 0.999999940 0.999999940 0.999999940
v -17.6994247 2.741234302 -1.85617399 0.999999940 0.999999940 0.999999940
v -16.737381 1.911988973 0.716037392 0.999999940 0.999999940 0.999999940
v -13.7465553 0.109158396 1.927907228 0.999999940 0.999999940 0.999999940
v -11.7158518 5.000716686 1.516211986 0.999999940 0.999999940 0.999999940
v -11.0636015 6.705001831 1.318985343 0.999999940 0.999999940 0.999999940
v -10.1094227 7.194732189 1.604112148 0.999999940 0.999999940 0.999999940
v -5.67037392 8.247200012 3.108669757 0.999999940 0.999999940 0.999999940
v -0.00080014 9.301859855 4.211835861 0.999999940 0.999999940 0.999999940
v -0.00080015 10.14030933 3.804182529 0.999999940 0.999999940 0.999999940
v -3.49740839 14.05588054 3.318727731 0.999999940 0.999999940 0.999999940
v -4.93621063 15.18639850 -1.52809894 0.999999940 0.999999940 0.999999940
v -2.78768444 15.42260551 -4.15478563 0.999999940 0.999999940 0.999999940
v -0.00080013 15.38315773 -5.80850506 0.999999940 0.999999940 0.999999940
v 2.786084175 15.42260551 -4.15478563 0.999999940 0.999999940 0.999999940
v 2.841379404 13.06368160 -5.58773613 0.999999940 0.999999940 0.999999940
v 6.668230056 12.33965778 -4.72865868 0.999999940 0.999999940 0.999999940
v 4.524974823 9.329981803 -6.82422543 0.999999940 0.999999940 0.999999940
v 3.502434253 5.081755638 -7.51960754 0.999999940 0.999999940 0.999999940
v -0.00080044 -0.77503663 -7.73657894 0.999999940 0.999999940 0.999999940
v -3.440027 -0.78652775 -7.36712599 0.999999940 0.999999940 0.999999940
v 3.438426733 -0.78652775 -7.36712599 0.999999940 0.999999940 0.999999940
v 7.563129425 4.858921051 -5.43677902 0.999999940 0.999999940 0.999999940
v 7.822273254 -0.12516861 -5.61513281 0.999999940 0.999999940 0.999999940
v 9.648986816 8.875339508 -4.60031366 0.999999940 0.999999940 0.999999940
v 11.41296386 10.95006370 -3.37308359 0.999999940 0.999999940 0.999999940
v 11.61966514 11.17708110 -1.54064572 0.999999940 0.999999940 0.999999940
v 8.078406333 12.37072944 -1.64951205 0.999999940 0.999999940 0.999999940
v 5.262349128 13.38448143 -1.76067936 0.999999940 0.999999940 0.999999940
v 4.934610366 15.18639850 -1.52809906 0.999999940 0.999999940 0.999999940
v 1.608342886 13.03317928 -4.21711016 0.999999940 0.999999940 0.999999940
v 3.898574352 12.37152671 -1.21112382 0.999999940 0.999999940 0.999999940
v -0.00080013 13.32439041 -4.97248888 0.999999940 0.999999940 0.999999940
v -1.60994315 13.03317928 -4.21711016 0.999999940 0.999999940 0.999999940
v -3.90017462 12.37152671 -1.2111237 0.999999940 0.999999940 0.999999940
v -3.59805179 11.44744300 1.153006434 0.999999940 0.999999940 0.999999940
v -0.00080015 10.20930862 3.087912797 0.999999940 0.999999940 0.999999940
v 3.523741960 12.00024128 3.239736318 0.999999940 0.999999940 0.999999940
v 3.495808124 14.05588054 3.318727731 0.999999940 0.999999940 0.999999940
v 3.596451520 11.44744300 1.153006315 0.999999940 0.999999940 0.999999940
v -0.00080015 12.04147243 1.064550638 0.999999940 0.999999940 0.999999940
v -0.00080014 12.33818817 -0.43424344 0.999999940 0.999999940 0.999999940
v 7.665939807 12.0664711 1.441659569 0.999999940 0.999999940 0.999999940
v 11.41844940 11.03886795 0.083482995 0.999999940 0.999999940 0.999999940
v 12.31461525 10.66950893 -1.54207015 0.999999940 0.999999940 0.999999940
v 11.87530612 10.23304748 -3.37920022 0.999999940 0.999999940 0.999999940
v 12.08274650 10.46010971 0.174428194 0.999999940 0.999999940 0.999999940
v 10.51568412 8.092929840 -4.65189028 0.999999940 0.999999940 0.999999940
v 8.503004074 5.172022819 -4.55060816 0.999999940 0.999999940 0.999999940
v 8.819590568 0.766027927 -3.78013468 0.999999940 0.999999940 0.999999940
v 9.136264801 -5.5768714 -3.90072155 0.999999940 0.999999940 0.999999940
v 7.963776588 -5.47242975 -5.65549612 0.999999940 0.999999940 0.999999940
v 3.579744339 -5.36591148 -7.73827219 0.999999940 0.999999940 0.999999940
v 9.178885459 2.931694984 -1.58470297 0.999999940 0.999999940 0.999999940
v 9.522238731 -5.68309164 -2.01157475 0.999999940 0.999999940 0.999999940
v 11.17677021 5.826815605 -4.85583925 0.999999940 0.999999940 0.999999940
v 9.550300598 1.922401666 -1.65632403 0.999999940 0.999999940 0.999999940
v 13.32465457 8.008191108 -3.75559855 0.999999940 0.999999940 0.999999940
v 14.00733566 8.556388855 -1.67047453 0.999999940 0.999999940 0.999999940
v 13.42753791 8.078085899 0.217623099 0.999999940 0.999999940 0.999999940
v 10.10782241 7.194732189 1.604112148 0.999999940 0.999999940 0.999999940
v 11.06200122 6.705001831 1.318985104 0.999999940 0.999999940 0.999999940
v 11.71425151 5.000716686 1.516211986 0.999999940 0.999999940 0.999999940
v 5.668773651 8.247199058 3.108669519 0.999999940 0.999999940 0.999999940
v 9.199931144 4.118918895 1.754413366 0.999999940 0.999999940 0.999999940
v 4.371453285 4.424926757 3.590377092 0.999999940 0.999999940 0.999999940
v -0.00079942 4.276479721 3.778589487 0.999999940 0.999999940 0.999999940
v 10.07710647 4.147531986 1.439435601 0.999999940 0.999999940 0.999999940
v 9.371618270 0.344267845 0.401033282 0.999999940 0.999999940 0.999999940
v 9.764379501 -5.82352686 -0.41326588 0.999999940 0.999999940 0.999999940
v 10.23248481 -11.345293 0.024255147 0.999999940 0.999999940 0.999999940
v 10.47938633 -11.3666077 -2.07787538 0.999999940 0.999999940 0.999999940
v 10.54435348 -11.3534851 -4.31875992 0.999999940 0.999999940 0.999999940
v 8.656297683 -11.3889208 -6.23897266 0.999999940 0.999999940 0.999999940
v 3.799694299 -11.4312515 -8.31954861 0.999999940 0.999999940 0.999999940
v -0.00080013 -5.38648796 -7.80758572 0.999999940 0.999999940 0.999999940
v -0.00080013 -11.4443054 -8.71309566 0.999999940 0.999999940 0.999999940
v 6.740685463 -11.2559576 -5.51613712 0.999999940 0.999999940 0.999999940
v 3.436638832 -11.2547388 -7.01147461 0.999999940 0.999999940 0.999999940
v -0.00080013 -10.849144 -7.51792908 0.999999940 0.999999940 0.999999940
v 7.735494613 -11.092063 -3.89852571 0.999999940 0.999999940 0.999999940
v 7.833574295 -10.7841034 -1.96625566 0.999999940 0.999999940 0.999999940
v 7.800986766 -10.888483 0.069804385 0.999999940 0.999999940 0.999999940
v 7.965768814 -5.85128784 1.906728148 0.999999940 0.999999940 0.999999940
v 8.446743965 -11.5212488 2.512252807 0.999999940 0.999999940 0.999999940
v 7.311209678 -11.2414379 1.932280063 0.999999940 0.999999940 0.999999940
v 7.198084831 -0.77279347 1.967183232 0.999999940 0.999999940 0.999999940
v 3.364946603 -1.06686521 3.481588602 0.999999940 0.999999940 0.999999940
v -0.00079963 -0.99746704 3.754806995 0.999999940 0.999999940 0.999999940
v -4.37305117 4.424927234 3.590377569 0.999999940 0.999999940 0.999999940
v -3.36654568 -1.06686604 3.481588602 0.999999940 0.999999940 0.999999940
v -2.46974802 -6.06865311 4.149127006 0.999999940 0.999999940 0.999999940
v -0.00080002 -6.13618088 4.272416114 0.999999940 0.999999940 0.999999940
v 2.468147754 -6.06865311 4.149127006 0.999999940 0.999999940 0.999999940
v 2.460194587 -11.3745613 4.853092193 0.999999940 0.999999940 0.999999940
v 2.634005785 -10.9824419 3.384357214 0.999999940 0.999999940 0.999999940
v 2.161479473 -16.6463947 3.156035184 0.999999940 0.999999940 0.999999940
v 6.835797309 -17.349474 2.286787986 0.999999940 0.999999940 0.999999940
v 9.140386581 -17.6805382 0.342679321 0.999999940 0.999999940 0.999999940
v 9.538355827 -17.8364086 -1.95260751 0.999999940 0.999999940 0.999999940
v 8.658374786 -17.6758003 -3.92526317 0.999999940 0.999999940 0.999999940
v 6.993748188 -17.5270863 -5.35213661 0.999999940 0.999999940 0.999999940
v 3.360479116 -17.5609798 -6.54694319 0.999999940 0.999999940 0.999999940
v -0.00080016 -17.8001537 -6.84356737 0.999999940 0.999999940 0.999999940
v -3.4382391 -11.2547398 -7.01147461 0.999999940 0.999999940 0.999999940
v -3.80129457 -11.4312515 -8.31954861 0.999999940 0.999999940 0.999999940
v -3.36207986 -17.5609798 -6.54694319 0.999999940 0.999999940 0.999999940
v -0.00080023 -20.1108437 -3.86595297 0.999999940 0.999999940 0.999999940
v -2.92160988 -20.8175354 -5.52439022 0.999999940 0.999999940 0.999999940
v 2.920009613 -20.8175354 -5.52439022 0.999999940 0.999999940 0.999999940
v 7.058965683 -20.8659897 -5.26901436 0.999999940 0.999999940 0.999999940
v 9.360616684 -20.7005062 -3.98033476 0.999999940 0.999999940 0.999999940
v 10.22187900 -20.78689 -1.83133411 0.999999940 0.999999940 0.999999940
v 9.628042221 -20.7316475 0.697364211 0.999999940 0.999999940 0.999999940
v 6.592033386 -20.4147549 2.594338655 0.999999940 0.999999940 0.999999940
v 2.187832832 -19.3019199 2.603821277 0.999999940 0.999999940 0.999999940
v -0.00079977 -16.6661034 3.496287584 0.999999940 0.999999940 0.999999940
v -0.00080019 -10.935257 3.791083097 0.999999940 0.999999940 0.999999940
v -0.00080013 -18.7864418 2.010055065 0.999999940 0.999999940 0.999999940
v -0.00080013 -11.4249182 5.012303352 0.999999940 0.999999940 0.999999940
v -2.46179485 -11.3745613 4.853092193 0.999999940 0.999999940 0.999999940
v -2.63560605 -10.9824438 3.384357690 0.999999940 0.999999940 0.999999940
v -2.16308069 -16.6463966 3.156035423 0.999999940 0.999999940 0.999999940
v -2.1894331 -19.3019161 2.603821516 0.999999940 0.999999940 0.999999940
v -2.55968761 -23.4812183 2.194045305 0.999999940 0.999999940 0.999999940
v -0.00080014 -21.5123863 -1.55342364 0.999999940 0.999999940 0.999999940
v 2.558087587 -23.4812183 2.194045305 0.999999940 0.999999940 0.999999940
v 6.978942394 -23.4245205 2.647280693 0.999999940 0.999999940 0.999999940
v 10.03690242 -22.9429398 0.849832058 0.999999940 0.999999940 0.999999940
v 10.70182704 -22.7341595 -1.82048643 0.999999940 0.999999940 0.999999940
v 9.726273536 -22.7217655 -4.02637959 0.999999940 0.999999940 0.999999940
v 7.315802097 -23.0689716 -5.33027363 0.999999940 0.999999940 0.999999940
v 2.887106180 -22.7023964 -5.39997387 0.999999940 0.999999940 0.999999940
v -2.88870645 -22.7023926 -5.39997387 0.999999940 0.999999940 0.999999940
v -6.99534845 -17.5270863 -5.35213661 0.999999940 0.999999940 0.999999940
v -7.06056595 -20.8659897 -5.26901436 0.999999940 0.999999940 0.999999940
v -7.31740189 -23.0689716 -5.33027363 0.999999940 0.999999940 0.999999940
v -3.89006186 -31.8600616 -4.58029699 0.999999940 0.999999940 0.999999940
v -8.19450665 -30.676918 -5.63472986 0.999999940 0.999999940 0.999999940
v -2.18532801 -32.3973007 -1.46279263 0.999999940 0.999999940 0.999999940
v -3.75987315 -32.0298653 1.156563639 0.999999940 0.999999940 0.999999940
v 3.888461589 -31.8600616 -4.58029699 0.999999940 0.999999940 0.999999940
v 2.183727741 -32.3973007 -1.46279263 0.999999940 0.999999940 0.999999940
v 3.758272171 -32.0298653 1.156563758 0.999999940 0.999999940 0.999999940
v -6.59363413 -20.4147549 2.594338655 0.999999940 0.999999940 0.999999940
v -6.98054266 -23.4245205 2.647280693 0.999999940 0.999999940 0.999999940
v -8.46818733 -30.7075539 2.852662086 0.999999940 0.999999940 0.999999940
v -6.83739805 -17.349474 2.286787986 0.999999940 0.999999940 0.999999940
v -7.31280994 -11.2414389 1.932280182 0.999999940 0.999999940 0.999999940
v -8.44834328 -11.5212488 2.512251138 0.999999940 0.999999940 0.999999940
v -7.96736908 -5.85128784 1.906728148 0.999999940 0.999999940 0.999999940
v -10.2340851 -11.345293 0.024255065 0.999999940 0.999999940 0.999999940
v -9.76597977 -5.82352686 -0.41326588 0.999999940 0.999999940 0.999999940
v -7.80258703 -10.888483 0.069804407 0.999999940 0.999999940 0.999999940
v -9.14198685 -17.6805382 0.342679441 0.999999940 0.999999940 0.999999940
v -9.6296463 -20.7316475 0.697365522 0.999999940 0.999999940 0.999999940
v -10.0385027 -22.9429398 0.849831640 0.999999940 0.999999940 0.999999940
v -11.6520491 -29.6477909 1.044001460 0.999999940 0.999999940 0.999999940
v -7.53553391 -29.7900829 1.381327629 0.999999940 0.999999940 0.999999940
v -5.06612396 -30.3620491 0.208515420 0.999999940 0.999999940 0.999999940
v -10.2148962 -28.7008286 -0.14127998 0.999999940 0.999999940 0.999999940
v -4.42580414 -29.8596363 -1.29134762 0.999999940 0.999999940 0.999999940
v -4.97022104 -30.4119701 -3.53916907 0.999999940 0.999999940 0.999999940
v -7.71998072 -29.159399 -4.23821497 0.999999940 0.999999940 0.999999940
v -11.9866028 -29.4933834 -4.20322371 0.999999940 0.999999940 0.999999940
v -9.7278738 -22.7217674 -4.02638006 0.999999940 0.999999940 0.999999940
v -9.91828442 -28.7008648 -3.30385303 0.999999940 0.999999940 0.999999940
v -10.621007 -28.5690327 -1.98469985 0.999999940 0.999999940 0.999999940
v -12.5809088 -29.3387661 -1.82822716 0.999999940 0.999999940 0.999999940
v -10.7034273 -22.7341595 -1.82048678 0.999999940 0.999999940 0.999999940
v -10.2234793 -20.78689 -1.83133459 0.999999940 0.999999940 0.999999940
v -9.53995609 -17.8364086 -1.95260775 0.999999940 0.999999940 0.999999940
v -7.83517456 -10.7841034 -1.96625543 0.999999940 0.999999940 0.999999940
v -10.4809866 -11.3666077 -2.07787538 0.999999940 0.999999940 0.999999940
v -9.523839 -5.68309164 -2.01157475 0.999999940 0.999999940 0.999999940
v -9.37321854 0.344267845 0.401033282 0.999999940 0.999999940 0.999999940
v -7.1996851 -0.77279347 1.967183232 0.999999940 0.999999940 0.999999940
v -9.20153141 4.118918895 1.754413366 0.999999940 0.999999940 0.999999940
v -10.0787067 4.147531986 1.439435601 0.999999940 0.999999940 0.999999940
v -9.13786507 -5.5768714 -3.90072155 0.999999940 0.999999940 0.999999940
v -10.5459538 -11.3534851 -4.31875992 0.999999940 0.999999940 0.999999940
v -7.73709488 -11.092063 -3.89852548 0.999999940 0.999999940 0.999999940
v -8.65997505 -17.6758003 -3.92526317 0.999999940 0.999999940 0.999999940
v -9.36221695 -20.7005081 -3.98033524 0.999999940 0.999999940 0.999999940
v -6.74228573 -11.2559586 -5.51613712 0.999999940 0.999999940 0.999999940
v -8.6578989 -11.3889208 -6.23897266 0.999999940 0.999999940 0.999999940
v -7.96537685 -5.47242975 -5.65549612 0.999999940 0.999999940 0.999999940
v -7.82387352 -0.12516859 -5.61513281 0.999999940 0.999999940 0.999999940
v -3.5813446 -5.36591148 -7.73827219 0.999999940 0.999999940 0.999999940
v -14.5214243 -1.58989823 2.068657398 0.999999940 0.999999940 0.999999940
v -11.8500929 -3.36828089 -1.58180046 0.999999940 0.999999940 0.999999940
v -17.6601295 0.455659151 0.984867095 0.999999940 0.999999940 0.999999940
v -13.9108162 -1.97558761 -5.65559673 0.999999940 0.999999940 0.999999940
v -17.7571106 -8.77158356 2.223415851 0.999999940 0.999999940 0.999999940
v -15.349906 -10.4889231 -1.20389903 0.999999940 0.999999940 0.999999940
v -16.9797249 -8.80213928 -5.45787668 0.999999940 0.999999940 0.999999940
v -21.2091484 -5.90120173 1.902539491 0.999999940 0.999999940 0.999999940
v -22.5129433 -4.51437378 -1.78029776 0.999999940 0.999999940 0.999999940
v -18.6375465 1.355552673 -1.85259795 0.999999940 0.999999940 0.999999940
v -19.6480331 -4.09172297 -1.60440874 0.999999940 0.999999940 0.999999940
v -18.3993168 -4.82091522 -0.34029114 0.999999940 0.999999940 0.999999940
v -17.0397854 -6.86821938 0.376239180 0.999999940 0.999999940 0.999999940
v -15.9698467 -7.51754379 -1.42580152 0.999999940 0.999999940 0.999999940
v -16.9485149 -6.48047209 -3.48954964 0.999999940 0.999999940 0.999999940
v -21.3578606 -5.48742247 -5.49483967 0.999999940 0.999999940 0.999999940
v -17.8119316 0.706137657 -5.01788664 0.999999940 0.999999940 0.999999940
v -18.6941204 -4.90348244 -3.7181282 0.999999940 0.999999940 0.999999940
v 8.466587066 -30.7075539 2.852662086 0.999999940 0.999999940 0.999999940
v 4.424205303 -29.8596363 -1.29134774 0.999999940 0.999999940 0.999999940
v 5.064523220 -30.362051 0.208515271 0.999999940 0.999999940 0.999999940
v 7.533933639 -29.7900829 1.381327390 0.999999940 0.999999940 0.999999940
v 11.65044879 -29.6477909 1.044001698 0.999999940 0.999999940 0.999999940
v 10.21329593 -28.7008286 -0.14128011 0.999999940 0.999999940 0.999999940
v 9.916684150 -28.7008648 -3.3038528 0.999999940 0.999999940 0.999999940
v 10.61940765 -28.5690327 -1.98469996 0.999999940 0.999999940 0.999999940
v 7.718379974 -29.1594009 -4.23821545 0.999999940 0.999999940 0.999999940
v 4.968620777 -30.4119701 -3.53916836 0.999999940 0.999999940 0.999999940
v 8.192906379 -30.676918 -5.63472986 0.999999940 0.999999940 0.999999940
v 11.98500251 -29.4933834 -4.20322371 0.999999940 0.999999940 0.999999940
v 12.57930851 -29.3387661 -1.82822716 0.999999940 0.999999940 0.999999940
v 13.74495506 0.109158396 1.927907228 0.999999940 0.999999940 0.999999940
v 16.73578262 1.911988973 0.716037392 0.999999940 0.999999940 0.999999940
v 10.99790191 -1.67681003 -1.66681838 0.999999940 0.999999940 0.999999940
v 17.69782257 2.741234302 -1.85617399 0.999999940 0.999999940 0.999999940
v 17.65852737 0.455659151 0.984867095 0.999999940 0.999999940 0.999999940
v 18.63594818 1.355552673 -1.85259795 0.999999940 0.999999940 0.999999940
v 14.51982402 -1.58989823 2.068657398 0.999999940 0.999999940 0.999999940
v 11.84849262 -3.36828089 -1.58180046 0.999999940 0.999999940 0.999999940
v 13.23028659 -0.33486927 -5.53906298 0.999999940 0.999999940 0.999999940
v 13.90921592 -1.97558761 -5.65559673 0.999999940 0.999999940 0.999999940
v 15.34830570 -10.4889231 -1.20389903 0.999999940 0.999999940 0.999999940
v 17.75551223 -8.77158356 2.223415851 0.999999940 0.999999940 0.999999940
v 16.97812271 -8.80213928 -5.45787668 0.999999940 0.999999940 0.999999940
v 21.20755004 -5.90120173 1.902539491 0.999999940 0.999999940 0.999999940
v 22.51134491 -4.51437378 -1.78029776 0.999999940 0.999999940 0.999999940
v 17.81033325 0.706137657 -5.01788664 0.999999940 0.999999940 0.999999940
v 21.35626220 -5.48742247 -5.49483967 0.999999940 0.999999940 0.999999940
v 16.92367363 2.191728353 -4.90079832 0.999999940 0.999999940 0.999999940
v 18.69252204 -4.90348244 -3.7181282 0.999999940 0.999999940 0.999999940
v 16.94691467 -6.4804759 -3.48954916 0.999999940 0.999999940 0.999999940
v 15.96824836 -7.51754379 -1.4258014 0.999999940 0.999999940 0.999999940
v 17.03818512 -6.8682189 0.376237511 0.999999940 0.999999940 0.999999940
v 18.39771652 -4.82091713 -0.34029144 0.999999940 0.999999940 0.999999940
v 19.64643287 -4.09172297 -1.60440862 0.999999940 0.999999940 0.999999940
v -0.00080013 12.85522270 -4.17491865 0.999999940 0.999999940 0.999999940
v -4.02996969 16.08899688 0.109318584 0.999999940 0.999999940 0.999999940
v -4.40810871 17.72150039 -1.93169498 0.999999940 0.999999940 0.999999940
v -0.00080013 18.13169288 -2.7069726 0.999999940 0.999999940 0.999999940
v -0.00080013 16.09600830 0.076544970 0.999999940 0.999999940 0.999999940
v -4.75228167 19.55110549 -7.06789017 0.999999940 0.999999940 0.999999940
v -0.00080013 19.62938880 -7.72441483 0.999999940 0.999999940 0.999999940
v 4.406508445 17.72150039 -1.93169498 0.999999940 0.999999940 0.999999940
v 4.028369426 16.08899688 0.109318584 0.999999940 0.999999940 0.999999940
v 4.750681400 19.55110549 -7.06789017 0.999999940 0.999999940 0.999999940
v -4.04100752 17.22475242 2.478019237 0.999999940 0.999999940 0.999999940
v -0.00080013 16.09620666 4.586870670 0.999999940 0.999999940 0.999999940
v -5.06551933 22.15319252 2.556040763 0.999999940 0.999999940 0.999999940
v -5.54020357 24.33968162 2.549993991 0.999999940 0.999999940 0.999999940
v -5.50385094 24.88809585 2.307166576 0.999999940 0.999999940 0.999999940
v -5.64167452 25.61007690 -6.3937335 0.999999940 0.999999940 0.999999940
v -0.00080013 25.31255340 -8.11196136 0.999999940 0.999999940 0.999999940
v 5.640074253 25.61007690 -6.3937335 0.999999940 0.999999940 0.999999940
v 5.063919067 22.15319252 2.556040763 0.999999940 0.999999940 0.999999940
v 5.538603305 24.33968162 2.549993991 0.999999940 0.999999940 0.999999940
v 5.502250671 24.88809585 2.307166576 0.999999940 0.999999940 0.999999940
v 4.039407253 17.22475242 2.478019237 0.999999940 0.999999940 0.999999940
v -0.00080013 23.44068527 4.585582256 0.999999940 0.999999940 0.999999940
v -0.00080013 25.18053627 4.159185886 0.999999940 0.999999940 0.999999940
v -0.00080013 25.22190475 7.257689476 0.999999940 0.999999940 0.999999940
v -5.38335228 24.39396667 6.474046230 0.999999940 0.999999940 0.999999940
v -5.38339233 24.95202255 6.469043731 0.999999940 0.999999940 0.999999940
v -4.34228516 29.08106231 0.857773423 0.999999940 0.999999940 0.999999940
v -4.27573156 29.20992851 -3.9101491 0.999999940 0.999999940 0.999999940
v -0.00080013 25.77065658 4.005428314 0.999999940 0.999999940 0.999999940
v -0.00080013 25.79190826 6.738751411 0.999999940 0.999999940 0.999999940
v -0.00080013 29.84557724 2.906471252 0.999999940 0.999999940 0.999999940
v -0.00080013 29.86118125 -4.82882261 0.999999940 0.999999940 0.999999940
v 4.274131298 29.20992851 -3.9101491 0.999999940 0.999999940 0.999999940
v 4.340684890 29.08106231 0.857773423 0.999999940 0.999999940 0.999999940
v 5.381792068 24.95202255 6.469043731 0.999999940 0.999999940 0.999999940
v 5.381752014 24.39396667 6.474046230 0.999999940 0.999999940 0.999999940
v -0.00080013 25.24879264 9.794740676 0.999999940 0.999999940 0.999999940
v -3.05858064 24.94738960 8.868895530 0.999999940 0.999999940 0.999999940
v 3.056980371 24.94738960 8.868895530 0.999999940 0.999999940 0.999999940
v -3.05510974 25.51052093 8.886980056 0.999999940 0.999999940 0.999999940
v -0.00080013 25.81517982 9.817688942 0.999999940 0.999999940 0.999999940
v 3.053509473 25.51052093 8.886980056 0.999999940 0.999999940 0.999999940
vt 0.281923681 0.506823360
vt 0.273287534 0.499126076
vt 0.294761270 0.480563759
vt 0.301348865 0.489816308
vt 0.334929019 0.537776649
vt 0.307858526 0.578028440
vt 0.249986171 0.537440717
vt 0.237166747 0.522191941
vt 0.273286372 0.618933439
vt 0.246053621 0.475957810
vt 0.270953267 0.453471899
vt 0.208629190 0.500864446
vt 0.099186435 0.281026721
vt 0.089385271 0.276440620
vt 0.131459847 0.290017247
vt 0.056483831 0.227345943
vt 0.026807388 0.171819806
vt 0.000488281 0.243166029
vt 0.329309254 0.636374115
vt 0.314309716 0.686558246
vt 0.205254361 0.641559362
vt 0.193105995 0.575118303
vt 0.213085651 0.690732002
vt 0.193478435 0.556905269
vt 0.131089329 0.565235912
vt 0.144534468 0.532208144
vt 0.132900074 0.521457076
vt 0.138143017 0.446422398
vt 0.178736701 0.411180615
vt 0.094997987 0.484611511
vt 0.206748440 0.381216347
vt 0.212550476 0.329502821
vt 0.235645547 0.294234633
vt 0.173650607 0.258054852
vt 0.150066375 0.245351970
vt 0.136467903 0.233914136
vt 0.090027570 0.175376296
vt 0.035555534 0.104077637
vt 0.471204161 0.921500742
vt 0.425340414 0.89014256
vt 0.379443734 0.887416601
vt 0.342570155 0.905091643
vt 0.305175781 0.935792446
vt 0.657429814 0.905091643
vt 0.683258295 0.878047168
vt 0.692141473 0.578028440
vt 0.726713657 0.618933439
vt 0.794745624 0.641559362
vt 0.130271494 0.690917968
vt 0.130292803 0.649921715
vt 0.869707226 0.649921715
vt 0.806894004 0.575118303
vt 0.872910141 0.593281626
vt 0.750013828 0.537440717
vt 0.718076348 0.506823360
vt 0.698651135 0.489816308
vt 0.665071010 0.537776649
vt 0.638183593 0.577265381
vt 0.620556235 0.887416601
vt 0.644199013 0.937575876
vt 0.606731295 0.916328251
vt 0.662252783 0.956175446
vt 0.355800986 0.937575876
vt 0.393268704 0.916328251
vt 0.417030096 0.916069388
vt 0.464954435 0.927840471
vt 0.558858156 0.880409002
vt 0.574659586 0.89014256
vt 0.582969903 0.916069388
vt 0.431375652 0.954559326
vt 0.588987946 0.960449218
vt 0.943516194 0.227345943
vt 0.910614728 0.276440620
vt 0.705238699 0.480563759
vt 0.726712465 0.499126076
vt 0.900813579 0.281026721
vt 0.762833237 0.522191941
vt 0.806521534 0.556905269
vt 0.868910670 0.565235912
vt 0.932887673 0.588329196
vt 0.927200734 0.607067942
vt 0.918516218 0.654691338
vt 0.855465531 0.532208144
vt 0.941163003 0.571937561
vt 0.791370809 0.500864446
vt 0.867099940 0.521457076
vt 0.753946363 0.475957810
vt 0.729046702 0.453471899
vt 0.868540167 0.290017247
vt 0.863532066 0.233914136
vt 0.849933624 0.245351970
vt 0.826349377 0.258054852
vt 0.909972429 0.175376296
vt 0.832293391 0.200034320
vt 0.874945223 0.134100079
vt 0.901493907 0.079465448
vt 0.825497269 0.211903452
vt 0.778050780 0.177642583
vt 0.715281546 0.133009016
vt 0.681095659 0.097357928
vt 0.666156411 0.109899103
vt 0.977436661 0.602412343
vt 0.974981606 0.617096841
vt 0.974717021 0.656587839
vt 0.918228507 0.690917968
vt 0.977122008 0.689379334
vt 0.988558411 0.618283987
vt 0.986257731 0.656222820
vt 0.989317953 0.687353551
vt 0.993730306 0.606524705
vt 0.999511718 0.596460342
vt 0.663847684 0.081058204
vt 0.735282421 0.108022749
vt 0.692279696 0.078635990
vt 0.676841497 0.072012305
vt 0.788379907 0.138721764
vt 0.811905860 0.081393182
vt 0.824622094 0.049097061
vt 0.125054791 0.134100079
vt 0.188094154 0.081393182
vt 0.232968583 0.051703333
vt 0.218979358 0.028446376
vt 0.767031431 0.051703333
vt 0.719714939 0.025885999
vt 0.706591308 0.025170207
vt 0.738408565 0.763102352
vt 0.721575081 0.807014107
vt 0.749827981 0.859241187
vt 0.751480221 0.887877702
vt 0.536758482 0.178241968
vt 0.559868037 0.167596280
vt 0.594077765 0.148142159
vt 0.651339530 0.135604381
vt 0.013742244 0.656222820
vt 0.025282973 0.656587839
vt 0.405922234 0.148142159
vt 0.339649409 0.210599601
vt 0.382928818 0.207400262
vt 0.617071151 0.207400262
vt 0.564043760 0.210383892
vt 0.532222628 0.217555284
vt 0.504575252 0.217677116
vt 0.790952444 0.865168929
vt 0.788941741 0.809910178
vt 0.809427797 0.764113307
vt 0.776028871 0.716480374
vt 0.656763374 0.700970709
vt 0.807509541 0.713275909
vt 0.727557182 0.003411948
vt 0.280285060 0.025885999
vt 0.293408691 0.025170207
vt 0.261591434 0.763102352
vt 0.190572187 0.764113307
vt 0.168979466 0.769642412
vt 0.150637447 0.693847656
vt 0.831020534 0.769642412
vt 0.821295023 0.816177249
vt 0.804257869 0.866347551
vt 0.802294731 0.895019531
vt 0.530766129 0.230124354
vt 0.567715406 0.227143943
vt 0.618898630 0.219873011
vt 0.381101340 0.219873011
vt 0.440131962 0.167596280
vt 0.435956209 0.210383892
vt 0.432284563 0.227143943
vt 0.393318235 0.330171585
vt 0.438225597 0.320546209
vt 0.362115085 0.349619984
vt 0.084081560 0.798138439
vt 0.606681764 0.330171585
vt 0.637884914 0.349619984
vt 0.915918469 0.798138439
vt 0.211058229 0.809910178
vt 0.178704947 0.816177249
vt 0.107409112 0.834338724
vt 0.278424918 0.807014107
vt 0.344806343 0.828921198
vt 0.307720273 0.078635990
vt 0.264717549 0.108022749
vt 0.318904340 0.097357928
vt 0.284718453 0.133009016
vt 0.336152285 0.081058204
vt 0.250172019 0.859241187
vt 0.209047526 0.865168929
vt 0.195742115 0.866347551
vt 0.110528729 0.870740652
vt 0.092753827 0.836834669
vt 0.076665595 0.819200873
vt 0.094532370 0.865286469
vt 0.059660702 0.818469166
vt 0.406054347 0.346227526
vt 0.438663125 0.341119229
vt 0.474963843 0.316773653
vt 0.469233900 0.230124354
vt 0.465512096 0.339280426
vt 0.084068521 0.878757476
vt 0.101887464 0.895019531
vt 0.197705239 0.895019531
vt 0.210480257 0.893661081
vt 0.248519808 0.887877702
vt 0.354980468 0.864247143
vt 0.333843588 0.109899103
vt 0.295156836 0.148402988
vt 0.221949219 0.177642583
vt 0.211620077 0.138721764
vt 0.167706623 0.200034320
vt 0.174502700 0.211903452
vt 0.067112319 0.588329196
vt 0.022563340 0.602412343
vt 0.006269677 0.606524705
vt 0.463241517 0.178241968
vt 0.467777371 0.217555284
vt 0.460900783 0.091621577
vt 0.025018388 0.617096841
vt 0.072799272 0.607067942
vt 0.127089887 0.593281626
vt 0.081483759 0.654691338
vt 0.253180086 0.304827094
vt 0.287176907 0.265158355
vt 0.230126202 0.338324189
vt 0.122829228 0.432520270
vt 0.311103284 0.340288877
vt 0.344257682 0.326551795
vt 0.073556102 0.383114755
vt 0.291711956 0.363589406
vt 0.287803739 0.398925781
vt 0.211192131 0.367728471
vt 0.310135424 0.387338876
vt 0.315655231 0.371249198
vt 0.321625351 0.355245590
vt 0.337845832 0.352731823
vt 0.068031549 0.358690738
vt 0.106008648 0.35739851
vt 0.163173541 0.397397041
vt 0.084194868 0.349337697
vt 0.892590880 0.834338724
vt 0.940339326 0.818469166
vt 0.923334419 0.819200873
vt 0.907246172 0.836834669
vt 0.889471292 0.870740652
vt 0.905467629 0.865286469
vt 0.930576086 0.878939867
vt 0.915931463 0.878757476
vt 0.949756741 0.862923502
vt 0.959472656 0.832738637
vt 0.561774373 0.320546209
vt 0.525036156 0.316773653
vt 0.500488281 0.324420630
vt 0.764354467 0.294234633
vt 0.787449538 0.329502821
vt 0.729593873 0.251662015
vt 0.806598722 0.358079314
vt 0.769873797 0.338324189
vt 0.788807869 0.367728471
vt 0.746819913 0.304827094
vt 0.712823092 0.265158355
vt 0.861856997 0.446422398
vt 0.877170801 0.432520270
vt 0.655742287 0.326551795
vt 0.688896715 0.340288877
vt 0.926443874 0.383114755
vt 0.708288073 0.363589406
vt 0.712196230 0.398925781
vt 0.836826443 0.397397041
vt 0.893991351 0.35739851
vt 0.821263313 0.411180615
vt 0.915805101 0.349337697
vt 0.931968450 0.358690738
vt 0.951914191 0.360197424
vt 0.678374648 0.355245590
vt 0.684344768 0.371249198
vt 0.689864575 0.387338876
vt 0.352073758 0.960449218
vt 0.449773430 0.772562205
vt 0.441483289 0.798469066
vt 0.494628906 0.807562351
vt 0.491744756 0.764420688
vt 0.432651460 0.867036104
vt 0.494628906 0.875488281
vt 0.558516740 0.798469066
vt 0.550226569 0.772562205
vt 0.567348539 0.867036104
vt 0.436332225 0.749383389
vt 0.470998764 0.710928201
vt 0.380744546 0.752329468
vt 0.352050781 0.754478097
vt 0.476441144 0.427889168
vt 0.434339344 0.522843062
vt 0.380290389 0.565567731
vt 0.565660655 0.522843062
vt 0.619255423 0.752329468
vt 0.647949218 0.754478097
vt 0.523558855 0.427889168
vt 0.563667774 0.749383389
vt 0.379574447 0.679913103
vt 0.355498045 0.676269531
vt 0.046853609 0.887207031
vt 0.034392166 0.949923276
vt 0.038811646 0.953814685
vt 0.422319352 0.435518503
vt 0.405592232 0.485298395
vt 0.090996541 0.989746093
vt 0.103027343 0.950258731
vt 0.384612590 0.389979362
vt 0.354980468 0.493135273
vt 0.594407796 0.485298395
vt 0.577680647 0.435518503
vt 0.961188375 0.953814685
vt 0.965607821 0.949923276
vt 0.086748309 0.895960450
vt 0.059887815 0.925742328
vt 0.940112173 0.925742328
vt 0.064858824 0.929407179
vt 0.093093521 0.900543630
vt 0.935141205 0.929407179
vt 0.281923681 0.506823360
vt 0.281923681 0.506823360
vt 0.281923681 0.506823360
vt 0.273287534 0.499126076
vt 0.273287534 0.499126076
vt 0.273287534 0.499126076
vt 0.294761270 0.480563759
vt 0.088415548 0.302184462
vt 0.088415548 0.302184462
vt 0.301348865 0.489816308
vt 0.079403743 0.297363162
vt 0.079403743 0.297363162
vt 0.036080889 0.267173826
vt 0.036080889 0.267173826
vt 0.334929019 0.537776649
vt 0.307858526 0.578028440
vt 0.307858526 0.578028440
vt 0.307858526 0.578028440
vt 0.249986171 0.537440717
vt 0.249986171 0.537440717
vt 0.249986171 0.537440717
vt 0.237166747 0.522191941
vt 0.237166747 0.522191941
vt 0.237166747 0.522191941
vt 0.237166747 0.522191941
vt 0.273286372 0.618933439
vt 0.273286372 0.618933439
vt 0.273286372 0.618933439
vt 0.246053621 0.475957810
vt 0.246053621 0.475957810
vt 0.246053621 0.475957810
vt 0.117499448 0.315485477
vt 0.270953267 0.453471899
vt 0.117499448 0.315485477
vt 0.208629190 0.500864446
vt 0.208629190 0.500864446
vt 0.208629190 0.500864446
vt 0.099186435 0.281026721
vt 0.099186435 0.281026721
vt 0.099186435 0.281026721
vt 0.089385271 0.276440620
vt 0.089385271 0.276440620
vt 0.089385271 0.276440620
vt 0.131459847 0.290017247
vt 0.131459847 0.290017247
vt 0.131459847 0.290017247
vt 0.056483831 0.227345943
vt 0.056483831 0.227345943
vt 0.056483831 0.227345943
vt 0.026807388 0.171819806
vt 0.441141814 0.880409002
vt 0.441141814 0.880409002
vt 0.361816406 0.577265381
vt 0.377808868 0.865722656
vt 0.377808868 0.865722656
vt 0.329309254 0.636374115
vt 0.316741704 0.878047168
vt 0.316741704 0.878047168
vt 0.314309716 0.686558246
vt 0.268066406 0.892559707
vt 0.731933593 0.892559707
vt 0.685690283 0.686558246
vt 0.685690283 0.686558246
vt 0.205254361 0.641559362
vt 0.205254361 0.641559362
vt 0.205254361 0.641559362
vt 0.193105995 0.575118303
vt 0.193105995 0.575118303
vt 0.193105995 0.575118303
vt 0.786914348 0.690732002
vt 0.213085651 0.690732002
vt 0.786914348 0.690732002
vt 0.193478435 0.556905269
vt 0.193478435 0.556905269
vt 0.131089329 0.565235912
vt 0.131089329 0.565235912
vt 0.131089329 0.565235912
vt 0.144534468 0.532208144
vt 0.219895526 0.218574166
vt 0.219895526 0.218574166
vt 0.144534468 0.532208144
vt 0.219895526 0.218574166
vt 0.132900074 0.521457076
vt 0.231712728 0.226456403
vt 0.231712728 0.226456403
vt 0.138143017 0.446422398
vt 0.138143017 0.446422398
vt 0.138143017 0.446422398
vt 0.178736701 0.411180615
vt 0.178736701 0.411180615
vt 0.178736701 0.411180615
vt 0.270406127 0.251662015
vt 0.270406127 0.251662015
vt 0.094997987 0.484611511
vt 0.193401277 0.358079314
vt 0.193401277 0.358079314
vt 0.206748440 0.381216347
vt 0.212550476 0.329502821
vt 0.212550476 0.329502821
vt 0.212550476 0.329502821
vt 0.235645547 0.294234633
vt 0.235645547 0.294234633
vt 0.235645547 0.294234633
vt 0.173650607 0.258054852
vt 0.173650607 0.258054852
vt 0.173650607 0.258054852
vt 0.150066375 0.245351970
vt 0.150066375 0.245351970
vt 0.150066375 0.245351970
vt 0.150066375 0.245351970
vt 0.136467903 0.233914136
vt 0.136467903 0.233914136
vt 0.136467903 0.233914136
vt 0.090027570 0.175376296
vt 0.090027570 0.175376296
vt 0.090027570 0.175376296
vt 0.483886718 0.919671177
vt 0.516113281 0.919671177
vt 0.964444458 0.104077637
vt 0.964444458 0.104077637
vt 0.035555534 0.104077637
vt 0.471204161 0.921500742
vt 0.528795838 0.921500742
vt 0.528795838 0.921500742
vt 0.425340414 0.89014256
vt 0.425340414 0.89014256
vt 0.425340414 0.89014256
vt 0.379443734 0.887416601
vt 0.379443734 0.887416601
vt 0.379443734 0.887416601
vt 0.342570155 0.905091643
vt 0.342570155 0.905091643
vt 0.342570155 0.905091643
vt 0.694824218 0.935792446
vt 0.694824218 0.935792446
vt 0.305175781 0.935792446
vt 0.657429814 0.905091643
vt 0.657429814 0.905091643
vt 0.657429814 0.905091643
vt 0.670690774 0.636374115
vt 0.670690774 0.636374115
vt 0.683258295 0.878047168
vt 0.692141473 0.578028440
vt 0.692141473 0.578028440
vt 0.692141473 0.578028440
vt 0.726713657 0.618933439
vt 0.726713657 0.618933439
vt 0.726713657 0.618933439
vt 0.794745624 0.641559362
vt 0.794745624 0.641559362
vt 0.794745624 0.641559362
vt 0.869728505 0.690917968
vt 0.869728505 0.690917968
vt 0.130271494 0.690917968
vt 0.130292803 0.649921715
vt 0.130292803 0.649921715
vt 0.130292803 0.649921715
vt 0.869707226 0.649921715
vt 0.869707226 0.649921715
vt 0.869707226 0.649921715
vt 0.806894004 0.575118303
vt 0.806894004 0.575118303
vt 0.806894004 0.575118303
vt 0.872910141 0.593281626
vt 0.872910141 0.593281626
vt 0.872910141 0.593281626
vt 0.750013828 0.537440717
vt 0.750013828 0.537440717
vt 0.750013828 0.537440717
vt 0.718076348 0.506823360
vt 0.718076348 0.506823360
vt 0.718076348 0.506823360
vt 0.920596242 0.297363162
vt 0.698651135 0.489816308
vt 0.920596242 0.297363162
vt 0.665071010 0.537776649
vt 0.963919103 0.267173826
vt 0.963919103 0.267173826
vt 0.622191131 0.865722656
vt 0.622191131 0.865722656
vt 0.999511718 0.243166029
vt 0.620556235 0.887416601
vt 0.620556235 0.887416601
vt 0.620556235 0.887416601
vt 0.644199013 0.937575876
vt 0.644199013 0.937575876
vt 0.644199013 0.937575876
vt 0.606731295 0.916328251
vt 0.606731295 0.916328251
vt 0.606731295 0.916328251
vt 0.337747186 0.956175446
vt 0.337747186 0.956175446
vt 0.662252783 0.956175446
vt 0.355800986 0.937575876
vt 0.355800986 0.937575876
vt 0.355800986 0.937575876
vt 0.393268704 0.916328251
vt 0.393268704 0.916328251
vt 0.393268704 0.916328251
vt 0.417030096 0.916069388
vt 0.417030096 0.916069388
vt 0.535045564 0.927840471
vt 0.464954435 0.927840471
vt 0.535045564 0.927840471
vt 0.558858156 0.880409002
vt 0.973192632 0.171819806
vt 0.973192632 0.171819806
vt 0.574659586 0.89014256
vt 0.574659586 0.89014256
vt 0.574659586 0.89014256
vt 0.582969903 0.916069388
vt 0.582969903 0.916069388
vt 0.568624377 0.954559326
vt 0.568624377 0.954559326
vt 0.431375652 0.954559326
vt 0.411012053 0.960449218
vt 0.411012053 0.960449218
vt 0.588987946 0.960449218
vt 0.943516194 0.227345943
vt 0.943516194 0.227345943
vt 0.943516194 0.227345943
vt 0.910614728 0.276440620
vt 0.910614728 0.276440620
vt 0.910614728 0.276440620
vt 0.911584436 0.302184462
vt 0.705238699 0.480563759
vt 0.911584436 0.302184462
vt 0.726712465 0.499126076
vt 0.726712465 0.499126076
vt 0.726712465 0.499126076
vt 0.900813579 0.281026721
vt 0.900813579 0.281026721
vt 0.900813579 0.281026721
vt 0.762833237 0.522191941
vt 0.762833237 0.522191941
vt 0.762833237 0.522191941
vt 0.762833237 0.522191941
vt 0.806521534 0.556905269
vt 0.806521534 0.556905269
vt 0.868910670 0.565235912
vt 0.868910670 0.565235912
vt 0.868910670 0.565235912
vt 0.932887673 0.588329196
vt 0.932887673 0.588329196
vt 0.932887673 0.588329196
vt 0.927200734 0.607067942
vt 0.927200734 0.607067942
vt 0.927200734 0.607067942
vt 0.918516218 0.654691338
vt 0.918516218 0.654691338
vt 0.918516218 0.654691338
vt 0.855465531 0.532208144
vt 0.855465531 0.532208144
vt 0.780104458 0.218574166
vt 0.780104458 0.218574166
vt 0.780104458 0.218574166
vt 0.704843163 0.148402988
vt 0.704843163 0.148402988
vt 0.941163003 0.571937561
vt 0.791370809 0.500864446
vt 0.791370809 0.500864446
vt 0.791370809 0.500864446
vt 0.768287301 0.226456403
vt 0.768287301 0.226456403
vt 0.867099940 0.521457076
vt 0.753946363 0.475957810
vt 0.753946363 0.475957810
vt 0.753946363 0.475957810
vt 0.882500529 0.315485477
vt 0.882500529 0.315485477
vt 0.729046702 0.453471899
vt 0.868540167 0.290017247
vt 0.868540167 0.290017247
vt 0.868540167 0.290017247
vt 0.863532066 0.233914136
vt 0.863532066 0.233914136
vt 0.863532066 0.233914136
vt 0.849933624 0.245351970
vt 0.849933624 0.245351970
vt 0.849933624 0.245351970
vt 0.849933624 0.245351970
vt 0.826349377 0.258054852
vt 0.826349377 0.258054852
vt 0.826349377 0.258054852
vt 0.909972429 0.175376296
vt 0.909972429 0.175376296
vt 0.909972429 0.175376296
vt 0.832293391 0.200034320
vt 0.832293391 0.200034320
vt 0.832293391 0.200034320
vt 0.874945223 0.134100079
vt 0.874945223 0.134100079
vt 0.874945223 0.134100079
vt 0.901493907 0.079465448
vt 0.098506063 0.079465448
vt 0.098506063 0.079465448
vt 0.825497269 0.211903452
vt 0.825497269 0.211903452
vt 0.778050780 0.177642583
vt 0.778050780 0.177642583
vt 0.778050780 0.177642583
vt 0.715281546 0.133009016
vt 0.715281546 0.133009016
vt 0.715281546 0.133009016
vt 0.681095659 0.097357928
vt 0.681095659 0.097357928
vt 0.681095659 0.097357928
vt 0.980015099 0.587329745
vt 0.980015099 0.587329745
vt 0.666156411 0.109899103
vt 0.977436661 0.602412343
vt 0.977436661 0.602412343
vt 0.977436661 0.602412343
vt 0.974981606 0.617096841
vt 0.974981606 0.617096841
vt 0.974981606 0.617096841
vt 0.974717021 0.656587839
vt 0.974717021 0.656587839
vt 0.974717021 0.656587839
vt 0.918228507 0.690917968
vt 0.081771500 0.690917968
vt 0.081771500 0.690917968
vt 0.977122008 0.689379334
vt 0.02287798 0.689379334
vt 0.02287798 0.689379334
vt 0.988558411 0.618283987
vt 0.539099216 0.091621577
vt 0.539099216 0.091621577
vt 0.986257731 0.656222820
vt 0.599740564 0.077692329
vt 0.599740564 0.077692329
vt 0.647434949 0.065917968
vt 0.010682055 0.687353551
vt 0.352565050 0.065917968
vt 0.993730306 0.606524705
vt 0.518525123 0.085734844
vt 0.518525123 0.085734844
vt 0.654785156 0.085709571
vt 0.645019531 0.864247143
vt 0.500488281 0.081964492
vt 0.663847684 0.081058204
vt 0.648287892 0.850398898
vt 0.648287892 0.850398898
vt 0.735282421 0.108022749
vt 0.735282421 0.108022749
vt 0.735282421 0.108022749
vt 0.692279696 0.078635990
vt 0.692279696 0.078635990
vt 0.692279696 0.078635990
vt 0.676841497 0.072012305
vt 0.655193686 0.828921198
vt 0.655193686 0.828921198
vt 0.788379907 0.138721764
vt 0.788379907 0.138721764
vt 0.788379907 0.138721764
vt 0.811905860 0.081393182
vt 0.811905860 0.081393182
vt 0.811905860 0.081393182
vt 0.175377890 0.049097061
vt 0.175377890 0.049097061
vt 0.824622094 0.049097061
vt 0.125054791 0.134100079
vt 0.125054791 0.134100079
vt 0.125054791 0.134100079
vt 0.188094154 0.081393182
vt 0.188094154 0.081393182
vt 0.188094154 0.081393182
vt 0.232968583 0.051703333
vt 0.232968583 0.051703333
vt 0.232968583 0.051703333
vt 0.781020641 0.028446376
vt 0.781020641 0.028446376
vt 0.218979358 0.028446376
vt 0.767031431 0.051703333
vt 0.767031431 0.051703333
vt 0.767031431 0.051703333
vt 0.719714939 0.025885999
vt 0.719714939 0.025885999
vt 0.719714939 0.025885999
vt 0.656448841 0.741898238
vt 0.656448841 0.741898238
vt 0.706591308 0.025170207
vt 0.738408565 0.763102352
vt 0.738408565 0.763102352
vt 0.738408565 0.763102352
vt 0.721575081 0.807014107
vt 0.721575081 0.807014107
vt 0.721575081 0.807014107
vt 0.749827981 0.859241187
vt 0.749827981 0.859241187
vt 0.749827981 0.859241187
vt 0.505061268 0.181722879
vt 0.505061268 0.181722879
vt 0.751480221 0.887877702
vt 0.536758482 0.178241968
vt 0.536758482 0.178241968
vt 0.536758482 0.178241968
vt 0.559868037 0.167596280
vt 0.559868037 0.167596280
vt 0.559868037 0.167596280
vt 0.594077765 0.148142159
vt 0.594077765 0.148142159
vt 0.594077765 0.148142159
vt 0.348660439 0.135604381
vt 0.348660439 0.135604381
vt 0.651339530 0.135604381
vt 0.400259435 0.077692329
vt 0.013742244 0.656222820
vt 0.400259435 0.077692329
vt 0.025282973 0.656587839
vt 0.025282973 0.656587839
vt 0.025282973 0.656587839
vt 0.405922234 0.148142159
vt 0.405922234 0.148142159
vt 0.405922234 0.148142159
vt 0.660350561 0.210599601
vt 0.660350561 0.210599601
vt 0.339649409 0.210599601
vt 0.382928818 0.207400262
vt 0.382928818 0.207400262
vt 0.382928818 0.207400262
vt 0.617071151 0.207400262
vt 0.617071151 0.207400262
vt 0.617071151 0.207400262
vt 0.564043760 0.210383892
vt 0.564043760 0.210383892
vt 0.564043760 0.210383892
vt 0.532222628 0.217555284
vt 0.532222628 0.217555284
vt 0.532222628 0.217555284
vt 0.789519727 0.893661081
vt 0.789519727 0.893661081
vt 0.504575252 0.217677116
vt 0.790952444 0.865168929
vt 0.790952444 0.865168929
vt 0.790952444 0.865168929
vt 0.788941741 0.809910178
vt 0.788941741 0.809910178
vt 0.788941741 0.809910178
vt 0.809427797 0.764113307
vt 0.809427797 0.764113307
vt 0.809427797 0.764113307
vt 0.776028871 0.716480374
vt 0.223971143 0.716480374
vt 0.223971143 0.716480374
vt 0.715692520 0.000488281
vt 0.284307479 0.000488281
vt 0.343236625 0.700970709
vt 0.192490428 0.713275909
vt 0.192490428 0.713275909
vt 0.807509541 0.713275909
vt 0.727557182 0.003411948
vt 0.272442787 0.003411948
vt 0.272442787 0.003411948
vt 0.280285060 0.025885999
vt 0.280285060 0.025885999
vt 0.280285060 0.025885999
vt 0.343551158 0.741898238
vt 0.343551158 0.741898238
vt 0.293408691 0.025170207
vt 0.261591434 0.763102352
vt 0.261591434 0.763102352
vt 0.261591434 0.763102352
vt 0.190572187 0.764113307
vt 0.190572187 0.764113307
vt 0.190572187 0.764113307
vt 0.168979466 0.769642412
vt 0.168979466 0.769642412
vt 0.168979466 0.769642412
vt 0.849362552 0.693847656
vt 0.662597656 0.223001003
vt 0.337402343 0.223001003
vt 0.337402343 0.223001003
vt 0.150637447 0.693847656
vt 0.662597656 0.223001003
vt 0.849362552 0.693847656
vt 0.831020534 0.769642412
vt 0.831020534 0.769642412
vt 0.831020534 0.769642412
vt 0.821295023 0.816177249
vt 0.821295023 0.816177249
vt 0.821295023 0.816177249
vt 0.804257869 0.866347551
vt 0.804257869 0.866347551
vt 0.804257869 0.866347551
vt 0.504714131 0.229998230
vt 0.802294731 0.895019531
vt 0.504714131 0.229998230
vt 0.530766129 0.230124354
vt 0.530766129 0.230124354
vt 0.530766129 0.230124354
vt 0.567715406 0.227143943
vt 0.567715406 0.227143943
vt 0.567715406 0.227143943
vt 0.618898630 0.219873011
vt 0.618898630 0.219873011
vt 0.618898630 0.219873011
vt 0.381101340 0.219873011
vt 0.381101340 0.219873011
vt 0.381101340 0.219873011
vt 0.440131962 0.167596280
vt 0.440131962 0.167596280
vt 0.440131962 0.167596280
vt 0.435956209 0.210383892
vt 0.435956209 0.210383892
vt 0.435956209 0.210383892
vt 0.432284563 0.227143943
vt 0.432284563 0.227143943
vt 0.432284563 0.227143943
vt 0.393318235 0.330171585
vt 0.393318235 0.330171585
vt 0.393318235 0.330171585
vt 0.438225597 0.320546209
vt 0.438225597 0.320546209
vt 0.438225597 0.320546209
vt 0.061406575 0.782711744
vt 0.061406575 0.782711744
vt 0.362115085 0.349619984
vt 0.084081560 0.798138439
vt 0.084081560 0.798138439
vt 0.084081560 0.798138439
vt 0.606681764 0.330171585
vt 0.606681764 0.330171585
vt 0.606681764 0.330171585
vt 0.938593447 0.782711744
vt 0.938593447 0.782711744
vt 0.637884914 0.349619984
vt 0.915918469 0.798138439
vt 0.915918469 0.798138439
vt 0.915918469 0.798138439
vt 0.211058229 0.809910178
vt 0.211058229 0.809910178
vt 0.211058229 0.809910178
vt 0.178704947 0.816177249
vt 0.178704947 0.816177249
vt 0.178704947 0.816177249
vt 0.107409112 0.834338724
vt 0.107409112 0.834338724
vt 0.107409112 0.834338724
vt 0.278424918 0.807014107
vt 0.278424918 0.807014107
vt 0.278424918 0.807014107
vt 0.323158502 0.072012305
vt 0.323158502 0.072012305
vt 0.344806343 0.828921198
vt 0.307720273 0.078635990
vt 0.307720273 0.078635990
vt 0.307720273 0.078635990
vt 0.264717549 0.108022749
vt 0.264717549 0.108022749
vt 0.264717549 0.108022749
vt 0.318904340 0.097357928
vt 0.318904340 0.097357928
vt 0.318904340 0.097357928
vt 0.284718453 0.133009016
vt 0.284718453 0.133009016
vt 0.284718453 0.133009016
vt 0.351712137 0.850398898
vt 0.351712137 0.850398898
vt 0.336152285 0.081058204
vt 0.250172019 0.859241187
vt 0.250172019 0.859241187
vt 0.250172019 0.859241187
vt 0.209047526 0.865168929
vt 0.209047526 0.865168929
vt 0.209047526 0.865168929
vt 0.195742115 0.866347551
vt 0.195742115 0.866347551
vt 0.195742115 0.866347551
vt 0.110528729 0.870740652
vt 0.110528729 0.870740652
vt 0.110528729 0.870740652
vt 0.092753827 0.836834669
vt 0.092753827 0.836834669
vt 0.092753827 0.836834669
vt 0.076665595 0.819200873
vt 0.076665595 0.819200873
vt 0.076665595 0.819200873
vt 0.094532370 0.865286469
vt 0.094532370 0.865286469
vt 0.393958985 0.368652343
vt 0.059660702 0.818469166
vt 0.406054347 0.346227526
vt 0.040527343 0.832738637
vt 0.438663125 0.341119229
vt 0.050243228 0.862923502
vt 0.050243228 0.862923502
vt 0.474963843 0.316773653
vt 0.474963843 0.316773653
vt 0.474963843 0.316773653
vt 0.469233900 0.230124354
vt 0.469233900 0.230124354
vt 0.469233900 0.230124354
vt 0.069423928 0.878939867
vt 0.069423928 0.878939867
vt 0.465512096 0.339280426
vt 0.084068521 0.878757476
vt 0.481925636 0.343504905
vt 0.101887464 0.895019531
vt 0.499511718 0.324420630
vt 0.499511718 0.324420630
vt 0.197705239 0.895019531
vt 0.495285868 0.229998230
vt 0.495285868 0.229998230
vt 0.210480257 0.893661081
vt 0.495424747 0.217677116
vt 0.495424747 0.217677116
vt 0.248519808 0.887877702
vt 0.494938731 0.181722879
vt 0.494938731 0.181722879
vt 0.345214843 0.085709571
vt 0.000488281 0.596460342
vt 0.499511718 0.081964492
vt 0.333843588 0.109899103
vt 0.019984915 0.587329745
vt 0.019984915 0.587329745
vt 0.295156836 0.148402988
vt 0.058837007 0.571937561
vt 0.058837007 0.571937561
vt 0.221949219 0.177642583
vt 0.221949219 0.177642583
vt 0.221949219 0.177642583
vt 0.211620077 0.138721764
vt 0.211620077 0.138721764
vt 0.211620077 0.138721764
vt 0.167706623 0.200034320
vt 0.167706623 0.200034320
vt 0.167706623 0.200034320
vt 0.174502700 0.211903452
vt 0.174502700 0.211903452
vt 0.067112319 0.588329196
vt 0.067112319 0.588329196
vt 0.067112319 0.588329196
vt 0.022563340 0.602412343
vt 0.022563340 0.602412343
vt 0.022563340 0.602412343
vt 0.481474906 0.085734844
vt 0.481474906 0.085734844
vt 0.006269677 0.606524705
vt 0.463241517 0.178241968
vt 0.463241517 0.178241968
vt 0.463241517 0.178241968
vt 0.467777371 0.217555284
vt 0.467777371 0.217555284
vt 0.467777371 0.217555284
vt 0.011441613 0.618283987
vt 0.011441613 0.618283987
vt 0.460900783 0.091621577
vt 0.025018388 0.617096841
vt 0.025018388 0.617096841
vt 0.025018388 0.617096841
vt 0.072799272 0.607067942
vt 0.072799272 0.607067942
vt 0.072799272 0.607067942
vt 0.127089887 0.593281626
vt 0.127089887 0.593281626
vt 0.127089887 0.593281626
vt 0.081483759 0.654691338
vt 0.081483759 0.654691338
vt 0.081483759 0.654691338
vt 0.253180086 0.304827094
vt 0.253180086 0.304827094
vt 0.253180086 0.304827094
vt 0.078704588 0.467159867
vt 0.287176907 0.265158355
vt 0.078704588 0.467159867
vt 0.230126202 0.338324189
vt 0.230126202 0.338324189
vt 0.230126202 0.338324189
vt 0.122829228 0.432520270
vt 0.122829228 0.432520270
vt 0.122829228 0.432520270
vt 0.311103284 0.340288877
vt 0.311103284 0.340288877
vt 0.311103284 0.340288877
vt 0.031092349 0.386117219
vt 0.344257682 0.326551795
vt 0.031092349 0.386117219
vt 0.073556102 0.383114755
vt 0.073556102 0.383114755
vt 0.073556102 0.383114755
vt 0.291711956 0.363589406
vt 0.291711956 0.363589406
vt 0.291711956 0.363589406
vt 0.287803739 0.398925781
vt 0.111803367 0.320800781
vt 0.111803367 0.320800781
vt 0.211192131 0.367728471
vt 0.189761966 0.366747021
vt 0.189761966 0.366747021
vt 0.085701458 0.329985737
vt 0.085701458 0.329985737
vt 0.315655231 0.371249198
vt 0.068563945 0.327894747
vt 0.315655231 0.371249198
vt 0.321625351 0.355245590
vt 0.321625351 0.355245590
vt 0.048085790 0.360197424
vt 0.337845832 0.352731823
vt 0.068031549 0.358690738
vt 0.068031549 0.358690738
vt 0.345214843 0.369864165
vt 0.106008648 0.35739851
vt 0.106008648 0.35739851
vt 0.106008648 0.35739851
vt 0.163173541 0.397397041
vt 0.163173541 0.397397041
vt 0.163173541 0.397397041
vt 0.084194868 0.349337697
vt 0.084194868 0.349337697
vt 0.892590880 0.834338724
vt 0.892590880 0.834338724
vt 0.892590880 0.834338724
vt 0.940339326 0.818469166
vt 0.606041014 0.368652343
vt 0.923334419 0.819200873
vt 0.923334419 0.819200873
vt 0.923334419 0.819200873
vt 0.907246172 0.836834669
vt 0.907246172 0.836834669
vt 0.907246172 0.836834669
vt 0.889471292 0.870740652
vt 0.889471292 0.870740652
vt 0.889471292 0.870740652
vt 0.905467629 0.865286469
vt 0.905467629 0.865286469
vt 0.930576086 0.878939867
vt 0.534487903 0.339280426
vt 0.534487903 0.339280426
vt 0.518074393 0.343504905
vt 0.915931463 0.878757476
vt 0.949756741 0.862923502
vt 0.561336875 0.341119229
vt 0.561336875 0.341119229
vt 0.593945622 0.346227526
vt 0.593945622 0.346227526
vt 0.561774373 0.320546209
vt 0.561774373 0.320546209
vt 0.561774373 0.320546209
vt 0.525036156 0.316773653
vt 0.525036156 0.316773653
vt 0.525036156 0.316773653
vt 0.898112535 0.895019531
vt 0.898112535 0.895019531
vt 0.500488281 0.324420630
vt 0.764354467 0.294234633
vt 0.764354467 0.294234633
vt 0.764354467 0.294234633
vt 0.787449538 0.329502821
vt 0.787449538 0.329502821
vt 0.787449538 0.329502821
vt 0.729593873 0.251662015
vt 0.905001997 0.484611511
vt 0.905001997 0.484611511
vt 0.806598722 0.358079314
vt 0.793251574 0.381216347
vt 0.793251574 0.381216347
vt 0.769873797 0.338324189
vt 0.769873797 0.338324189
vt 0.769873797 0.338324189
vt 0.788807869 0.367728471
vt 0.810238003 0.366747021
vt 0.810238003 0.366747021
vt 0.746819913 0.304827094
vt 0.746819913 0.304827094
vt 0.746819913 0.304827094
vt 0.921295404 0.467159867
vt 0.712823092 0.265158355
vt 0.921295404 0.467159867
vt 0.861856997 0.446422398
vt 0.861856997 0.446422398
vt 0.861856997 0.446422398
vt 0.877170801 0.432520270
vt 0.877170801 0.432520270
vt 0.877170801 0.432520270
vt 0.968907654 0.386117219
vt 0.968907654 0.386117219
vt 0.655742287 0.326551795
vt 0.688896715 0.340288877
vt 0.688896715 0.340288877
vt 0.688896715 0.340288877
vt 0.926443874 0.383114755
vt 0.926443874 0.383114755
vt 0.926443874 0.383114755
vt 0.708288073 0.363589406
vt 0.708288073 0.363589406
vt 0.708288073 0.363589406
vt 0.888196647 0.320800781
vt 0.712196230 0.398925781
vt 0.888196647 0.320800781
vt 0.836826443 0.397397041
vt 0.836826443 0.397397041
vt 0.836826443 0.397397041
vt 0.893991351 0.35739851
vt 0.893991351 0.35739851
vt 0.893991351 0.35739851
vt 0.821263313 0.411180615
vt 0.821263313 0.411180615
vt 0.821263313 0.411180615
vt 0.915805101 0.349337697
vt 0.915805101 0.349337697
vt 0.931968450 0.358690738
vt 0.931968450 0.358690738
vt 0.654785156 0.369864165
vt 0.662154197 0.352731823
vt 0.662154197 0.352731823
vt 0.678374648 0.355245590
vt 0.678374648 0.355245590
vt 0.684344768 0.371249198
vt 0.931436061 0.327894747
vt 0.684344768 0.371249198
vt 0.914298534 0.329985737
vt 0.914298534 0.329985737
vt 0.647926211 0.960449218
vt 0.449773430 0.772562205
vt 0.449773430 0.772562205
vt 0.441483289 0.798469066
vt 0.441483289 0.798469066
vt 0.441483289 0.798469066
vt 0.494628906 0.807562351
vt 0.505371093 0.807562351
vt 0.505371093 0.807562351
vt 0.508255243 0.764420688
vt 0.491744756 0.764420688
vt 0.508255243 0.764420688
vt 0.432651460 0.867036104
vt 0.484863281 0.578652739
vt 0.484863281 0.578652739
vt 0.505371093 0.875488281
vt 0.436096429 0.621582031
vt 0.563903570 0.621582031
vt 0.558516740 0.798469066
vt 0.558516740 0.798469066
vt 0.558516740 0.798469066
vt 0.550226569 0.772562205
vt 0.550226569 0.772562205
vt 0.515136718 0.578652739
vt 0.567348539 0.867036104
vt 0.515136718 0.578652739
vt 0.436332225 0.749383389
vt 0.436332225 0.749383389
vt 0.529001236 0.710928201
vt 0.470998764 0.710928201
vt 0.529001236 0.710928201
vt 0.380744546 0.752329468
vt 0.380744546 0.752329468
vt 0.380744546 0.752329468
vt 0.484863281 0.428228735
vt 0.352050781 0.754478097
vt 0.000488281 0.982296228
vt 0.000488281 0.982296228
vt 0.003368445 0.989746093
vt 0.476441144 0.427889168
vt 0.003368445 0.989746093
vt 0.476441144 0.427889168
vt 0.434339344 0.522843062
vt 0.434339344 0.522843062
vt 0.434339344 0.522843062
vt 0.619709610 0.565567731
vt 0.380290389 0.565567731
vt 0.619709610 0.565567731
vt 0.565660655 0.522843062
vt 0.565660655 0.522843062
vt 0.565660655 0.522843062
vt 0.619255423 0.752329468
vt 0.619255423 0.752329468
vt 0.619255423 0.752329468
vt 0.515136718 0.428228735
vt 0.999511718 0.982296228
vt 0.647949218 0.754478097
vt 0.999511718 0.982296228
vt 0.523558855 0.427889168
vt 0.996631562 0.989746093
vt 0.996631562 0.989746093
vt 0.523558855 0.427889168
vt 0.563667774 0.749383389
vt 0.563667774 0.749383389
vt 0.620425581 0.679913103
vt 0.379574447 0.679913103
vt 0.620425581 0.679913103
vt 0.003579248 0.898066699
vt 0.644501924 0.676269531
vt 0.996420741 0.898066699
vt 0.953146398 0.887207031
vt 0.046853609 0.887207031
vt 0.953146398 0.887207031
vt 0.034392166 0.949923276
vt 0.034392166 0.949923276
vt 0.034392166 0.949923276
vt 0.038811646 0.953814685
vt 0.038811646 0.953814685
vt 0.038811646 0.953814685
vt 0.422319352 0.435518503
vt 0.422319352 0.435518503
vt 0.405592232 0.485298395
vt 0.405592232 0.485298395
vt 0.434030085 0.362792968
vt 0.909003436 0.989746093
vt 0.565969944 0.362792968
vt 0.896972656 0.950258731
vt 0.103027343 0.950258731
vt 0.896972656 0.950258731
vt 0.615387439 0.389979362
vt 0.384612590 0.389979362
vt 0.615387439 0.389979362
vt 0.645019531 0.493135273
vt 0.354980468 0.493135273
vt 0.645019531 0.493135273
vt 0.594407796 0.485298395
vt 0.594407796 0.485298395
vt 0.577680647 0.435518503
vt 0.577680647 0.435518503
vt 0.961188375 0.953814685
vt 0.961188375 0.953814685
vt 0.961188375 0.953814685
vt 0.965607821 0.949923276
vt 0.965607821 0.949923276
vt 0.965607821 0.949923276
vt 0.913251698 0.895960450
vt 0.913251698 0.895960450
vt 0.086748309 0.895960450
vt 0.059887815 0.925742328
vt 0.059887815 0.925742328
vt 0.940112173 0.925742328
vt 0.940112173 0.925742328
vt 0.064858824 0.929407179
vt 0.064858824 0.929407179
vt 0.906906485 0.900543630
vt 0.906906485 0.900543630
vt 0.093093521 0.900543630
vt 0.935141205 0.929407179
vt 0.935141205 0.929407179
s 1
f 1/1 2/2 3/3 4/4
f 5/5 6/6 1/317 4/326
f 1/318 7/7 8/8 2/320
f 6/332 9/9 7/335 1/319
f 3/323 2/321 10/10 11/11
f 2/322 8/338 12/12 10/345
f 4/327 3/324 13/13 14/14
f 13/354 3/325 11/348 15/15
f 16/16 5/329 4/328 14/357
f 5/330 16/363 17/17 18/18
f 6/333 5/331 18/369 19/19
f 9/342 6/334 19/372 20/20
f 9/343 21/21 22/22 7/336
f 21/380 9/344 20/375 23/23
f 7/337 22/383 24/24 8/339
f 8/340 24/389 25/25 26/26
f 8/341 26/394 27/27 12/351
f 28/28 29/29 10/346 12/352
f 30/30 28/402 12/353 27/399
f 29/405 31/31 11/349 10/347
f 31/411 32/32 15/360 11/350
f 32/414 33/33 34/34 15/361
f 35/35 13/355 15/362 34/420
f 13/356 35/423 36/36 14/358
f 37/37 16/364 14/359 36/427
f 37/430 38/38 17/366 16/365
f 39/39 40/40 17/367 38/433
f 17/368 40/441 41/41 18/370
f 41/444 42/42 19/373 18/371
f 42/447 43/43 20/376 19/374
f 43/450 44/44 45/45 20/377
f 20/378 45/456 46/46 47/47
f 20/379 47/462 48/48 23/386
f 49/49 50/50 21/381 23/387
f 49/468 23/388 48/465 51/51
f 52/52 53/53 51/474 48/466
f 54/54 52/477 48/467 47/463
f 55/55 54/483 47/464 46/459
f 56/56 55/486 46/460 57/57
f 45/457 58/58 57/492 46/461
f 58/495 45/458 44/453 59/59
f 59/498 44/454 60/60 61/61
f 62/62 60/501 44/455 43/451
f 63/63 62/507 43/452 42/448
f 64/64 63/510 42/449 41/445
f 40/442 65/65 64/513 41/446
f 66/66 65/516 40/443 39/438
f 67/67 68/68 39/439 38/434
f 68/524 69/69 66/518 39/440
f 70/70 64/514 65/517 66/519
f 69/527 61/504 70/529 66/520
f 59/499 61/505 69/528 68/525
f 61/506 60/502 71/71 70/530
f 58/496 59/500 68/526 67/521
f 58/497 67/522 72/72 57/493
f 73/73 56/489 57/494 72/535
f 56/490 74/74 75/75 55/487
f 73/538 76/76 74/541 56/491
f 75/544 77/77 54/484 55/488
f 77/550 78/78 52/478 54/485
f 78/554 79/79 53/480 52/479
f 79/556 80/80 81/81 53/481
f 53/482 81/562 82/82 51/475
f 83/83 79/557 78/555 77/551
f 83/568 84/84 80/559 79/558
f 85/85 86/86 83/569 77/552
f 87/87 85/576 77/553 75/545
f 88/88 87/582 75/546 74/542
f 89/89 88/585 74/543 76/547
f 73/539 90/90 91/91 76/548
f 92/92 89/588 76/549 91/594
f 90/591 73/540 72/536 93/93
f 72/537 67/523 38/435 93/601
f 94/94 90/592 93/602 95/95
f 38/436 96/96 95/607 93/603
f 90/593 94/604 97/97 91/595
f 91/596 97/613 98/98 83/570
f 86/579 92/598 91/597 83/571
f 83/572 98/615 99/99 84/573
f 84/574 99/618 100/100 101/101
f 84/575 101/624 102/102 80/560
f 80/561 102/627 103/103 81/563
f 81/564 103/630 104/104 82/565
f 105/105 49/469 51/476 82/566
f 106/106 105/636 82/567 104/633
f 107/107 108/108 104/634 103/631
f 108/645 109/109 106/639 104/635
f 110/110 107/642 103/632 102/628
f 111/111 110/651 102/629 101/625
f 112/112 111/654 101/626 100/621
f 99/619 113/113 114/114 100/622
f 115/115 112/657 100/623 114/663
f 99/620 98/616 116/116 113/660
f 98/617 97/614 94/605 116/669
f 116/670 94/606 95/608 117/117
f 96/610 118/118 117/672 95/609
f 96/611 119/119 120/120 118/675
f 38/437 37/431 119/678 96/612
f 118/676 120/681 121/121 122/122
f 118/677 122/687 123/123 117/673
f 113/661 116/671 117/674 123/690
f 114/664 113/662 123/691 124/124
f 125/125 115/666 114/665 124/693
f 126/126 127/127 115/667 125/696
f 127/702 128/128 112/658 115/668
f 128/705 129/129 111/655 112/659
f 129/708 130/130 110/652 111/656
f 110/653 130/711 131/131 107/643
f 107/644 131/714 132/132 108/646
f 108/647 132/717 133/133 109/648
f 109/649 134/134 135/135 106/640
f 133/720 136/136 134/723 109/650
f 137/137 138/138 136/729 133/721
f 139/139 137/732 133/722 132/718
f 140/140 139/738 132/719 131/715
f 141/141 140/741 131/716 130/712
f 129/709 142/142 141/744 130/713
f 128/706 143/143 142/747 129/710
f 127/703 144/144 143/750 128/707
f 145/145 144/753 127/704 126/699
f 146/146 126/700 125/697 147/147
f 148/148 145/756 126/701 146/759
f 147/762 125/698 124/694 149/149
f 122/688 149/768 124/695 123/692
f 122/689 121/684 150/150 149/769
f 150/771 151/151 147/763 149/770
f 151/774 152/152 146/760 147/764
f 152/777 153/153 148/765 146/761
f 153/780 154/154 155/155 148/766
f 155/786 156/156 145/757 148/767
f 145/758 156/793 157/157 144/754
f 144/755 157/796 158/158 143/751
f 158/799 159/159 142/748 143/752
f 159/802 160/160 141/745 142/749
f 160/805 161/161 140/742 141/746
f 140/743 161/808 162/162 139/739
f 162/811 155/787 137/733 139/740
f 155/788 163/163 138/735 137/734
f 164/164 136/730 138/736 165/165
f 138/737 163/814 166/166 165/820
f 167/167 168/168 166/823 163/815
f 169/169 167/826 163/816 155/789
f 170/170 169/832 155/790 154/783
f 155/791 162/812 171/171 172/172
f 156/794 155/792 172/841 173/173
f 174/174 175/175 154/784 153/781
f 176/176 170/835 154/785 175/850
f 152/778 177/177 174/847 153/782
f 151/775 178/178 177/856 152/779
f 150/772 179/179 178/859 151/776
f 150/773 121/685 180/180 179/862
f 181/181 179/863 180/865 182/182
f 179/864 181/868 183/183 178/860
f 178/861 183/874 184/184 177/857
f 184/877 185/185 174/848 177/858
f 185/880 186/186 175/851 174/849
f 187/187 176/853 175/852 186/883
f 176/854 188/188 189/189 170/836
f 187/886 190/190 188/889 176/855
f 170/837 189/892 191/191 169/833
f 169/834 191/897 192/192 167/827
f 167/828 192/899 193/193 168/829
f 168/830 194/194 195/195 166/824
f 193/901 196/196 194/904 168/831
f 191/898 189/893 193/902 192/900
f 193/903 189/894 188/890 196/910
f 197/197 196/911 188/891 190/895
f 198/198 197/913 190/896 187/887
f 198/915 187/888 186/884 199/199
f 185/881 200/200 199/918 186/885
f 201/201 200/921 185/882 184/878
f 183/875 202/202 201/924 184/879
f 181/869 203/203 202/927 183/876
f 203/930 181/870 182/871 204/204
f 204/933 182/872 205/205 26/395
f 180/866 206/206 205/936 182/873
f 121/686 120/682 206/939 180/867
f 206/940 207/207 208/208 205/937
f 120/683 119/679 207/942 206/941
f 26/396 205/938 208/945 35/424
f 25/391 209/209 204/934 26/397
f 26/398 35/425 34/421 27/400
f 209/947 210/210 203/931 204/935
f 203/932 210/950 211/211 202/928
f 202/929 211/953 212/212 201/925
f 212/956 213/213 200/922 201/926
f 200/923 213/959 195/907 199/919
f 213/960 165/821 166/825 195/908
f 194/905 198/916 199/920 195/909
f 194/906 196/912 197/914 198/917
f 212/957 164/817 165/822 213/961
f 214/214 164/818 212/958 211/954
f 210/951 215/215 214/962 211/955
f 216/216 215/965 210/952 209/948
f 217/217 216/968 209/949 25/392
f 22/384 217/971 25/393 24/390
f 21/382 50/471 217/972 22/385
f 50/472 218/218 216/969 217/973
f 218/974 135/726 215/966 216/970
f 215/967 135/727 134/724 214/963
f 134/725 136/731 164/819 214/964
f 106/641 135/728 218/975 105/637
f 105/638 218/976 50/473 49/470
f 33/417 30/408 27/401 34/422
f 30/409 33/418 219/219 220/220
f 33/419 32/415 221/221 219/977
f 28/403 30/410 220/980 222/222
f 223/223 224/224 220/981 219/978
f 224/992 225/225 222/986 220/982
f 226/226 223/989 219/979 221/983
f 227/227 226/998 221/984 228/228
f 32/416 31/412 228/1004 221/985
f 227/1001 229/229 230/230 226/999
f 226/1000 230/1009 231/231 223/990
f 223/991 231/1012 232/232 224/993
f 225/995 224/994 232/1014 233/233
f 225/996 234/234 235/235 222/987
f 234/1019 225/997 233/1016 236/236
f 29/406 28/404 222/988 235/1022
f 234/1020 227/1002 228/1005 235/1023
f 31/413 29/407 235/1024 228/1006
f 227/1003 234/1021 236/1025 229/1007
f 236/1026 233/1017 230/1010 229/1008
f 232/1015 231/1013 230/1011 233/1018
f 35/426 208/946 207/943 36/428
f 119/680 37/432 36/429 207/944
f 157/797 156/795 173/844 237/237
f 172/842 238/238 239/239 173/845
f 173/846 239/1032 240/240 237/1027
f 158/800 157/798 237/1028 241/241
f 237/1029 240/1035 242/242 241/1038
f 242/1041 240/1036 243/243 244/244
f 243/1043 240/1037 239/1033 245/245
f 246/246 245/1048 239/1034 238/1030
f 171/838 246/1051 238/1031 172/843
f 247/247 245/1049 246/1052 171/839
f 247/1053 248/248 243/1044 245/1050
f 249/249 244/1046 243/1045 248/1056
f 241/1039 242/1042 244/1047 249/1059
f 159/803 158/801 241/1040 249/1060
f 160/806 159/804 249/1061 248/1057
f 161/809 160/807 248/1058 247/1054
f 162/813 161/810 247/1055 171/840
f 89/589 92/599 250/250 251/251
f 92/600 86/580 252/252 250/1062
f 88/586 89/590 251/1065 253/253
f 254/254 255/255 253/1071 251/1066
f 256/256 254/1074 251/1067 250/1063
f 257/257 256/1080 250/1064 252/1068
f 86/581 85/577 258/258 252/1069
f 259/259 257/1083 252/1070 258/1086
f 256/1081 257/1084 260/260 261/261
f 257/1085 259/1089 262/262 260/1092
f 254/1075 256/1082 261/1095 263/263
f 255/1077 254/1076 263/1101 264/264
f 265/265 255/1078 264/1104 266/266
f 255/1079 265/1107 267/267 253/1072
f 87/583 88/587 253/1073 267/1113
f 85/578 87/584 267/1114 258/1087
f 265/1108 259/1090 258/1088 267/1115
f 259/1091 265/1109 266/1110 262/1098
f 268/268 269/269 262/1099 266/1111
f 269/1118 270/270 260/1093 262/1100
f 260/1094 270/1121 271/271 261/1096
f 261/1097 271/1123 272/272 263/1102
f 263/1103 272/1125 273/273 264/1105
f 273/1128 268/1116 266/1112 264/1106
f 273/1129 272/1126 269/1119 268/1117
f 269/1120 272/1127 271/1124 270/1122
f 71/532 63/511 64/515 70/531
f 274/274 62/508 63/512 71/533
f 274/1130 71/534 60/503 62/509
f 275/275 276/276 277/277 278/278
f 277/1136 276/1133 279/279 280/280
f 277/1137 281/281 282/282 278/1139
f 281/1148 277/1138 280/1145 283/283
f 284/284 275/1131 278/1140 285/285
f 286/286 276/1134 275/1132 284/1156
f 287/287 279/1142 276/1135 286/1161
f 287/1164 288/288 289/289 279/1143
f 280/1146 279/1144 289/1172 290/290
f 283/1153 280/1147 290/1175 291/291
f 292/292 281/1149 283/1154 293/293
f 283/1155 291/1178 294/294 293/1184
f 295/295 282/1151 281/1150 292/1181
f 278/1141 282/1152 295/1192 285/1158
f 286/1162 284/1157 285/1159 296/296
f 285/1160 295/1193 292/1182 296/1194
f 287/1165 286/1163 296/1195 297/297
f 298/298 299/299 287/1166 297/1197
f 299/1203 300/300 288/1168 287/1167
f 288/1169 301/301 302/302 289/1173
f 303/303 288/1170 300/1206 304/304
f 288/1171 303/1213 305/305 301/1209
f 302/1211 306/306 290/1176 289/1174
f 306/1222 307/307 291/1179 290/1177
f 291/1180 307/1225 308/308 294/1188
f 293/1185 294/1189 309/309 310/310
f 294/1190 303/1214 304/1216 309/1229
f 303/1215 294/1191 308/1227 305/1219
f 296/1196 292/1183 293/1186 297/1198
f 293/1187 310/1232 298/1200 297/1199
f 311/311 312/312 299/1204 298/1201
f 310/1233 313/313 311/1235 298/1202
f 299/1205 312/1238 314/314 300/1207
f 304/1217 300/1208 314/1242 315/315
f 316/316 309/1230 304/1218 315/1244
f 309/1231 316/1247 313/1240 310/1234
f 316/1248 315/1245 311/1236 313/1241
f 315/1246 314/1243 312/1239 311/1237
f 302/1212 301/1210 305/1220 306/1223
f 305/1221 308/1228 307/1226 306/1224
