mtllib npc.mtl
o npc_mesh
v 7.680006 30.091820 21.760002
v 7.680006 30.091820 21.760002
v 7.680006 30.091820 21.760002
v 7.680006 30.091820 21.760002
v 3.840004 55.691833 17.920002
v 3.840004 55.691833 17.920002
v 3.840004 55.691833 17.920002
v 3.840004 55.691833 17.920002
v -12.800001 30.091820 21.760004
v -12.800001 30.091820 21.760004
v -12.800001 30.091820 21.760004
v -12.800001 30.091820 21.760004
v -14.080001 55.691833 17.920004
v -14.080001 55.691833 17.920004
v -14.080001 55.691833 17.920004
v -14.080001 55.691833 17.920004
v 11.520003 21.131821 -0.000001
v 11.520003 21.131821 -0.000001
v 11.520003 21.131821 -0.000001
v 11.520003 21.131821 -0.000001
v 11.520003 21.131821 -0.000001
v 11.520003 21.131821 -0.000001
v 8.960004 55.691833 -0.000001
v 8.960004 55.691833 -0.000001
v 8.960004 55.691833 -0.000001
v 8.960004 55.691833 -0.000001
v -16.640005 21.131821 0.000001
v -16.640005 21.131821 0.000001
v -16.640005 21.131821 0.000001
v -16.640005 21.131821 0.000001
v -16.640005 21.131821 0.000001
v -16.640005 21.131821 0.000001
v -19.200005 55.691833 0.000002
v -19.200005 55.691833 0.000002
v -19.200005 55.691833 0.000002
v -19.200005 55.691833 0.000002
v 10.810745 -38.051857 3.744235
v 10.810745 -38.051857 3.744235
v 10.810745 -38.051857 3.744235
v 10.810745 -38.051857 3.744235
v -12.697604 -15.370071 3.923636
v -12.697604 -15.370071 3.923636
v -12.697604 -15.370071 3.923636
v -12.697604 -15.370071 3.923636
v 8.519045 -38.357849 17.377323
v 8.519045 -38.357849 17.377323
v 8.519045 -38.357849 17.377323
v 8.519045 -38.357849 17.377323
v -9.932800 -15.326294 20.396368
v -9.932800 -15.326294 20.396368
v -9.932800 -15.326294 20.396368
v -9.932800 -15.326294 20.396368
v -4.962086 -29.119156 18.292730
v -4.962086 -29.119156 18.292730
v -4.962086 -29.119156 18.292730
v -4.962086 -29.119156 18.292730
v 6.160711 -19.953239 19.344549
v 6.160711 -19.953239 19.344549
v 6.160711 -19.953239 19.344549
v 6.160711 -19.953239 19.344549
v 6.160711 -19.953239 19.344549
v 8.718974 -19.568108 3.695452
v 8.718974 -19.568108 3.695452
v 8.718974 -19.568108 3.695452
v 8.718974 -19.568108 3.695452
v 8.718974 -19.568108 3.695452
v -7.286870 -30.007233 3.467272
v -7.286870 -30.007233 3.467272
v -7.286870 -30.007233 3.467272
v -7.286870 -30.007233 3.467272
v -2.701313 -84.456367 12.767639
v -2.701313 -84.456367 12.767639
v -2.701313 -84.456367 12.767639
v -2.701313 -84.456367 12.767639
v 5.261315 -84.456360 12.767639
v 5.261315 -84.456360 12.767639
v 5.261315 -84.456360 12.767639
v 5.261315 -84.456360 12.767639
v -4.194307 -84.480003 3.872363
v -4.194307 -84.480003 3.872363
v -4.194307 -84.480003 3.872363
v -4.194307 -84.480003 3.872363
v -4.194307 -84.480003 3.872363
v 6.754307 -84.480003 3.872362
v 6.754307 -84.480003 3.872362
v 6.754307 -84.480003 3.872362
v 6.754307 -84.480003 3.872362
v -4.309545 -41.493187 16.629070
v -4.309545 -41.493187 16.629070
v -4.309545 -41.493187 16.629070
v -4.309545 -41.493187 16.629070
v -6.522739 -42.272339 3.593375
v -6.522739 -42.272339 3.593375
v -6.522739 -42.272339 3.593375
v -6.522739 -42.272339 3.593375
v -2.701313 -95.976364 12.767639
v -2.701313 -95.976364 12.767639
v -2.701313 -95.976364 12.767639
v 5.261315 -95.976357 12.767639
v 5.261315 -95.976357 12.767639
v 5.261315 -95.976357 12.767639
v -4.194307 -96.000000 3.872363
v -4.194307 -96.000000 3.872363
v -4.194307 -96.000000 3.872363
v -4.194307 -96.000000 3.872363
v 6.754307 -96.000000 3.872362
v 6.754307 -96.000000 3.872362
v 6.754307 -96.000000 3.872362
v -19.554306 -92.160004 3.872364
v -19.554306 -92.160004 3.872364
v -19.554306 -92.160004 3.872364
v -18.061310 -92.136368 12.767641
v -18.061310 -92.136368 12.767641
v -18.061310 -92.136368 12.767641
v -19.554306 -96.000000 3.872364
v -19.554306 -96.000000 3.872364
v -19.554306 -96.000000 3.872364
v -18.061310 -95.976364 12.767641
v -18.061310 -95.976364 12.767641
v -18.061310 -95.976364 12.767641
v 14.464006 90.251831 -0.000001
v 14.464006 90.251831 -0.000001
v 14.464006 90.251831 -0.000001
v 14.464006 90.251831 -0.000001
v 10.368006 90.251831 24.128002
v 10.368006 90.251831 24.128002
v 10.368006 90.251831 24.128002
v 10.368006 90.251831 24.128002
v 10.368006 90.251831 24.128002
v 10.368006 90.251831 24.128002
v -14.208003 90.251831 24.128004
v -14.208003 90.251831 24.128004
v -14.208003 90.251831 24.128004
v -14.208003 90.251831 24.128004
v -14.208003 90.251831 24.128004
v -14.208003 90.251831 24.128004
v -22.144007 90.251831 0.000002
v -22.144007 90.251831 0.000002
v -22.144007 90.251831 0.000002
v -22.144007 90.251831 0.000002
v 13.184007 110.731827 -0.000001
v 13.184007 110.731827 -0.000001
v 13.184007 110.731827 -0.000001
v 13.184007 110.731827 -0.000001
v 9.088005 110.731827 15.168001
v 9.088005 110.731827 15.168001
v 9.088005 110.731827 15.168001
v 9.088005 110.731827 15.168001
v 9.088005 110.731827 15.168001
v -5.248003 110.731827 15.168002
v -5.248003 110.731827 15.168002
v -5.248003 110.731827 15.168002
v -5.248003 110.731827 15.168002
v -5.248003 110.731827 15.168002
v -11.904007 110.731827 0.000001
v -11.904007 110.731827 0.000001
v -11.904007 110.731827 0.000001
v -11.904007 110.731827 0.000001
v 8.153605 96.651825 35.648003
v 8.153605 96.651825 35.648003
v 8.153605 96.651825 35.648003
v 8.153605 96.651825 35.648003
v -5.593600 96.651825 35.648003
v -5.593600 96.651825 35.648003
v -5.593600 96.651825 35.648003
v -5.593600 96.651825 35.648003
v 8.153605 108.171829 29.248003
v 8.153605 108.171829 29.248003
v 8.153605 108.171829 29.248003
v -4.313601 108.171829 29.248003
v -4.313601 108.171829 29.248003
v -4.313601 108.171829 29.248003
v 8.524806 70.561981 39.788815
v 8.524806 70.561981 39.788815
v 8.524806 70.561981 39.788815
v 8.524806 70.561981 39.788815
v -5.565157 67.675095 42.120110
v -5.565157 67.675095 42.120110
v -5.565157 67.675095 42.120110
v -5.565157 67.675095 42.120110
v -5.565157 67.675095 42.120110
v 8.476167 77.941666 50.707184
v 8.476167 77.941666 50.707184
v 8.476167 77.941666 50.707184
v 8.476167 77.941666 50.707184
v 7.493230 63.670502 44.451408
v 7.493230 63.670502 44.451408
v 7.493230 63.670502 44.451408
v 7.493230 63.670502 44.451408
v 8.147429 70.952789 55.260593
v 8.147429 70.952789 55.260593
v 8.147429 70.952789 55.260593
v 8.147429 70.952789 55.260593
v -4.355642 74.968750 52.983887
v -4.355642 74.968750 52.983887
v -4.355642 74.968750 52.983887
v -4.355642 74.968750 52.983887
v -4.355642 74.968750 52.983887
v -0.364303 43.785431 62.756615
v -0.364303 43.785431 62.756615
v -0.364303 43.785431 62.756615
v -0.364303 43.785431 62.756615
v -8.819517 44.825089 62.478043
v -8.819517 44.825089 62.478043
v -8.819517 44.825089 62.478043
v -8.819517 44.825089 62.478043
v 0.217131 47.393295 67.944656
v 0.217131 47.393295 67.944656
v 0.217131 47.393295 67.944656
v 0.217131 47.393295 67.944656
v -7.673287 48.363495 67.684692
v -7.673287 48.363495 67.684692
v -7.673287 48.363495 67.684692
v -7.673287 48.363495 67.684692
v 0.491820 30.189682 68.223167
v 0.491820 30.189682 68.223167
v 0.491820 30.189682 68.223167
v -13.013087 32.165009 67.693878
v -13.013087 32.165009 67.693878
v -13.013087 32.165009 67.693878
v 1.596544 37.044617 76.800446
v 1.596544 37.044617 76.800446
v 1.596544 37.044617 76.800446
v -10.835250 38.888000 76.306511
v -10.835250 38.888000 76.306511
v -10.835250 38.888000 76.306511
v 8.779524 114.571823 -0.000001
v 8.779524 114.571823 -0.000001
v 8.779524 114.571823 -0.000001
v 8.779524 114.571823 -0.000001
v 6.199043 114.571823 8.768002
v 6.199043 114.571823 8.768002
v 6.199043 114.571823 8.768002
v 6.199043 114.571823 8.768002
v -2.832643 114.571823 8.768003
v -2.832643 114.571823 8.768003
v -2.832643 114.571823 8.768003
v -2.832643 114.571823 8.768003
v -7.025925 114.571823 0.000001
v -7.025925 114.571823 0.000001
v -7.025925 114.571823 0.000001
v -7.025925 114.571823 0.000001
v 8.779524 122.251831 -0.000001
v 8.779524 122.251831 -0.000001
v 8.779524 122.251831 -0.000001
v 8.779524 122.251831 -0.000001
v 6.199043 122.251831 7.488002
v 6.199043 122.251831 7.488002
v 6.199043 122.251831 7.488002
v 6.199043 122.251831 7.488002
v -2.832643 122.251831 7.488003
v -2.832643 122.251831 7.488003
v -2.832643 122.251831 7.488003
v -2.832643 122.251831 7.488003
v -7.025925 122.251831 0.000001
v -7.025925 122.251831 0.000001
v -7.025925 122.251831 0.000001
v -7.025925 122.251831 0.000001
v 13.809286 129.931824 -0.000001
v 13.809286 129.931824 -0.000001
v 13.809286 129.931824 -0.000001
v 13.809286 129.931824 -0.000001
v 9.938564 129.931824 9.040003
v 9.938564 129.931824 9.040003
v 9.938564 129.931824 9.040003
v 9.938564 129.931824 9.040003
v -7.448964 123.531830 7.760005
v -7.448964 123.531830 7.760005
v -7.448964 123.531830 7.760005
v -7.448964 123.531830 7.760005
v -12.458887 122.251831 0.000001
v -12.458887 122.251831 0.000001
v -12.458887 122.251831 0.000001
v -12.458887 122.251831 0.000001
v 15.089286 142.731827 -0.000001
v 15.089286 142.731827 -0.000001
v 15.089286 142.731827 -0.000001
v 15.089286 142.731827 -0.000001
v 11.218565 142.731827 10.960002
v 11.218565 142.731827 10.960002
v 11.218565 142.731827 10.960002
v 11.218565 142.731827 10.960002
v -7.448963 138.891830 10.960004
v -7.448963 138.891830 10.960004
v -7.448963 138.891830 10.960004
v -7.448963 138.891830 10.960004
v -12.458887 138.891830 0.000001
v -12.458887 138.891830 0.000001
v -12.458887 138.891830 0.000001
v -12.458887 138.891830 0.000001
v 7.874500 152.971832 -0.000001
v 7.874500 152.971832 -0.000001
v 7.874500 152.971832 -0.000001
v 7.874500 152.971832 -0.000001
v 5.164995 151.691833 8.036002
v 5.164995 151.691833 8.036002
v 5.164995 151.691833 8.036002
v -4.318274 151.691833 8.036002
v -4.318274 151.691833 8.036002
v -4.318274 151.691833 8.036002
v -8.721222 152.971832 0.000001
v -8.721222 152.971832 0.000001
v -8.721222 152.971832 0.000001
v -8.721222 152.971832 0.000001
v 7.680002 30.091820 -21.760002
v 7.680002 30.091820 -21.760002
v 7.680002 30.091820 -21.760002
v 7.680002 30.091820 -21.760002
v 3.840001 55.691833 -17.920002
v 3.840001 55.691833 -17.920002
v 3.840001 55.691833 -17.920002
v 3.840001 55.691833 -17.920002
v -12.800005 30.091820 -21.760000
v -12.800005 30.091820 -21.760000
v -12.800005 30.091820 -21.760000
v -12.800005 30.091820 -21.760000
v -14.080005 55.691833 -17.920000
v -14.080005 55.691833 -17.920000
v -14.080005 55.691833 -17.920000
v -14.080005 55.691833 -17.920000
v 10.810745 -38.051857 -3.744236
v 10.810745 -38.051857 -3.744236
v 10.810745 -38.051857 -3.744236
v 10.810745 -38.051857 -3.744236
v -12.697604 -15.370071 -3.923633
v -12.697604 -15.370071 -3.923633
v -12.697604 -15.370071 -3.923633
v -12.697604 -15.370071 -3.923633
v 8.519041 -38.357849 -17.377323
v 8.519041 -38.357849 -17.377323
v 8.519041 -38.357849 -17.377323
v 8.519041 -38.357849 -17.377323
v -9.932804 -15.326294 -20.396368
v -9.932804 -15.326294 -20.396368
v -9.932804 -15.326294 -20.396368
v -9.932804 -15.326294 -20.396368
v -4.962089 -29.119156 -18.292730
v -4.962089 -29.119156 -18.292730
v -4.962089 -29.119156 -18.292730
v -4.962089 -29.119156 -18.292730
v 6.160707 -19.953239 -19.344549
v 6.160707 -19.953239 -19.344549
v 6.160707 -19.953239 -19.344549
v 6.160707 -19.953239 -19.344549
v 6.160707 -19.953239 -19.344549
v 8.718974 -19.568108 -3.695453
v 8.718974 -19.568108 -3.695453
v 8.718974 -19.568108 -3.695453
v 8.718974 -19.568108 -3.695453
v 8.718974 -19.568108 -3.695453
v -7.286871 -30.007233 -3.467270
v -7.286871 -30.007233 -3.467270
v -7.286871 -30.007233 -3.467270
v -7.286871 -30.007233 -3.467270
v -2.701315 -84.456367 -12.767639
v -2.701315 -84.456367 -12.767639
v -2.701315 -84.456367 -12.767639
v -2.701315 -84.456367 -12.767639
v 5.261313 -84.456360 -12.767639
v 5.261313 -84.456360 -12.767639
v 5.261313 -84.456360 -12.767639
v 5.261313 -84.456360 -12.767639
v -4.194308 -84.480003 -3.872362
v -4.194308 -84.480003 -3.872362
v -4.194308 -84.480003 -3.872362
v -4.194308 -84.480003 -3.872362
v -4.194308 -84.480003 -3.872362
v 6.754306 -84.480003 -3.872363
v 6.754306 -84.480003 -3.872363
v 6.754306 -84.480003 -3.872363
v 6.754306 -84.480003 -3.872363
v -4.309548 -41.493187 -16.629070
v -4.309548 -41.493187 -16.629070
v -4.309548 -41.493187 -16.629070
v -4.309548 -41.493187 -16.629070
v -6.522740 -42.272339 -3.593374
v -6.522740 -42.272339 -3.593374
v -6.522740 -42.272339 -3.593374
v -6.522740 -42.272339 -3.593374
v -2.701315 -95.976364 -12.767639
v -2.701315 -95.976364 -12.767639
v -2.701315 -95.976364 -12.767639
v 5.261313 -95.976357 -12.767639
v 5.261313 -95.976357 -12.767639
v 5.261313 -95.976357 -12.767639
v -4.194308 -96.000000 -3.872362
v -4.194308 -96.000000 -3.872362
v -4.194308 -96.000000 -3.872362
v -4.194308 -96.000000 -3.872362
v 6.754306 -96.000000 -3.872363
v 6.754306 -96.000000 -3.872363
v 6.754306 -96.000000 -3.872363
v -19.554306 -92.160004 -3.872360
v -19.554306 -92.160004 -3.872360
v -19.554306 -92.160004 -3.872360
v -18.061314 -92.136368 -12.767637
v -18.061314 -92.136368 -12.767637
v -18.061314 -92.136368 -12.767637
v -19.554306 -96.000000 -3.872360
v -19.554306 -96.000000 -3.872360
v -19.554306 -96.000000 -3.872360
v -18.061314 -95.976364 -12.767637
v -18.061314 -95.976364 -12.767637
v -18.061314 -95.976364 -12.767637
v 10.368002 90.251831 -24.128002
v 10.368002 90.251831 -24.128002
v 10.368002 90.251831 -24.128002
v 10.368002 90.251831 -24.128002
v 10.368002 90.251831 -24.128002
v 10.368002 90.251831 -24.128002
v -14.208007 90.251831 -24.128000
v -14.208007 90.251831 -24.128000
v -14.208007 90.251831 -24.128000
v -14.208007 90.251831 -24.128000
v -14.208007 90.251831 -24.128000
v -14.208007 90.251831 -24.128000
v 9.088003 110.731827 -15.168003
v 9.088003 110.731827 -15.168003
v 9.088003 110.731827 -15.168003
v 9.088003 110.731827 -15.168003
v 9.088003 110.731827 -15.168003
v -5.248006 110.731827 -15.168002
v -5.248006 110.731827 -15.168002
v -5.248006 110.731827 -15.168002
v -5.248006 110.731827 -15.168002
v -5.248006 110.731827 -15.168002
v 8.153600 96.651825 -35.648003
v 8.153600 96.651825 -35.648003
v 8.153600 96.651825 -35.648003
v 8.153600 96.651825 -35.648003
v -5.593606 96.651825 -35.648003
v -5.593606 96.651825 -35.648003
v -5.593606 96.651825 -35.648003
v -5.593606 96.651825 -35.648003
v 8.153600 108.171829 -29.248003
v 8.153600 108.171829 -29.248003
v 8.153600 108.171829 -29.248003
v -4.313606 108.171829 -29.248003
v -4.313606 108.171829 -29.248003
v -4.313606 108.171829 -29.248003
v 8.524798 70.561981 -39.788815
v 8.524798 70.561981 -39.788815
v 8.524798 70.561981 -39.788815
v 8.524798 70.561981 -39.788815
v -5.565165 67.675095 -42.120110
v -5.565165 67.675095 -42.120110
v -5.565165 67.675095 -42.120110
v -5.565165 67.675095 -42.120110
v -5.565165 67.675095 -42.120110
v 8.476157 77.941666 -50.707184
v 8.476157 77.941666 -50.707184
v 8.476157 77.941666 -50.707184
v 8.476157 77.941666 -50.707184
v 7.493222 63.670502 -44.451408
v 7.493222 63.670502 -44.451408
v 7.493222 63.670502 -44.451408
v 7.493222 63.670502 -44.451408
v 8.147420 70.952789 -55.260593
v 8.147420 70.952789 -55.260593
v 8.147420 70.952789 -55.260593
v 8.147420 70.952789 -55.260593
v -4.355652 74.968750 -52.983887
v -4.355652 74.968750 -52.983887
v -4.355652 74.968750 -52.983887
v -4.355652 74.968750 -52.983887
v -4.355652 74.968750 -52.983887
v -0.364314 43.785431 -62.756615
v -0.364314 43.785431 -62.756615
v -0.364314 43.785431 -62.756615
v -0.364314 43.785431 -62.756615
v -8.819529 44.825089 -62.478043
v -8.819529 44.825089 -62.478043
v -8.819529 44.825089 -62.478043
v -8.819529 44.825089 -62.478043
v 0.217119 47.393295 -67.944656
v 0.217119 47.393295 -67.944656
v 0.217119 47.393295 -67.944656
v 0.217119 47.393295 -67.944656
v -7.673299 48.363495 -67.684692
v -7.673299 48.363495 -67.684692
v -7.673299 48.363495 -67.684692
v -7.673299 48.363495 -67.684692
v 0.491808 30.189682 -68.223167
v 0.491808 30.189682 -68.223167
v 0.491808 30.189682 -68.223167
v -13.013099 32.165009 -67.693878
v -13.013099 32.165009 -67.693878
v -13.013099 32.165009 -67.693878
v 1.596530 37.044617 -76.800446
v 1.596530 37.044617 -76.800446
v 1.596530 37.044617 -76.800446
v -10.835263 38.888000 -76.306511
v -10.835263 38.888000 -76.306511
v -10.835263 38.888000 -76.306511
v 6.199041 114.571823 -8.768003
v 6.199041 114.571823 -8.768003
v 6.199041 114.571823 -8.768003
v 6.199041 114.571823 -8.768003
v -2.832644 114.571823 -8.768003
v -2.832644 114.571823 -8.768003
v -2.832644 114.571823 -8.768003
v -2.832644 114.571823 -8.768003
v 6.199042 122.251831 -7.488003
v 6.199042 122.251831 -7.488003
v 6.199042 122.251831 -7.488003
v 6.199042 122.251831 -7.488003
v -2.832644 122.251831 -7.488002
v -2.832644 122.251831 -7.488002
v -2.832644 122.251831 -7.488002
v -2.832644 122.251831 -7.488002
v 9.938562 129.931824 -9.040005
v 9.938562 129.931824 -9.040005
v 9.938562 129.931824 -9.040005
v 9.938562 129.931824 -9.040005
v -7.448965 123.531830 -7.760004
v -7.448965 123.531830 -7.760004
v -7.448965 123.531830 -7.760004
v -7.448965 123.531830 -7.760004
v 11.218563 142.731827 -10.960004
v 11.218563 142.731827 -10.960004
v 11.218563 142.731827 -10.960004
v 11.218563 142.731827 -10.960004
v -7.448965 138.891830 -10.960002
v -7.448965 138.891830 -10.960002
v -7.448965 138.891830 -10.960002
v -7.448965 138.891830 -10.960002
v 5.164994 151.691833 -8.036002
v 5.164994 151.691833 -8.036002
v 5.164994 151.691833 -8.036002
v -4.318275 151.691833 -8.036002
v -4.318275 151.691833 -8.036002
v -4.318275 151.691833 -8.036002
v 9.088005 110.731827 15.168001
v -11.904007 110.731827 0.000001
v 8.153605 96.651825 35.648003
v -7.673287 48.363495 67.684692
v -10.835250 38.888000 76.306511
v 6.199043 114.571823 8.768002
v -2.832643 114.571823 8.768003
v -7.025925 114.571823 0.000001
v -7.025925 122.251831 0.000001
v -12.458887 122.251831 0.000001
v 11.218565 142.731827 10.960002
v 11.218565 142.731827 10.960002
v 7.874500 152.971832 -0.000001
v -2.701315 -84.456367 -12.767639
v -14.208007 90.251831 -24.128000
v -10.835263 38.888000 -76.306511
v -10.835263 38.888000 -76.306511
v 6.199041 114.571823 -8.768003
v -2.832644 114.571823 -8.768003
v 5.164994 151.691833 -8.036002
v -4.318275 151.691833 -8.036002
vt 0.156174 0.352065
vt 0.156174 0.352065
vt 0.843328 0.193160
vt 0.843328 0.193160
vt 0.133666 0.431055
vt 0.133666 0.431055
vt 0.856380 0.112832
vt 0.856380 0.112832
vt 0.904336 0.194542
vt 0.904336 0.194542
vt 0.694133 0.377936
vt 0.694133 0.377936
vt 0.909763 0.114042
vt 0.909763 0.114042
vt 0.649303 0.445204
vt 0.649303 0.445204
vt 0.225836 0.356927
vt 0.225836 0.356927
vt 0.225836 0.356927
vt 0.225836 0.356927
vt 0.838945 0.613383
vt 0.426410 1.000000
vt 0.181332 0.456574
vt 0.181332 0.456574
vt 0.181332 0.456574
vt 0.181332 0.456574
vt 0.922822 0.615700
vt 0.510287 0.997691
vt 0.650528 0.320315
vt 0.650528 0.320315
vt 0.650528 0.320315
vt 0.650528 0.320315
vt 0.603879 0.418859
vt 0.603879 0.418859
vt 0.603879 0.418859
vt 0.603879 0.418859
vt 0.292413 0.180563
vt 0.292413 0.180563
vt 0.423984 0.811642
vt 0.423984 0.811642
vt 0.495741 0.882320
vt 0.495741 0.882320
vt 0.709705 0.221996
vt 0.709705 0.221996
vt 0.256416 0.160418
vt 0.256416 0.160418
vt 0.836521 0.413206
vt 0.836521 0.413206
vt 0.892936 0.339905
vt 0.892936 0.339905
vt 0.752015 0.246431
vt 0.752015 0.246431
vt 0.877261 0.384306
vt 0.877261 0.384306
vt 0.763860 0.203790
vt 0.763860 0.203790
vt 0.227518 0.210641
vt 0.227518 0.210641
vt 0.844704 0.353935
vt 0.844704 0.353935
vt 0.844704 0.353935
vt 0.268799 0.233856
vt 0.268799 0.233856
vt 0.431629 0.870585
vt 0.431629 0.870585
vt 0.431629 0.870585
vt 0.478506 0.835816
vt 0.478506 0.835816
vt 0.726895 0.179374
vt 0.726895 0.179374
vt 0.867045 0.562719
vt 0.867045 0.562719
vt 0.319688 0.901192
vt 0.824630 0.037891
vt 0.328681 0.033298
vt 0.328681 0.033298
vt 0.843325 0.562182
vt 0.843325 0.562182
vt 0.465124 0.661927
vt 0.465124 0.661927
vt 0.465124 0.661927
vt 0.293183 0.896557
vt 0.801782 0.024696
vt 0.352457 0.045796
vt 0.352457 0.045796
vt 0.432512 0.662825
vt 0.432512 0.662825
vt 0.874539 0.424327
vt 0.874539 0.424327
vt 0.776278 0.166051
vt 0.776278 0.166051
vt 0.475290 0.796678
vt 0.475290 0.796678
vt 0.743827 0.144595
vt 0.743827 0.144595
vt 0.410028 0.852640
vt 0.410028 0.852640
vt 0.866319 0.599529
vt 0.343584 0.000000
vt 0.410028 0.827107
vt 0.842600 0.598992
vt 0.383645 0.857274
vt 0.464242 0.625076
vt 0.383645 0.857274
vt 0.464242 0.625076
vt 0.367360 0.012499
vt 0.383645 0.822166
vt 0.431630 0.625973
vt 0.510287 0.636100
vt 0.293183 0.842380
vt 0.809960 0.822408
vt 0.912317 0.588296
vt 0.319688 0.847015
vt 0.809960 0.794470
vt 0.383645 0.906527
vt 0.509993 0.623816
vt 0.798527 0.822563
vt 0.410028 0.901893
vt 0.912076 0.600566
vt 0.798527 0.794625
vt 0.136181 0.556996
vt 0.136181 0.556996
vt 0.136181 0.556996
vt 0.136181 0.556996
vt 0.071777 0.522905
vt 0.071777 0.522905
vt 0.071777 0.522905
vt 0.071777 0.522905
vt 0.839108 0.000000
vt 0.208066 0.837241
vt 0.912317 0.001659
vt 0.281292 0.837241
vt 0.618182 0.552844
vt 0.618182 0.552844
vt 0.618182 0.552844
vt 0.618182 0.552844
vt 0.557353 0.517423
vt 0.557353 0.517423
vt 0.557353 0.517423
vt 0.557353 0.517423
vt 0.109790 0.616070
vt 0.109790 0.616070
vt 0.109790 0.616070
vt 0.109790 0.616070
vt 0.069424 0.594492
vt 0.069424 0.594492
vt 0.069424 0.594492
vt 0.727107 0.669036
vt 0.727107 0.669036
vt 0.686000 0.669036
vt 0.686000 0.669036
vt 0.686000 0.669036
vt 0.563700 0.597442
vt 0.563700 0.597442
vt 0.666915 0.717750
vt 0.666915 0.717750
vt 0.525987 0.575254
vt 0.525987 0.575254
vt 0.032769 0.525102
vt 0.032769 0.525102
vt 0.745863 0.658448
vt 0.745863 0.658448
vt 0.786636 0.662672
vt 0.786636 0.662672
vt 0.636909 0.587750
vt 0.636909 0.587750
vt 0.035036 0.567338
vt 0.749000 0.623816
vt 0.722354 0.623816
vt 0.785977 0.627647
vt 0.686606 0.623816
vt 0.603883 0.610999
vt 0.055381 0.443943
vt 0.055381 0.443943
vt 0.213405 0.778511
vt 0.213405 0.778511
vt 0.255364 0.769910
vt 0.255364 0.769910
vt 0.333468 0.829562
vt 0.693683 0.514831
vt 0.693683 0.514831
vt 0.016546 0.450020
vt 0.016546 0.450020
vt 0.739911 0.713127
vt 0.739911 0.713127
vt 0.051870 0.417413
vt 0.051870 0.417413
vt 0.216433 0.757732
vt 0.293183 0.829562
vt 0.013397 0.423428
vt 0.013397 0.423428
vt 0.738998 0.734027
vt 0.738998 0.734027
vt 0.777173 0.725809
vt 0.777173 0.725809
vt 0.777173 0.725809
vt 0.711804 0.551665
vt 0.711804 0.551665
vt 0.029115 0.333616
vt 0.029115 0.333616
vt 0.666915 0.833207
vt 0.301208 0.761994
vt 0.667481 0.860552
vt 0.326244 0.757732
vt 0.779536 0.480123
vt 0.779536 0.480123
vt 0.010482 0.336854
vt 0.010482 0.336854
vt 0.756094 0.807416
vt 0.756094 0.807416
vt 0.779766 0.806836
vt 0.779766 0.806836
vt 0.787982 0.497871
vt 0.787982 0.497871
vt 0.031968 0.286766
vt 0.705135 0.824500
vt 0.821930 0.736373
vt 0.705135 0.868316
vt 0.821930 0.692664
vt 0.811941 0.452010
vt 0.000000 0.294706
vt 0.749251 0.837124
vt 0.798527 0.739867
vt 0.786636 0.835235
vt 0.798554 0.699625
vt 0.824630 0.483832
vt 0.105175 0.626746
vt 0.105175 0.626746
vt 0.105175 0.626746
vt 0.105175 0.626746
vt 0.081859 0.614252
vt 0.081859 0.614252
vt 0.113728 0.760593
vt 0.721933 0.689590
vt 0.086949 0.757732
vt 0.696036 0.689590
vt 0.696036 0.689590
vt 0.798978 0.623816
vt 0.684012 0.717750
vt 0.684012 0.717750
vt 0.798527 0.650471
vt 0.798527 0.650471
vt 0.095240 0.648944
vt 0.095240 0.648944
vt 0.095240 0.648944
vt 0.095240 0.648944
vt 0.075357 0.638238
vt 0.075357 0.638238
vt 0.111506 0.784615
vt 0.111506 0.784615
vt 0.084726 0.781754
vt 0.084726 0.781754
vt 0.589210 0.891586
vt 0.821846 0.627816
vt 0.576736 0.867713
vt 0.576736 0.867713
vt 0.821395 0.650381
vt 0.821395 0.650381
vt 0.084901 0.671626
vt 0.084901 0.671626
vt 0.084901 0.671626
vt 0.084901 0.671626
vt 0.060958 0.658629
vt 0.060958 0.658629
vt 0.120307 0.810714
vt 0.120307 0.810714
vt 0.070657 0.784448
vt 0.070657 0.784448
vt 0.575263 0.892151
vt 0.133706 0.847111
vt 0.560574 0.867804
vt 0.560574 0.867804
vt 0.154123 0.855781
vt 0.154123 0.855781
vt 0.068239 0.708747
vt 0.068239 0.708747
vt 0.068239 0.708747
vt 0.068239 0.708747
vt 0.039145 0.693068
vt 0.039145 0.693068
vt 0.120307 0.852434
vt 0.120307 0.852434
vt 0.066083 0.834307
vt 0.066083 0.834307
vt 0.132198 0.796753
vt 0.132198 0.796753
vt 0.162607 0.803164
vt 0.162607 0.803164
vt 0.162607 0.803164
vt 0.162607 0.803164
vt 0.055570 0.737652
vt 0.055570 0.737652
vt 0.392945 0.783541
vt 0.392945 0.783541
vt 0.035884 0.722468
vt 0.384139 0.757732
vt 0.099797 0.878091
vt 0.356947 0.757732
vt 0.071679 0.875086
vt 0.148246 0.757732
vt 0.345359 0.783541
vt 0.345359 0.783541
vt 0.170965 0.758426
vt 0.170965 0.758426
vt 0.272932 0.412847
vt 0.272932 0.412847
vt 0.931016 0.402593
vt 0.931016 0.402593
vt 0.229820 0.481110
vt 0.229820 0.481110
vt 0.944047 0.485286
vt 0.944047 0.485286
vt 0.992024 0.401220
vt 0.992024 0.401220
vt 0.579883 0.313358
vt 0.579883 0.313358
vt 0.997429 0.484085
vt 0.997429 0.484085
vt 0.555214 0.392022
vt 0.555214 0.392022
vt 0.312503 0.191021
vt 0.312503 0.191021
vt 0.836521 0.803715
vt 0.836521 0.803715
vt 0.908280 0.733237
vt 0.908280 0.733237
vt 0.689104 0.210351
vt 0.689104 0.210351
vt 0.349659 0.208957
vt 0.349659 0.208957
vt 0.924209 0.184859
vt 0.924209 0.184859
vt 0.980630 0.256481
vt 0.980630 0.256481
vt 0.644924 0.185900
vt 0.644924 0.185900
vt 0.964950 0.213262
vt 0.964950 0.213262
vt 0.667814 0.149502
vt 0.667814 0.149502
vt 0.331316 0.264675
vt 0.331316 0.264675
vt 0.932395 0.243044
vt 0.932395 0.243044
vt 0.932395 0.243044
vt 0.288628 0.244178
vt 0.288628 0.244178
vt 0.844167 0.744816
vt 0.844167 0.744816
vt 0.844167 0.744816
vt 0.891043 0.779413
vt 0.891043 0.779413
vt 0.708690 0.169084
vt 0.708690 0.169084
vt 0.954726 0.037885
vt 0.954726 0.037885
vt 0.548682 0.842524
vt 0.757593 0.000000
vt 0.397189 0.068961
vt 0.397189 0.068961
vt 0.931006 0.038419
vt 0.931006 0.038419
vt 0.877659 0.953326
vt 0.877659 0.953326
vt 0.877659 0.953326
vt 0.522178 0.847159
vt 0.781451 0.013204
vt 0.373235 0.056613
vt 0.373235 0.056613
vt 0.845047 0.952425
vt 0.845047 0.952425
vt 0.962224 0.174172
vt 0.962224 0.174172
vt 0.688967 0.116700
vt 0.688967 0.116700
vt 0.887827 0.818577
vt 0.887827 0.818577
vt 0.724960 0.133931
vt 0.724960 0.133931
vt 0.371754 0.876352
vt 0.371754 0.876352
vt 0.954003 0.001030
vt 0.412092 0.035663
vt 0.371754 0.901884
vt 0.930283 0.001563
vt 0.345359 0.871419
vt 0.876777 0.990132
vt 0.345359 0.871419
vt 0.876777 0.990132
vt 0.388138 0.023315
vt 0.345359 0.906527
vt 0.844165 0.989231
vt 0.922822 0.979127
vt 0.522178 0.901336
vt 0.809961 0.752745
vt 1.000000 0.012285
vt 0.548682 0.896701
vt 0.809961 0.781653
vt 0.345359 0.822166
vt 0.922528 0.991395
vt 0.798527 0.752684
vt 0.371754 0.827099
vt 0.999759 0.000000
vt 0.798527 0.781591
vt 0.201242 0.590301
vt 0.201242 0.590301
vt 0.201242 0.590301
vt 0.201242 0.590301
vt 0.926790 0.594593
vt 0.595404 0.829706
vt 1.000000 0.592946
vt 0.522178 0.829706
vt 0.491498 0.481238
vt 0.491498 0.481238
vt 0.491498 0.481238
vt 0.491498 0.481238
vt 0.150812 0.636860
vt 0.150812 0.636860
vt 0.150812 0.636860
vt 0.727107 0.766463
vt 0.727107 0.766463
vt 0.686000 0.766463
vt 0.686000 0.766463
vt 0.686000 0.766463
vt 0.484060 0.552427
vt 0.484060 0.552427
vt 0.224047 0.624676
vt 0.224047 0.624676
vt 0.614219 0.826895
vt 0.614219 0.826895
vt 0.655023 0.823040
vt 0.655023 0.823040
vt 0.449740 0.481956
vt 0.449740 0.481956
vt 0.191974 0.649036
vt 0.617299 0.865364
vt 0.722354 0.811683
vt 0.654304 0.861868
vt 0.686606 0.811683
vt 0.450317 0.524199
vt 0.268879 0.555084
vt 0.268879 0.555084
vt 0.589823 0.761830
vt 0.589823 0.761830
vt 0.547827 0.751867
vt 0.547827 0.751867
vt 0.547827 0.751867
vt 0.472532 0.389830
vt 0.472532 0.389830
vt 0.288628 0.591659
vt 0.288628 0.591659
vt 0.608197 0.763234
vt 0.608197 0.763234
vt 0.290386 0.541577
vt 0.290386 0.541577
vt 0.586723 0.738332
vt 0.586723 0.738332
vt 0.309912 0.577786
vt 0.309912 0.577786
vt 0.607295 0.739620
vt 0.607295 0.739620
vt 0.645481 0.749537
vt 0.645481 0.749537
vt 0.645481 0.749537
vt 0.433613 0.394422
vt 0.433613 0.394422
vt 0.365851 0.508912
vt 0.365851 0.508912
vt 0.563204 0.668996
vt 0.563204 0.668996
vt 0.538012 0.672406
vt 0.538012 0.672406
vt 0.451496 0.294704
vt 0.451496 0.294704
vt 0.375056 0.526642
vt 0.375056 0.526642
vt 0.624540 0.658835
vt 0.624540 0.658835
vt 0.648216 0.659786
vt 0.648216 0.659786
vt 0.432605 0.297000
vt 0.432605 0.297000
vt 0.398037 0.477331
vt 0.565728 0.623816
vt 0.766282 0.853143
vt 0.525491 0.630297
vt 0.766282 0.896823
vt 0.456516 0.251112
vt 0.412093 0.509230
vt 0.617638 0.623816
vt 0.738998 0.849941
vt 0.655023 0.626341
vt 0.739010 0.890156
vt 0.423984 0.257373
vt 0.128906 0.638743
vt 0.128906 0.638743
vt 0.047693 0.875777
vt 0.721933 0.745909
vt 0.020919 0.878691
vt 0.696036 0.745909
vt 0.696036 0.745909
vt 0.798978 0.679847
vt 0.115536 0.659154
vt 0.115536 0.659154
vt 0.045376 0.850977
vt 0.045376 0.850977
vt 0.018602 0.853891
vt 0.018602 0.853891
vt 0.589210 0.843698
vt 0.821846 0.675667
vt 0.109464 0.683880
vt 0.109464 0.683880
vt 0.054192 0.825743
vt 0.054192 0.825743
vt 0.004539 0.851379
vt 0.004539 0.851379
vt 0.575263 0.842524
vt 0.179004 0.855781
vt 0.097954 0.723682
vt 0.097954 0.723682
vt 0.054192 0.785103
vt 0.054192 0.785103
vt 0.000000 0.803350
vt 0.000000 0.803350
vt 0.196175 0.808999
vt 0.196175 0.808999
vt 0.079003 0.744915
vt 0.384139 0.809349
vt 0.033519 0.757732
vt 0.356947 0.809349
vt 0.005406 0.760791
vt 0.195155 0.766710
vt 0.069424 0.594492
vt 0.525987 0.575254
vt 0.745863 0.658448
vt 0.779766 0.806836
vt 0.786636 0.835235
vt 0.081859 0.614252
vt 0.696036 0.689590
vt 0.798527 0.650471
vt 0.821395 0.650381
vt 0.154123 0.855781
vt 0.039145 0.693068
vt 0.039145 0.693068
vt 0.055570 0.737652
vt 0.757593 0.000000
vt 0.491498 0.481238
vt 0.655023 0.626341
vt 0.423984 0.257373
vt 0.128906 0.638743
vt 0.696036 0.745909
vt 0.079003 0.744915
vt 0.195155 0.766710
vn 0.982979 -0.044259 0.178307
vn 0.974165 0.115981 0.193779
vn 0.023754 -0.039180 0.998950
vn 0.000000 0.148379 0.988931
vn 0.974165 0.115981 0.193779
vn 0.959772 -0.185945 0.210383
vn 0.000000 -0.176811 0.984245
vn 0.000000 0.148379 0.988931
vn 0.023754 -0.039180 0.998950
vn 0.000000 0.148379 0.988931
vn -0.971991 -0.047362 0.230195
vn -0.979448 -0.075581 0.187001
vn 0.000000 -0.176811 0.984245
vn 0.000000 0.148379 0.988931
vn -0.952738 -0.068917 0.295873
vn -0.971991 -0.047362 0.230195
vn 0.982979 -0.044259 0.178307
vn 0.982990 -0.044314 -0.178232
vn 0.974165 0.115981 0.193779
vn 0.974171 0.115999 -0.193737
vn -0.012898 -0.098424 0.995061
vn -0.012881 -0.098404 -0.995063
vn 0.974165 0.115981 0.193779
vn 0.974171 0.115999 -0.193737
vn 0.959772 -0.185945 0.210383
vn 0.959779 -0.185963 -0.210339
vn -0.012898 -0.098424 0.995061
vn -0.012881 -0.098404 -0.995063
vn -0.971991 -0.047362 0.230195
vn -0.972000 -0.047381 -0.230154
vn -0.979448 -0.075581 0.187001
vn -0.979446 -0.075602 -0.187004
vn -0.952738 -0.068917 0.295873
vn -0.952750 -0.068937 -0.295831
vn -0.971991 -0.047362 0.230195
vn -0.972000 -0.047381 -0.230154
vn 0.982727 -0.085602 0.164076
vn 0.980190 0.109633 0.164948
vn 0.013339 -0.004457 -0.999901
vn 0.006061 -0.004735 -0.999970
vn -0.004874 0.029324 -0.999558
vn -0.012881 -0.098404 -0.995063
vn -0.922414 -0.351283 0.160476
vn -0.979448 -0.075581 0.187001
vn 0.982727 -0.085602 0.164076
vn 0.980190 0.109633 0.164948
vn -0.013769 -0.118495 0.992859
vn -0.021601 -0.094273 0.995312
vn 0.023754 -0.039180 0.998950
vn 0.023735 -0.142337 0.989534
vn -0.922414 -0.351283 0.160476
vn -0.979448 -0.075581 0.187001
vn 0.023735 -0.142337 0.989534
vn -0.013769 -0.118495 0.992859
vn -0.922414 -0.351283 0.160476
vn -0.984144 -0.066871 0.164284
vn 0.982979 -0.044259 0.178307
vn 0.980190 0.109633 0.164948
vn 0.023754 -0.039180 0.998950
vn 0.023735 -0.142337 0.989534
vn -0.013769 -0.118495 0.992859
vn 0.982979 -0.044259 0.178307
vn 0.980190 0.109633 0.164948
vn 0.013339 -0.004457 -0.999901
vn -0.004874 0.029324 -0.999558
vn -0.012881 -0.098404 -0.995063
vn 0.013339 -0.004457 -0.999901
vn -0.004874 0.029324 -0.999558
vn -0.922414 -0.351283 0.160476
vn -0.984144 -0.066871 0.164284
vn 0.000000 0.000000 1.000000
vn -0.021601 -0.094273 0.995312
vn -0.446056 0.892070 0.072427
vn -0.984333 -0.052597 0.168291
vn 0.986211 0.000000 0.165493
vn 0.982727 -0.085602 0.164076
vn 0.000000 0.000000 1.000000
vn -0.021601 -0.094273 0.995312
vn 0.006061 -0.004735 -0.999970
vn 0.000015 -0.000015 -1.000000
vn 0.000015 -0.000015 -1.000000
vn -0.446056 0.892070 0.072427
vn -0.984333 -0.052597 0.168291
vn 0.986211 0.000000 0.165493
vn 0.982727 -0.085602 0.164076
vn 0.006061 -0.004735 -0.999970
vn 0.000015 -0.000015 -1.000000
vn -0.013769 -0.118495 0.992859
vn -0.021601 -0.094273 0.995312
vn -0.984144 -0.066871 0.164284
vn -0.984333 -0.052597 0.168291
vn 0.013339 -0.004457 -0.999901
vn 0.006061 -0.004735 -0.999970
vn -0.984144 -0.066871 0.164284
vn -0.984333 -0.052597 0.168291
vn 0.000000 -0.999996 0.002677
vn 0.000000 -0.999996 0.002647
vn 0.000000 0.000000 1.000000
vn 0.986211 0.000000 0.165493
vn 0.000000 -0.999996 0.002677
vn 0.000000 0.000000 1.000000
vn 0.000000 -0.999996 0.002677
vn 0.000015 -0.000015 -1.000000
vn 0.000000 -0.999996 0.002647
vn 0.000015 -0.000015 -1.000000
vn 0.986211 0.000000 0.165493
vn 0.000000 -0.999996 0.002677
vn 0.000015 -0.000015 -1.000000
vn 0.000015 -0.000015 -1.000000
vn -0.446056 0.892070 0.072427
vn -0.986211 0.000000 0.165493
vn 0.000000 0.000000 1.000000
vn -0.446056 0.892070 0.072427
vn -0.986211 0.000000 0.165493
vn 0.000000 -0.999996 0.002647
vn 0.000015 -0.000015 -1.000000
vn -0.986211 0.000000 0.165493
vn 0.000000 -0.999996 0.002647
vn 0.000000 0.000000 1.000000
vn -0.986211 0.000000 0.165493
vn 0.973521 0.105218 0.202945
vn 0.973527 0.105236 -0.202904
vn 0.959772 -0.185945 0.210383
vn 0.959779 -0.185963 -0.210339
vn 0.996121 0.027436 0.083610
vn 0.989932 0.091436 0.108042
vn 0.973521 0.105218 0.202945
vn 0.959772 -0.185945 0.210383
vn 0.000000 -0.176811 0.984245
vn -0.000622 -0.622933 -0.782275
vn 0.000000 -0.176811 0.984245
vn -0.000622 -0.622933 -0.782275
vn -0.833233 0.458266 0.309378
vn -0.874174 0.406960 0.264961
vn -0.929788 0.079400 0.359431
vn -0.952738 -0.068917 0.295873
vn -0.833233 0.458266 0.309378
vn -0.833222 0.458249 -0.309432
vn -0.952738 -0.068917 0.295873
vn -0.952750 -0.068937 -0.295831
vn 0.973521 0.105218 0.202945
vn 0.973527 0.105236 -0.202904
vn 0.635638 0.751357 0.177277
vn 0.635630 0.751351 -0.177329
vn 0.989932 0.091436 0.108042
vn 0.973521 0.105218 0.202945
vn 0.635638 0.751357 0.177277
vn 0.000000 0.857502 0.514480
vn 0.000000 0.983875 0.178859
vn 0.000000 0.857502 0.514480
vn 0.000000 0.983875 0.178859
vn -0.580535 0.770582 0.263027
vn -0.833233 0.458266 0.309378
vn -0.874174 0.406960 0.264961
vn -0.580535 0.770582 0.263027
vn -0.580496 0.770555 -0.263190
vn -0.833233 0.458266 0.309378
vn -0.833222 0.458249 -0.309432
vn 0.996121 0.027436 0.083610
vn 0.989932 0.091436 0.108042
vn 0.000000 0.485659 0.874148
vn -0.003182 0.625614 0.780126
vn 0.000000 0.485659 0.874148
vn -0.003182 0.625614 0.780126
vn -0.874174 0.406960 0.264961
vn -0.929788 0.079400 0.359431
vn 0.989932 0.091436 0.108042
vn 0.000000 0.485659 0.874148
vn 0.000000 0.983875 0.178859
vn 0.000000 0.485659 0.874148
vn 0.000000 0.983875 0.178859
vn -0.874174 0.406960 0.264961
vn 0.996434 -0.080144 0.026372
vn 0.996121 0.027436 0.083610
vn -0.000622 -0.622933 -0.782275
vn -0.022964 -0.557872 -0.829609
vn -0.000622 -0.622933 -0.782275
vn -0.022964 -0.557872 -0.829609
vn -0.064018 -0.660334 -0.748238
vn -0.929788 0.079400 0.359431
vn -0.986689 0.158107 0.038029
vn 0.996434 -0.080144 0.026372
vn 0.996121 0.027436 0.083610
vn 0.022478 0.545001 0.838134
vn -0.003182 0.625614 0.780126
vn 0.996434 -0.080144 0.026372
vn 0.956738 -0.269516 0.109604
vn -0.022964 -0.557872 -0.829609
vn -0.064018 -0.660334 -0.748238
vn 0.996434 -0.080144 0.026372
vn 0.956738 -0.269516 0.109604
vn 0.022478 0.545001 0.838134
vn 0.007575 0.477809 0.878431
vn 0.022478 0.545001 0.838134
vn 0.007575 0.477809 0.878431
vn -0.003182 0.625614 0.780126
vn -0.929788 0.079400 0.359431
vn -0.986689 0.158107 0.038029
vn 0.991182 0.013685 -0.131800
vn 0.956738 -0.269516 0.109604
vn -0.017372 -0.374910 -0.926898
vn -0.064018 -0.660334 -0.748238
vn -0.017372 -0.374910 -0.926898
vn -0.064018 -0.660334 -0.748238
vn -0.949722 0.313069 -0.004079
vn -0.986689 0.158107 0.038029
vn 0.991182 0.013685 -0.131800
vn 0.956738 -0.269516 0.109604
vn 0.063086 0.656772 0.751446
vn 0.007575 0.477809 0.878431
vn 0.063086 0.656772 0.751446
vn 0.007575 0.477809 0.878431
vn -0.949722 0.313069 -0.004079
vn -0.986689 0.158107 0.038029
vn 0.991182 0.013685 -0.131800
vn -0.017372 -0.374910 -0.926898
vn -0.137384 -0.764378 0.629962
vn -0.017372 -0.374910 -0.926898
vn -0.137384 -0.764378 0.629962
vn -0.949722 0.313069 -0.004079
vn 0.991182 0.013685 -0.131800
vn 0.063086 0.656772 0.751446
vn -0.137384 -0.764378 0.629962
vn 0.063086 0.656772 0.751446
vn -0.137384 -0.764378 0.629962
vn -0.949722 0.313069 -0.004079
vn 0.952819 0.025206 0.302489
vn 0.952822 0.025186 -0.302484
vn 0.635638 0.751357 0.177277
vn 0.635630 0.751351 -0.177329
vn 0.952819 0.025206 0.302489
vn 0.635638 0.751357 0.177277
vn 0.000000 0.164436 0.986388
vn 0.000000 0.857502 0.514480
vn 0.000000 0.164436 0.986388
vn 0.000000 0.857502 0.514480
vn -0.580535 0.770582 0.263027
vn -0.888068 0.038193 0.458124
vn -0.580535 0.770582 0.263027
vn -0.580496 0.770555 -0.263190
vn -0.888047 0.038172 -0.458166
vn -0.888068 0.038193 0.458124
vn 0.952819 0.025206 0.302489
vn 0.952822 0.025186 -0.302484
vn 0.809805 -0.494249 0.316124
vn 0.809809 -0.494310 -0.316018
vn 0.952819 0.025206 0.302489
vn 0.809805 -0.494249 0.316124
vn 0.000792 -0.199374 0.979923
vn 0.000000 0.164436 0.986388
vn 0.000792 -0.199374 0.979923
vn 0.000000 0.164436 0.986388
vn -0.120655 -0.980497 0.155141
vn -0.888068 0.038193 0.458124
vn -0.120676 -0.980494 -0.155144
vn -0.120655 -0.980497 0.155141
vn -0.888047 0.038172 -0.458166
vn -0.888068 0.038193 0.458124
vn 0.925870 -0.119439 0.358468
vn 0.925914 -0.119501 -0.358332
vn 0.809805 -0.494249 0.316124
vn 0.809809 -0.494310 -0.316018
vn 0.925870 -0.119439 0.358468
vn 0.809805 -0.494249 0.316124
vn 0.016050 -0.179540 0.983620
vn 0.000792 -0.199374 0.979923
vn 0.016050 -0.179540 0.983620
vn 0.000792 -0.199374 0.979923
vn -0.120655 -0.980497 0.155141
vn -0.879288 -0.047403 0.473925
vn -0.120676 -0.980494 -0.155144
vn -0.120655 -0.980497 0.155141
vn -0.879310 -0.047425 -0.473882
vn -0.879288 -0.047403 0.473925
vn 0.925870 -0.119439 0.358468
vn 0.925914 -0.119501 -0.358332
vn 0.761963 0.572609 0.302542
vn 0.761984 0.572581 -0.302540
vn 0.925870 -0.119439 0.358468
vn 0.761963 0.572609 0.302542
vn 0.016050 -0.179540 0.983620
vn -0.034809 0.255046 0.966302
vn 0.016050 -0.179540 0.983620
vn -0.034809 0.255046 0.966302
vn -0.856278 0.266906 0.442208
vn -0.879288 -0.047403 0.473925
vn -0.856278 0.266906 0.442208
vn -0.856229 0.266889 -0.442315
vn -0.879310 -0.047425 -0.473882
vn -0.879288 -0.047403 0.473925
vn 0.761963 0.572609 0.302542
vn 0.761984 0.572581 -0.302540
vn 0.000000 0.987555 0.157273
vn 0.000017 0.987548 -0.157315
vn 0.761963 0.572609 0.302542
vn 0.000000 0.987555 0.157273
vn -0.034809 0.255046 0.966302
vn 0.000000 0.987555 0.157273
vn -0.034809 0.255046 0.966302
vn -0.856278 0.266906 0.442208
vn 0.000000 0.987555 0.157273
vn 0.000017 0.987548 -0.157315
vn -0.856278 0.266906 0.442208
vn -0.856229 0.266889 -0.442315
vn 0.982990 -0.044314 -0.178232
vn 0.974171 0.115999 -0.193737
vn 0.023772 -0.039231 -0.998947
vn 0.000017 0.148323 -0.988939
vn 0.974171 0.115999 -0.193737
vn 0.959779 -0.185963 -0.210339
vn 0.000018 -0.176835 -0.984241
vn 0.000017 0.148323 -0.988939
vn 0.023772 -0.039231 -0.998947
vn 0.000017 0.148323 -0.988939
vn -0.972000 -0.047381 -0.230154
vn -0.979446 -0.075602 -0.187004
vn 0.000018 -0.176835 -0.984241
vn 0.000017 0.148323 -0.988939
vn -0.952750 -0.068937 -0.295831
vn -0.972000 -0.047381 -0.230154
vn 0.982742 -0.085655 -0.163957
vn 0.980187 0.109654 -0.164951
vn 0.013324 -0.004441 0.999901
vn 0.006015 -0.004688 0.999971
vn -0.004922 0.029374 0.999556
vn -0.012898 -0.098424 0.995061
vn -0.922404 -0.351310 -0.160478
vn -0.979446 -0.075602 -0.187004
vn 0.982742 -0.085655 -0.163957
vn 0.980187 0.109654 -0.164951
vn -0.013752 -0.118475 -0.992862
vn -0.021585 -0.094290 -0.995311
vn 0.023772 -0.039231 -0.998947
vn 0.023754 -0.142399 -0.989524
vn -0.922404 -0.351310 -0.160478
vn -0.979446 -0.075602 -0.187004
vn 0.023754 -0.142399 -0.989524
vn -0.013752 -0.118475 -0.992862
vn -0.922404 -0.351310 -0.160478
vn -0.984139 -0.066853 -0.164323
vn 0.982990 -0.044314 -0.178232
vn 0.980187 0.109654 -0.164951
vn 0.023772 -0.039231 -0.998947
vn 0.023754 -0.142399 -0.989524
vn -0.013752 -0.118475 -0.992862
vn 0.982990 -0.044314 -0.178232
vn 0.980187 0.109654 -0.164951
vn 0.013324 -0.004441 0.999901
vn -0.004922 0.029374 0.999556
vn -0.012898 -0.098424 0.995061
vn 0.013324 -0.004441 0.999901
vn -0.004922 0.029374 0.999556
vn -0.922404 -0.351310 -0.160478
vn -0.984139 -0.066853 -0.164323
vn 0.000015 -0.000015 -1.000000
vn -0.021585 -0.094290 -0.995311
vn -0.446026 0.892074 -0.072562
vn -0.984335 -0.052578 -0.168288
vn 0.986210 -0.000018 -0.165496
vn 0.982742 -0.085655 -0.163957
vn 0.000015 -0.000015 -1.000000
vn -0.021585 -0.094290 -0.995311
vn 0.006015 -0.004688 0.999971
vn 0.000000 0.000000 1.000000
vn 0.000000 0.000000 1.000000
vn -0.446026 0.892074 -0.072562
vn -0.984335 -0.052578 -0.168288
vn 0.986210 -0.000018 -0.165496
vn 0.982742 -0.085655 -0.163957
vn 0.006015 -0.004688 0.999971
vn 0.000000 0.000000 1.000000
vn -0.013752 -0.118475 -0.992862
vn -0.021585 -0.094290 -0.995311
vn -0.984139 -0.066853 -0.164323
vn -0.984335 -0.052578 -0.168288
vn 0.013324 -0.004441 0.999901
vn 0.006015 -0.004688 0.999971
vn -0.984139 -0.066853 -0.164323
vn -0.984335 -0.052578 -0.168288
vn 0.000015 -0.999997 -0.002616
vn 0.000015 -0.999997 -0.002616
vn 0.000015 -0.000015 -1.000000
vn 0.986210 -0.000018 -0.165496
vn 0.000015 -0.999997 -0.002616
vn 0.000015 -0.000015 -1.000000
vn 0.000015 -0.999997 -0.002616
vn 0.000000 0.000000 1.000000
vn 0.000015 -0.999997 -0.002616
vn 0.000000 0.000000 1.000000
vn 0.986210 -0.000018 -0.165496
vn 0.000015 -0.999997 -0.002616
vn 0.000000 0.000000 1.000000
vn 0.000000 0.000000 1.000000
vn -0.446026 0.892074 -0.072562
vn -0.986204 -0.000018 -0.165536
vn 0.000015 -0.000015 -1.000000
vn -0.446026 0.892074 -0.072562
vn -0.986204 -0.000018 -0.165536
vn 0.000015 -0.999997 -0.002616
vn 0.000000 0.000000 1.000000
vn -0.986204 -0.000018 -0.165536
vn 0.000015 -0.999997 -0.002616
vn 0.000015 -0.000015 -1.000000
vn -0.986204 -0.000018 -0.165536
vn 0.996121 0.027419 -0.083609
vn 0.989931 0.091456 -0.108044
vn 0.973527 0.105236 -0.202904
vn 0.959779 -0.185963 -0.210339
vn 0.000018 -0.176835 -0.984241
vn -0.000643 -0.622967 0.782248
vn 0.000018 -0.176835 -0.984241
vn -0.000643 -0.622967 0.782248
vn -0.833222 0.458249 -0.309432
vn -0.874149 0.406911 -0.265116
vn -0.929753 0.079382 -0.359525
vn -0.952750 -0.068937 -0.295831
vn 0.989931 0.091456 -0.108044
vn 0.973527 0.105236 -0.202904
vn 0.635630 0.751351 -0.177329
vn 0.000021 0.857497 -0.514490
vn 0.000018 0.983867 -0.178903
vn 0.000021 0.857497 -0.514490
vn 0.000018 0.983867 -0.178903
vn -0.580496 0.770555 -0.263190
vn -0.833222 0.458249 -0.309432
vn -0.874149 0.406911 -0.265116
vn 0.996121 0.027419 -0.083609
vn 0.989931 0.091456 -0.108044
vn 0.000021 0.485643 -0.874157
vn -0.003117 0.625512 -0.780208
vn 0.000021 0.485643 -0.874157
vn -0.003117 0.625512 -0.780208
vn -0.874149 0.406911 -0.265116
vn -0.929753 0.079382 -0.359525
vn 0.989931 0.091456 -0.108044
vn 0.000021 0.485643 -0.874157
vn 0.000018 0.983867 -0.178903
vn 0.000021 0.485643 -0.874157
vn 0.000018 0.983867 -0.178903
vn -0.874149 0.406911 -0.265116
vn 0.996432 -0.080193 -0.026305
vn 0.996121 0.027419 -0.083609
vn -0.000643 -0.622967 0.782248
vn -0.022942 -0.557887 0.829600
vn -0.000643 -0.622967 0.782248
vn -0.022942 -0.557887 0.829600
vn -0.064041 -0.660321 0.748248
vn -0.929753 0.079382 -0.359525
vn -0.986688 0.158098 -0.038103
vn 0.996432 -0.080193 -0.026305
vn 0.996121 0.027419 -0.083609
vn 0.022456 0.544966 -0.838157
vn -0.003117 0.625512 -0.780208
vn 0.996432 -0.080193 -0.026305
vn 0.956739 -0.269531 -0.109561
vn -0.022942 -0.557887 0.829600
vn -0.064041 -0.660321 0.748248
vn 0.996432 -0.080193 -0.026305
vn 0.956739 -0.269531 -0.109561
vn 0.022456 0.544966 -0.838157
vn 0.007596 0.477842 -0.878413
vn 0.022456 0.544966 -0.838157
vn 0.007596 0.477842 -0.878413
vn -0.003117 0.625512 -0.780208
vn -0.929753 0.079382 -0.359525
vn -0.986688 0.158098 -0.038103
vn 0.991177 0.013668 0.131837
vn 0.956739 -0.269531 -0.109561
vn -0.017351 -0.374927 0.926892
vn -0.064041 -0.660321 0.748248
vn -0.017351 -0.374927 0.926892
vn -0.064041 -0.660321 0.748248
vn -0.949722 0.313069 0.004001
vn -0.986688 0.158098 -0.038103
vn 0.991177 0.013668 0.131837
vn 0.956739 -0.269531 -0.109561
vn 0.063063 0.656785 -0.751436
vn 0.007596 0.477842 -0.878413
vn 0.063063 0.656785 -0.751436
vn 0.007596 0.477842 -0.878413
vn -0.949722 0.313069 0.004001
vn -0.986688 0.158098 -0.038103
vn 0.991177 0.013668 0.131837
vn -0.017351 -0.374927 0.926892
vn -0.137360 -0.764348 -0.630003
vn -0.017351 -0.374927 0.926892
vn -0.137360 -0.764348 -0.630003
vn -0.949722 0.313069 0.004001
vn 0.991177 0.013668 0.131837
vn 0.063063 0.656785 -0.751436
vn -0.137360 -0.764348 -0.630003
vn 0.063063 0.656785 -0.751436
vn -0.137360 -0.764348 -0.630003
vn -0.949722 0.313069 0.004001
vn 0.952822 0.025186 -0.302484
vn 0.635630 0.751351 -0.177329
vn 0.000017 0.164379 -0.986397
vn 0.000021 0.857497 -0.514490
vn 0.000017 0.164379 -0.986397
vn 0.000021 0.857497 -0.514490
vn -0.580496 0.770555 -0.263190
vn -0.888047 0.038172 -0.458166
vn 0.952822 0.025186 -0.302484
vn 0.809809 -0.494310 -0.316018
vn 0.000846 -0.199447 -0.979908
vn 0.000017 0.164379 -0.986397
vn 0.000846 -0.199447 -0.979908
vn 0.000017 0.164379 -0.986397
vn -0.120676 -0.980494 -0.155144
vn -0.888047 0.038172 -0.458166
vn 0.925914 -0.119501 -0.358332
vn 0.809809 -0.494310 -0.316018
vn 0.016106 -0.179611 -0.983606
vn 0.000846 -0.199447 -0.979908
vn 0.016106 -0.179611 -0.983606
vn 0.000846 -0.199447 -0.979908
vn -0.120676 -0.980494 -0.155144
vn -0.879310 -0.047425 -0.473882
vn 0.925914 -0.119501 -0.358332
vn 0.761984 0.572581 -0.302540
vn 0.016106 -0.179611 -0.983606
vn -0.034749 0.255009 -0.966314
vn 0.016106 -0.179611 -0.983606
vn -0.034749 0.255009 -0.966314
vn -0.856229 0.266889 -0.442315
vn -0.879310 -0.047425 -0.473882
vn 0.761984 0.572581 -0.302540
vn 0.000017 0.987548 -0.157315
vn -0.034749 0.255009 -0.966314
vn 0.000017 0.987548 -0.157315
vn -0.034749 0.255009 -0.966314
vn -0.856229 0.266889 -0.442315
vn 0.925797 0.338974 0.167323
vn -0.948762 0.285089 0.136293
vn -0.965699 0.192424 0.174349
vn -0.953097 0.230168 0.196544
vn -0.897230 0.286245 0.336218
vn 0.708030 0.679690 0.191612
vn -0.405843 0.838432 0.363762
vn -0.888068 0.038193 0.458124
vn -0.888068 0.038193 0.458124
vn -0.944402 -0.050925 0.324826
vn 0.969646 -0.238444 0.054141
vn 0.761963 0.572609 0.302542
vn 0.921492 0.384258 -0.056563
vn -0.941929 -0.069967 -0.328443
vn -0.959233 0.158425 -0.234038
vn -0.064841 0.550956 -0.832012
vn -0.917724 0.378669 -0.119970
vn 0.998141 0.040050 -0.045939
vn -0.405824 0.838418 -0.363816
vn 0.897147 0.267370 -0.351627
vn -0.953296 0.297127 -0.054249
usemtl npc_mat
f 19/19/19 5/5/5 23/23/23
f 19/19/19 2/2/2 5/5/5
f 6/6/6 123/123/123 25/25/25
f 6/6/6 128/128/128 123/123/123
f 37/37/37 76/76/76 45/45/45
f 37/37/37 85/85/85 76/76/76
f 4/4/4 14/14/14 8/8/8
f 4/4/4 10/10/10 14/14/14
f 12/12/12 44/44/44 31/31/31
f 12/12/12 52/52/52 44/44/44
f 28/28/28 66/66/66 22/22/22
f 28/28/28 42/42/42 66/66/66
f 3/3/3 49/49/49 9/9/9
f 3/3/3 59/59/59 49/49/49
f 60/60/60 53/53/53 50/50/50
f 41/41/41 68/68/68 65/65/65
f 51/51/51 69/69/69 43/43/43
f 51/51/51 55/55/55 69/69/69
f 56/56/56 94/94/94 70/70/70
f 56/56/56 90/90/90 94/94/94
f 17/17/17 57/57/57 1/1/1
f 17/17/17 62/62/62 57/57/57
f 80/80/80 108/108/108 87/87/87
f 80/80/80 103/103/103 108/108/108
f 48/48/48 72/72/72 89/89/89
f 48/48/48 78/78/78 72/72/72
f 93/93/93 86/86/86 40/40/40
f 93/93/93 79/79/79 86/86/86
f 91/91/91 83/83/83 95/95/95
f 91/91/91 74/74/74 83/83/83
f 67/67/67 39/39/39 64/64/64
f 67/67/67 92/92/92 39/39/39
f 61/61/61 88/88/88 54/54/54
f 61/61/61 47/47/47 88/88/88
f 63/63/63 46/46/46 58/58/58
f 63/63/63 38/38/38 46/46/46
f 100/100/100 102/102/102 96/96/96
f 100/100/100 107/107/107 102/102/102
f 104/104/104 118/118/118 97/97/97
f 104/104/104 115/115/115 118/118/118
f 84/84/84 99/99/99 75/75/75
f 84/84/84 106/106/106 99/99/99
f 77/77/77 98/98/98 71/71/71
f 77/77/77 101/101/101 98/98/98
f 114/114/114 117/117/117 111/111/111
f 114/114/114 120/120/120 117/117/117
f 73/73/73 110/110/110 82/82/82
f 73/73/73 113/113/113 110/110/110
f 98/98/98 112/112/112 71/71/71
f 98/98/98 119/119/119 112/112/112
f 81/81/81 116/116/116 105/105/105
f 81/81/81 109/109/109 116/116/116
f 137/137/137 153/153/153 133/133/133
f 137/137/137 157/157/157 153/153/153
f 33/33/33 136/136/136 15/15/15
f 33/33/33 139/139/139 136/136/136
f 13/13/13 129/129/129 7/7/7
f 13/13/13 131/131/131 129/129/129
f 150/150/150 234/234/234 148/148/148
f 150/150/150 236/236/236 234/234/234
f 127/127/127 141/141/141 121/121/121
f 127/127/127 146/146/146 141/141/141
f 154/154/154 165/165/165 134/134/134
f 154/154/154 172/172/172 165/165/165
f 163/163/163 168/168/168 161/161/161
f 163/163/163 170/170/170 168/168/168
f 126/126/126 167/167/167 145/145/145
f 126/126/126 160/160/160 167/167/167
f 166/166/166 180/180/180 135/135/135
f 166/166/166 197/197/197 180/180/180
f 149/149/149 171/171/171 151/151/151
f 149/149/149 169/169/169 171/171/171
f 162/162/162 196/196/196 164/164/164
f 162/162/162 185/185/185 196/196/196
f 132/132/132 175/175/175 130/130/130
f 132/132/132 177/177/177 175/175/175
f 125/125/125 183/183/183 159/159/159
f 125/125/125 174/174/174 183/183/183
f 187/187/187 208/208/208 191/191/191
f 187/187/187 200/200/200 208/208/208
f 178/178/178 188/188/188 176/176/176
f 173/173/173 190/190/190 182/182/182
f 173/173/173 186/186/186 190/190/190
f 184/184/184 192/192/192 194/194/194
f 199/199/199 221/221/221 207/207/207
f 199/199/199 215/215/215 221/221/221
f 193/193/193 212/212/212 195/195/195
f 193/193/193 210/210/210 212/212/212
f 198/198/198 206/206/206 181/181/181
f 198/198/198 214/214/214 206/206/206
f 179/179/179 202/202/202 189/189/189
f 179/179/179 204/204/204 202/202/202
f 219/219/219 223/223/223 217/217/217
f 219/219/219 225/225/225 223/223/223
f 209/209/209 224/224/224 211/211/211
f 209/209/209 222/222/222 224/224/224
f 213/213/213 220/220/220 205/205/205
f 213/213/213 226/226/226 220/220/220
f 203/203/203 216/216/216 201/201/201
f 203/203/203 218/218/218 216/216/216
f 242/242/242 254/254/254 238/238/238
f 242/242/242 258/258/258 254/254/254
f 147/147/147 229/229/229 143/143/143
f 147/147/147 232/232/232 229/229/229
f 155/155/155 237/237/237 152/152/152
f 155/155/155 239/239/239 237/237/237
f 251/251/251 266/266/266 249/249/249
f 251/251/251 268/268/268 266/266/266
f 231/231/231 243/243/243 227/227/227
f 231/231/231 247/247/247 243/243/243
f 235/235/235 250/250/250 233/233/233
f 235/235/235 252/252/252 250/250/250
f 267/267/267 281/281/281 265/265/265
f 267/267/267 283/283/283 281/281/281
f 256/256/256 269/269/269 253/253/253
f 256/256/256 272/272/272 269/269/269
f 248/248/248 261/261/261 245/245/245
f 248/248/248 264/264/264 261/261/261
f 284/284/284 297/297/297 282/282/282
f 284/284/284 299/299/299 297/297/297
f 274/274/274 286/286/286 270/270/270
f 274/274/274 290/290/290 286/286/286
f 263/263/263 275/275/275 259/259/259
f 263/263/263 279/279/279 275/275/275
f 298/298/298 293/293/293 296/296/296
f 298/298/298 301/301/301 293/293/293
f 287/287/287 300/300/300 285/285/285
f 287/287/287 303/303/303 300/300/300
f 280/280/280 291/291/291 277/277/277
f 280/280/280 295/295/295 291/291/291
f 11/11/11 35/35/35 16/16/16
f 11/11/11 29/29/29 35/35/35
f 20/20/20 309/309/309 306/306/306
f 20/20/20 24/24/24 309/309/309
f 310/310/310 124/124/124 408/408/408
f 310/310/310 26/26/26 124/124/124
f 321/321/321 360/360/360 369/369/369
f 321/321/321 329/329/329 360/360/360
f 308/308/308 318/318/318 314/314/314
f 308/308/308 312/312/312 318/318/318
f 316/316/316 328/328/328 336/336/336
f 316/316/316 32/32/32 328/328/328
f 27/27/27 350/350/350 326/326/326
f 27/27/27 21/21/21 350/350/350
f 307/307/307 333/333/333 343/343/343
f 307/307/307 313/313/313 333/333/333
f 344/344/344 334/334/334 337/337/337
f 325/325/325 349/349/349 352/352/352
f 335/335/335 353/353/353 339/339/339
f 335/335/335 327/327/327 353/353/353
f 340/340/340 378/378/378 374/374/374
f 340/340/340 354/354/354 378/378/378
f 18/18/18 341/341/341 346/346/346
f 18/18/18 305/305/305 341/341/341
f 364/364/364 392/392/392 387/387/387
f 364/364/364 371/371/371 392/392/392
f 332/332/332 356/356/356 362/362/362
f 332/332/332 373/373/373 356/356/356
f 377/377/377 370/370/370 363/363/363
f 377/377/377 324/324/324 370/370/370
f 375/375/375 367/367/367 358/358/358
f 375/375/375 379/379/379 367/367/367
f 351/351/351 323/323/323 376/376/376
f 351/351/351 348/348/348 323/323/323
f 345/345/345 372/372/372 331/331/331
f 345/345/345 338/338/338 372/372/372
f 347/347/347 330/330/330 322/322/322
f 347/347/347 342/342/342 330/330/330
f 384/384/384 386/386/386 391/391/391
f 384/384/384 380/380/380 386/386/386
f 388/388/388 402/402/402 399/399/399
f 388/388/388 381/381/381 402/402/402
f 368/368/368 383/383/383 390/390/390
f 368/368/368 359/359/359 383/383/383
f 361/361/361 382/382/382 385/385/385
f 361/361/361 355/355/355 382/382/382
f 398/398/398 401/401/401 404/404/404
f 398/398/398 395/395/395 401/401/401
f 357/357/357 394/394/394 397/397/397
f 357/357/357 366/366/366 394/394/394
f 382/382/382 396/396/396 403/403/403
f 382/382/382 355/355/355 396/396/396
f 365/365/365 400/400/400 393/393/393
f 365/365/365 389/389/389 400/400/400
f 138/138/138 425/425/425 158/158/158
f 138/138/138 413/413/413 425/425/425
f 34/34/34 416/416/416 140/140/140
f 34/34/34 319/319/319 416/416/416
f 317/317/317 409/409/409 411/411/411
f 317/317/317 311/311/311 409/409/409
f 422/422/422 498/498/498 500/500/500
f 422/422/422 420/420/420 498/498/498
f 407/407/407 142/142/142 418/418/418
f 407/407/407 122/122/122 142/142/142
f 426/426/426 433/433/433 440/440/440
f 426/426/426 414/414/414 433/433/433
f 431/431/431 436/436/436 438/438/438
f 431/431/431 429/429/429 436/436/436
f 406/406/406 435/435/435 428/428/428
f 406/406/406 417/417/417 435/435/435
f 434/434/434 448/448/448 465/465/465
f 434/434/434 415/415/415 448/448/448
f 421/421/421 439/439/439 437/437/437
f 421/421/421 423/423/423 439/439/439
f 430/430/430 464/464/464 453/453/453
f 430/430/430 432/432/432 464/464/464
f 412/412/412 443/443/443 445/445/445
f 412/412/412 410/410/410 443/443/443
f 405/405/405 451/451/451 442/442/442
f 405/405/405 427/427/427 451/451/451
f 455/455/455 476/476/476 468/468/468
f 455/455/455 459/459/459 476/476/476
f 446/446/446 444/444/444 456/456/456
f 441/441/441 458/458/458 454/454/454
f 441/441/441 450/450/450 458/458/458
f 452/452/452 462/462/462 460/460/460
f 467/467/467 489/489/489 483/483/483
f 467/467/467 475/475/475 489/489/489
f 461/461/461 480/480/480 478/478/478
f 461/461/461 463/463/463 480/480/480
f 466/466/466 474/474/474 482/482/482
f 466/466/466 449/449/449 474/474/474
f 447/447/447 470/470/470 472/472/472
f 447/447/447 457/457/457 470/470/470
f 487/487/487 491/491/491 493/493/493
f 487/487/487 485/485/485 491/491/491
f 477/477/477 492/492/492 490/490/490
f 477/477/477 479/479/479 492/492/492
f 481/481/481 488/488/488 494/494/494
f 481/481/481 473/473/473 488/488/488
f 471/471/471 484/484/484 486/486/486
f 471/471/471 469/469/469 484/484/484
f 241/241/241 510/510/510 257/257/257
f 241/241/241 502/502/502 510/510/510
f 419/419/419 230/230/230 496/496/496
f 419/419/419 144/144/144 230/230/230
f 156/156/156 501/501/501 240/240/240
f 156/156/156 424/424/424 501/501/501
f 507/507/507 514/514/514 516/516/516
f 507/507/507 505/505/505 514/514/514
f 495/495/495 244/244/244 503/503/503
f 495/495/495 228/228/228 244/244/244
f 499/499/499 506/506/506 508/508/508
f 499/499/499 497/497/497 506/506/506
f 515/515/515 521/521/521 523/523/523
f 515/515/515 513/513/513 521/521/521
f 255/255/255 517/517/517 271/271/271
f 255/255/255 509/509/509 517/517/517
f 504/504/504 262/262/262 512/512/512
f 504/504/504 246/246/246 262/262/262
f 524/524/524 529/529/529 531/531/531
f 524/524/524 522/522/522 529/529/529
f 273/273/273 526/526/526 289/289/289
f 273/273/273 518/518/518 526/526/526
f 511/511/511 276/276/276 519/519/519
f 511/511/511 260/260/260 276/276/276
f 530/530/530 294/294/294 302/302/302
f 530/530/530 528/528/528 294/294/294
f 288/288/288 532/532/532 304/304/304
f 288/288/288 525/525/525 532/532/532
f 520/520/520 292/292/292 527/527/527
f 520/520/520 278/278/278 292/292/292
f 315/315/315 36/36/36 30/30/30
f 315/315/315 320/320/320 36/36/36
