# Apple ModelIO OBJ File: sol
mtllib sol.mtl
g submesh
v -11.4146 10.9501 -3.37308
v -11.8769 10.233 -3.3792
v -12.3162 10.6695 -1.54207
v -11.6213 11.1771 -1.54064
v -8.08001 12.3707 -1.64951
v -6.66983 12.3397 -4.72866
v -9.65059 8.87534 -4.60031
v -10.5173 8.09293 -4.65189
v -4.52658 9.32998 -6.82423
v -13.3263 8.00819 -3.7556
v -14.0089 8.55639 -1.67047
v -11.1784 5.82682 -4.85584
v -12.0843 10.4601 0.174429
v -11.42 11.0389 0.0834844
v -13.4291 8.07809 0.217624
v -7.66754 12.0665 1.44166
v -3.52534 12.0002 3.23974
v -5.26395 13.3845 -1.76068
v -2.84298 13.0637 -5.58774
v -0.00080013 11.8805 -6.50865
v -3.50403 5.08176 -7.51961
v -7.56473 4.85892 -5.43678
v -0.00080032 5.16722 -8.00828
v -8.5046 5.17202 -4.55061
v -8.82119 0.766028 -3.78014
v -9.18049 2.9317 -1.5847
v -9.5519 1.9224 -1.65632
v -13.2319 -0.334869 -5.53906
v -16.9253 2.19173 -4.9008
v -10.9995 -1.67681 -1.66682
v -17.6994 2.74123 -1.85617
v -16.7374 1.91199 0.716038
v -13.7466 0.109158 1.92791
v -11.7159 5.00072 1.51621
v -11.0636 6.705 1.31899
v -10.1094 7.19473 1.60411
v -5.67037 8.2472 3.10867
v -0.00080014 9.30186 4.21184
v -0.00080015 10.1403 3.80418
v -3.49741 14.0559 3.31873
v -4.93621 15.1864 -1.5281
v -2.78768 15.4226 -4.15478
v -0.00080013 15.3832 -5.8085
v 2.78608 15.4226 -4.15478
v 2.84138 13.0637 -5.58774
v 6.66823 12.3397 -4.72866
v 4.52497 9.32998 -6.82423
v 3.50243 5.08176 -7.51961
v -0.00080044 -0.775036 -7.73658
v -3.44003 -0.786527 -7.36713
v 3.43843 -0.786527 -7.36713
v 7.56313 4.85892 -5.43678
v 7.82227 -0.125168 -5.61513
v 9.64899 8.87534 -4.60031
v 11.413 10.9501 -3.37308
v 11.6197 11.1771 -1.54064
v 8.07841 12.3707 -1.64951
v 5.26235 13.3845 -1.76068
v 4.93461 15.1864 -1.5281
v 1.60834 13.0332 -4.21711
v 3.89857 12.3715 -1.21112
v -0.00080013 13.3244 -4.97249
v -1.60994 13.0332 -4.21711
v -3.90017 12.3715 -1.21112
v -3.59805 11.4474 1.15301
v -0.00080015 10.2093 3.08791
v 3.52374 12.0002 3.23974
v 3.49581 14.0559 3.31873
v 3.59645 11.4474 1.15301
v -0.00080015 12.0415 1.06455
v -0.00080014 12.3382 -0.434242
v 7.66594 12.0665 1.44166
v 11.4184 11.0389 0.0834843
v 12.3146 10.6695 -1.54207
v 11.8753 10.233 -3.3792
v 12.0827 10.4601 0.174429
v 10.5157 8.09293 -4.65189
v 8.503 5.17202 -4.55061
v 8.81959 0.766028 -3.78014
v 9.13626 -5.57687 -3.90072
v 7.96378 -5.47243 -5.6555
v 3.57974 -5.36591 -7.73827
v 9.17889 2.9317 -1.5847
v 9.52224 -5.68309 -2.01158
v 11.1768 5.82682 -4.85584
v 9.5503 1.9224 -1.65632
v 13.3247 8.00819 -3.7556
v 14.0073 8.55639 -1.67047
v 13.4275 8.07809 0.217624
v 10.1078 7.19473 1.60411
v 11.062 6.705 1.31899
v 11.7143 5.00072 1.51621
v 5.66877 8.2472 3.10867
v 9.19993 4.11892 1.75441
v 4.37145 4.42493 3.59038
v -0.00079942 4.27648 3.77859
v 10.0771 4.14753 1.43944
v 9.37162 0.344268 0.401033
v 9.76438 -5.82353 -0.413267
v 10.2325 -11.3453 0.0242538
v 10.4794 -11.3666 -2.07788
v 10.5444 -11.3535 -4.31876
v 8.6563 -11.3889 -6.23898
v 3.79969 -11.4313 -8.31955
v -0.00080013 -5.38649 -7.80759
v -0.00080013 -11.4443 -8.7131
v 6.74069 -11.256 -5.51614
v 3.43664 -11.2547 -7.01148
v -0.00080013 -10.8491 -7.51793
v 7.73549 -11.0921 -3.89853
v 7.83357 -10.7841 -1.96626
v 7.80099 -10.8885 0.0698031
v 7.96577 -5.85129 1.90673
v 8.44674 -11.5213 2.51225
v 7.31121 -11.2414 1.93228
v 7.19808 -0.772794 1.96718
v 3.36495 -1.06687 3.48159
v -0.00079963 -0.997468 3.75481
v -4.37305 4.42493 3.59038
v -3.36655 -1.06687 3.48159
v -2.46975 -6.06865 4.14913
v -0.00080002 -6.13618 4.27242
v 2.46815 -6.06865 4.14913
v 2.46019 -11.3746 4.85309
v 2.63401 -10.9824 3.38436
v 2.16148 -16.6464 3.15603
v 6.8358 -17.3495 2.28679
v 9.14039 -17.6805 0.342677
v 9.53836 -17.8364 -1.95261
v 8.65837 -17.6758 -3.92527
v 6.99375 -17.5271 -5.35214
v 3.36048 -17.561 -6.54695
v -0.00080016 -17.8002 -6.84357
v -3.43824 -11.2547 -7.01148
v -3.80129 -11.4313 -8.31955
v -3.36208 -17.561 -6.54695
v -0.00080023 -20.1108 -3.86596
v -2.92161 -20.8175 -5.52439
v 2.92001 -20.8175 -5.52439
v 7.05897 -20.866 -5.26902
v 9.36062 -20.7005 -3.98034
v 10.2219 -20.7869 -1.83134
v 9.62804 -20.7316 0.697362
v 6.59203 -20.4148 2.59434
v 2.18783 -19.3019 2.60382
v -0.00079977 -16.6661 3.49629
v -0.00080019 -10.9353 3.79108
v -0.00080013 -18.7864 2.01005
v -0.00080013 -11.4249 5.0123
v -2.46179 -11.3746 4.85309
v -2.63561 -10.9824 3.38436
v -2.16308 -16.6464 3.15603
v -2.18943 -19.3019 2.60382
v -2.55969 -23.4812 2.19404
v -0.00080014 -21.5124 -1.55343
v 2.55809 -23.4812 2.19404
v 6.97894 -23.4245 2.64728
v 10.0369 -22.9429 0.849829
v 10.7018 -22.7342 -1.82049
v 9.72627 -22.7218 -4.02638
v 7.3158 -23.069 -5.33028
v 2.88711 -22.7024 -5.39998
v -2.88871 -22.7024 -5.39998
v -6.99535 -17.5271 -5.35214
v -7.06057 -20.866 -5.26902
v -7.3174 -23.069 -5.33028
v -3.89006 -31.8601 -4.5803
v -8.19451 -30.6769 -5.63473
v -2.18533 -32.3973 -1.4628
v -3.75987 -32.0299 1.15656
v 3.88846 -31.8601 -4.5803
v 2.18373 -32.3973 -1.4628
v 3.75827 -32.0299 1.15656
v -6.59363 -20.4148 2.59434
v -6.98054 -23.4245 2.64728
v -8.46819 -30.7076 2.85266
v -6.8374 -17.3495 2.28679
v -7.31281 -11.2414 1.93228
v -8.44834 -11.5213 2.51225
v -7.96737 -5.85129 1.90673
v -10.2341 -11.3453 0.0242537
v -9.76598 -5.82353 -0.413267
v -7.80259 -10.8885 0.0698031
v -9.14199 -17.6805 0.342677
v -9.62965 -20.7316 0.697363
v -10.0385 -22.9429 0.849829
v -11.652 -29.6478 1.044
v -7.53553 -29.7901 1.38132
v -5.06612 -30.3621 0.208512
v -10.2149 -28.7008 -0.141283
v -4.4258 -29.8596 -1.29135
v -4.97022 -30.412 -3.53917
v -7.71998 -29.1594 -4.23822
v -11.9866 -29.4934 -4.20323
v -9.72787 -22.7218 -4.02638
v -9.91828 -28.7009 -3.30386
v -10.621 -28.569 -1.9847
v -12.5809 -29.3388 -1.82823
v -10.7034 -22.7342 -1.82049
v -10.2235 -20.7869 -1.83134
v -9.53996 -17.8364 -1.95261
v -7.83517 -10.7841 -1.96626
v -10.481 -11.3666 -2.07788
v -9.52384 -5.68309 -2.01158
v -9.37322 0.344268 0.401033
v -7.19969 -0.772794 1.96718
v -9.20153 4.11892 1.75441
v -10.0787 4.14753 1.43944
v -9.13787 -5.57687 -3.90072
v -10.546 -11.3535 -4.31876
v -7.73709 -11.0921 -3.89853
v -8.65998 -17.6758 -3.92527
v -9.36222 -20.7005 -3.98034
v -6.74229 -11.256 -5.51614
v -8.6579 -11.3889 -6.23898
v -7.96538 -5.47243 -5.6555
v -7.82387 -0.125168 -5.61513
v -3.58134 -5.36591 -7.73827
v -14.5214 -1.5899 2.06866
v -11.8501 -3.36828 -1.5818
v -17.6601 0.455659 0.984867
v -13.9108 -1.97559 -5.6556
v -17.7571 -8.77158 2.22342
v -15.3499 -10.4889 -1.2039
v -16.9797 -8.80214 -5.45788
v -21.2091 -5.9012 1.90254
v -22.5129 -4.51437 -1.7803
v -18.6375 1.35555 -1.8526
v -19.648 -4.09172 -1.60441
v -18.3993 -4.82092 -0.340292
v -17.0398 -6.86822 0.376238
v -15.9698 -7.51754 -1.4258
v -16.9485 -6.48047 -3.48955
v -21.3579 -5.48742 -5.49484
v -17.8119 0.706138 -5.01789
v -18.6941 -4.90348 -3.71813
v 8.46659 -30.7076 2.85266
v 4.42421 -29.8596 -1.29135
v 5.06452 -30.3621 0.208512
v 7.53393 -29.7901 1.38132
v 11.6504 -29.6478 1.044
v 10.2133 -28.7008 -0.141284
v 9.91668 -28.7009 -3.30386
v 10.6194 -28.569 -1.9847
v 7.71838 -29.1594 -4.23822
v 4.96862 -30.412 -3.53917
v 8.19291 -30.6769 -5.63473
v 11.985 -29.4934 -4.20323
v 12.5793 -29.3388 -1.82823
v 13.745 0.109158 1.92791
v 16.7358 1.91199 0.716038
v 10.9979 -1.67681 -1.66682
v 17.6978 2.74123 -1.85617
v 17.6585 0.455659 0.984867
v 18.6359 1.35555 -1.8526
v 14.5198 -1.5899 2.06866
v 11.8485 -3.36828 -1.5818
v 13.2303 -0.334869 -5.53906
v 13.9092 -1.97559 -5.6556
v 15.3483 -10.4889 -1.2039
v 17.7555 -8.77158 2.22342
v 16.9781 -8.80214 -5.45788
v 21.2076 -5.9012 1.90254
v 22.5113 -4.51437 -1.7803
v 17.8103 0.706138 -5.01789
v 21.3563 -5.48742 -5.49484
v 16.9237 2.19173 -4.9008
v 18.6925 -4.90348 -3.71813
v 16.9469 -6.48048 -3.48955
v 15.9682 -7.51754 -1.4258
v 17.0382 -6.86822 0.376237
v 18.3977 -4.82092 -0.340292
v 19.6464 -4.09172 -1.60441
v -0.00080013 12.8552 -4.17492
v -4.02997 16.089 0.109321
v -4.40811 17.7215 -1.93169
v -0.00080013 18.1317 -2.70697
v -0.00080013 16.096 0.0765469
v -4.75228 19.5511 -7.06789
v -0.00080013 19.6294 -7.72441
v 4.40651 17.7215 -1.93169
v 4.02837 16.089 0.109321
v 4.75068 19.5511 -7.06789
v -4.04101 17.2248 2.47802
v -0.00080013 16.0962 4.58687
v -5.06552 22.1532 2.55604
v -5.5402 24.3397 2.55
v -5.50385 24.8881 2.30717
v -5.64167 25.6101 -6.39373
v -0.00080013 25.3126 -8.11196
v 5.64007 25.6101 -6.39373
v 5.06392 22.1532 2.55604
v 5.5386 24.3397 2.55
v 5.50225 24.8881 2.30717
v 4.03941 17.2248 2.47802
v -0.00080013 23.4407 4.58559
v -0.00080013 25.1805 4.15919
v -0.00080013 25.2219 7.25769
v -5.38335 24.394 6.47405
v -5.38339 24.952 6.46905
v -4.34229 29.0811 0.857777
v -4.27573 29.2099 -3.91015
v -0.00080013 25.7707 4.00543
v -0.00080013 25.7919 6.73876
v -0.00080013 29.8456 2.90648
v -0.00080013 29.8612 -4.82882
v 4.27413 29.2099 -3.91015
v 4.34068 29.0811 0.857777
v 5.38179 24.952 6.46905
v 5.38175 24.394 6.47405
v -0.00080013 25.2488 9.79474
v -3.05858 24.9474 8.8689
v 3.05698 24.9474 8.8689
v -3.05511 25.5105 8.88698
v -0.00080013 25.8152 9.81769
v 3.05351 25.5105 8.88698
vn -0.489109 -0.539809 -0.685112
vn -0.567923 -0.653026 -0.50102
vn -0.745216 -0.0348008 -0.665914
vn -0.510713 -0.0272007 -0.859321
vn -0.282508 0.00830025 -0.959229
vn -0.342307 -0.606512 -0.717614
vn -0.375398 -0.913194 -0.158599
vn -0.287204 -0.954214 -0.0836012
vn -0.264201 -0.941305 -0.210101
vn -0.551805 -0.709507 -0.438304
vn -0.826843 -0.00220011 -0.562429
vn 0.351386 -0.936163 -0.0112995
vn -0.574787 0.637786 -0.512688
vn -0.461277 0.540573 -0.703565
vn -0.60249 0.696188 -0.390293
vn -0.334389 0.63578 -0.695678
vn -0.406301 0.878703 -0.250601
vn -0.662405 -0.0663005 -0.746206
vn -0.377598 -0.805397 -0.456898
vn -0 -0.950733 -0.310011
vn -0.250906 -0.966724 -0.0499013
vn -0.541708 -0.840512 0.00960014
vn 0 -0.996969 -0.0777976
vn -0.73306 -0.662664 0.153292
vn -0.91227 -0.409486 0.0091997
vn -0.591474 -0.45458 0.66597
vn 0.9526 0.0421 0.3013
vn 0.402002 -0.911805 0.0837005
vn -0.5149 -0.7602 -0.3962
vn 0.931311 0.0572007 0.359704
vn -0.834638 0.0500023 -0.548525
vn -0.544704 0.741106 -0.392503
vn 0.273696 0.961385 0.0287996
vn 0.237705 0.971222 0.0150003
vn -0.259393 0.963575 -0.0650983
vn -0.324212 0.939936 -0.106804
vn -0.285191 0.955469 -0.0757975
vn 0 0.997956 -0.0638972
vn -0 0.822405 -0.568903
vn -0.0112002 0.461607 -0.887014
vn -0.367395 0.202797 -0.907686
vn -0.0570009 -0.062501 -0.996416
vn -0 -0.316288 -0.948663
vn 0.0570009 -0.062501 -0.996416
vn 0.377598 -0.805397 -0.456898
vn 0.342307 -0.606512 -0.717614
vn 0.264201 -0.941305 -0.210101
vn 0.250906 -0.966724 -0.0499013
vn -0 -0.999981 -0.00619988
vn -0.251093 -0.967774 -0.0190995
vn 0.251093 -0.967774 -0.0190995
vn 0.541708 -0.840512 0.00960014
vn 0.648075 -0.76097 -0.0303988
vn 0.375398 -0.913194 -0.158599
vn 0.489109 -0.539809 -0.685112
vn 0.510713 -0.0272007 -0.859321
vn 0.282508 0.00830025 -0.959229
vn 0.662405 -0.0663005 -0.746206
vn 0.367395 0.202797 -0.907686
vn -0.392794 0.590391 -0.705089
vn -0.642892 0.303896 -0.703091
vn 0 0.757517 -0.652815
vn 0.392794 0.590391 -0.705089
vn 0.642892 0.303896 -0.703091
vn 0.609894 0.0214998 -0.792192
vn -0 -0.267608 -0.963528
vn 0.406301 0.878703 -0.250601
vn 0.0112002 0.461607 -0.887014
vn -0.609894 0.0214998 -0.792192
vn 0 0.426616 -0.904433
vn 0 0.195808 -0.980642
vn 0.334389 0.63578 -0.695678
vn 0.461277 0.540573 -0.703565
vn 0.745216 -0.0348008 -0.665914
vn 0.567923 -0.653026 -0.50102
vn 0.574787 0.637786 -0.512688
vn 0.287204 -0.954214 -0.0836012
vn 0.73306 -0.662664 0.153292
vn 0.91227 -0.409486 0.0091997
vn 0.91942 -0.372308 -0.126703
vn 0.62759 -0.771688 -0.103098
vn 0.236211 -0.967844 -0.0865039
vn 0.591474 -0.45458 0.66597
vn 0.989962 -0.0879966 -0.110596
vn -0.351386 -0.936163 -0.0112995
vn -0.9526 0.0421 0.3013
vn 0.551805 -0.709507 -0.438304
vn 0.826843 -0.00220011 -0.562429
vn 0.60249 0.696188 -0.390293
vn 0.324212 0.939936 -0.106804
vn 0.259393 0.963575 -0.0650983
vn -0.237705 0.971222 0.0150003
vn 0.285191 0.955469 -0.0757975
vn 0.414286 0.90257 0.117196
vn 0.219304 0.974916 0.0380006
vn 0 0.999878 0.0155997
vn 0.833622 0.504114 0.225706
vn 0.926125 0.36461 0.0967026
vn 0.945619 0.312806 -0.0892018
vn 0.703992 0.225097 0.673592
vn 0.714635 -0.00940046 0.699434
vn 0.769955 -0.27512 0.575741
vn 0.476423 -0.593329 0.648831
vn 0.160498 -0.69819 0.69769
vn -0 -0.996278 -0.0861981
vn 0 -0.676367 0.736564
vn 0.354195 -0.475793 0.805088
vn 0.122995 -0.563275 0.817064
vn 0 -0.492505 0.870309
vn 0.586286 -0.268594 0.764282
vn 0.672682 -0.0446988 0.73858
vn 0.59952 0.158905 0.784426
vn 0.580794 0.809991 -0.0811991
vn 0.441514 0.565618 0.696522
vn 0.281601 0.364501 0.887603
vn 0.499205 0.865208 0.0470005
vn 0.219098 0.975592 -0.0146999
vn 0 0.998964 -0.0454984
vn -0.219304 0.974916 0.0380006
vn -0.219098 0.975592 -0.0146999
vn -0.209307 0.971733 -0.109204
vn -0 0.992419 -0.122902
vn 0.209307 0.971733 -0.109204
vn 0.140897 0.678687 0.720786
vn 0.0823987 0.548491 0.832087
vn 0.0994015 0.986715 0.128502
vn 0.45609 0.889181 -0.0365992
vn 0.880693 0.444096 -0.164799
vn 0.973839 -0.0908036 -0.208308
vn 0.822288 -0.553192 -0.133498
vn 0.485591 -0.873884 0.0229996
vn 0.125198 -0.969086 0.212597
vn -0 -0.939884 0.341494
vn -0.122995 -0.563275 0.817064
vn -0.160498 -0.69819 0.69769
vn -0.125198 -0.969086 0.212597
vn -0 -0.813902 0.581002
vn 0.211707 -0.91903 0.332511
vn -0.211707 -0.91903 0.332511
vn 0.316488 -0.948565 0.00769972
vn 0.750994 -0.643395 -0.148499
vn 0.973544 -0.0811953 -0.213588
vn 0.806017 0.566712 -0.170804
vn 0.272505 0.961819 -0.0254005
vn -0.242098 0.939691 0.241598
vn 0 0.975001 0.2222
vn 0 0.503573 0.863953
vn 0 0.890188 0.455594
vn 0 0.654211 0.756312
vn -0.140897 0.678687 0.720786
vn -0.0823987 0.548491 0.832087
vn -0.0994015 0.986715 0.128502
vn 0.242098 0.939691 0.241598
vn 0.517689 0.837082 0.176896
vn -0 -0.00569991 0.999984
vn -0.517689 0.837082 0.176896
vn 0.178398 0.983687 -0.0230997
vn 0.766733 0.613727 -0.188308
vn 0.967725 -0.0436011 -0.248207
vn 0.708594 -0.681794 -0.181799
vn 0.196495 -0.979776 -0.0377991
vn -0.463707 -0.868814 0.173603
vn 0.463707 -0.868814 0.173603
vn -0.485591 -0.873884 0.0229996
vn -0.316488 -0.948565 0.00769972
vn -0.196495 -0.979776 -0.0377991
vn 0.0848034 -0.530021 0.843733
vn -0.349195 -0.499392 0.792888
vn 0.464795 -0.0382996 0.88459
vn 0.117806 0.436724 0.891849
vn -0.0848034 -0.530021 0.843733
vn -0.464795 -0.0382996 0.88459
vn -0.117806 0.436724 0.891849
vn -0.272505 0.961819 -0.0254005
vn -0.178398 0.983687 -0.0230997
vn -0.300696 0.581692 0.755789
vn -0.45609 0.889181 -0.0365992
vn -0.281601 0.364501 0.887603
vn -0.441514 0.565618 0.696522
vn -0.580794 0.809991 -0.0811991
vn -0.703992 0.225097 0.673592
vn -0.945619 0.312806 -0.0892018
vn -0.59952 0.158905 0.784426
vn -0.880693 0.444096 -0.164799
vn -0.806017 0.566712 -0.170804
vn -0.766733 0.613727 -0.188308
vn -0.677817 0.346209 0.648616
vn -0.265895 -0.440091 0.857683
vn -0.458398 -0.364199 0.810697
vn 0.00539991 -0.256296 0.966583
vn -0.521837 -0.0342024 0.85236
vn -0.468911 0.367809 0.803019
vn -0.212303 0.396806 0.893013
vn -0.653007 -0.445304 0.612606
vn -0.708594 -0.681794 -0.181799
vn -0.0142996 0.281092 0.959574
vn 0.0857015 -0.00270005 0.996317
vn -0.764978 -0.0271992 0.643482
vn -0.967725 -0.0436011 -0.248207
vn -0.973544 -0.0811953 -0.213588
vn -0.973839 -0.0908036 -0.208308
vn -0.672682 -0.0446988 0.73858
vn -0.714635 -0.00940046 0.699434
vn -0.989962 -0.0879966 -0.110596
vn -0.926125 0.36461 0.0967026
vn -0.499205 0.865208 0.0470005
vn -0.414286 0.90257 0.117196
vn -0.833622 0.504114 0.225706
vn -0.91942 -0.372308 -0.126703
vn -0.769955 -0.27512 0.575741
vn -0.586286 -0.268594 0.764282
vn -0.822288 -0.553192 -0.133498
vn -0.750994 -0.643395 -0.148499
vn -0.354195 -0.475793 0.805088
vn -0.476423 -0.593329 0.648831
vn -0.62759 -0.771688 -0.103098
vn -0.648075 -0.76097 -0.0303988
vn -0.236211 -0.967844 -0.0865039
vn 0.312406 0.947618 0.0665013
vn 0.907417 0.0885016 0.410807
vn -0.504375 0.773162 -0.384481
vn 0.419712 -0.891326 0.171405
vn -0.302202 0.539904 0.785606
vn 0.0941012 0.0573007 0.993912
vn -0.187809 -0.566127 0.802638
vn -0.787202 0.456801 0.414301
vn -0.946825 0.0304008 0.320309
vn -0.83281 0.0571007 -0.550606
vn -0.155398 -0.0479993 0.986685
vn -0.455377 -0.356382 0.815858
vn -0.715292 -0.494294 0.493994
vn -0.92476 -0.0802965 0.371984
vn -0.755346 0.359322 0.548033
vn -0.745178 -0.510485 0.429087
vn -0.512785 -0.783177 -0.35169
vn -0.395805 0.423005 0.81511
vn 0.300696 0.581692 0.755789
vn 0.521837 -0.0342024 0.85236
vn 0.458398 -0.364199 0.810697
vn 0.265895 -0.440091 0.857683
vn 0.677817 0.346209 0.648616
vn -0.00539991 -0.256296 0.966583
vn 0.0142996 0.281092 0.959574
vn -0.0857015 -0.00270005 0.996317
vn 0.212303 0.396806 0.893013
vn 0.468911 0.367809 0.803019
vn 0.349195 -0.499392 0.792888
vn 0.653007 -0.445304 0.612606
vn 0.764978 -0.0271992 0.643482
vn -0.273696 0.961385 0.0287996
vn 0.544704 0.741106 -0.392503
vn -0.931311 0.0572007 0.359704
vn 0.834638 0.0500023 -0.548525
vn 0.504301 0.773201 -0.384501
vn 0.83281 0.0571007 -0.550606
vn -0.312406 0.947618 0.0665013
vn -0.907417 0.0885016 0.410807
vn -0.402002 -0.911805 0.0837005
vn -0.419712 -0.891326 0.171405
vn -0.0941012 0.0573007 0.993912
vn 0.302202 0.539904 0.785606
vn 0.187809 -0.566127 0.802638
vn 0.787202 0.456801 0.414301
vn 0.946825 0.0304008 0.320309
vn 0.512785 -0.783177 -0.35169
vn 0.745178 -0.510485 0.429087
vn 0.5149 -0.7602 -0.3962
vn 0.395805 0.423005 0.81511
vn 0.755346 0.359322 0.548033
vn 0.92476 -0.0802965 0.371984
vn 0.715292 -0.494294 0.493994
vn 0.455377 -0.356382 0.815858
vn 0.155398 -0.0479993 0.986685
vn 0 0.212396 -0.977184
vn -0.563576 -0.162293 0.809965
vn -0.696415 -0.264006 0.667314
vn -0 -0.445893 0.895086
vn -0 -0.245711 0.969343
vn -0.606681 -0.609381 0.510484
vn -0 -0.828821 0.559514
vn 0.696415 -0.264006 0.667314
vn 0.563576 -0.162293 0.809965
vn 0.606681 -0.609381 0.510484
vn -0.700405 0.498203 0.511103
vn 0 0.775839 0.630931
vn -0.812474 0.573881 0.102697
vn -0.921227 0.278708 0.271408
vn -0.921194 0.211199 -0.326798
vn -0.774036 -0.585927 -0.239911
vn 0 -0.955339 -0.295512
vn 0.774036 -0.585927 -0.239911
vn 0.812474 0.573881 0.102697
vn 0.921227 0.278708 0.271408
vn 0.921194 0.211199 -0.326798
vn 0.700405 0.498203 0.511103
vn 0 0.999818 -0.0191003
vn 0 0.634294 0.773092
vn 0 0.0375997 0.999293
vn -0.659093 0.320197 0.680493
vn -0.759277 0.289391 -0.582882
vn -0.62799 0.360495 -0.68969
vn -0.585803 -0.295902 -0.754504
vn 0 0.509295 -0.860592
vn 0 -0.0312004 -0.999513
vn 0 0.638294 -0.769793
vn 0 -0.469986 -0.882674
vn 0.585803 -0.295902 -0.754504
vn 0.62799 0.360495 -0.68969
vn 0.759277 0.289391 -0.582882
vn 0.659093 0.320197 0.680493
vn -0 0.786013 0.61821
vn -0.334404 0.679909 0.652608
vn 0.334404 0.679909 0.652608
vn -0.456891 0.615088 -0.642587
vn -0 0.740148 -0.672444
vn 0.456891 0.615088 -0.642587
vt 0.649371 0.507884
vt 0.657349 0.502149
vt 0.667547 0.522419
vt 0.658463 0.526893
vt 0.61822 0.540963
vt 0.591814 0.511561
vt 0.634293 0.474272
vt 0.647374 0.466367
vt 0.565646 0.470338
vt 0.682446 0.483087
vt 0.693613 0.506923
vt 0.67109 0.444509
vt 0.367779 0.86883
vt 0.358559 0.865032
vt 0.366489 0.846855
vt 0.375744 0.851606
vt 0.330643 0.852012
vt 0.341279 0.829292
vt 0.422032 0.851425
vt 0.407261 0.884328
vt 0.472495 0.844023
vt 0.439013 0.896867
vt 0.585214 0.551236
vt 0.546886 0.516058
vt 0.514234 0.499978
vt 0.553845 0.420279
vt 0.609676 0.417627
vt 0.513375 0.421319
vt 0.626194 0.421736
vt 0.630893 0.365017
vt 0.657449 0.386859
vt 0.667871 0.379229
vt 0.7291 0.397078
vt 0.748403 0.440864
vt 0.703578 0.351696
vt 0.763353 0.47195
vt 0.253183 0.820576
vt 0.263322 0.787993
vt 0.278139 0.746764
vt 0.338833 0.776593
vt 0.363207 0.790389
vt 0.379455 0.794881
vt 0.443666 0.801001
vt 0.512575 0.810386
vt 0.513954 0.874607
vt 0.475177 0.920093
vt 0.474299 0.896601
vt 0.513939 0.863954
vt 0.418465 0.933032
vt 0.414869 0.912257
vt 0.381559 0.942921
vt 0.364139 0.91684
vt 0.347241 0.955146
vt 0.328168 0.91925
vt 0.680901 0.954642
vt 0.646548 0.942521
vt 0.663892 0.916387
vt 0.69987 0.918689
vt 0.481943 0.516815
vt 0.436897 0.513355
vt 0.46217 0.471514
vt 0.472887 0.421175
vt 0.512651 0.352548
vt 0.551718 0.351557
vt 0.473567 0.352401
vt 0.416973 0.419754
vt 0.419054 0.358334
vt 0.393554 0.477008
vt 0.37921 0.511014
vt 0.370545 0.530259
vt 0.411133 0.543389
vt 0.444389 0.552898
vt 0.61315 0.911957
vt 0.609614 0.932744
vt 0.815963 0.631129
vt 0.785716 0.661701
vt 0.762676 0.640802
vt 0.788347 0.610911
vt 0.74604 0.648141
vt 0.745679 0.67457
vt 0.729612 0.640333
vt 0.706009 0.660571
vt 0.704768 0.609725
vt 0.676611 0.629153
vt 0.672238 0.56517
vt 0.706385 0.583283
vt 0.735 0.543779
vt 0.732329 0.534862
vt 0.553674 0.896481
vt 0.552864 0.919976
vt 0.822083 0.567295
vt 0.787453 0.584433
vt 0.759929 0.544132
vt 0.762843 0.535294
vt 0.746981 0.579317
vt 0.74672 0.598463
vt 0.585008 0.897754
vt 0.552212 0.844526
vt 0.602536 0.852574
vt 0.616885 0.885632
vt 0.648768 0.853347
vt 0.656518 0.870647
vt 0.361349 0.526007
vt 0.371092 0.505464
vt 0.658068 0.848714
vt 0.665773 0.86696
vt 0.380274 0.469391
vt 0.400532 0.424226
vt 0.394649 0.367562
vt 0.398766 0.29446
vt 0.421631 0.297318
vt 0.474187 0.30059
vt 0.36852 0.389975
vt 0.376696 0.291531
vt 0.356028 0.448027
vt 0.357735 0.382437
vt 0.345515 0.486968
vt 0.334877 0.511124
vt 0.683443 0.831495
vt 0.693787 0.854292
vt 0.645772 0.796667
vt 0.662039 0.792403
vt 0.686528 0.778973
vt 0.581563 0.801919
vt 0.635949 0.751166
vt 0.567393 0.752546
vt 0.512968 0.749616
vt 0.648632 0.751955
vt 0.645756 0.696031
vt 0.677475 0.721758
vt 0.689224 0.715905
vt 0.645028 0.615454
vt 0.663529 0.614531
vt 0.63231 0.556884
vt 0.654192 0.549573
vt 0.383084 0.228505
vt 0.402933 0.237299
vt 0.424664 0.238546
vt 0.474947 0.238717
vt 0.512117 0.300966
vt 0.511473 0.238101
vt 0.437179 0.222489
vt 0.475294 0.224801
vt 0.511336 0.224645
vt 0.416631 0.213445
vt 0.398065 0.201933
vt 0.413199 0.973705
vt 0.392349 0.987832
vt 0.374203 0.959862
vt 0.395994 0.95227
vt 0.611269 0.619398
vt 0.603708 0.560159
vt 0.431283 0.959699
vt 0.424553 0.948629
vt 0.609017 0.683812
vt 0.555703 0.682314
vt 0.513418 0.683219
vt 0.458494 0.751794
vt 0.471143 0.681706
vt 0.485202 0.620171
vt 0.51386 0.619928
vt 0.54251 0.620591
vt 0.539279 0.560458
vt 0.483638 0.962636
vt 0.488973 0.947503
vt 0.248833 0.232625
vt 0.309459 0.231571
vt 0.306619 0.304141
vt 0.252003 0.302976
vt 0.345471 0.234063
vt 0.326925 0.312849
vt 0.371586 0.240111
vt 0.348656 0.320304
vt 0.651832 0.224284
vt 0.677182 0.220976
vt 0.693583 0.298802
vt 0.672571 0.307107
vt 0.703776 0.219378
vt 0.715218 0.294222
vt 0.751853 0.212735
vt 0.756739 0.291171
vt 0.795736 0.205751
vt 0.796063 0.295077
vt 0.547371 0.224041
vt 0.548001 0.237945
vt 0.839668 0.212401
vt 0.835358 0.290872
vt 0.795544 0.153388
vt 0.841386 0.165314
vt 0.74979 0.165662
vt 0.69701 0.178019
vt 0.665798 0.185115
vt 0.639233 0.190961
vt 0.353929 0.198484
vt 0.382163 0.207016
vt 0.31209 0.194082
vt 0.253474 0.196697
vt 0.221451 0.233129
vt 0.221848 0.303084
vt 0.221246 0.197116
vt 0.514047 0.962721
vt 0.513969 0.947723
vt 0.514287 0.559917
vt 0.489288 0.560085
vt 0.538964 0.947235
vt 0.544456 0.962311
vt 0.191694 0.303331
vt 0.194064 0.232947
vt 0.189015 0.197076
vt 0.167107 0.147059
vt 0.220919 0.139465
vt 0.274813 0.146425
vt 0.323638 0.160291
vt 0.361734 0.173799
vt 0.390124 0.185521
vt 0.631116 0.168555
vt 0.658516 0.161677
vt 0.689254 0.152321
vt 0.741973 0.142795
vt 0.795419 0.119437
vt 0.849036 0.142388
vt 0.887793 0.218679
vt 0.894255 0.177269
vt 0.901823 0.151513
vt 0.895651 0.0597087
vt 0.927249 0.0808961
vt 0.874658 0.0251703
vt 0.126327 0.0667779
vt 0.148955 0.0438401
vt 0.694752 0.0604728
vt 0.715492 0.0257757
vt 0.291791 0.0429983
vt 0.314678 0.065668
vt 0.130373 0.195153
vt 0.118443 0.1615
vt 0.0872464 0.0931106
vt 0.133431 0.232608
vt 0.137095 0.30514
vt 0.603404 0.947662
vt 0.596788 0.958807
vt 0.416451 0.617966
vt 0.424858 0.55883
vt 0.396299 0.555129
vt 0.382739 0.61352
vt 0.632007 0.950996
vt 0.61502 0.97262
vt 0.116889 0.314087
vt 0.0974496 0.235525
vt 0.0885874 0.200048
vt 0.0805028 0.175456
vt 0.0567251 0.108506
vt 0.0827764 0.07414
vt 0.106809 0.0554615
vt 0.0476153 0.086673
vt 0.110752 0.0363443
vt 0.918023 0.0234122
vt 0.912632 0.0504698
vt 0.935826 0.0662313
vt 0.95803 0.0948296
vt 0.932629 0.160634
vt 0.955765 0.0743531
vt 0.933295 0.00969648
vt 0.968623 0.0150111
vt 0.971335 0.0708802
vt 0.983073 0.0526373
vt 0.0244103 0.11528
vt 0.0245515 0.0889436
vt 0.0522472 0.187512
vt 0.060452 0.208912
vt 0.0714047 0.24188
vt 0.0952444 0.321797
vt 0.65388 0.958355
vt 0.636021 0.986526
vt 0.374518 0.547491
vt 0.364247 0.61232
vt 0.38086 0.694118
vt 0.348747 0.719386
vt 0.41779 0.682433
vt 0.389905 0.74945
vt 0.377196 0.750056
vt 0.625286 0.292052
vt 0.647284 0.28866
vt 0.33686 0.713257
vt 0.619957 0.235005
vt 0.639619 0.225796
vt 0.605779 0.21145
vt 0.625713 0.20359
vt 0.91964 0.306168
vt 0.898568 0.298022
vt 0.914398 0.220074
vt 0.939771 0.223189
vt 0.925519 0.184127
vt 0.952126 0.189771
vt 0.960078 0.167304
vt 0.98197 0.0944828
vt 0.876899 0.293607
vt 0.59826 0.23671
vt 0.585424 0.220925
vt 0.602492 0.295392
vt 0.606319 0.356315
vt 0.550027 0.29978
vt 0.296517 0.691713
vt 0.258856 0.737854
vt 0.275483 0.68353
vt 0.245348 0.779388
vt 0.721762 0.33945
vt 0.744396 0.386886
vt 0.193539 0.709117
vt 0.186239 0.66384
vt 0.803203 0.305685
vt 0.801239 0.352704
vt 0.185305 0.744462
vt 0.163732 0.780305
vt 0.235177 0.813684
vt 0.35362 0.621715
vt 0.318227 0.621723
vt 0.305553 0.602342
vt 0.336659 0.583386
vt 0.297965 0.576311
vt 0.312601 0.556571
vt 0.275316 0.573349
vt 0.271742 0.537252
vt 0.832293 0.325947
vt 0.828377 0.353846
vt 0.812873 0.394535
vt 0.763758 0.431637
vt 0.833154 0.376499
vt 0.84224 0.420857
vt 0.779785 0.463345
vt 0.853746 0.388842
vt 0.86626 0.371496
vt 0.263571 0.598673
vt 0.354055 0.0915382
vt 0.329906 0.0350527
vt 0.334067 0.0541221
vt 0.35831 0.0725162
vt 0.384749 0.106573
vt 0.39361 0.0846339
vt 0.607282 0.0540666
vt 0.621455 0.0163316
vt 0.634748 0.0755739
vt 0.619153 0.0722196
vt 0.656743 0.0107483
vt 0.654626 0.0673007
vt 0.677705 0.0513632
vt 0.672116 0.0243475
vt 0.663311 0.0819001
vt 0.632633 0.0960672
vt 0.608692 0.0959024
vt 0.416699 0.0866325
vt 0.417139 0.112966
vt 0.747358 0.74999
vt 0.761654 0.791266
vt 0.729672 0.69491
vt 0.771386 0.823873
vt 0.77967 0.782903
vt 0.789417 0.817213
vt 0.76668 0.741341
vt 0.750728 0.687
vt 0.29673 0.401834
vt 0.321268 0.355687
vt 0.281149 0.391982
vt 0.302739 0.343849
vt 0.839905 0.668427
vt 0.832113 0.713471
vt 0.223332 0.35908
vt 0.220257 0.311967
vt 0.839919 0.748799
vt 0.861015 0.784782
vt 0.262777 0.437338
vt 0.247448 0.469528
vt 0.18381 0.428436
vt 0.212645 0.401321
vt 0.278393 0.446219
vt 0.264129 0.477755
vt 0.19188 0.383725
vt 0.196139 0.360888
vt 0.191556 0.333
vt 0.237891 0.637313
vt 0.272164 0.627878
vt 0.28292 0.648313
vt 0.270071 0.669211
vt 0.309418 0.646261
vt 0.303138 0.682508
vt 0.331644 0.651399
vt 0.344212 0.68498
vt 0.171517 0.396607
vt 0.158558 0.379515
vt 0.291146 0.607737
vt 0.746169 0.638762
vt 0.895584 0.426682
vt 0.921346 0.416714
vt 0.928967 0.467136
vt 0.891691 0.464689
vt 0.984086 0.413077
vt 0.989312 0.471099
vt 0.915054 0.516144
vt 0.890761 0.50289
vt 0.976816 0.527957
vt 0.870826 0.412374
vt 0.840106 0.461302
vt 0.883986 0.353337
vt 0.890878 0.327775
vt 0.190882 0.629143
vt 0.181558 0.637206
vt 0.177725 0.501318
vt 0.231561 0.475435
vt 0.121405 0.440293
vt 0.11925 0.491566
vt 0.00724863 0.472952
vt 0.0589375 0.501201
vt 0.870015 0.574111
vt 0.873628 0.600363
vt 0.0485203 0.632473
vt 0.037978 0.624578
vt 0.864405 0.513842
vt 0.865083 0.701195
vt 0.874041 0.643673
vt 0.925842 0.629915
vt 0.926084 0.713082
vt 0.977723 0.64336
vt 0.987015 0.700827
vt 0.861255 0.726814
vt 0.926143 0.733298
vt 0.470117 0.215592
vt 0.482442 0.158569
vt 0.514223 0.131493
vt 0.514223 0.212375
vt 0.478996 0.154765
vt 0.511816 0.124287
vt 0.153926 0.580177
vt 0.153435 0.541616
vt 0.432311 0.109197
vt 0.420968 0.146233
vt 0.116029 0.646773
vt 0.11735 0.593287
vt 0.118372 0.538587
vt 0.0818093 0.540758
vt 0.0812897 0.578769
vt 0.514223 0.131493
vt 0.51663 0.124286
vt 0.54945 0.154765
vt 0.546004 0.158569
vt 0.596135 0.109197
vt 0.607478 0.146233
vt 0.990992 0.726423
vt 0.558329 0.215592
vt 0.514223 0.212375
vt 0.433553 0.200083
vt 0.460285 0.175506
vt 0.568161 0.175505
vt 0.594893 0.200083
vt 0.456388 0.171877
vt 0.428125 0.194696
vt 0.572058 0.171877
vt 0.600321 0.194696
usemtl CBMaterial
f 1/1/1 2/2/2 3/3/3
f 1/1/1 3/3/3 4/4/4
f 5/5/5 6/6/6 1/1/1
f 5/5/5 1/1/1 4/4/4
f 1/1/1 7/7/7 8/8/8
f 1/1/1 8/8/8 2/2/2
f 6/6/6 9/9/9 7/7/7
f 6/6/6 7/7/7 1/1/1
f 3/3/3 2/2/2 10/10/10
f 3/3/3 10/10/10 11/11/11
f 2/2/2 8/8/8 12/12/12
f 2/2/2 12/12/12 10/10/10
f 4/13/4 3/14/3 13/15/13
f 4/13/4 13/15/13 14/16/14
f 13/15/13 3/14/3 11/17/11
f 13/15/13 11/17/11 15/18/15
f 16/19/16 5/20/5 4/13/4
f 16/19/16 4/13/4 14/16/14
f 5/20/5 16/19/16 17/21/17
f 5/20/5 17/21/17 18/22/18
f 6/6/6 5/5/5 18/23/18
f 6/6/6 18/23/18 19/24/19
f 9/9/9 6/6/6 19/24/19
f 9/9/9 19/24/19 20/25/20
f 9/9/9 21/26/21 22/27/22
f 9/9/9 22/27/22 7/7/7
f 21/26/21 9/9/9 20/25/20
f 21/26/21 20/25/20 23/28/23
f 7/7/7 22/27/22 24/29/24
f 7/7/7 24/29/24 8/8/8
f 8/8/8 24/29/24 25/30/25
f 8/8/8 25/30/25 26/31/26
f 8/8/8 26/31/26 27/32/27
f 8/8/8 27/32/27 12/12/12
f 28/33/28 29/34/29 10/10/10
f 28/33/28 10/10/10 12/12/12
f 30/35/30 28/33/28 12/12/12
f 30/35/30 12/12/12 27/32/27
f 29/34/29 31/36/31 11/11/11
f 29/34/29 11/11/11 10/10/10
f 31/37/31 32/38/32 15/18/15
f 31/37/31 15/18/15 11/17/11
f 32/38/32 33/39/33 34/40/34
f 32/38/32 34/40/34 15/18/15
f 35/41/35 13/15/13 15/18/15
f 35/41/35 15/18/15 34/40/34
f 13/15/13 35/41/35 36/42/36
f 13/15/13 36/42/36 14/16/14
f 37/43/37 16/19/16 14/16/14
f 37/43/37 14/16/14 36/42/36
f 37/43/37 38/44/38 17/21/17
f 37/43/37 17/21/17 16/19/16
f 39/45/39 40/46/40 17/47/17
f 39/45/39 17/47/17 38/48/38
f 17/47/17 40/46/40 41/49/41
f 17/47/17 41/49/41 18/50/18
f 41/49/41 42/51/42 19/52/19
f 41/49/41 19/52/19 18/50/18
f 42/51/42 43/53/43 20/54/20
f 42/51/42 20/54/20 19/52/19
f 43/55/43 44/56/44 45/57/45
f 43/55/43 45/57/45 20/58/20
f 20/25/20 45/59/45 46/60/46
f 20/25/20 46/60/46 47/61/47
f 20/25/20 47/61/47 48/62/48
f 20/25/20 48/62/48 23/28/23
f 49/63/49 50/64/50 21/26/21
f 49/63/49 21/26/21 23/28/23
f 49/63/49 23/28/23 48/62/48
f 49/63/49 48/62/48 51/65/51
f 52/66/52 53/67/53 51/65/51
f 52/66/52 51/65/51 48/62/48
f 54/68/54 52/66/52 48/62/48
f 54/68/54 48/62/48 47/61/47
f 55/69/55 54/68/54 47/61/47
f 55/69/55 47/61/47 46/60/46
f 56/70/56 55/69/55 46/60/46
f 56/70/56 46/60/46 57/71/57
f 45/59/45 58/72/58 57/71/57
f 45/59/45 57/71/57 46/60/46
f 58/73/58 45/57/45 44/56/44
f 58/73/58 44/56/44 59/74/59
f 59/75/59 44/76/44 60/77/60
f 59/75/59 60/77/60 61/78/61
f 62/79/62 60/77/60 44/76/44
f 62/79/62 44/76/44 43/80/43
f 63/81/63 62/79/62 43/80/43
f 63/81/63 43/80/43 42/82/42
f 64/83/64 63/81/63 42/82/42
f 64/83/64 42/82/42 41/84/41
f 40/85/40 65/86/65 64/83/64
f 40/85/40 64/83/64 41/84/41
f 66/87/66 65/86/65 40/85/40
f 66/87/66 40/85/40 39/88/39
f 67/89/67 68/90/68 39/45/39
f 67/89/67 39/45/39 38/48/38
f 68/91/68 69/92/69 66/93/66
f 68/91/68 66/93/66 39/94/39
f 70/95/70 64/83/64 65/86/65
f 70/95/70 65/86/65 66/87/66
f 69/92/69 61/78/61 70/95/70
f 69/92/69 70/95/70 66/93/66
f 59/75/59 61/78/61 69/92/69
f 59/75/59 69/92/69 68/91/68
f 61/78/61 60/77/60 71/96/71
f 61/78/61 71/96/71 70/95/70
f 58/73/58 59/74/59 68/90/68
f 58/73/58 68/90/68 67/89/67
f 58/97/58 67/98/67 72/99/72
f 58/97/58 72/99/72 57/100/57
f 73/101/73 56/102/56 57/100/57
f 73/101/73 57/100/57 72/99/72
f 56/70/56 74/103/74 75/104/75
f 56/70/56 75/104/75 55/69/55
f 73/101/73 76/105/76 74/106/74
f 73/101/73 74/106/74 56/102/56
f 75/104/75 77/107/77 54/68/54
f 75/104/75 54/68/54 55/69/55
f 77/107/77 78/108/78 52/66/52
f 77/107/77 52/66/52 54/68/54
f 78/108/78 79/109/79 53/67/53
f 78/108/78 53/67/53 52/66/52
f 79/109/79 80/110/80 81/111/81
f 79/109/79 81/111/81 53/67/53
f 53/67/53 81/111/81 82/112/82
f 53/67/53 82/112/82 51/65/51
f 83/113/83 79/109/79 78/108/78
f 83/113/83 78/108/78 77/107/77
f 83/113/83 84/114/84 80/110/80
f 83/113/83 80/110/80 79/109/79
f 85/115/85 86/116/86 83/113/83
f 85/115/85 83/113/83 77/107/77
f 87/117/87 85/115/85 77/107/77
f 87/117/87 77/107/77 75/104/75
f 88/118/88 87/117/87 75/104/75
f 88/118/88 75/104/75 74/103/74
f 89/119/89 88/120/88 74/106/74
f 89/119/89 74/106/74 76/105/76
f 73/101/73 90/121/90 91/122/91
f 73/101/73 91/122/91 76/105/76
f 92/123/92 89/119/89 76/105/76
f 92/123/92 76/105/76 91/122/91
f 90/121/90 73/101/73 72/99/72
f 90/121/90 72/99/72 93/124/93
f 72/99/72 67/98/67 38/44/38
f 72/99/72 38/44/38 93/124/93
f 94/125/94 90/121/90 93/124/93
f 94/125/94 93/124/93 95/126/95
f 38/44/38 96/127/96 95/126/95
f 38/44/38 95/126/95 93/124/93
f 90/121/90 94/125/94 97/128/97
f 90/121/90 97/128/97 91/122/91
f 91/122/91 97/128/97 98/129/98
f 91/122/91 98/129/98 83/130/83
f 86/131/86 92/123/92 91/122/91
f 86/131/86 91/122/91 83/130/83
f 83/130/83 98/129/98 99/132/99
f 83/130/83 99/132/99 84/133/84
f 84/133/84 99/132/99 100/134/100
f 84/133/84 100/134/100 101/135/101
f 84/114/84 101/136/101 102/137/102
f 84/114/84 102/137/102 80/110/80
f 80/110/80 102/137/102 103/138/103
f 80/110/80 103/138/103 81/111/81
f 81/111/81 103/138/103 104/139/104
f 81/111/81 104/139/104 82/112/82
f 105/140/105 49/63/49 51/65/51
f 105/140/105 51/65/51 82/112/82
f 106/141/106 105/140/105 82/112/82
f 106/141/106 82/112/82 104/139/104
f 107/142/107 108/143/108 104/139/104
f 107/142/107 104/139/104 103/138/103
f 108/143/108 109/144/109 106/141/106
f 108/143/108 106/141/106 104/139/104
f 110/145/110 107/142/107 103/138/103
f 110/145/110 103/138/103 102/137/102
f 111/146/111 110/145/110 102/137/102
f 111/146/111 102/137/102 101/136/101
f 112/147/112 111/148/111 101/149/101
f 112/147/112 101/149/101 100/150/100
f 99/132/99 113/151/113 114/152/114
f 99/132/99 114/152/114 100/134/100
f 115/153/115 112/147/112 100/150/100
f 115/153/115 100/150/100 114/154/114
f 99/132/99 98/129/98 116/155/116
f 99/132/99 116/155/116 113/151/113
f 98/129/98 97/128/97 94/125/94
f 98/129/98 94/125/94 116/155/116
f 116/155/116 94/125/94 95/126/95
f 116/155/116 95/126/95 117/156/117
f 96/127/96 118/157/118 117/156/117
f 96/127/96 117/156/117 95/126/95
f 96/127/96 119/158/119 120/159/120
f 96/127/96 120/159/120 118/157/118
f 38/44/38 37/43/37 119/158/119
f 38/44/38 119/158/119 96/127/96
f 118/157/118 120/159/120 121/160/121
f 118/157/118 121/160/121 122/161/122
f 118/157/118 122/161/122 123/162/123
f 118/157/118 123/162/123 117/156/117
f 113/151/113 116/155/116 117/156/117
f 113/151/113 117/156/117 123/162/123
f 114/152/114 113/151/113 123/162/123
f 114/152/114 123/162/123 124/163/124
f 125/164/125 115/153/115 114/154/114
f 125/164/125 114/154/114 124/165/124
f 126/166/126 127/167/127 115/168/115
f 126/166/126 115/168/115 125/169/125
f 127/167/127 128/170/128 112/171/112
f 127/167/127 112/171/112 115/168/115
f 128/170/128 129/172/129 111/173/111
f 128/170/128 111/173/111 112/171/112
f 129/174/129 130/175/130 110/176/110
f 129/174/129 110/176/110 111/177/111
f 110/176/110 130/175/130 131/178/131
f 110/176/110 131/178/131 107/179/107
f 107/179/107 131/178/131 132/180/132
f 107/179/107 132/180/132 108/181/108
f 108/181/108 132/180/132 133/182/133
f 108/181/108 133/182/133 109/183/109
f 109/144/109 134/184/134 135/185/135
f 109/144/109 135/185/135 106/141/106
f 133/182/133 136/186/136 134/187/134
f 133/182/133 134/187/134 109/183/109
f 137/188/137 138/189/138 136/186/136
f 137/188/137 136/186/136 133/182/133
f 139/190/139 137/188/137 133/182/133
f 139/190/139 133/182/133 132/180/132
f 140/191/140 139/190/139 132/180/132
f 140/191/140 132/180/132 131/178/131
f 141/192/141 140/191/140 131/178/131
f 141/192/141 131/178/131 130/175/130
f 129/174/129 142/193/142 141/192/141
f 129/174/129 141/192/141 130/175/130
f 128/170/128 143/194/143 142/195/142
f 128/170/128 142/195/142 129/172/129
f 127/167/127 144/196/144 143/194/143
f 127/167/127 143/194/143 128/170/128
f 145/197/145 144/196/144 127/167/127
f 145/197/145 127/167/127 126/166/126
f 146/198/146 126/166/126 125/169/125
f 146/198/146 125/169/125 147/199/147
f 148/200/148 145/197/145 126/166/126
f 148/200/148 126/166/126 146/198/146
f 147/201/147 125/164/125 124/165/124
f 147/201/147 124/165/124 149/202/149
f 122/161/122 149/203/149 124/163/124
f 122/161/122 124/163/124 123/162/123
f 122/161/122 121/160/121 150/204/150
f 122/161/122 150/204/150 149/203/149
f 150/205/150 151/206/151 147/201/147
f 150/205/150 147/201/147 149/202/149
f 151/207/151 152/208/152 146/198/146
f 151/207/151 146/198/146 147/199/147
f 152/208/152 153/209/153 148/200/148
f 152/208/152 148/200/148 146/198/146
f 153/209/153 154/210/154 155/211/155
f 153/209/153 155/211/155 148/200/148
f 155/211/155 156/212/156 145/197/145
f 155/211/155 145/197/145 148/200/148
f 145/197/145 156/212/156 157/213/157
f 145/197/145 157/213/157 144/196/144
f 144/196/144 157/213/157 158/214/158
f 144/196/144 158/214/158 143/194/143
f 158/214/158 159/215/159 142/195/142
f 158/214/158 142/195/142 143/194/143
f 159/216/159 160/217/160 141/192/141
f 159/216/159 141/192/141 142/193/142
f 160/217/160 161/218/161 140/191/140
f 160/217/160 140/191/140 141/192/141
f 140/191/140 161/218/161 162/219/162
f 140/191/140 162/219/162 139/190/139
f 162/219/162 155/220/155 137/188/137
f 162/219/162 137/188/137 139/190/139
f 155/220/155 163/221/163 138/189/138
f 155/220/155 138/189/138 137/188/137
f 164/222/164 136/186/136 138/189/138
f 164/222/164 138/189/138 165/223/165
f 138/189/138 163/221/163 166/224/166
f 138/189/138 166/224/166 165/223/165
f 167/225/167 168/226/168 166/224/166
f 167/225/167 166/224/166 163/221/163
f 169/227/169 167/225/167 163/221/163
f 169/227/169 163/221/163 155/220/155
f 170/228/170 169/229/169 155/211/155
f 170/228/170 155/211/155 154/210/154
f 155/220/155 162/219/162 171/230/171
f 155/220/155 171/230/171 172/231/172
f 156/212/156 155/211/155 172/232/172
f 156/212/156 172/232/172 173/233/173
f 174/234/174 175/235/175 154/210/154
f 174/234/174 154/210/154 153/209/153
f 176/236/176 170/228/170 154/210/154
f 176/236/176 154/210/154 175/235/175
f 152/208/152 177/237/177 174/234/174
f 152/208/152 174/234/174 153/209/153
f 151/207/151 178/238/178 177/237/177
f 151/207/151 177/237/177 152/208/152
f 150/205/150 179/239/179 178/240/178
f 150/205/150 178/240/178 151/206/151
f 150/204/150 121/160/121 180/241/180
f 150/204/150 180/241/180 179/242/179
f 181/243/181 179/242/179 180/241/180
f 181/243/181 180/241/180 182/244/182
f 179/239/179 181/245/181 183/246/183
f 179/239/179 183/246/183 178/240/178
f 178/238/178 183/247/183 184/248/184
f 178/238/178 184/248/184 177/237/177
f 184/248/184 185/249/185 174/234/174
f 184/248/184 174/234/174 177/237/177
f 185/249/185 186/250/186 175/235/175
f 185/249/185 175/235/175 174/234/174
f 187/251/187 176/236/176 175/235/175
f 187/251/187 175/235/175 186/250/186
f 176/236/176 188/252/188 189/253/189
f 176/236/176 189/253/189 170/228/170
f 187/251/187 190/254/190 188/252/188
f 187/251/187 188/252/188 176/236/176
f 170/228/170 189/253/189 191/255/191
f 170/228/170 191/255/191 169/229/169
f 169/227/169 191/256/191 192/257/192
f 169/227/169 192/257/192 167/225/167
f 167/225/167 192/257/192 193/258/193
f 167/225/167 193/258/193 168/226/168
f 168/226/168 194/259/194 195/260/195
f 168/226/168 195/260/195 166/224/166
f 193/258/193 196/261/196 194/259/194
f 193/258/193 194/259/194 168/226/168
f 191/256/191 189/262/189 193/258/193
f 191/256/191 193/258/193 192/257/192
f 193/258/193 189/262/189 188/263/188
f 193/258/193 188/263/188 196/261/196
f 197/264/197 196/261/196 188/263/188
f 197/264/197 188/263/188 190/265/190
f 198/266/198 197/267/197 190/254/190
f 198/266/198 190/254/190 187/251/187
f 198/266/198 187/251/187 186/250/186
f 198/266/198 186/250/186 199/268/199
f 185/249/185 200/269/200 199/268/199
f 185/249/185 199/268/199 186/250/186
f 201/270/201 200/269/200 185/249/185
f 201/270/201 185/249/185 184/248/184
f 183/247/183 202/271/202 201/270/201
f 183/247/183 201/270/201 184/248/184
f 181/245/181 203/272/203 202/273/202
f 181/245/181 202/273/202 183/246/183
f 203/274/203 181/243/181 182/244/182
f 203/274/203 182/244/182 204/275/204
f 204/275/204 182/244/182 205/276/205
f 204/275/204 205/276/205 26/277/26
f 180/241/180 206/278/206 205/276/205
f 180/241/180 205/276/205 182/244/182
f 121/160/121 120/159/120 206/278/206
f 121/160/121 206/278/206 180/241/180
f 206/278/206 207/279/207 208/280/208
f 206/278/206 208/280/208 205/276/205
f 120/159/120 119/158/119 207/279/207
f 120/159/120 207/279/207 206/278/206
f 26/277/26 205/276/205 208/280/208
f 26/277/26 208/280/208 35/41/35
f 25/30/25 209/281/209 204/282/204
f 25/30/25 204/282/204 26/31/26
f 26/277/26 35/41/35 34/40/34
f 26/277/26 34/40/34 27/283/27
f 209/281/209 210/284/210 203/285/203
f 209/281/209 203/285/203 204/282/204
f 203/285/203 210/284/210 211/286/211
f 203/285/203 211/286/211 202/287/202
f 202/288/202 211/289/211 212/290/212
f 202/288/202 212/290/212 201/291/201
f 212/290/212 213/292/213 200/293/200
f 212/290/212 200/293/200 201/291/201
f 200/293/200 213/292/213 195/260/195
f 200/293/200 195/260/195 199/294/199
f 213/292/213 165/223/165 166/224/166
f 213/292/213 166/224/166 195/260/195
f 194/259/194 198/295/198 199/294/199
f 194/259/194 199/294/199 195/260/195
f 194/259/194 196/261/196 197/264/197
f 194/259/194 197/264/197 198/295/198
f 212/290/212 164/222/164 165/223/165
f 212/290/212 165/223/165 213/292/213
f 214/296/214 164/222/164 212/290/212
f 214/296/214 212/290/212 211/289/211
f 210/284/210 215/297/215 214/298/214
f 210/284/210 214/298/214 211/286/211
f 216/299/216 215/297/215 210/284/210
f 216/299/216 210/284/210 209/281/209
f 217/300/217 216/299/216 209/281/209
f 217/300/217 209/281/209 25/30/25
f 22/27/22 217/300/217 25/30/25
f 22/27/22 25/30/25 24/29/24
f 21/26/21 50/64/50 217/300/217
f 21/26/21 217/300/217 22/27/22
f 50/64/50 218/301/218 216/299/216
f 50/64/50 216/299/216 217/300/217
f 218/301/218 135/185/135 215/297/215
f 218/301/218 215/297/215 216/299/216
f 215/297/215 135/185/135 134/184/134
f 215/297/215 134/184/134 214/298/214
f 134/187/134 136/186/136 164/222/164
f 134/187/134 164/222/164 214/296/214
f 106/141/106 135/185/135 218/301/218
f 106/141/106 218/301/218 105/140/105
f 105/140/105 218/301/218 50/64/50
f 105/140/105 50/64/50 49/63/49
f 33/39/33 30/302/30 27/283/27
f 33/39/33 27/283/27 34/40/34
f 30/302/30 33/39/33 219/303/219
f 30/302/30 219/303/219 220/304/220
f 33/39/33 32/38/32 221/305/221
f 33/39/33 221/305/221 219/303/219
f 28/33/28 30/35/30 220/306/220
f 28/33/28 220/306/220 222/307/222
f 223/308/223 224/309/224 220/304/220
f 223/308/223 220/304/220 219/303/219
f 224/310/224 225/311/225 222/307/222
f 224/310/224 222/307/222 220/306/220
f 226/312/226 223/308/223 219/303/219
f 226/312/226 219/303/219 221/305/221
f 227/313/227 226/312/226 221/305/221
f 227/313/227 221/305/221 228/314/228
f 32/38/32 31/37/31 228/314/228
f 32/38/32 228/314/228 221/305/221
f 227/315/227 229/316/229 230/317/230
f 227/315/227 230/317/230 226/318/226
f 226/318/226 230/317/230 231/319/231
f 226/318/226 231/319/231 223/320/223
f 223/320/223 231/319/231 232/321/232
f 223/320/223 232/321/232 224/322/224
f 225/311/225 224/310/224 232/323/232
f 225/311/225 232/323/232 233/324/233
f 225/311/225 234/325/234 235/326/235
f 225/311/225 235/326/235 222/307/222
f 234/325/234 225/311/225 233/324/233
f 234/325/234 233/324/233 236/327/236
f 29/34/29 28/33/28 222/307/222
f 29/34/29 222/307/222 235/326/235
f 234/325/234 227/328/227 228/329/228
f 234/325/234 228/329/228 235/326/235
f 31/36/31 29/34/29 235/326/235
f 31/36/31 235/326/235 228/329/228
f 227/328/227 234/325/234 236/327/236
f 227/328/227 236/327/236 229/330/229
f 236/327/236 233/324/233 230/331/230
f 236/327/236 230/331/230 229/330/229
f 232/321/232 231/319/231 230/317/230
f 232/321/232 230/317/230 233/332/233
f 35/41/35 208/280/208 207/279/207
f 35/41/35 207/279/207 36/42/36
f 119/158/119 37/43/37 36/42/36
f 119/158/119 36/42/36 207/279/207
f 157/213/157 156/212/156 173/233/173
f 157/213/157 173/233/173 237/333/237
f 172/232/172 238/334/238 239/335/239
f 172/232/172 239/335/239 173/233/173
f 173/233/173 239/335/239 240/336/240
f 173/233/173 240/336/240 237/333/237
f 158/214/158 157/213/157 237/333/237
f 158/214/158 237/333/237 241/337/241
f 237/333/237 240/336/240 242/338/242
f 237/333/237 242/338/242 241/337/241
f 242/339/242 240/340/240 243/341/243
f 242/339/242 243/341/243 244/342/244
f 243/341/243 240/340/240 239/343/239
f 243/341/243 239/343/239 245/344/245
f 246/345/246 245/344/245 239/343/239
f 246/345/246 239/343/239 238/346/238
f 171/230/171 246/345/246 238/346/238
f 171/230/171 238/346/238 172/231/172
f 247/347/247 245/344/245 246/345/246
f 247/347/247 246/345/246 171/230/171
f 247/347/247 248/348/248 243/341/243
f 247/347/247 243/341/243 245/344/245
f 249/349/249 244/342/244 243/341/243
f 249/349/249 243/341/243 248/348/248
f 241/337/241 242/338/242 244/350/244
f 241/337/241 244/350/244 249/351/249
f 159/215/159 158/214/158 241/337/241
f 159/215/159 241/337/241 249/351/249
f 160/217/160 159/216/159 249/349/249
f 160/217/160 249/349/249 248/348/248
f 161/218/161 160/217/160 248/348/248
f 161/218/161 248/348/248 247/347/247
f 162/219/162 161/218/161 247/347/247
f 162/219/162 247/347/247 171/230/171
f 89/119/89 92/123/92 250/352/250
f 89/119/89 250/352/250 251/353/251
f 92/123/92 86/131/86 252/354/252
f 92/123/92 252/354/252 250/352/250
f 88/120/88 89/119/89 251/353/251
f 88/120/88 251/353/251 253/355/253
f 254/356/254 255/357/255 253/355/253
f 254/356/254 253/355/253 251/353/251
f 256/358/256 254/356/254 251/353/251
f 256/358/256 251/353/251 250/352/250
f 257/359/257 256/358/256 250/352/250
f 257/359/257 250/352/250 252/354/252
f 86/116/86 85/115/85 258/360/258
f 86/116/86 258/360/258 252/361/252
f 259/362/259 257/363/257 252/361/252
f 259/362/259 252/361/252 258/360/258
f 256/358/256 257/359/257 260/364/260
f 256/358/256 260/364/260 261/365/261
f 257/363/257 259/362/259 262/366/262
f 257/363/257 262/366/262 260/367/260
f 254/356/254 256/358/256 261/365/261
f 254/356/254 261/365/261 263/368/263
f 255/357/255 254/356/254 263/368/263
f 255/357/255 263/368/263 264/369/264
f 265/370/265 255/371/255 264/372/264
f 265/370/265 264/372/264 266/373/266
f 255/371/255 265/370/265 267/374/267
f 255/371/255 267/374/267 253/375/253
f 87/117/87 88/118/88 253/375/253
f 87/117/87 253/375/253 267/374/267
f 85/115/85 87/117/87 267/374/267
f 85/115/85 267/374/267 258/360/258
f 265/370/265 259/362/259 258/360/258
f 265/370/265 258/360/258 267/374/267
f 259/362/259 265/370/265 266/373/266
f 259/362/259 266/373/266 262/366/262
f 268/376/268 269/377/269 262/366/262
f 268/376/268 262/366/262 266/373/266
f 269/377/269 270/378/270 260/367/260
f 269/377/269 260/367/260 262/366/262
f 260/379/260 270/380/270 271/381/271
f 260/379/260 271/381/271 261/382/261
f 261/382/261 271/381/271 272/383/272
f 261/382/261 272/383/272 263/384/263
f 263/384/263 272/383/272 273/385/273
f 263/384/263 273/385/273 264/386/264
f 273/387/273 268/376/268 266/373/266
f 273/387/273 266/373/266 264/372/264
f 273/387/273 272/388/272 269/377/269
f 273/387/273 269/377/269 268/376/268
f 269/389/269 272/383/272 271/381/271
f 269/389/269 271/381/271 270/380/270
f 71/96/71 63/81/63 64/83/64
f 71/96/71 64/83/64 70/95/70
f 274/390/274 62/79/62 63/81/63
f 274/390/274 63/81/63 71/96/71
f 274/390/274 71/96/71 60/77/60
f 274/390/274 60/77/60 62/79/62
f 275/391/275 276/392/276 277/393/277
f 275/391/275 277/393/277 278/394/278
f 277/393/277 276/392/276 279/395/279
f 277/393/277 279/395/279 280/396/280
f 277/393/277 281/397/281 282/398/282
f 277/393/277 282/398/282 278/394/278
f 281/397/281 277/393/277 280/396/280
f 281/397/281 280/396/280 283/399/283
f 284/400/284 275/391/275 278/394/278
f 284/400/284 278/394/278 285/401/285
f 286/402/286 276/392/276 275/391/275
f 286/402/286 275/391/275 284/400/284
f 287/403/287 279/395/279 276/392/276
f 287/403/287 276/392/276 286/402/286
f 287/404/287 288/405/288 289/406/289
f 287/404/287 289/406/289 279/407/279
f 280/408/280 279/407/279 289/406/289
f 280/408/280 289/406/289 290/409/290
f 283/410/283 280/408/280 290/409/290
f 283/410/283 290/409/290 291/411/291
f 292/412/292 281/397/281 283/399/283
f 292/412/292 283/399/283 293/413/293
f 283/410/283 291/411/291 294/414/294
f 283/410/283 294/414/294 293/415/293
f 295/416/295 282/398/282 281/397/281
f 295/416/295 281/397/281 292/412/292
f 278/394/278 282/398/282 295/416/295
f 278/394/278 295/416/295 285/401/285
f 286/417/286 284/418/284 285/419/285
f 286/417/286 285/419/285 296/420/296
f 285/419/285 295/421/295 292/422/292
f 285/419/285 292/422/292 296/420/296
f 287/423/287 286/417/286 296/420/296
f 287/423/287 296/420/296 297/424/297
f 298/425/298 299/426/299 287/427/287
f 298/425/298 287/427/287 297/428/297
f 299/426/299 300/429/300 288/430/288
f 299/426/299 288/430/288 287/427/287
f 288/405/288 301/431/301 302/432/302
f 288/405/288 302/432/302 289/406/289
f 303/433/303 288/430/288 300/429/300
f 303/433/303 300/429/300 304/434/304
f 288/405/288 303/435/303 305/436/305
f 288/405/288 305/436/305 301/431/301
f 302/432/302 306/437/306 290/409/290
f 302/432/302 290/409/290 289/406/289
f 306/437/306 307/438/307 291/411/291
f 306/437/306 291/411/291 290/409/290
f 291/411/291 307/438/307 308/439/308
f 291/411/291 308/439/308 294/414/294
f 293/440/293 294/441/294 309/442/309
f 293/440/293 309/442/309 310/443/310
f 294/441/294 303/444/303 304/445/304
f 294/441/294 304/445/304 309/442/309
f 303/435/303 294/414/294 308/439/308
f 303/435/303 308/439/308 305/436/305
f 296/420/296 292/422/292 293/446/293
f 296/420/296 293/446/293 297/424/297
f 293/440/293 310/443/310 298/447/298
f 293/440/293 298/447/298 297/448/297
f 311/449/311 312/450/312 299/426/299
f 311/449/311 299/426/299 298/425/298
f 310/443/310 313/451/313 311/452/311
f 310/443/310 311/452/311 298/447/298
f 299/426/299 312/450/312 314/453/314
f 299/426/299 314/453/314 300/429/300
f 304/434/304 300/429/300 314/453/314
f 304/434/304 314/453/314 315/454/315
f 316/455/316 309/442/309 304/445/304
f 316/455/316 304/445/304 315/456/315
f 309/442/309 316/455/316 313/451/313
f 309/442/309 313/451/313 310/443/310
f 316/455/316 315/456/315 311/452/311
f 316/455/316 311/452/311 313/451/313
f 315/454/315 314/453/314 312/450/312
f 315/454/315 312/450/312 311/449/311
f 302/432/302 301/431/301 305/436/305
f 302/432/302 305/436/305 306/437/306
f 305/436/305 308/439/308 307/438/307
f 305/436/305 307/438/307 306/437/306
s off
