# Exported from Nomad Sculpt
o Default
usemtl Default
v -11.4145641 10.95006370 -3.37308359 0.999999940 0.999999940 0.999999940
v -11.8769064 10.23304748 -3.37920022 0.999999940 0.999999940 0.999999940
v -12.3162165 10.66950893 -1.5420711 0.999999940 0.999999940 0.999999940
v -11.6212645 11.17708015 -1.54064572 0.999999940 0.999999940 0.999999940
v -8.0800066 12.37072944 -1.64951193 0.999999940 0.999999940 0.999999940
v -6.66983032 12.33965778 -4.72865868 0.999999940 0.999999940 0.999999940
v -9.65058708 8.875339508 -4.60031414 0.999999940 0.999999940 0.999999940
v -10.5172844 8.092929840 -4.65189028 0.999999940 0.999999940 0.999999940
v -4.52657604 9.329981803 -6.82422543 0.999999940 0.999999940 0.999999940
v -13.3262548 8.008191108 -3.75559807 0.999999940 0.999999940 0.999999940
v -14.0089359 8.556388855 -1.67047477 0.999999940 0.999999940 0.999999940
v -11.1783705 5.826815605 -4.85583878 0.999999940 0.999999940 0.999999940
v -12.0843468 10.46010875 0.174428060 0.999999940 0.999999940 0.999999940
v -11.4200497 11.03886699 0.083483092 0.999999940 0.999999940 0.999999940
v -13.4291382 8.078085899 0.217622995 0.999999940 0.999999940 0.999999940
v -7.66754007 12.06647205 1.441659569 0.999999940 0.999999940 0.999999940
v -3.52534223 12.00024128 3.239736557 0.999999940 0.999999940 0.999999940
v -5.26394892 13.38448143 -1.76067924 0.999999940 0.999999940 0.999999940
v -2.84297967 13.06368160 -5.58773613 0.999999940 0.999999940 0.999999940
v -0.00080013 11.88050079 -6.5086503 0.999999940 0.999999940 0.999999940
v -3.50403428 5.081755638 -7.51960754 0.999999940 0.999999940 0.999999940
v -7.56472969 4.858921051 -5.43677902 0.999999940 0.999999940 0.999999940
v -0.00080032 5.167222023 -8.0082798 0.999999940 0.999999940 0.999999940
v -8.50460434 5.172022342 -4.55060768 0.999999940 0.999999940 0.999999940
v -8.82119083 0.766027927 -3.78013468 0.999999940 0.999999940 0.999999940
v -9.18048573 2.931694984 -1.58470285 0.999999940 0.999999940 0.999999940
v -9.55190086 1.922401547 -1.65632403 0.999999940 0.999999940 0.999999940
v -13.2318869 -0.33486927 -5.53906298 0.999999940 0.999999940 0.999999940
v -16.925272 2.191728353 -4.90079832 0.999999940 0.999999940 0.999999940
v -10.9995022 -1.67681003 -1.66681838 0.999999940 0.999999940 0.999999940
v -17.6994247 2.741234302 -1.85617399 0.999999940 0.999999940 0.999999940
v -16.737381 1.911988973 0.716037392 0.999999940 0.999999940 0.999999940
v -13.7465553 0.109158396 1.927907228 0.999999940 0.999999940 0.999999940
v -11.7158518 5.000716686 1.516211986 0.999999940 0.999999940 0.999999940
v -11.0636015 6.705001831 1.318985343 0.999999940 0.999999940 0.999999940
v -10.1094227 7.194732189 1.604112148 0.999999940 0.999999940 0.999999940
v -5.67037392 8.247200012 3.108669757 0.999999940 0.999999940 0.999999940
v -0.00080014 9.301859855 4.211835861 0.999999940 0.999999940 0.999999940
v -0.00080015 10.14030933 3.804182529 0.999999940 0.999999940 0.999999940
v -3.49740839 14.05588054 3.318727731 0.999999940 0.999999940 0.999999940
v -4.93621063 15.18639850 -1.52809894 0.999999940 0.999999940 0.999999940
v -2.78768444 15.42260551 -4.15478563 0.999999940 0.999999940 0.999999940
v -0.00080013 15.38315773 -5.80850506 0.999999940 0.999999940 0.999999940
v 2.786084175 15.42260551 -4.15478563 0.999999940 0.999999940 0.999999940
v 2.841379404 13.06368160 -5.58773613 0.999999940 0.999999940 0.999999940
v 6.668230056 12.33965778 -4.72865868 0.999999940 0.999999940 0.999999940
v 4.524974823 9.329981803 -6.82422543 0.999999940 0.999999940 0.999999940
v 3.502434253 5.081755638 -7.51960754 0.999999940 0.999999940 0.999999940
v -0.00080044 -0.77503663 -7.73657894 0.999999940 0.999999940 0.999999940
v -3.440027 -0.78652775 -7.36712599 0.999999940 0.999999940 0.999999940
v 3.438426733 -0.78652775 -7.36712599 0.999999940 0.999999940 0.999999940
v 7.563129425 4.858921051 -5.43677902 0.999999940 0.999999940 0.999999940
v 7.822273254 -0.12516861 -5.61513281 0.999999940 0.999999940 0.999999940
v 9.648986816 8.875339508 -4.60031366 0.999999940 0.999999940 0.999999940
v 11.41296386 10.95006370 -3.37308359 0.999999940 0.999999940 0.999999940
v 11.61966514 11.17708110 -1.54064572 0.999999940 0.999999940 0.999999940
v 8.078406333 12.37072944 -1.64951205 0.999999940 0.999999940 0.999999940
v 5.262349128 13.38448143 -1.76067936 0.999999940 0.999999940 0.999999940
v 4.934610366 15.18639850 -1.52809906 0.999999940 0.999999940 0.999999940
v 1.608342886 13.03317928 -4.21711016 0.999999940 0.999999940 0.999999940
v 3.898574352 12.37152671 -1.21112382 0.999999940 0.999999940 0.999999940
v -0.00080013 13.32439041 -4.97248888 0.999999940 0.999999940 0.999999940
v -1.60994315 13.03317928 -4.21711016 0.999999940 0.999999940 0.999999940
v -3.90017462 12.37152671 -1.2111237 0.999999940 0.999999940 0.999999940
v -3.59805179 11.44744300 1.153006434 0.999999940 0.999999940 0.999999940
v -0.00080015 10.20930862 3.087912797 0.999999940 0.999999940 0.999999940
v 3.523741960 12.00024128 3.239736318 0.999999940 0.999999940 0.999999940
v 3.495808124 14.05588054 3.318727731 0.999999940 0.999999940 0.999999940
v 3.596451520 11.44744300 1.153006315 0.999999940 0.999999940 0.999999940
v -0.00080015 12.04147243 1.064550638 0.999999940 0.999999940 0.999999940
v -0.00080014 12.33818817 -0.43424344 0.999999940 0.999999940 0.999999940
v 7.665939807 12.0664711 1.441659569 0.999999940 0.999999940 0.999999940
v 11.41844940 11.03886795 0.083482995 0.999999940 0.999999940 0.999999940
v 12.31461525 10.66950893 -1.54207015 0.999999940 0.999999940 0.999999940
v 11.87530612 10.23304748 -3.37920022 0.999999940 0.999999940 0.999999940
v 12.08274650 10.46010971 0.174428194 0.999999940 0.999999940 0.999999940
v 10.51568412 8.092929840 -4.65189028 0.999999940 0.999999940 0.999999940
v 8.503004074 5.172022819 -4.55060816 0.999999940 0.999999940 0.999999940
v 8.819590568 0.766027927 -3.78013468 0.999999940 0.999999940 0.999999940
v 9.136264801 -5.5768714 -3.90072155 0.999999940 0.999999940 0.999999940
v 7.963776588 -5.47242975 -5.65549612 0.999999940 0.999999940 0.999999940
v 3.579744339 -5.36591148 -7.73827219 0.999999940 0.999999940 0.999999940
v 9.178885459 2.931694984 -1.58470297 0.999999940 0.999999940 0.999999940
v 9.522238731 -5.68309164 -2.01157475 0.999999940 0.999999940 0.999999940
v 11.17677021 5.826815605 -4.85583925 0.999999940 0.999999940 0.999999940
v 9.550300598 1.922401666 -1.65632403 0.999999940 0.999999940 0.999999940
v 13.32465457 8.008191108 -3.75559855 0.999999940 0.999999940 0.999999940
v 14.00733566 8.556388855 -1.67047453 0.999999940 0.999999940 0.999999940
v 13.42753791 8.078085899 0.217623099 0.999999940 0.999999940 0.999999940
v 10.10782241 7.194732189 1.604112148 0.999999940 0.999999940 0.999999940
v 11.06200122 6.705001831 1.318985104 0.999999940 0.999999940 0.999999940
v 11.71425151 5.000716686 1.516211986 0.999999940 0.999999940 0.999999940
v 5.668773651 8.247199058 3.108669519 0.999999940 0.999999940 0.999999940
v 9.199931144 4.118918895 1.754413366 0.999999940 0.999999940 0.999999940
v 4.371453285 4.424926757 3.590377092 0.999999940 0.999999940 0.999999940
v -0.00079942 4.276479721 3.778589487 0.999999940 0.999999940 0.999999940
v 10.07710647 4.147531986 1.439435601 0.999999940 0.999999940 0.999999940
v 9.371618270 0.344267845 0.401033282 0.999999940 0.999999940 0.999999940
v 9.764379501 -5.82352686 -0.41326588 0.999999940 0.999999940 0.999999940
v 10.23248481 -11.345293 0.024255147 0.999999940 0.999999940 0.999999940
v 10.47938633 -11.3666077 -2.07787538 0.999999940 0.999999940 0.999999940
v 10.54435348 -11.3534851 -4.31875992 0.999999940 0.999999940 0.999999940
v 8.656297683 -11.3889208 -6.23897266 0.999999940 0.999999940 0.999999940
v 3.799694299 -11.4312515 -8.31954861 0.999999940 0.999999940 0.999999940
v -0.00080013 -5.38648796 -7.80758572 0.999999940 0.999999940 0.999999940
v -0.00080013 -11.4443054 -8.71309566 0.999999940 0.999999940 0.999999940
v 6.740685463 -11.2559576 -5.51613712 0.999999940 0.999999940 0.999999940
v 3.436638832 -11.2547388 -7.01147461 0.999999940 0.999999940 0.999999940
v -0.00080013 -10.849144 -7.51792908 0.999999940 0.999999940 0.999999940
v 7.735494613 -11.092063 -3.89852571 0.999999940 0.999999940 0.999999940
v 7.833574295 -10.7841034 -1.96625566 0.999999940 0.999999940 0.999999940
v 7.800986766 -10.888483 0.069804385 0.999999940 0.999999940 0.999999940
v 7.965768814 -5.85128784 1.906728148 0.999999940 0.999999940 0.999999940
v 8.446743965 -11.5212488 2.512252807 0.999999940 0.999999940 0.999999940
v 7.311209678 -11.2414379 1.932280063 0.999999940 0.999999940 0.999999940
v 7.198084831 -0.77279347 1.967183232 0.999999940 0.999999940 0.999999940
v 3.364946603 -1.06686521 3.481588602 0.999999940 0.999999940 0.999999940
v -0.00079963 -0.99746704 3.754806995 0.999999940 0.999999940 0.999999940
v -4.37305117 4.424927234 3.590377569 0.999999940 0.999999940 0.999999940
v -3.36654568 -1.06686604 3.481588602 0.999999940 0.999999940 0.999999940
v -2.46974802 -6.06865311 4.149127006 0.999999940 0.999999940 0.999999940
v -0.00080002 -6.13618088 4.272416114 0.999999940 0.999999940 0.999999940
v 2.468147754 -6.06865311 4.149127006 0.999999940 0.999999940 0.999999940
v 2.460194587 -11.3745613 4.853092193 0.999999940 0.999999940 0.999999940
v 2.634005785 -10.9824419 3.384357214 0.999999940 0.999999940 0.999999940
v 2.161479473 -16.6463947 3.156035184 0.999999940 0.999999940 0.999999940
v 6.835797309 -17.349474 2.286787986 0.999999940 0.999999940 0.999999940
v 9.140386581 -17.6805382 0.342679321 0.999999940 0.999999940 0.999999940
v 9.538355827 -17.8364086 -1.95260751 0.999999940 0.999999940 0.999999940
v 8.658374786 -17.6758003 -3.92526317 0.999999940 0.999999940 0.999999940
v 6.993748188 -17.5270863 -5.35213661 0.999999940 0.999999940 0.999999940
v 3.360479116 -17.5609798 -6.54694319 0.999999940 0.999999940 0.999999940
v -0.00080016 -17.8001537 -6.84356737 0.999999940 0.999999940 0.999999940
v -3.4382391 -11.2547398 -7.01147461 0.999999940 0.999999940 0.999999940
v -3.80129457 -11.4312515 -8.31954861 0.999999940 0.999999940 0.999999940
v -3.36207986 -17.5609798 -6.54694319 0.999999940 0.999999940 0.999999940
v -0.00080023 -20.1108437 -3.86595297 0.999999940 0.999999940 0.999999940
v -2.92160988 -20.8175354 -5.52439022 0.999999940 0.999999940 0.999999940
v 2.920009613 -20.8175354 -5.52439022 0.999999940 0.999999940 0.999999940
v 7.058965683 -20.8659897 -5.26901436 0.999999940 0.999999940 0.999999940
v 9.360616684 -20.7005062 -3.98033476 0.999999940 0.999999940 0.999999940
v 10.22187900 -20.78689 -1.83133411 0.999999940 0.999999940 0.999999940
v 9.628042221 -20.7316475 0.697364211 0.999999940 0.999999940 0.999999940
v 6.592033386 -20.4147549 2.594338655 0.999999940 0.999999940 0.999999940
v 2.187832832 -19.3019199 2.603821277 0.999999940 0.999999940 0.999999940
v -0.00079977 -16.6661034 3.496287584 0.999999940 0.999999940 0.999999940
v -0.00080019 -10.935257 3.791083097 0.999999940 0.999999940 0.999999940
v -0.00080013 -18.7864418 2.010055065 0.999999940 0.999999940 0.999999940
v -0.00080013 -11.4249182 5.012303352 0.999999940 0.999999940 0.999999940
v -2.46179485 -11.3745613 4.853092193 0.999999940 0.999999940 0.999999940
v -2.63560605 -10.9824438 3.384357690 0.999999940 0.999999940 0.999999940
v -2.16308069 -16.6463966 3.156035423 0.999999940 0.999999940 0.999999940
v -2.1894331 -19.3019161 2.603821516 0.999999940 0.999999940 0.999999940
v -2.55968761 -23.4812183 2.194045305 0.999999940 0.999999940 0.999999940
v -0.00080014 -21.5123863 -1.55342364 0.999999940 0.999999940 0.999999940
v 2.558087587 -23.4812183 2.194045305 0.999999940 0.999999940 0.999999940
v 6.978942394 -23.4245205 2.647280693 0.999999940 0.999999940 0.999999940
v 10.03690242 -22.9429398 0.849832058 0.999999940 0.999999940 0.999999940
v 10.70182704 -22.7341595 -1.82048643 0.999999940 0.999999940 0.999999940
v 9.726273536 -22.7217655 -4.02637959 0.999999940 0.999999940 0.999999940
v 7.315802097 -23.0689716 -5.33027363 0.999999940 0.999999940 0.999999940
v 2.887106180 -22.7023964 -5.39997387 0.999999940 0.999999940 0.999999940
v -2.88870645 -22.7023926 -5.39997387 0.999999940 0.999999940 0.999999940
v -6.99534845 -17.5270863 -5.35213661 0.999999940 0.999999940 0.999999940
v -7.06056595 -20.8659897 -5.26901436 0.999999940 0.999999940 0.999999940
v -7.31740189 -23.0689716 -5.33027363 0.999999940 0.999999940 0.999999940
v -3.89006186 -31.8600616 -4.58029699 0.999999940 0.999999940 0.999999940
v -8.19450665 -30.676918 -5.63472986 0.999999940 0.999999940 0.999999940
v -2.18532801 -32.3973007 -1.46279263 0.999999940 0.999999940 0.999999940
v -3.75987315 -32.0298653 1.156563639 0.999999940 0.999999940 0.999999940
v 3.888461589 -31.8600616 -4.58029699 0.999999940 0.999999940 0.999999940
v 2.183727741 -32.3973007 -1.46279263 0.999999940 0.999999940 0.999999940
v 3.758272171 -32.0298653 1.156563758 0.999999940 0.999999940 0.999999940
v -6.59363413 -20.4147549 2.594338655 0.999999940 0.999999940 0.999999940
v -6.98054266 -23.4245205 2.647280693 0.999999940 0.999999940 0.999999940
v -8.46818733 -30.7075539 2.852662086 0.999999940 0.999999940 0.999999940
v -6.83739805 -17.349474 2.286787986 0.999999940 0.999999940 0.999999940
v -7.31280994 -11.2414389 1.932280182 0.999999940 0.999999940 0.999999940
v -8.44834328 -11.5212488 2.512251138 0.999999940 0.999999940 0.999999940
v -7.96736908 -5.85128784 1.906728148 0.999999940 0.999999940 0.999999940
v -10.2340851 -11.345293 0.024255065 0.999999940 0.999999940 0.999999940
v -9.76597977 -5.82352686 -0.41326588 0.999999940 0.999999940 0.999999940
v -7.80258703 -10.888483 0.069804407 0.999999940 0.999999940 0.999999940
v -9.14198685 -17.6805382 0.342679441 0.999999940 0.999999940 0.999999940
v -9.6296463 -20.7316475 0.697365522 0.999999940 0.999999940 0.999999940
v -10.0385027 -22.9429398 0.849831640 0.999999940 0.999999940 0.999999940
v -11.6520491 -29.6477909 1.044001460 0.999999940 0.999999940 0.999999940
v -7.53553391 -29.7900829 1.381327629 0.999999940 0.999999940 0.999999940
v -5.06612396 -30.3620491 0.208515420 0.999999940 0.999999940 0.999999940
v -10.2148962 -28.7008286 -0.14127998 0.999999940 0.999999940 0.999999940
v -4.42580414 -29.8596363 -1.29134762 0.999999940 0.999999940 0.999999940
v -4.97022104 -30.4119701 -3.53916907 0.999999940 0.999999940 0.999999940
v -7.71998072 -29.159399 -4.23821497 0.999999940 0.999999940 0.999999940
v -11.9866028 -29.4933834 -4.20322371 0.999999940 0.999999940 0.999999940
v -9.7278738 -22.7217674 -4.02638006 0.999999940 0.999999940 0.999999940
v -9.91828442 -28.7008648 -3.30385303 0.999999940 0.999999940 0.999999940
v -10.621007 -28.5690327 -1.98469985 0.999999940 0.999999940 0.999999940
v -12.5809088 -29.3387661 -1.82822716 0.999999940 0.999999940 0.999999940
v -10.7034273 -22.7341595 -1.82048678 0.999999940 0.999999940 0.999999940
v -10.2234793 -20.78689 -1.83133459 0.999999940 0.999999940 0.999999940
v -9.53995609 -17.8364086 -1.95260775 0.999999940 0.999999940 0.999999940
v -7.83517456 -10.7841034 -1.96625543 0.999999940 0.999999940 0.999999940
v -10.4809866 -11.3666077 -2.07787538 0.999999940 0.999999940 0.999999940
v -9.523839 -5.68309164 -2.01157475 0.999999940 0.999999940 0.999999940
v -9.37321854 0.344267845 0.401033282 0.999999940 0.999999940 0.999999940
v -7.1996851 -0.77279347 1.967183232 0.999999940 0.999999940 0.999999940
v -9.20153141 4.118918895 1.754413366 0.999999940 0.999999940 0.999999940
v -10.0787067 4.147531986 1.439435601 0.999999940 0.999999940 0.999999940
v -9.13786507 -5.5768714 -3.90072155 0.999999940 0.999999940 0.999999940
v -10.5459538 -11.3534851 -4.31875992 0.999999940 0.999999940 0.999999940
v -7.73709488 -11.092063 -3.89852548 0.999999940 0.999999940 0.999999940
v -8.65997505 -17.6758003 -3.92526317 0.999999940 0.999999940 0.999999940
v -9.36221695 -20.7005081 -3.98033524 0.999999940 0.999999940 0.999999940
v -6.74228573 -11.2559586 -5.51613712 0.999999940 0.999999940 0.999999940
v -8.6578989 -11.3889208 -6.23897266 0.999999940 0.999999940 0.999999940
v -7.96537685 -5.47242975 -5.65549612 0.999999940 0.999999940 0.999999940
v -7.82387352 -0.12516859 -5.61513281 0.999999940 0.999999940 0.999999940
v -3.5813446 -5.36591148 -7.73827219 0.999999940 0.999999940 0.999999940
v -14.5214243 -1.58989823 2.068657398 0.999999940 0.999999940 0.999999940
v -11.8500929 -3.36828089 -1.58180046 0.999999940 0.999999940 0.999999940
v -17.6601295 0.455659151 0.984867095 0.999999940 0.999999940 0.999999940
v -13.9108162 -1.97558761 -5.65559673 0.999999940 0.999999940 0.999999940
v -17.7571106 -8.77158356 2.223415851 0.999999940 0.999999940 0.999999940
v -15.349906 -10.4889231 -1.20389903 0.999999940 0.999999940 0.999999940
v -16.9797249 -8.80213928 -5.45787668 0.999999940 0.999999940 0.999999940
v -21.2091484 -5.90120173 1.902539491 0.999999940 0.999999940 0.999999940
v -22.5129433 -4.51437378 -1.78029776 0.999999940 0.999999940 0.999999940
v -18.6375465 1.355552673 -1.85259795 0.999999940 0.999999940 0.999999940
v -19.6480331 -4.09172297 -1.60440874 0.999999940 0.999999940 0.999999940
v -18.3993168 -4.82091522 -0.34029114 0.999999940 0.999999940 0.999999940
v -17.0397854 -6.86821938 0.376239180 0.999999940 0.999999940 0.999999940
v -15.9698467 -7.51754379 -1.42580152 0.999999940 0.999999940 0.999999940
v -16.9485149 -6.48047209 -3.48954964 0.999999940 0.999999940 0.999999940
v -21.3578606 -5.48742247 -5.49483967 0.999999940 0.999999940 0.999999940
v -17.8119316 0.706137657 -5.01788664 0.999999940 0.999999940 0.999999940
v -18.6941204 -4.90348244 -3.7181282 0.999999940 0.999999940 0.999999940
v 8.466587066 -30.7075539 2.852662086 0.999999940 0.999999940 0.999999940
v 4.424205303 -29.8596363 -1.29134774 0.999999940 0.999999940 0.999999940
v 5.064523220 -30.362051 0.208515271 0.999999940 0.999999940 0.999999940
v 7.533933639 -29.7900829 1.381327390 0.999999940 0.999999940 0.999999940
v 11.65044879 -29.6477909 1.044001698 0.999999940 0.999999940 0.999999940
v 10.21329593 -28.7008286 -0.14128011 0.999999940 0.999999940 0.999999940
v 9.916684150 -28.7008648 -3.3038528 0.999999940 0.999999940 0.999999940
v 10.61940765 -28.5690327 -1.98469996 0.999999940 0.999999940 0.999999940
v 7.718379974 -29.1594009 -4.23821545 0.999999940 0.999999940 0.999999940
v 4.968620777 -30.4119701 -3.53916836 0.999999940 0.999999940 0.999999940
v 8.192906379 -30.676918 -5.63472986 0.999999940 0.999999940 0.999999940
v 11.98500251 -29.4933834 -4.20322371 0.999999940 0.999999940 0.999999940
v 12.57930851 -29.3387661 -1.82822716 0.999999940 0.999999940 0.999999940
v 13.74495506 0.109158396 1.927907228 0.999999940 0.999999940 0.999999940
v 16.73578262 1.911988973 0.716037392 0.999999940 0.999999940 0.999999940
v 10.99790191 -1.67681003 -1.66681838 0.999999940 0.999999940 0.999999940
v 17.69782257 2.741234302 -1.85617399 0.999999940 0.999999940 0.999999940
v 17.65852737 0.455659151 0.984867095 0.999999940 0.999999940 0.999999940
v 18.63594818 1.355552673 -1.85259795 0.999999940 0.999999940 0.999999940
v 14.51982402 -1.58989823 2.068657398 0.999999940 0.999999940 0.999999940
v 11.84849262 -3.36828089 -1.58180046 0.999999940 0.999999940 0.999999940
v 13.23028659 -0.33486927 -5.53906298 0.999999940 0.999999940 0.999999940
v 13.90921592 -1.97558761 -5.65559673 0.999999940 0.999999940 0.999999940
v 15.34830570 -10.4889231 -1.20389903 0.999999940 0.999999940 0.999999940
v 17.75551223 -8.77158356 2.223415851 0.999999940 0.999999940 0.999999940
v 16.97812271 -8.80213928 -5.45787668 0.999999940 0.999999940 0.999999940
v 21.20755004 -5.90120173 1.902539491 0.999999940 0.999999940 0.999999940
v 22.51134491 -4.51437378 -1.78029776 0.999999940 0.999999940 0.999999940
v 17.81033325 0.706137657 -5.01788664 0.999999940 0.999999940 0.999999940
v 21.35626220 -5.48742247 -5.49483967 0.999999940 0.999999940 0.999999940
v 16.92367363 2.191728353 -4.90079832 0.999999940 0.999999940 0.999999940
v 18.69252204 -4.90348244 -3.7181282 0.999999940 0.999999940 0.999999940
v 16.94691467 -6.4804759 -3.48954916 0.999999940 0.999999940 0.999999940
v 15.96824836 -7.51754379 -1.4258014 0.999999940 0.999999940 0.999999940
v 17.03818512 -6.8682189 0.376237511 0.999999940 0.999999940 0.999999940
v 18.39771652 -4.82091713 -0.34029144 0.999999940 0.999999940 0.999999940
v 19.64643287 -4.09172297 -1.60440862 0.999999940 0.999999940 0.999999940
v -0.00080013 12.85522270 -4.17491865 0.999999940 0.999999940 0.999999940
v -4.02996969 16.08899688 0.109318584 0.999999940 0.999999940 0.999999940
v -4.40810871 17.72150039 -1.93169498 0.999999940 0.999999940 0.999999940
v -0.00080013 18.13169288 -2.7069726 0.999999940 0.999999940 0.999999940
v -0.00080013 16.09600830 0.076544970 0.999999940 0.999999940 0.999999940
v -4.75228167 19.55110549 -7.06789017 0.999999940 0.999999940 0.999999940
v -0.00080013 19.62938880 -7.72441483 0.999999940 0.999999940 0.999999940
v 4.406508445 17.72150039 -1.93169498 0.999999940 0.999999940 0.999999940
v 4.028369426 16.08899688 0.109318584 0.999999940 0.999999940 0.999999940
v 4.750681400 19.55110549 -7.06789017 0.999999940 0.999999940 0.999999940
v -4.04100752 17.22475242 2.478019237 0.999999940 0.999999940 0.999999940
v -0.00080013 16.09620666 4.586870670 0.999999940 0.999999940 0.999999940
v -5.06551933 22.15319252 2.556040763 0.999999940 0.999999940 0.999999940
v -5.54020357 24.33968162 2.549993991 0.999999940 0.999999940 0.999999940
v -5.50385094 24.88809585 2.307166576 0.999999940 0.999999940 0.999999940
v -5.64167452 25.61007690 -6.3937335 0.999999940 0.999999940 0.999999940
v -0.00080013 25.31255340 -8.11196136 0.999999940 0.999999940 0.999999940
v 5.640074253 25.61007690 -6.3937335 0.999999940 0.999999940 0.999999940
v 5.063919067 22.15319252 2.556040763 0.999999940 0.999999940 0.999999940
v 5.538603305 24.33968162 2.549993991 0.999999940 0.999999940 0.999999940
v 5.502250671 24.88809585 2.307166576 0.999999940 0.999999940 0.999999940
v 4.039407253 17.22475242 2.478019237 0.999999940 0.999999940 0.999999940
v -0.00080013 23.44068527 4.585582256 0.999999940 0.999999940 0.999999940
v -0.00080013 25.18053627 4.159185886 0.999999940 0.999999940 0.999999940
v -0.00080013 25.22190475 7.257689476 0.999999940 0.999999940 0.999999940
v -5.38335228 24.39396667 6.474046230 0.999999940 0.999999940 0.999999940
v -5.38339233 24.95202255 6.469043731 0.999999940 0.999999940 0.999999940
v -4.34228516 29.08106231 0.857773423 0.999999940 0.999999940 0.999999940
v -4.27573156 29.20992851 -3.9101491 0.999999940 0.999999940 0.999999940
v -0.00080013 25.77065658 4.005428314 0.999999940 0.999999940 0.999999940
v -0.00080013 25.79190826 6.738751411 0.999999940 0.999999940 0.999999940
v -0.00080013 29.84557724 2.906471252 0.999999940 0.999999940 0.999999940
v -0.00080013 29.86118125 -4.82882261 0.999999940 0.999999940 0.999999940
v 4.274131298 29.20992851 -3.9101491 0.999999940 0.999999940 0.999999940
v 4.340684890 29.08106231 0.857773423 0.999999940 0.999999940 0.999999940
v 5.381792068 24.95202255 6.469043731 0.999999940 0.999999940 0.999999940
v 5.381752014 24.39396667 6.474046230 0.999999940 0.999999940 0.999999940
v -0.00080013 25.24879264 9.794740676 0.999999940 0.999999940 0.999999940
v -3.05858064 24.94738960 8.868895530 0.999999940 0.999999940 0.999999940
v 3.056980371 24.94738960 8.868895530 0.999999940 0.999999940 0.999999940
v -3.05510974 25.51052093 8.886980056 0.999999940 0.999999940 0.999999940
v -0.00080013 25.81517982 9.817688942 0.999999940 0.999999940 0.999999940
v 3.053509473 25.51052093 8.886980056 0.999999940 0.999999940 0.999999940
vt 0.281923681 0.506823360
vt 0.273287534 0.499126076
vt 0.294761270 0.480563759
vt 0.301348865 0.489816308
vt 0.334929019 0.537776649
vt 0.307858526 0.578028440
vt 0.249986171 0.537440717
vt 0.237166747 0.522191941
vt 0.273286372 0.618933439
vt 0.246053621 0.475957810
vt 0.270953267 0.453471899
vt 0.208629190 0.500864446
vt 0.099186435 0.281026721
vt 0.089385271 0.276440620
vt 0.131459847 0.290017247
vt 0.056483831 0.227345943
vt 0.026807388 0.171819806
vt 0.000488281 0.243166029
vt 0.329309254 0.636374115
vt 0.314309716 0.686558246
vt 0.205254361 0.641559362
vt 0.193105995 0.575118303
vt 0.213085651 0.690732002
vt 0.193478435 0.556905269
vt 0.131089329 0.565235912
vt 0.144534468 0.532208144
vt 0.132900074 0.521457076
vt 0.138143017 0.446422398
vt 0.178736701 0.411180615
vt 0.094997987 0.484611511
vt 0.206748440 0.381216347
vt 0.212550476 0.329502821
vt 0.235645547 0.294234633
vt 0.173650607 0.258054852
vt 0.150066375 0.245351970
vt 0.136467903 0.233914136
vt 0.090027570 0.175376296
vt 0.035555534 0.104077637
vt 0.471204161 0.921500742
vt 0.425340414 0.89014256
vt 0.379443734 0.887416601
vt 0.342570155 0.905091643
vt 0.305175781 0.935792446
vt 0.657429814 0.905091643
vt 0.683258295 0.878047168
vt 0.692141473 0.578028440
vt 0.726713657 0.618933439
vt 0.794745624 0.641559362
vt 0.130271494 0.690917968
vt 0.130292803 0.649921715
vt 0.869707226 0.649921715
vt 0.806894004 0.575118303
vt 0.872910141 0.593281626
vt 0.750013828 0.537440717
vt 0.718076348 0.506823360
vt 0.698651135 0.489816308
vt 0.665071010 0.537776649
vt 0.638183593 0.577265381
vt 0.620556235 0.887416601
vt 0.644199013 0.937575876
vt 0.606731295 0.916328251
vt 0.662252783 0.956175446
vt 0.355800986 0.937575876
vt 0.393268704 0.916328251
vt 0.417030096 0.916069388
vt 0.464954435 0.927840471
vt 0.558858156 0.880409002
vt 0.574659586 0.89014256
vt 0.582969903 0.916069388
vt 0.431375652 0.954559326
vt 0.588987946 0.960449218
vt 0.943516194 0.227345943
vt 0.910614728 0.276440620
vt 0.705238699 0.480563759
vt 0.726712465 0.499126076
vt 0.900813579 0.281026721
vt 0.762833237 0.522191941
vt 0.806521534 0.556905269
vt 0.868910670 0.565235912
vt 0.932887673 0.588329196
vt 0.927200734 0.607067942
vt 0.918516218 0.654691338
vt 0.855465531 0.532208144
vt 0.941163003 0.571937561
vt 0.791370809 0.500864446
vt 0.867099940 0.521457076
vt 0.753946363 0.475957810
vt 0.729046702 0.453471899
vt 0.868540167 0.290017247
vt 0.863532066 0.233914136
vt 0.849933624 0.245351970
vt 0.826349377 0.258054852
vt 0.909972429 0.175376296
vt 0.832293391 0.200034320
vt 0.874945223 0.134100079
vt 0.901493907 0.079465448
vt 0.825497269 0.211903452
vt 0.778050780 0.177642583
vt 0.715281546 0.133009016
vt 0.681095659 0.097357928
vt 0.666156411 0.109899103
vt 0.977436661 0.602412343
vt 0.974981606 0.617096841
vt 0.974717021 0.656587839
vt 0.918228507 0.690917968
vt 0.977122008 0.689379334
vt 0.988558411 0.618283987
vt 0.986257731 0.656222820
vt 0.989317953 0.687353551
vt 0.993730306 0.606524705
vt 0.999511718 0.596460342
vt 0.663847684 0.081058204
vt 0.735282421 0.108022749
vt 0.692279696 0.078635990
vt 0.676841497 0.072012305
vt 0.788379907 0.138721764
vt 0.811905860 0.081393182
vt 0.824622094 0.049097061
vt 0.125054791 0.134100079
vt 0.188094154 0.081393182
vt 0.232968583 0.051703333
vt 0.218979358 0.028446376
vt 0.767031431 0.051703333
vt 0.719714939 0.025885999
vt 0.706591308 0.025170207
vt 0.738408565 0.763102352
vt 0.721575081 0.807014107
vt 0.749827981 0.859241187
vt 0.751480221 0.887877702
vt 0.536758482 0.178241968
vt 0.559868037 0.167596280
vt 0.594077765 0.148142159
vt 0.651339530 0.135604381
vt 0.013742244 0.656222820
vt 0.025282973 0.656587839
vt 0.405922234 0.148142159
vt 0.339649409 0.210599601
vt 0.382928818 0.207400262
vt 0.617071151 0.207400262
vt 0.564043760 0.210383892
vt 0.532222628 0.217555284
vt 0.504575252 0.217677116
vt 0.790952444 0.865168929
vt 0.788941741 0.809910178
vt 0.809427797 0.764113307
vt 0.776028871 0.716480374
vt 0.656763374 0.700970709
vt 0.807509541 0.713275909
vt 0.727557182 0.003411948
vt 0.280285060 0.025885999
vt 0.293408691 0.025170207
vt 0.261591434 0.763102352
vt 0.190572187 0.764113307
vt 0.168979466 0.769642412
vt 0.150637447 0.693847656
vt 0.831020534 0.769642412
vt 0.821295023 0.816177249
vt 0.804257869 0.866347551
vt 0.802294731 0.895019531
vt 0.530766129 0.230124354
vt 0.567715406 0.227143943
vt 0.618898630 0.219873011
vt 0.381101340 0.219873011
vt 0.440131962 0.167596280
vt 0.435956209 0.210383892
vt 0.432284563 0.227143943
vt 0.393318235 0.330171585
vt 0.438225597 0.320546209
vt 0.362115085 0.349619984
vt 0.084081560 0.798138439
vt 0.606681764 0.330171585
vt 0.637884914 0.349619984
vt 0.915918469 0.798138439
vt 0.211058229 0.809910178
vt 0.178704947 0.816177249
vt 0.107409112 0.834338724
vt 0.278424918 0.807014107
vt 0.344806343 0.828921198
vt 0.307720273 0.078635990
vt 0.264717549 0.108022749
vt 0.318904340 0.097357928
vt 0.284718453 0.133009016
vt 0.336152285 0.081058204
vt 0.250172019 0.859241187
vt 0.209047526 0.865168929
vt 0.195742115 0.866347551
vt 0.110528729 0.870740652
vt 0.092753827 0.836834669
vt 0.076665595 0.819200873
vt 0.094532370 0.865286469
vt 0.059660702 0.818469166
vt 0.406054347 0.346227526
vt 0.438663125 0.341119229
vt 0.474963843 0.316773653
vt 0.469233900 0.230124354
vt 0.465512096 0.339280426
vt 0.084068521 0.878757476
vt 0.101887464 0.895019531
vt 0.197705239 0.895019531
vt 0.210480257 0.893661081
vt 0.248519808 0.887877702
vt 0.354980468 0.864247143
vt 0.333843588 0.109899103
vt 0.295156836 0.148402988
vt 0.221949219 0.177642583
vt 0.211620077 0.138721764
vt 0.167706623 0.200034320
vt 0.174502700 0.211903452
vt 0.067112319 0.588329196
vt 0.022563340 0.602412343
vt 0.006269677 0.606524705
vt 0.463241517 0.178241968
vt 0.467777371 0.217555284
vt 0.460900783 0.091621577
vt 0.025018388 0.617096841
vt 0.072799272 0.607067942
vt 0.127089887 0.593281626
vt 0.081483759 0.654691338
vt 0.253180086 0.304827094
vt 0.287176907 0.265158355
vt 0.230126202 0.338324189
vt 0.122829228 0.432520270
vt 0.311103284 0.340288877
vt 0.344257682 0.326551795
vt 0.073556102 0.383114755
vt 0.291711956 0.363589406
vt 0.287803739 0.398925781
vt 0.211192131 0.367728471
vt 0.310135424 0.387338876
vt 0.315655231 0.371249198
vt 0.321625351 0.355245590
vt 0.337845832 0.352731823
vt 0.068031549 0.358690738
vt 0.106008648 0.35739851
vt 0.163173541 0.397397041
vt 0.084194868 0.349337697
vt 0.892590880 0.834338724
vt 0.940339326 0.818469166
vt 0.923334419 0.819200873
vt 0.907246172 0.836834669
vt 0.889471292 0.870740652
vt 0.905467629 0.865286469
vt 0.930576086 0.878939867
vt 0.915931463 0.878757476
vt 0.949756741 0.862923502
vt 0.959472656 0.832738637
vt 0.561774373 0.320546209
vt 0.525036156 0.316773653
vt 0.500488281 0.324420630
vt 0.764354467 0.294234633
vt 0.787449538 0.329502821
vt 0.729593873 0.251662015
vt 0.806598722 0.358079314
vt 0.769873797 0.338324189
vt 0.788807869 0.367728471
vt 0.746819913 0.304827094
vt 0.712823092 0.265158355
vt 0.861856997 0.446422398
vt 0.877170801 0.432520270
vt 0.655742287 0.326551795
vt 0.688896715 0.340288877
vt 0.926443874 0.383114755
vt 0.708288073 0.363589406
vt 0.712196230 0.398925781
vt 0.836826443 0.397397041
vt 0.893991351 0.35739851
vt 0.821263313 0.411180615
vt 0.915805101 0.349337697
vt 0.931968450 0.358690738
vt 0.951914191 0.360197424
vt 0.678374648 0.355245590
vt 0.684344768 0.371249198
vt 0.689864575 0.387338876
vt 0.352073758 0.960449218
vt 0.449773430 0.772562205
vt 0.441483289 0.798469066
vt 0.494628906 0.807562351
vt 0.491744756 0.764420688
vt 0.432651460 0.867036104
vt 0.494628906 0.875488281
vt 0.558516740 0.798469066
vt 0.550226569 0.772562205
vt 0.567348539 0.867036104
vt 0.436332225 0.749383389
vt 0.470998764 0.710928201
vt 0.380744546 0.752329468
vt 0.352050781 0.754478097
vt 0.476441144 0.427889168
vt 0.434339344 0.522843062
vt 0.380290389 0.565567731
vt 0.565660655 0.522843062
vt 0.619255423 0.752329468
vt 0.647949218 0.754478097
vt 0.523558855 0.427889168
vt 0.563667774 0.749383389
vt 0.379574447 0.679913103
vt 0.355498045 0.676269531
vt 0.046853609 0.887207031
vt 0.034392166 0.949923276
vt 0.038811646 0.953814685
vt 0.422319352 0.435518503
vt 0.405592232 0.485298395
vt 0.090996541 0.989746093
vt 0.103027343 0.950258731
vt 0.384612590 0.389979362
vt 0.354980468 0.493135273
vt 0.594407796 0.485298395
vt 0.577680647 0.435518503
vt 0.961188375 0.953814685
vt 0.965607821 0.949923276
vt 0.086748309 0.895960450
vt 0.059887815 0.925742328
vt 0.940112173 0.925742328
vt 0.064858824 0.929407179
vt 0.093093521 0.900543630
vt 0.935141205 0.929407179
vt 0.281923681 0.506823360
vt 0.281923681 0.506823360
vt 0.281923681 0.506823360
vt 0.273287534 0.499126076
vt 0.273287534 0.499126076
vt 0.273287534 0.499126076
vt 0.294761270 0.480563759
vt 0.088415548 0.302184462
vt 0.088415548 0.302184462
vt 0.301348865 0.489816308
vt 0.079403743 0.297363162
vt 0.079403743 0.297363162
vt 0.036080889 0.267173826
vt 0.036080889 0.267173826
vt 0.334929019 0.537776649
vt 0.307858526 0.578028440
vt 0.307858526 0.578028440
vt 0.307858526 0.578028440
vt 0.249986171 0.537440717
vt 0.249986171 0.537440717
vt 0.249986171 0.537440717
vt 0.237166747 0.522191941
vt 0.237166747 0.522191941
vt 0.237166747 0.522191941
vt 0.237166747 0.522191941
vt 0.273286372 0.618933439
vt 0.273286372 0.618933439
vt 0.273286372 0.618933439
vt 0.246053621 0.475957810
vt 0.246053621 0.475957810
vt 0.246053621 0.475957810
vt 0.117499448 0.315485477
vt 0.270953267 0.453471899
vt 0.117499448 0.315485477
vt 0.208629190 0.500864446
vt 0.208629190 0.500864446
vt 0.208629190 0.500864446
vt 0.099186435 0.281026721
vt 0.099186435 0.281026721
vt 0.099186435 0.281026721
vt 0.089385271 0.276440620
vt 0.089385271 0.276440620
vt 0.089385271 0.276440620
vt 0.131459847 0.290017247
vt 0.131459847 0.290017247
vt 0.131459847 0.290017247
vt 0.056483831 0.227345943
vt 0.056483831 0.227345943
vt 0.056483831 0.227345943
vt 0.026807388 0.171819806
vt 0.441141814 0.880409002
vt 0.441141814 0.880409002
vt 0.361816406 0.577265381
vt 0.377808868 0.865722656
vt 0.377808868 0.865722656
vt 0.329309254 0.636374115
vt 0.316741704 0.878047168
vt 0.316741704 0.878047168
vt 0.314309716 0.686558246
vt 0.268066406 0.892559707
vt 0.731933593 0.892559707
vt 0.685690283 0.686558246
vt 0.685690283 0.686558246
vt 0.205254361 0.641559362
vt 0.205254361 0.641559362
vt 0.205254361 0.641559362
vt 0.193105995 0.575118303
vt 0.193105995 0.575118303
vt 0.193105995 0.575118303
vt 0.786914348 0.690732002
vt 0.213085651 0.690732002
vt 0.786914348 0.690732002
vt 0.193478435 0.556905269
vt 0.193478435 0.556905269
vt 0.131089329 0.565235912
vt 0.131089329 0.565235912
vt 0.131089329 0.565235912
vt 0.144534468 0.532208144
vt 0.219895526 0.218574166
vt 0.219895526 0.218574166
vt 0.144534468 0.532208144
vt 0.219895526 0.218574166
vt 0.132900074 0.521457076
vt 0.231712728 0.226456403
vt 0.231712728 0.226456403
vt 0.138143017 0.446422398
vt 0.138143017 0.446422398
vt 0.138143017 0.446422398
vt 0.178736701 0.411180615
vt 0.178736701 0.411180615
vt 0.178736701 0.411180615
vt 0.270406127 0.251662015
vt 0.270406127 0.251662015
vt 0.094997987 0.484611511
vt 0.193401277 0.358079314
vt 0.193401277 0.358079314
vt 0.206748440 0.381216347
vt 0.212550476 0.329502821
vt 0.212550476 0.329502821
vt 0.212550476 0.329502821
vt 0.235645547 0.294234633
vt 0.235645547 0.294234633
vt 0.235645547 0.294234633
vt 0.173650607 0.258054852
vt 0.173650607 0.258054852
vt 0.173650607 0.258054852
vt 0.150066375 0.245351970
vt 0.150066375 0.245351970
vt 0.150066375 0.245351970
vt 0.150066375 0.245351970
vt 0.136467903 0.233914136
vt 0.136467903 0.233914136
vt 0.136467903 0.233914136
vt 0.090027570 0.175376296
vt 0.090027570 0.175376296
vt 0.090027570 0.175376296
vt 0.483886718 0.919671177
vt 0.516113281 0.919671177
vt 0.964444458 0.104077637
vt 0.964444458 0.104077637
vt 0.035555534 0.104077637
vt 0.471204161 0.921500742
vt 0.528795838 0.921500742
vt 0.528795838 0.921500742
vt 0.425340414 0.89014256
vt 0.425340414 0.89014256
vt 0.425340414 0.89014256
vt 0.379443734 0.887416601
vt 0.379443734 0.887416601
vt 0.379443734 0.887416601
vt 0.342570155 0.905091643
vt 0.342570155 0.905091643
vt 0.342570155 0.905091643
vt 0.694824218 0.935792446
vt 0.694824218 0.935792446
vt 0.305175781 0.935792446
vt 0.657429814 0.905091643
vt 0.657429814 0.905091643
vt 0.657429814 0.905091643
vt 0.670690774 0.636374115
vt 0.670690774 0.636374115
vt 0.683258295 0.878047168
vt 0.692141473 0.578028440
vt 0.692141473 0.578028440
vt 0.692141473 0.578028440
vt 0.726713657 0.618933439
vt 0.726713657 0.618933439
vt 0.726713657 0.618933439
vt 0.794745624 0.641559362
vt 0.794745624 0.641559362
vt 0.794745624 0.641559362
vt 0.869728505 0.690917968
vt 0.869728505 0.690917968
vt 0.130271494 0.690917968
vt 0.130292803 0.649921715
vt 0.130292803 0.649921715
vt 0.130292803 0.649921715
vt 0.869707226 0.649921715
vt 0.869707226 0.649921715
vt 0.869707226 0.649921715
vt 0.806894004 0.575118303
vt 0.806894004 0.575118303
vt 0.806894004 0.575118303
vt 0.872910141 0.593281626
vt 0.872910141 0.593281626
vt 0.872910141 0.593281626
vt 0.750013828 0.537440717
vt 0.750013828 0.537440717
vt 0.750013828 0.537440717
vt 0.718076348 0.506823360
vt 0.718076348 0.506823360
vt 0.718076348 0.506823360
vt 0.920596242 0.297363162
vt 0.698651135 0.489816308
vt 0.920596242 0.297363162
vt 0.665071010 0.537776649
vt 0.963919103 0.267173826
vt 0.963919103 0.267173826
vt 0.622191131 0.865722656
vt 0.622191131 0.865722656
vt 0.999511718 0.243166029
vt 0.620556235 0.887416601
vt 0.620556235 0.887416601
vt 0.620556235 0.887416601
vt 0.644199013 0.937575876
vt 0.644199013 0.937575876
vt 0.644199013 0.937575876
vt 0.606731295 0.916328251
vt 0.606731295 0.916328251
vt 0.606731295 0.916328251
vt 0.337747186 0.956175446
vt 0.337747186 0.956175446
vt 0.662252783 0.956175446
vt 0.355800986 0.937575876
vt 0.355800986 0.937575876
vt 0.355800986 0.937575876
vt 0.393268704 0.916328251
vt 0.393268704 0.916328251
vt 0.393268704 0.916328251
vt 0.417030096 0.916069388
vt 0.417030096 0.916069388
vt 0.535045564 0.927840471
vt 0.464954435 0.927840471
vt 0.535045564 0.927840471
vt 0.558858156 0.880409002
vt 0.973192632 0.171819806
vt 0.973192632 0.171819806
vt 0.574659586 0.89014256
vt 0.574659586 0.89014256
vt 0.574659586 0.89014256
vt 0.582969903 0.916069388
vt 0.582969903 0.916069388
vt 0.568624377 0.954559326
vt 0.568624377 0.954559326
vt 0.431375652 0.954559326
vt 0.411012053 0.960449218
vt 0.411012053 0.960449218
vt 0.588987946 0.960449218
vt 0.943516194 0.227345943
vt 0.943516194 0.227345943
vt 0.943516194 0.227345943
vt 0.910614728 0.276440620
vt 0.910614728 0.276440620
vt 0.910614728 0.276440620
vt 0.911584436 0.302184462
vt 0.705238699 0.480563759
vt 0.911584436 0.302184462
vt 0.726712465 0.499126076
vt 0.726712465 0.499126076
vt 0.726712465 0.499126076
vt 0.900813579 0.281026721
vt 0.900813579 0.281026721
vt 0.900813579 0.281026721
vt 0.762833237 0.522191941
vt 0.762833237 0.522191941
vt 0.762833237 0.522191941
vt 0.762833237 0.522191941
vt 0.806521534 0.556905269
vt 0.806521534 0.556905269
vt 0.868910670 0.565235912
vt 0.868910670 0.565235912
vt 0.868910670 0.565235912
vt 0.932887673 0.588329196
vt 0.932887673 0.588329196
vt 0.932887673 0.588329196
vt 0.927200734 0.607067942
vt 0.927200734 0.607067942
vt 0.927200734 0.607067942
vt 0.918516218 0.654691338
vt 0.918516218 0.654691338
vt 0.918516218 0.654691338
vt 0.855465531 0.532208144
vt 0.855465531 0.532208144
vt 0.780104458 0.218574166
vt 0.780104458 0.218574166
vt 0.780104458 0.218574166
vt 0.704843163 0.148402988
vt 0.704843163 0.148402988
vt 0.941163003 0.571937561
vt 0.791370809 0.500864446
vt 0.791370809 0.500864446
vt 0.791370809 0.500864446
vt 0.768287301 0.226456403
vt 0.768287301 0.226456403
vt 0.867099940 0.521457076
vt 0.753946363 0.475957810
vt 0.753946363 0.475957810
vt 0.753946363 0.475957810
vt 0.882500529 0.315485477
vt 0.882500529 0.315485477
vt 0.729046702 0.453471899
vt 0.868540167 0.290017247
vt 0.868540167 0.290017247
vt 0.868540167 0.290017247
vt 0.863532066 0.233914136
vt 0.863532066 0.233914136
vt 0.863532066 0.233914136
vt 0.849933624 0.245351970
vt 0.849933624 0.245351970
vt 0.849933624 0.245351970
vt 0.849933624 0.245351970
vt 0.826349377 0.258054852
vt 0.826349377 0.258054852
vt 0.826349377 0.258054852
vt 0.909972429 0.175376296
vt 0.909972429 0.175376296
vt 0.909972429 0.175376296
vt 0.832293391 0.200034320
vt 0.832293391 0.200034320
vt 0.832293391 0.200034320
vt 0.874945223 0.134100079
vt 0.874945223 0.134100079
vt 0.874945223 0.134100079
vt 0.901493907 0.079465448
vt 0.098506063 0.079465448
vt 0.098506063 0.079465448
vt 0.825497269 0.211903452
vt 0.825497269 0.211903452
vt 0.778050780 0.177642583
vt 0.778050780 0.177642583
vt 0.778050780 0.177642583
vt 0.715281546 0.133009016
vt 0.715281546 0.133009016
vt 0.715281546 0.133009016
vt 0.681095659 0.097357928
vt 0.681095659 0.097357928
vt 0.681095659 0.097357928
vt 0.980015099 0.587329745
vt 0.980015099 0.587329745
vt 0.666156411 0.109899103
vt 0.977436661 0.602412343
vt 0.977436661 0.602412343
vt 0.977436661 0.602412343
vt 0.974981606 0.617096841
vt 0.974981606 0.617096841
vt 0.974981606 0.617096841
vt 0.974717021 0.656587839
vt 0.974717021 0.656587839
vt 0.974717021 0.656587839
vt 0.918228507 0.690917968
vt 0.081771500 0.690917968
vt 0.081771500 0.690917968
vt 0.977122008 0.689379334
vt 0.02287798 0.689379334
vt 0.02287798 0.689379334
vt 0.988558411 0.618283987
vt 0.539099216 0.091621577
vt 0.539099216 0.091621577
vt 0.986257731 0.656222820
vt 0.599740564 0.077692329
vt 0.599740564 0.077692329
vt 0.647434949 0.065917968
vt 0.010682055 0.687353551
vt 0.352565050 0.065917968
vt 0.993730306 0.606524705
vt 0.518525123 0.085734844
vt 0.518525123 0.085734844
vt 0.654785156 0.085709571
vt 0.645019531 0.864247143
vt 0.500488281 0.081964492
vt 0.663847684 0.081058204
vt 0.648287892 0.850398898
vt 0.648287892 0.850398898
vt 0.735282421 0.108022749
vt 0.735282421 0.108022749
vt 0.735282421 0.108022749
vt 0.692279696 0.078635990
vt 0.692279696 0.078635990
vt 0.692279696 0.078635990
vt 0.676841497 0.072012305
vt 0.655193686 0.828921198
vt 0.655193686 0.828921198
vt 0.788379907 0.138721764
vt 0.788379907 0.138721764
vt 0.788379907 0.138721764
vt 0.811905860 0.081393182
vt 0.811905860 0.081393182
vt 0.811905860 0.081393182
vt 0.175377890 0.049097061
vt 0.175377890 0.049097061
vt 0.824622094 0.049097061
vt 0.125054791 0.134100079
vt 0.125054791 0.134100079
vt 0.125054791 0.134100079
vt 0.188094154 0.081393182
vt 0.188094154 0.081393182
vt 0.188094154 0.081393182
vt 0.232968583 0.051703333
vt 0.232968583 0.051703333
vt 0.232968583 0.051703333
vt 0.781020641 0.028446376
vt 0.781020641 0.028446376
vt 0.218979358 0.028446376
vt 0.767031431 0.051703333
vt 0.767031431 0.051703333
vt 0.767031431 0.051703333
vt 0.719714939 0.025885999
vt 0.719714939 0.025885999
vt 0.719714939 0.025885999
vt 0.656448841 0.741898238
vt 0.656448841 0.741898238
vt 0.706591308 0.025170207
vt 0.738408565 0.763102352
vt 0.738408565 0.763102352
vt 0.738408565 0.763102352
vt 0.721575081 0.807014107
vt 0.721575081 0.807014107
vt 0.721575081 0.807014107
vt 0.749827981 0.859241187
vt 0.749827981 0.859241187
vt 0.749827981 0.859241187
vt 0.505061268 0.181722879
vt 0.505061268 0.181722879
vt 0.751480221 0.887877702
vt 0.536758482 0.178241968
vt 0.536758482 0.178241968
vt 0.536758482 0.178241968
vt 0.559868037 0.167596280
vt 0.559868037 0.167596280
vt 0.559868037 0.167596280
vt 0.594077765 0.148142159
vt 0.594077765 0.148142159
vt 0.594077765 0.148142159
vt 0.348660439 0.135604381
vt 0.348660439 0.135604381
vt 0.651339530 0.135604381
vt 0.400259435 0.077692329
vt 0.013742244 0.656222820
vt 0.400259435 0.077692329
vt 0.025282973 0.656587839
vt 0.025282973 0.656587839
vt 0.025282973 0.656587839
vt 0.405922234 0.148142159
vt 0.405922234 0.148142159
vt 0.405922234 0.148142159
vt 0.660350561 0.210599601
vt 0.660350561 0.210599601
vt 0.339649409 0.210599601
vt 0.382928818 0.207400262
vt 0.382928818 0.207400262
vt 0.382928818 0.207400262
vt 0.617071151 0.207400262
vt 0.617071151 0.207400262
vt 0.617071151 0.207400262
vt 0.564043760 0.210383892
vt 0.564043760 0.210383892
vt 0.564043760 0.210383892
vt 0.532222628 0.217555284
vt 0.532222628 0.217555284
vt 0.532222628 0.217555284
vt 0.789519727 0.893661081
vt 0.789519727 0.893661081
vt 0.504575252 0.217677116
vt 0.790952444 0.865168929
vt 0.790952444 0.865168929
vt 0.790952444 0.865168929
vt 0.788941741 0.809910178
vt 0.788941741 0.809910178
vt 0.788941741 0.809910178
vt 0.809427797 0.764113307
vt 0.809427797 0.764113307
vt 0.809427797 0.764113307
vt 0.776028871 0.716480374
vt 0.223971143 0.716480374
vt 0.223971143 0.716480374
vt 0.715692520 0.000488281
vt 0.284307479 0.000488281
vt 0.343236625 0.700970709
vt 0.192490428 0.713275909
vt 0.192490428 0.713275909
vt 0.807509541 0.713275909
vt 0.727557182 0.003411948
vt 0.272442787 0.003411948
vt 0.272442787 0.003411948
vt 0.280285060 0.025885999
vt 0.280285060 0.025885999
vt 0.280285060 0.025885999
vt 0.343551158 0.741898238
vt 0.343551158 0.741898238
vt 0.293408691 0.025170207
vt 0.261591434 0.763102352
vt 0.261591434 0.763102352
vt 0.261591434 0.763102352
vt 0.190572187 0.764113307
vt 0.190572187 0.764113307
vt 0.190572187 0.764113307
vt 0.168979466 0.769642412
vt 0.168979466 0.769642412
vt 0.168979466 0.769642412
vt 0.849362552 0.693847656
vt 0.662597656 0.223001003
vt 0.337402343 0.223001003
vt 0.337402343 0.223001003
vt 0.150637447 0.693847656
vt 0.662597656 0.223001003
vt 0.849362552 0.693847656
vt 0.831020534 0.769642412
vt 0.831020534 0.769642412
vt 0.831020534 0.769642412
vt 0.821295023 0.816177249
vt 0.821295023 0.816177249
vt 0.821295023 0.816177249
vt 0.804257869 0.866347551
vt 0.804257869 0.866347551
vt 0.804257869 0.866347551
vt 0.504714131 0.229998230
vt 0.802294731 0.895019531
vt 0.504714131 0.229998230
vt 0.530766129 0.230124354
vt 0.530766129 0.230124354
vt 0.530766129 0.230124354
vt 0.567715406 0.227143943
vt 0.567715406 0.227143943
vt 0.567715406 0.227143943
vt 0.618898630 0.219873011
vt 0.618898630 0.219873011
vt 0.618898630 0.219873011
vt 0.381101340 0.219873011
vt 0.381101340 0.219873011
vt 0.381101340 0.219873011
vt 0.440131962 0.167596280
vt 0.440131962 0.167596280
vt 0.440131962 0.167596280
vt 0.435956209 0.210383892
vt 0.435956209 0.210383892
vt 0.435956209 0.210383892
vt 0.432284563 0.227143943
vt 0.432284563 0.227143943
vt 0.432284563 0.227143943
vt 0.393318235 0.330171585
vt 0.393318235 0.330171585
vt 0.393318235 0.330171585
vt 0.438225597 0.320546209
vt 0.438225597 0.320546209
vt 0.438225597 0.320546209
vt 0.061406575 0.782711744
vt 0.061406575 0.782711744
vt 0.362115085 0.349619984
vt 0.084081560 0.798138439
vt 0.084081560 0.798138439
vt 0.084081560 0.798138439
vt 0.606681764 0.330171585
vt 0.606681764 0.330171585
vt 0.606681764 0.330171585
vt 0.938593447 0.782711744
vt 0.938593447 0.782711744
vt 0.637884914 0.349619984
vt 0.915918469 0.798138439
vt 0.915918469 0.798138439
vt 0.915918469 0.798138439
vt 0.211058229 0.809910178
vt 0.211058229 0.809910178
vt 0.211058229 0.809910178
vt 0.178704947 0.816177249
vt 0.178704947 0.816177249
vt 0.178704947 0.816177249
vt 0.107409112 0.834338724
vt 0.107409112 0.834338724
vt 0.107409112 0.834338724
vt 0.278424918 0.807014107
vt 0.278424918 0.807014107
vt 0.278424918 0.807014107
vt 0.323158502 0.072012305
vt 0.323158502 0.072012305
vt 0.344806343 0.828921198
vt 0.307720273 0.078635990
vt 0.307720273 0.078635990
vt 0.307720273 0.078635990
vt 0.264717549 0.108022749
vt 0.264717549 0.108022749
vt 0.264717549 0.108022749
vt 0.318904340 0.097357928
vt 0.318904340 0.097357928
vt 0.318904340 0.097357928
vt 0.284718453 0.133009016
vt 0.284718453 0.133009016
vt 0.284718453 0.133009016
vt 0.351712137 0.850398898
vt 0.351712137 0.850398898
vt 0.336152285 0.081058204
vt 0.250172019 0.859241187
vt 0.250172019 0.859241187
vt 0.250172019 0.859241187
vt 0.209047526 0.865168929
vt 0.209047526 0.865168929
vt 0.209047526 0.865168929
vt 0.195742115 0.866347551
vt 0.195742115 0.866347551
vt 0.195742115 0.866347551
vt 0.110528729 0.870740652
vt 0.110528729 0.870740652
vt 0.110528729 0.870740652
vt 0.092753827 0.836834669
vt 0.092753827 0.836834669
vt 0.092753827 0.836834669
vt 0.076665595 0.819200873
vt 0.076665595 0.819200873
vt 0.076665595 0.819200873
vt 0.094532370 0.865286469
vt 0.094532370 0.865286469
vt 0.393958985 0.368652343
vt 0.059660702 0.818469166
vt 0.406054347 0.346227526
vt 0.040527343 0.832738637
vt 0.438663125 0.341119229
vt 0.050243228 0.862923502
vt 0.050243228 0.862923502
vt 0.474963843 0.316773653
vt 0.474963843 0.316773653
vt 0.474963843 0.316773653
vt 0.469233900 0.230124354
vt 0.469233900 0.230124354
vt 0.469233900 0.230124354
vt 0.069423928 0.878939867
vt 0.069423928 0.878939867
vt 0.465512096 0.339280426
vt 0.084068521 0.878757476
vt 0.481925636 0.343504905
vt 0.101887464 0.895019531
vt 0.499511718 0.324420630
vt 0.499511718 0.324420630
vt 0.197705239 0.895019531
vt 0.495285868 0.229998230
vt 0.495285868 0.229998230
vt 0.210480257 0.893661081
vt 0.495424747 0.217677116
vt 0.495424747 0.217677116
vt 0.248519808 0.887877702
vt 0.494938731 0.181722879
vt 0.494938731 0.181722879
vt 0.345214843 0.085709571
vt 0.000488281 0.596460342
vt 0.499511718 0.081964492
vt 0.333843588 0.109899103
vt 0.019984915 0.587329745
vt 0.019984915 0.587329745
vt 0.295156836 0.148402988
vt 0.058837007 0.571937561
vt 0.058837007 0.571937561
vt 0.221949219 0.177642583
vt 0.221949219 0.177642583
vt 0.221949219 0.177642583
vt 0.211620077 0.138721764
vt 0.211620077 0.138721764
vt 0.211620077 0.138721764
vt 0.167706623 0.200034320
vt 0.167706623 0.200034320
vt 0.167706623 0.200034320
vt 0.174502700 0.211903452
vt 0.174502700 0.211903452
vt 0.067112319 0.588329196
vt 0.067112319 0.588329196
vt 0.067112319 0.588329196
vt 0.022563340 0.602412343
vt 0.022563340 0.602412343
vt 0.022563340 0.602412343
vt 0.481474906 0.085734844
vt 0.481474906 0.085734844
vt 0.006269677 0.606524705
vt 0.463241517 0.178241968
vt 0.463241517 0.178241968
vt 0.463241517 0.178241968
vt 0.467777371 0.217555284
vt 0.467777371 0.217555284
vt 0.467777371 0.217555284
vt 0.011441613 0.618283987
vt 0.011441613 0.618283987
vt 0.460900783 0.091621577
vt 0.025018388 0.617096841
vt 0.025018388 0.617096841
vt 0.025018388 0.617096841
vt 0.072799272 0.607067942
vt 0.072799272 0.607067942
vt 0.072799272 0.607067942
vt 0.127089887 0.593281626
vt 0.127089887 0.593281626
vt 0.127089887 0.593281626
vt 0.081483759 0.654691338
vt 0.081483759 0.654691338
vt 0.081483759 0.654691338
vt 0.253180086 0.304827094
vt 0.253180086 0.304827094
vt 0.253180086 0.304827094
vt 0.078704588 0.467159867
vt 0.287176907 0.265158355
vt 0.078704588 0.467159867
vt 0.230126202 0.338324189
vt 0.230126202 0.338324189
vt 0.230126202 0.338324189
vt 0.122829228 0.432520270
vt 0.122829228 0.432520270
vt 0.122829228 0.432520270
vt 0.311103284 0.340288877
vt 0.311103284 0.340288877
vt 0.311103284 0.340288877
vt 0.031092349 0.386117219
vt 0.344257682 0.326551795
vt 0.031092349 0.386117219
vt 0.073556102 0.383114755
vt 0.073556102 0.383114755
vt 0.073556102 0.383114755
vt 0.291711956 0.363589406
vt 0.291711956 0.363589406
vt 0.291711956 0.363589406
vt 0.287803739 0.398925781
vt 0.111803367 0.320800781
vt 0.111803367 0.320800781
vt 0.211192131 0.367728471
vt 0.189761966 0.366747021
vt 0.189761966 0.366747021
vt 0.085701458 0.329985737
vt 0.085701458 0.329985737
vt 0.315655231 0.371249198
vt 0.068563945 0.327894747
vt 0.315655231 0.371249198
vt 0.321625351 0.355245590
vt 0.321625351 0.355245590
vt 0.048085790 0.360197424
vt 0.337845832 0.352731823
vt 0.068031549 0.358690738
vt 0.068031549 0.358690738
vt 0.345214843 0.369864165
vt 0.106008648 0.35739851
vt 0.106008648 0.35739851
vt 0.106008648 0.35739851
vt 0.163173541 0.397397041
vt 0.163173541 0.397397041
vt 0.163173541 0.397397041
vt 0.084194868 0.349337697
vt 0.084194868 0.349337697
vt 0.892590880 0.834338724
vt 0.892590880 0.834338724
vt 0.892590880 0.834338724
vt 0.940339326 0.818469166
vt 0.606041014 0.368652343
vt 0.923334419 0.819200873
vt 0.923334419 0.819200873
vt 0.923334419 0.819200873
vt 0.907246172 0.836834669
vt 0.907246172 0.836834669
vt 0.907246172 0.836834669
vt 0.889471292 0.870740652
vt 0.889471292 0.870740652
vt 0.889471292 0.870740652
vt 0.905467629 0.865286469
vt 0.905467629 0.865286469
vt 0.930576086 0.878939867
vt 0.534487903 0.339280426
vt 0.534487903 0.339280426
vt 0.518074393 0.343504905
vt 0.915931463 0.878757476
vt 0.949756741 0.862923502
vt 0.561336875 0.341119229
vt 0.561336875 0.341119229
vt 0.593945622 0.346227526
vt 0.593945622 0.346227526
vt 0.561774373 0.320546209
vt 0.561774373 0.320546209
vt 0.561774373 0.320546209
vt 0.525036156 0.316773653
vt 0.525036156 0.316773653
vt 0.525036156 0.316773653
vt 0.898112535 0.895019531
vt 0.898112535 0.895019531
vt 0.500488281 0.324420630
vt 0.764354467 0.294234633
vt 0.764354467 0.294234633
vt 0.764354467 0.294234633
vt 0.787449538 0.329502821
vt 0.787449538 0.329502821
vt 0.787449538 0.329502821
vt 0.729593873 0.251662015
vt 0.905001997 0.484611511
vt 0.905001997 0.484611511
vt 0.806598722 0.358079314
vt 0.793251574 0.381216347
vt 0.793251574 0.381216347
vt 0.769873797 0.338324189
vt 0.769873797 0.338324189
vt 0.769873797 0.338324189
vt 0.788807869 0.367728471
vt 0.810238003 0.366747021
vt 0.810238003 0.366747021
vt 0.746819913 0.304827094
vt 0.746819913 0.304827094
vt 0.746819913 0.304827094
vt 0.921295404 0.467159867
vt 0.712823092 0.265158355
vt 0.921295404 0.467159867
vt 0.861856997 0.446422398
vt 0.861856997 0.446422398
vt 0.861856997 0.446422398
vt 0.877170801 0.432520270
vt 0.877170801 0.432520270
vt 0.877170801 0.432520270
vt 0.968907654 0.386117219
vt 0.968907654 0.386117219
vt 0.655742287 0.326551795
vt 0.688896715 0.340288877
vt 0.688896715 0.340288877
vt 0.688896715 0.340288877
vt 0.926443874 0.383114755
vt 0.926443874 0.383114755
vt 0.926443874 0.383114755
vt 0.708288073 0.363589406
vt 0.708288073 0.363589406
vt 0.708288073 0.363589406
vt 0.888196647 0.320800781
vt 0.712196230 0.398925781
vt 0.888196647 0.320800781
vt 0.836826443 0.397397041
vt 0.836826443 0.397397041
vt 0.836826443 0.397397041
vt 0.893991351 0.35739851
vt 0.893991351 0.35739851
vt 0.893991351 0.35739851
vt 0.821263313 0.411180615
vt 0.821263313 0.411180615
vt 0.821263313 0.411180615
vt 0.915805101 0.349337697
vt 0.915805101 0.349337697
vt 0.931968450 0.358690738
vt 0.931968450 0.358690738
vt 0.654785156 0.369864165
vt 0.662154197 0.352731823
vt 0.662154197 0.352731823
vt 0.678374648 0.355245590
vt 0.678374648 0.355245590
vt 0.684344768 0.371249198
vt 0.931436061 0.327894747
vt 0.684344768 0.371249198
vt 0.914298534 0.329985737
vt 0.914298534 0.329985737
vt 0.647926211 0.960449218
vt 0.449773430 0.772562205
vt 0.449773430 0.772562205
vt 0.441483289 0.798469066
vt 0.441483289 0.798469066
vt 0.441483289 0.798469066
vt 0.494628906 0.807562351
vt 0.505371093 0.807562351
vt 0.505371093 0.807562351
vt 0.508255243 0.764420688
vt 0.491744756 0.764420688
vt 0.508255243 0.764420688
vt 0.432651460 0.867036104
vt 0.484863281 0.578652739
vt 0.484863281 0.578652739
vt 0.505371093 0.875488281
vt 0.436096429 0.621582031
vt 0.563903570 0.621582031
vt 0.558516740 0.798469066
vt 0.558516740 0.798469066
vt 0.558516740 0.798469066
vt 0.550226569 0.772562205
vt 0.550226569 0.772562205
vt 0.515136718 0.578652739
vt 0.567348539 0.867036104
vt 0.515136718 0.578652739
vt 0.436332225 0.749383389
vt 0.436332225 0.749383389
vt 0.529001236 0.710928201
vt 0.470998764 0.710928201
vt 0.529001236 0.710928201
vt 0.380744546 0.752329468
vt 0.380744546 0.752329468
vt 0.380744546 0.752329468
vt 0.484863281 0.428228735
vt 0.352050781 0.754478097
vt 0.000488281 0.982296228
vt 0.000488281 0.982296228
vt 0.003368445 0.989746093
vt 0.476441144 0.427889168
vt 0.003368445 0.989746093
vt 0.476441144 0.427889168
vt 0.434339344 0.522843062
vt 0.434339344 0.522843062
vt 0.434339344 0.522843062
vt 0.619709610 0.565567731
vt 0.380290389 0.565567731
vt 0.619709610 0.565567731
vt 0.565660655 0.522843062
vt 0.565660655 0.522843062
vt 0.565660655 0.522843062
vt 0.619255423 0.752329468
vt 0.619255423 0.752329468
vt 0.619255423 0.752329468
vt 0.515136718 0.428228735
vt 0.999511718 0.982296228
vt 0.647949218 0.754478097
vt 0.999511718 0.982296228
vt 0.523558855 0.427889168
vt 0.996631562 0.989746093
vt 0.996631562 0.989746093
vt 0.523558855 0.427889168
vt 0.563667774 0.749383389
vt 0.563667774 0.749383389
vt 0.620425581 0.679913103
vt 0.379574447 0.679913103
vt 0.620425581 0.679913103
vt 0.003579248 0.898066699
vt 0.644501924 0.676269531
vt 0.996420741 0.898066699
vt 0.953146398 0.887207031
vt 0.046853609 0.887207031
vt 0.953146398 0.887207031
vt 0.034392166 0.949923276
vt 0.034392166 0.949923276
vt 0.034392166 0.949923276
vt 0.038811646 0.953814685
vt 0.038811646 0.953814685
vt 0.038811646 0.953814685
vt 0.422319352 0.435518503
vt 0.422319352 0.435518503
vt 0.405592232 0.485298395
vt 0.405592232 0.485298395
vt 0.434030085 0.362792968
vt 0.909003436 0.989746093
vt 0.565969944 0.362792968
vt 0.896972656 0.950258731
vt 0.103027343 0.950258731
vt 0.896972656 0.950258731
vt 0.615387439 0.389979362
vt 0.384612590 0.389979362
vt 0.615387439 0.389979362
vt 0.645019531 0.493135273
vt 0.354980468 0.493135273
vt 0.645019531 0.493135273
vt 0.594407796 0.485298395
vt 0.594407796 0.485298395
vt 0.577680647 0.435518503
vt 0.577680647 0.435518503
vt 0.961188375 0.953814685
vt 0.961188375 0.953814685
vt 0.961188375 0.953814685
vt 0.965607821 0.949923276
vt 0.965607821 0.949923276
vt 0.965607821 0.949923276
vt 0.913251698 0.895960450
vt 0.913251698 0.895960450
vt 0.086748309 0.895960450
vt 0.059887815 0.925742328
vt 0.059887815 0.925742328
vt 0.940112173 0.925742328
vt 0.940112173 0.925742328
vt 0.064858824 0.929407179
vt 0.064858824 0.929407179
vt 0.906906485 0.900543630
vt 0.906906485 0.900543630
vt 0.093093521 0.900543630
vt 0.935141205 0.929407179
vt 0.935141205 0.929407179
s 1
f 1/1 2/2 3/3 4/4
f 5/5 6/6 1/317 4/326
f 1/318 7/7 8/8 2/320
f 6/332 9/9 7/335 1/319
f 3/323 2/321 10/10 11/11
f 2/322 8/338 12/12 10/345
f 4/327 3/324 13/13 14/14
f 13/354 3/325 11/348 15/15
f 16/16 5/329 4/328 14/357
f 5/330 16/363 17/17 18/18
f 6/333 5/331 18/369 19/19
f 9/342 6/334 19/372 20/20
f 9/343 21/21 22/22 7/336
f 21/380 9/344 20/375 23/23
f 7/337 22/383 24/24 8/339
f 8/340 24/389 25/25 26/26
f 8/341 26/394 27/27 12/351
f 28/28 29/29 10/346 12/352
f 30/30 28/402 12/353 27/399
f 29/405 31/31 11/349 10/347
f 31/411 32/32 15/360 11/350
f 32/414 33/33 34/34 15/361
f 35/35 13/355 15/362 34/420
f 13/356 35/423 36/36 14/358
f 37/37 16/364 14/359 36/427
f 37/430 38/38 17/366 16/365
f 39/39 40/40 17/367 38/433
f 17/368 40/441 41/41 18/370
f 41/444 42/42 19/373 18/371
f 42/447 43/43 20/376 19/374
f 43/450 44/44 45/45 20/377
f 20/378 45/456 46/46 47/47
f 20/379 47/462 48/48 23/386
f 49/49 50/50 21/381 23/387
f 49/468 23/388 48/465 51/51
f 52/52 53/53 51/474 48/466
f 54/54 52/477 48/467 47/463
f 55/55 54/483 47/464 46/459
f 56/56 55/486 46/460 57/57
f 45/457 58/58 57/492 46/461
f 58/495 45/458 44/453 59/59
f 59/498 44/454 60/60 61/61
f 62/62 60/501 44/455 43/451
f 63/63 62/507 43/452 42/448
f 64/64 63/510 42/449 41/445
f 40/442 65/65 64/513 41/446
f 66/66 65/516 40/443 39/438
f 67/67 68/68 39/439 38/434
f 68/524 69/69 66/518 39/440
f 70/70 64/514 65/517 66/519
f 69/527 61/504 70/529 66/520
f 59/499 61/505 69/528 68/525
f 61/506 60/502 71/71 70/530
f 58/496 59/500 68/526 67/521
f 58/497 67/522 72/72 57/493
f 73/73 56/489 57/494 72/535
f 56/490 74/74 75/75 55/487
f 73/538 76/76 74/541 56/491
f 75/544 77/77 54/484 55/488
f 77/550 78/78 52/478 54/485
f 78/554 79/79 53/480 52/479
f 79/556 80/80 81/81 53/481
f 53/482 81/562 82/82 51/475
f 83/83 79/557 78/555 77/551
f 83/568 84/84 80/559 79/558
f 85/85 86/86 83/569 77/552
f 87/87 85/576 77/553 75/545
f 88/88 87/582 75/546 74/542
f 89/89 88/585 74/543 76/547
f 73/539 90/90 91/91 76/548
f 92/92 89/588 76/549 91/594
f 90/591 73/540 72/536 93/93
f 72/537 67/523 38/435 93/601
f 94/94 90/592 93/602 95/95
f 38/436 96/96 95/607 93/603
f 90/593 94/604 97/97 91/595
f 91/596 97/613 98/98 83/570
f 86/579 92/598 91/597 83/571
f 83/572 98/615 99/99 84/573
f 84/574 99/618 100/100 101/101
f 84/575 101/624 102/102 80/560
f 80/561 102/627 103/103 81/563
f 81/564 103/630 104/104 82/565
f 105/105 49/469 51/476 82/566
f 106/106 105/636 82/567 104/633
f 107/107 108/108 104/634 103/631
f 108/645 109/109 106/639 104/635
f 110/110 107/642 103/632 102/628
f 111/111 110/651 102/629 101/625
f 112/112 111/654 101/626 100/621
f 99/619 113/113 114/114 100/622
f 115/115 112/657 100/623 114/663
f 99/620 98/616 116/116 113/660
f 98/617 97/614 94/605 116/669
f 116/670 94/606 95/608 117/117
f 96/610 118/118 117/672 95/609
f 96/611 119/119 120/120 118/675
f 38/437 37/431 119/678 96/612
f 118/676 120/681 121/121 122/122
f 118/677 122/687 123/123 117/673
f 113/661 116/671 117/674 123/690
f 114/664 113/662 123/691 124/124
f 125/125 115/666 114/665 124/693
f 126/126 127/127 115/667 125/696
f 127/702 128/128 112/658 115/668
f 128/705 129/129 111/655 112/659
f 129/708 130/130 110/652 111/656
f 110/653 130/711 131/131 107/643
f 107/644 131/714 132/132 108/646
f 108/647 132/717 133/133 109/648
f 109/649 134/134 135/135 106/640
f 133/720 136/136 134/723 109/650
f 137/137 138/138 136/729 133/721
f 139/139 137/732 133/722 132/718
f 140/140 139/738 132/719 131/715
f 141/141 140/741 131/716 130/712
f 129/709 142/142 141/744 130/713
f 128/706 143/143 142/747 129/710
f 127/703 144/144 143/750 128/707
f 145/145 144/753 127/704 126/699
f 146/146 126/700 125/697 147/147
f 148/148 145/756 126/701 146/759
f 147/762 125/698 124/694 149/149
f 122/688 149/768 124/695 123/692
f 122/689 121/684 150/150 149/769
f 150/771 151/151 147/763 149/770
f 151/774 152/152 146/760 147/764
f 152/777 153/153 148/765 146/761
f 153/780 154/154 155/155 148/766
f 155/786 156/156 145/757 148/767
f 145/758 156/793 157/157 144/754
f 144/755 157/796 158/158 143/751
f 158/799 159/159 142/748 143/752
f 159/802 160/160 141/745 142/749
f 160/805 161/161 140/742 141/746
f 140/743 161/808 162/162 139/739
f 162/811 155/787 137/733 139/740
f 155/788 163/163 138/735 137/734
f 164/164 136/730 138/736 165/165
f 138/737 163/814 166/166 165/820
f 167/167 168/168 166/823 163/815
f 169/169 167/826 163/816 155/789
f 170/170 169/832 155/790 154/783
f 155/791 162/812 171/171 172/172
f 156/794 155/792 172/841 173/173
f 174/174 175/175 154/784 153/781
f 176/176 170/835 154/785 175/850
f 152/778 177/177 174/847 153/782
f 151/775 178/178 177/856 152/779
f 150/772 179/179 178/859 151/776
f 150/773 121/685 180/180 179/862
f 181/181 179/863 180/865 182/182
f 179/864 181/868 183/183 178/860
f 178/861 183/874 184/184 177/857
f 184/877 185/185 174/848 177/858
f 185/880 186/186 175/851 174/849
f 187/187 176/853 175/852 186/883
f 176/854 188/188 189/189 170/836
f 187/886 190/190 188/889 176/855
f 170/837 189/892 191/191 169/833
f 169/834 191/897 192/192 167/827
f 167/828 192/899 193/193 168/829
f 168/830 194/194 195/195 166/824
f 193/901 196/196 194/904 168/831
f 191/898 189/893 193/902 192/900
f 193/903 189/894 188/890 196/910
f 197/197 196/911 188/891 190/895
f 198/198 197/913 190/896 187/887
f 198/915 187/888 186/884 199/199
f 185/881 200/200 199/918 186/885
f 201/201 200/921 185/882 184/878
f 183/875 202/202 201/924 184/879
f 181/869 203/203 202/927 183/876
f 203/930 181/870 182/871 204/204
f 204/933 182/872 205/205 26/395
f 180/866 206/206 205/936 182/873
f 121/686 120/682 206/939 180/867
f 206/940 207/207 208/208 205/937
f 120/683 119/679 207/942 206/941
f 26/396 205/938 208/945 35/424
f 25/391 209/209 204/934 26/397
f 26/398 35/425 34/421 27/400
f 209/947 210/210 203/931 204/935
f 203/932 210/950 211/211 202/928
f 202/929 211/953 212/212 201/925
f 212/956 213/213 200/922 201/926
f 200/923 213/959 195/907 199/919
f 213/960 165/821 166/825 195/908
f 194/905 198/916 199/920 195/909
f 194/906 196/912 197/914 198/917
f 212/957 164/817 165/822 213/961
f 214/214 164/818 212/958 211/954
f 210/951 215/215 214/962 211/955
f 216/216 215/965 210/952 209/948
f 217/217 216/968 209/949 25/392
f 22/384 217/971 25/393 24/390
f 21/382 50/471 217/972 22/385
f 50/472 218/218 216/969 217/973
f 218/974 135/726 215/966 216/970
f 215/967 135/727 134/724 214/963
f 134/725 136/731 164/819 214/964
f 106/641 135/728 218/975 105/637
f 105/638 218/976 50/473 49/470
f 33/417 30/408 27/401 34/422
f 30/409 33/418 219/219 220/220
f 33/419 32/415 221/221 219/977
f 28/403 30/410 220/980 222/222
f 223/223 224/224 220/981 219/978
f 224/992 225/225 222/986 220/982
f 226/226 223/989 219/979 221/983
f 227/227 226/998 221/984 228/228
f 32/416 31/412 228/1004 221/985
f 227/1001 229/229 230/230 226/999
f 226/1000 230/1009 231/231 223/990
f 223/991 231/1012 232/232 224/993
f 225/995 224/994 232/1014 233/233
f 225/996 234/234 235/235 222/987
f 234/1019 225/997 233/1016 236/236
f 29/406 28/404 222/988 235/1022
f 234/1020 227/1002 228/1005 235/1023
f 31/413 29/407 235/1024 228/1006
f 227/1003 234/1021 236/1025 229/1007
f 236/1026 233/1017 230/1010 229/1008
f 232/1015 231/1013 230/1011 233/1018
f 35/426 208/946 207/943 36/428
f 119/680 37/432 36/429 207/944
f 157/797 156/795 173/844 237/237
f 172/842 238/238 239/239 173/845
f 173/846 239/1032 240/240 237/1027
f 158/800 157/798 237/1028 241/241
f 237/1029 240/1035 242/242 241/1038
f 242/1041 240/1036 243/243 244/244
f 243/1043 240/1037 239/1033 245/245
f 246/246 245/1048 239/1034 238/1030
f 171/838 246/1051 238/1031 172/843
f 247/247 245/1049 246/1052 171/839
f 247/1053 248/248 243/1044 245/1050
f 249/249 244/1046 243/1045 248/1056
f 241/1039 242/1042 244/1047 249/1059
f 159/803 158/801 241/1040 249/1060
f 160/806 159/804 249/1061 248/1057
f 161/809 160/807 248/1058 247/1054
f 162/813 161/810 247/1055 171/840
f 89/589 92/599 250/250 251/251
f 92/600 86/580 252/252 250/1062
f 88/586 89/590 251/1065 253/253
f 254/254 255/255 253/1071 251/1066
f 256/256 254/1074 251/1067 250/1063
f 257/257 256/1080 250/1064 252/1068
f 86/581 85/577 258/258 252/1069
f 259/259 257/1083 252/1070 258/1086
f 256/1081 257/1084 260/260 261/261
f 257/1085 259/1089 262/262 260/1092
f 254/1075 256/1082 261/1095 263/263
f 255/1077 254/1076 263/1101 264/264
f 265/265 255/1078 264/1104 266/266
f 255/1079 265/1107 267/267 253/1072
f 87/583 88/587 253/1073 267/1113
f 85/578 87/584 267/1114 258/1087
f 265/1108 259/1090 258/1088 267/1115
f 259/1091 265/1109 266/1110 262/1098
f 268/268 269/269 262/1099 266/1111
f 269/1118 270/270 260/1093 262/1100
f 260/1094 270/1121 271/271 261/1096
f 261/1097 271/1123 272/272 263/1102
f 263/1103 272/1125 273/273 264/1105
f 273/1128 268/1116 266/1112 264/1106
f 273/1129 272/1126 269/1119 268/1117
f 269/1120 272/1127 271/1124 270/1122
f 71/532 63/511 64/515 70/531
f 274/274 62/508 63/512 71/533
f 274/1130 71/534 60/503 62/509
f 275/275 276/276 277/277 278/278
f 277/1136 276/1133 279/279 280/280
f 277/1137 281/281 282/282 278/1139
f 281/1148 277/1138 280/1145 283/283
f 284/284 275/1131 278/1140 285/285
f 286/286 276/1134 275/1132 284/1156
f 287/287 279/1142 276/1135 286/1161
f 287/1164 288/288 289/289 279/1143
f 280/1146 279/1144 289/1172 290/290
f 283/1153 280/1147 290/1175 291/291
f 292/292 281/1149 283/1154 293/293
f 283/1155 291/1178 294/294 293/1184
f 295/295 282/1151 281/1150 292/1181
f 278/1141 282/1152 295/1192 285/1158
f 286/1162 284/1157 285/1159 296/296
f 285/1160 295/1193 292/1182 296/1194
f 287/1165 286/1163 296/1195 297/297
f 298/298 299/299 287/1166 297/1197
f 299/1203 300/300 288/1168 287/1167
f 288/1169 301/301 302/302 289/1173
f 303/303 288/1170 300/1206 304/304
f 288/1171 303/1213 305/305 301/1209
f 302/1211 306/306 290/1176 289/1174
f 306/1222 307/307 291/1179 290/1177
f 291/1180 307/1225 308/308 294/1188
f 293/1185 294/1189 309/309 310/310
f 294/1190 303/1214 304/1216 309/1229
f 303/1215 294/1191 308/1227 305/1219
f 296/1196 292/1183 293/1186 297/1198
f 293/1187 310/1232 298/1200 297/1199
f 311/311 312/312 299/1204 298/1201
f 310/1233 313/313 311/1235 298/1202
f 299/1205 312/1238 314/314 300/1207
f 304/1217 300/1208 314/1242 315/315
f 316/316 309/1230 304/1218 315/1244
f 309/1231 316/1247 313/1240 310/1234
f 316/1248 315/1245 311/1236 313/1241
f 315/1246 314/1243 312/1239 311/1237
f 302/1212 301/1210 305/1220 306/1223
f 305/1221 308/1228 307/1226 306/1224
o Tube
usemtl Tube
v -0.03270835 18.53890800 -2.55474544 0.999999940 0.999999940 0.999999940
v -1.00688612 18.53885841 -2.05778313 0.999999940 0.999999940 0.999999940
v -0.98764342 18.53770637 -1.09218907 0.999999940 0.999999940 0.999999940
v 0.005777069 18.53660774 -0.62355739 0.999999940 0.999999940 0.999999940
v 0.979955077 18.53665542 -1.12051988 0.999999940 0.999999940 0.999999940
v 0.960712850 18.53780365 -2.08611369 0.999999940 0.999999940 0.999999940
v -0.03300429 18.00310897 -2.55520296 0.999999940 0.999999940 0.999999940
v -1.00718248 18.00305938 -2.05824041 0.999999940 0.999999940 0.999999940
v -0.98793983 18.00190925 -1.09264624 0.999999940 0.999999940 0.999999940
v 0.005481163 18.00080680 -0.62401468 0.999999940 0.999999940 0.999999940
v 0.979659616 18.00085258 -1.12097728 0.999999940 0.999999940 0.999999940
v 0.960416436 18.00200653 -2.08657098 0.999999940 0.999999940 0.999999940
v -0.03359224 16.938694 -2.55611134 0.999999940 0.999999940 0.999999940
v -1.00777078 16.93864631 -2.05914879 0.999999940 0.999999940 0.999999940
v -0.98852813 16.93749427 -1.09355474 0.999999940 0.999999940 0.999999940
v 0.004892933 16.93639183 -0.62492323 0.999999940 0.999999940 0.999999940
v 0.979071080 16.93644142 -1.12188578 0.999999940 0.999999940 0.999999940
v 0.959828376 16.93759155 -2.08747959 0.999999940 0.999999940 0.999999940
v -0.03447821 15.33628940 -2.55747914 0.999999940 0.999999940 0.999999940
v -1.00865638 15.33623886 -2.0605166 0.999999940 0.999999940 0.999999940
v -0.98941362 15.33508586 -1.09492242 0.999999940 0.999999940 0.999999940
v 0.004007216 15.33398437 -0.6262908 0.999999940 0.999999940 0.999999940
v 0.978185355 15.33403301 -1.12325335 0.999999940 0.999999940 0.999999940
v 0.958942890 15.33518505 -2.0888474 0.999999940 0.999999940 0.999999940
v -0.03536293 13.73508834 -2.55884576 0.999999940 0.999999940 0.999999940
v -1.00954127 13.73503971 -2.06188345 0.999999940 0.999999940 0.999999940
v -0.99029869 13.73388958 -1.09628928 0.999999940 0.999999940 0.999999940
v 0.003122258 13.73278713 -0.62765765 0.999999940 0.999999940 0.999999940
v 0.977300643 13.73283577 -1.1246202 0.999999940 0.999999940 0.999999940
v 0.958058118 13.73398685 -2.09021425 0.999999940 0.999999940 0.999999940
v -0.03624821 12.13342189 -2.56021285 0.999999940 0.999999940 0.999999940
v -1.01042652 12.13337516 -2.0632503 0.999999940 0.999999940 0.999999940
v -0.99118376 12.13222408 -1.09765625 0.999999940 0.999999940 0.999999940
v 0.002237241 12.13112068 -0.62902457 0.999999940 0.999999940 0.999999940
v 0.976415216 12.13117027 -1.12598717 0.999999940 0.999999940 0.999999940
v 0.957172632 12.13232135 -2.09158111 0.999999940 0.999999940 0.999999940
v -0.03698265 10.80442237 -2.56134725 0.999999940 0.999999940 0.999999940
v -1.01116097 10.80437374 -2.0643847 0.999999940 0.999999940 0.999999940
v -0.99191833 10.80322361 -1.09879065 0.999999940 0.999999940 0.999999940
v 0.001502563 10.80212116 -0.63015902 0.999999940 0.999999940 0.999999940
v 0.975681185 10.80216884 -1.12712145 0.999999940 0.999999940 0.999999940
v 0.956438183 10.80332088 -2.09271526 0.999999940 0.999999940 0.999999940
v -0.03801845 8.930500030 -2.56294656 0.999999940 0.999999940 0.999999940
v -1.01219666 8.930452346 -2.06598401 0.999999940 0.999999940 0.999999940
v -0.99295413 8.929299354 -1.10038996 0.999999940 0.999999940 0.999999940
v 0.000466716 8.928197860 -0.63175833 0.999999940 0.999999940 0.999999940
v 0.974644959 8.928247451 -1.12872088 0.999999940 0.999999940 0.999999940
v 0.955402433 8.929396629 -2.09431481 0.999999940 0.999999940 0.999999940
v -0.02693532 18.53856277 -2.26506734 0.999999940 0.999999940 0.999999940
v -0.70885998 18.53853035 -1.91719365 0.999999940 0.999999940 0.999999940
v -0.69539005 18.53772354 -1.24127781 0.999999940 0.999999940 0.999999940
v 0.000004529 18.53695106 -0.91323555 0.999999940 0.999999940 0.999999940
v 0.681929230 18.53698539 -1.26110935 0.999999940 0.999999940 0.999999940
v 0.668459355 18.53779220 -1.93702519 0.999999940 0.999999940 0.999999940
v -0.0134654 18.53775787 -1.58915138 0.999999940 0.999999940 0.999999940
v -0.0322456 8.930153846 -2.27326846 0.999999940 0.999999940 0.999999940
v -0.71417046 8.930120468 -1.92539465 0.999999940 0.999999940 0.999999940
v -0.70070064 8.929315567 -1.24947894 0.999999940 0.999999940 0.999999940
v -0.00530609 8.928544044 -0.92143679 0.999999940 0.999999940 0.999999940
v 0.676618754 8.928577423 -1.26931036 0.999999940 0.999999940 0.999999940
v 0.663148999 8.929384231 -1.94522619 0.999999940 0.999999940 0.999999940
v -0.01877587 8.929349899 -1.5973525 0.999999940 0.999999940 0.999999940
s 1
f 317 323 324 318
f 318 324 325 319
f 319 325 326 320
f 320 326 327 321
f 321 327 328 322
f 322 328 323 317
f 323 329 330 324
f 324 330 331 325
f 325 331 332 326
f 326 332 333 327
f 327 333 334 328
f 328 334 329 323
f 329 335 336 330
f 330 336 337 331
f 331 337 338 332
f 332 338 339 333
f 333 339 340 334
f 334 340 335 329
f 335 341 342 336
f 336 342 343 337
f 337 343 344 338
f 338 344 345 339
f 339 345 346 340
f 340 346 341 335
f 341 347 348 342
f 342 348 349 343
f 343 349 350 344
f 344 350 351 345
f 345 351 352 346
f 346 352 347 341
f 347 353 354 348
f 348 354 355 349
f 349 355 356 350
f 350 356 357 351
f 351 357 358 352
f 352 358 353 347
f 353 359 360 354
f 354 360 361 355
f 355 361 362 356
f 356 362 363 357
f 357 363 364 358
f 358 364 359 353
f 366 365 317 318
f 367 366 318 319
f 368 367 319 320
f 369 368 320 321
f 370 369 321 322
f 365 370 322 317
f 366 367 371 365
f 368 369 371 367
f 370 365 371 369
f 359 372 373 360
f 360 373 374 361
f 361 374 375 362
f 362 375 376 363
f 363 376 377 364
f 364 377 372 359
f 378 374 373 372
f 378 376 375 374
f 378 372 377 376
o Tube_1
usemtl Tube_1
v 15.68695735 -3.23834443 -2.55474424 0.999999940 0.999999940 0.999999940
v 14.80331802 -3.64847922 -2.05778146 0.999999940 0.999999940 0.999999940
v 14.82125854 -3.64142227 -1.09218717 0.999999940 0.999999940 0.999999940
v 15.72283363 -3.22423291 -0.62355548 0.999999940 0.999999940 0.999999940
v 16.60647010 -2.81409764 -1.12051821 0.999999940 0.999999940 0.999999940
v 16.58853149 -2.82115293 -2.08611202 0.999999940 0.999999940 0.999999940
v 15.91223812 -3.72448087 -2.55520153 0.999999940 0.999999940 0.999999940
v 15.02860069 -4.13461637 -2.05823874 0.999999940 0.999999940 0.999999940
v 15.04654026 -4.12756014 -1.09264457 0.999999940 0.999999940 0.999999940
v 15.94811630 -3.71036792 -0.62401295 0.999999940 0.999999940 0.999999940
v 16.83175277 -3.30023432 -1.12097549 0.999999940 0.999999940 0.999999940
v 16.81381225 -3.30729055 -2.08656955 0.999999940 0.999999940 0.999999940
v 16.35977935 -4.69023752 -2.55610991 0.999999940 0.999999940 0.999999940
v 15.47614479 -5.10037136 -2.0591476 0.999999940 0.999999940 0.999999940
v 15.49408245 -5.0933156 -1.09355307 0.999999940 0.999999940 0.999999940
v 16.39565849 -4.6761241 -0.6249215 0.999999940 0.999999940 0.999999940
v 17.27929496 -4.26598978 -1.12188399 0.999999940 0.999999940 0.999999940
v 17.26135635 -4.27304602 -2.08747792 0.999999940 0.999999940 0.999999940
v 17.03352737 -6.14411879 -2.55747747 0.999999940 0.999999940 0.999999940
v 16.14988899 -6.55425501 -2.06051493 0.999999940 0.999999940 0.999999940
v 16.16782951 -6.5471983 -1.09492087 0.999999940 0.999999940 0.999999940
v 17.06940269 -6.13000727 -0.62628901 0.999999940 0.999999940 0.999999940
v 17.95304107 -5.71987391 -1.12325168 0.999999940 0.999999940 0.999999940
v 17.93510055 -5.72692966 -2.08884573 0.999999940 0.999999940 0.999999940
v 17.70676422 -7.59690619 -2.55884433 0.999999940 0.999999940 0.999999940
v 16.82312965 -8.00704098 -2.06188154 0.999999940 0.999999940 0.999999940
v 16.84106636 -7.99998474 -1.09628749 0.999999940 0.999999940 0.999999940
v 17.74264335 -7.58279467 -0.62765568 0.999999940 0.999999940 0.999999940
v 18.62627983 -7.1726594 -1.12461829 0.999999940 0.999999940 0.999999940
v 18.60833931 -7.17971516 -2.09021258 0.999999940 0.999999940 0.999999940
v 18.38019943 -9.05011654 -2.56021118 0.999999940 0.999999940 0.999999940
v 17.49656295 -9.46025085 -2.06324863 0.999999940 0.999999940 0.999999940
v 17.51450157 -9.45319462 -1.09765446 0.999999940 0.999999940 0.999999940
v 18.41607856 -9.03600407 -0.62902284 0.999999940 0.999999940 0.999999940
v 19.29971313 -8.62586975 -1.12598538 0.999999940 0.999999940 0.999999940
v 19.28177452 -8.63292408 -2.09157944 0.999999940 0.999999940 0.999999940
v 18.93898963 -10.2559347 -2.56134582 0.999999940 0.999999940 0.999999940
v 18.05535316 -10.66607 -2.06438303 0.999999940 0.999999940 0.999999940
v 18.07328987 -10.6590137 -1.09878886 0.999999940 0.999999940 0.999999940
v 18.97486686 -10.2418222 -0.63015717 0.999999940 0.999999940 0.999999940
v 19.85850334 -9.83168602 -1.1271199 0.999999940 0.999999940 0.999999940
v 19.84056472 -9.83874226 -2.09271383 0.999999940 0.999999940 0.999999940
v 19.72689819 -11.9561682 -2.56294489 0.999999940 0.999999940 0.999999940
v 18.84326171 -12.3663006 -2.06598258 0.999999940 0.999999940 0.999999940
v 18.86120033 -12.3592453 -1.10038829 0.999999940 0.999999940 0.999999940
v 19.76277542 -11.9420538 -0.63175648 0.999999940 0.999999940 0.999999940
v 20.64640998 -11.5319185 -1.12871933 0.999999940 0.999999940 0.999999940
v 20.62847328 -11.5389738 -2.09431338 0.999999940 0.999999940 0.999999940
v 15.69233799 -3.23622799 -2.26506567 0.999999940 0.999999940 0.999999940
v 15.07379245 -3.52332139 -1.91719198 0.999999940 0.999999940 0.999999940
v 15.08634948 -3.51838255 -1.24127603 0.999999940 0.999999940 0.999999940
v 15.71745300 -3.22634888 -0.9132337 0.999999940 0.999999940 0.999999940
v 16.33599853 -2.93925452 -1.26110768 0.999999940 0.999999940 0.999999940
v 16.32343864 -2.94419336 -1.9370234 0.999999940 0.999999940 0.999999940
v 15.70489406 -3.23128772 -1.58914971 0.999999940 0.999999940 0.999999940
v 19.73227882 -11.954052 -2.27326655 0.999999940 0.999999940 0.999999940
v 19.11373329 -12.2411461 -1.9253931 0.999999940 0.999999940 0.999999940
v 19.12629127 -12.2362061 -1.24947715 0.999999940 0.999999940 0.999999940
v 19.75739479 -11.9441719 -0.92143494 0.999999940 0.999999940 0.999999940
v 20.37593841 -11.6570759 -1.26930857 0.999999940 0.999999940 0.999999940
v 20.36338043 -11.6620169 -1.94522464 0.999999940 0.999999940 0.999999940
v 19.7448349 -11.94911 -1.59735072 0.999999940 0.999999940 0.999999940
s 1
f 379 385 386 380
f 380 386 387 381
f 381 387 388 382
f 382 388 389 383
f 383 389 390 384
f 384 390 385 379
f 385 391 392 386
f 386 392 393 387
f 387 393 394 388
f 388 394 395 389
f 389 395 396 390
f 390 396 391 385
f 391 397 398 392
f 392 398 399 393
f 393 399 400 394
f 394 400 401 395
f 395 401 402 396
f 396 402 397 391
f 397 403 404 398
f 398 404 405 399
f 399 405 406 400
f 400 406 407 401
f 401 407 408 402
f 402 408 403 397
f 403 409 410 404
f 404 410 411 405
f 405 411 412 406
f 406 412 413 407
f 407 413 414 408
f 408 414 409 403
f 409 415 416 410
f 410 416 417 411
f 411 417 418 412
f 412 418 419 413
f 413 419 420 414
f 414 420 415 409
f 415 421 422 416
f 416 422 423 417
f 417 423 424 418
f 418 424 425 419
f 419 425 426 420
f 420 426 421 415
f 428 427 379 380
f 429 428 380 381
f 430 429 381 382
f 431 430 382 383
f 432 431 383 384
f 427 432 384 379
f 428 429 433 427
f 430 431 433 429
f 432 427 433 431
f 421 434 435 422
f 422 435 436 423
f 423 436 437 424
f 424 437 438 425
f 425 438 439 426
f 426 439 434 421
f 440 436 435 434
f 440 438 437 436
f 440 434 439 438
o Mesh
usemtl Mesh
v 5.900209426 -43.4230843 -3.10990882 0.999999940 0.999999940 0.999999940
v 6.833346843 -43.3834915 -3.63416481 0.999999940 0.999999940 0.999999940
v 8.178442001 -43.4805794 -3.88736677 0.999999940 0.999999940 0.999999940
v 7.311622142 -43.4571991 -1.67750549 0.999999940 0.999999940 0.999999940
v 8.755005836 -43.4950333 -1.99140382 0.999999940 0.999999940 0.999999940
v 5.638741016 -41.8097153 -3.25341129 0.999999940 0.999999940 0.999999940
v 5.761876583 -40.4181595 -3.14508533 0.999999940 0.999999940 0.999999940
v 8.281912803 -41.8451996 -4.07364893 0.999999940 0.999999940 0.999999940
v 6.849841594 -41.7430153 -3.7062428 0.999999940 0.999999940 0.999999940
v 6.840116500 -39.932148 -3.81429935 0.999999940 0.999999940 0.999999940
v 9.106904983 -43.4575348 -3.72913647 0.999999940 0.999999940 0.999999940
v 9.596396446 -42.7303352 -4.0868659 0.999999940 0.999999940 0.999999940
v 9.915390014 -43.4902191 -2.2746048 0.999999940 0.999999940 0.999999940
v 10.23596954 -42.7387581 -2.38639402 0.999999940 0.999999940 0.999999940
v 8.279088974 -40.0781174 -4.02603388 0.999999940 0.999999940 0.999999940
v 9.557422637 -40.5792389 -3.83443999 0.999999940 0.999999940 0.999999940
v 7.995309829 -37.4657936 -3.59869623 0.999999940 0.999999940 0.999999940
v 8.933801651 -37.1911736 -3.29227209 0.999999940 0.999999940 0.999999940
v 8.686420440 -39.3758049 -1.90375531 0.999999940 0.999999940 0.999999940
v 10.31101226 -40.0697861 -2.39291573 0.999999940 0.999999940 0.999999940
v 9.344727516 -37.2382317 -2.04942536 0.999999940 0.999999940 0.999999940
v 5.946061134 -43.4092026 -1.40330446 0.999999940 0.999999940 0.999999940
v 6.861673831 -43.3890839 0.758724570 0.999999940 0.999999940 0.999999940
v 9.263522148 -43.4948082 0.044609580 0.999999940 0.999999940 0.999999940
v 8.008417129 -43.4793129 0.393993973 0.999999940 0.999999940 0.999999940
v 5.561992168 -42.2760773 -1.36508477 0.999999940 0.999999940 0.999999940
v 5.860387325 -39.9928169 -1.39985323 0.999999940 0.999999940 0.999999940
v 6.432510852 -42.4785271 0.721306502 0.999999940 0.999999940 0.999999940
v 6.222390651 -40.6400146 -0.02149697 0.999999940 0.999999940 0.999999940
v 10.33124446 -43.5323868 -0.32627925 0.999999940 0.999999940 0.999999940
v 10.61387920 -42.6433449 -0.69568139 0.999999940 0.999999940 0.999999940
v 10.66267585 -40.1268272 -0.6741097 0.999999940 0.999999940 0.999999940
v 9.470870018 -37.612114 -0.64771277 0.999999940 0.999999940 0.999999940
v 8.667288780 -37.5576935 0.120557315 0.999999940 0.999999940 0.999999940
v 6.487032890 -37.6825333 -3.19493771 0.999999940 0.999999940 0.999999940
v 7.230245590 -37.6760941 -3.42400479 0.999999940 0.999999940 0.999999940
v 7.402500629 -39.9866676 -1.62378788 0.999999940 0.999999940 0.999999940
v 6.129760265 -38.0839996 -1.36576796 0.999999940 0.999999940 0.999999940
v 6.990784645 -37.8089676 0.321347177 0.999999940 0.999999940 0.999999940
v 8.093800544 -37.7987213 0.199664130 0.999999940 0.999999940 0.999999940
v 8.654354095 -43.2510834 2.210731029 0.999999940 0.999999940 0.999999940
v 7.605719566 -43.3995895 2.513989210 0.999999940 0.999999940 0.999999940
v 7.200410366 -42.3937759 2.534086704 0.999999940 0.999999940 0.999999940
v 7.034595012 -40.8267517 2.459930419 0.999999940 0.999999940 0.999999940
v 10.38835239 -43.3681145 1.583813428 0.999999940 0.999999940 0.999999940
v 9.477147102 -43.4395752 1.904306888 0.999999940 0.999999940 0.999999940
v 10.95539188 -42.5161934 1.132294178 0.999999940 0.999999940 0.999999940
v 11.27130317 -43.332695 4.201149940 0.999999940 0.999999940 0.999999940
v 11.68808651 -42.5359116 3.930170774 0.999999940 0.999999940 0.999999940
v 11.25461864 -40.8700371 3.415459156 0.999999940 0.999999940 0.999999940
v 8.179229736 -39.3271675 1.409518003 0.999999940 0.999999940 0.999999940
v 10.68112087 -40.7212067 0.816863119 0.999999940 0.999999940 0.999999940
v 10.29296398 -39.8269653 1.000749468 0.999999940 0.999999940 0.999999940
v 9.394787788 -39.5686684 1.351514339 0.999999940 0.999999940 0.999999940
v 8.010087013 -43.3262444 4.779912471 0.999999940 0.999999940 0.999999940
v 9.058417320 -43.3389282 4.126715660 0.999999940 0.999999940 0.999999940
v 9.711601257 -43.233387 6.757215023 0.999999940 0.999999940 0.999999940
v 8.955813407 -43.1583405 6.384934425 0.999999940 0.999999940 0.999999940
v 7.734130382 -42.6207352 5.252987384 0.999999940 0.999999940 0.999999940
v 7.606221199 -40.9732742 4.986288070 0.999999940 0.999999940 0.999999940
v 8.892812728 -42.4174538 7.472061157 0.999999940 0.999999940 0.999999940
v 8.897309303 -41.2154388 7.512670517 0.999999940 0.999999940 0.999999940
v 10.20455265 -43.472187 3.810975551 0.999999940 0.999999940 0.999999940
v 10.43802070 -43.2758942 6.426023960 0.999999940 0.999999940 0.999999940
v 10.99121856 -42.67453 7.004355430 0.999999940 0.999999940 0.999999940
v 9.934518814 -42.4886818 7.531713962 0.999999940 0.999999940 0.999999940
v 11.23171997 -43.1829453 6.227331638 0.999999940 0.999999940 0.999999940
v 11.90798378 -42.4429665 6.472481250 0.999999940 0.999999940 0.999999940
v 11.96443843 -41.4398575 6.280091762 0.999999940 0.999999940 0.999999940
v 8.898325920 -39.6719398 3.719263553 0.999999940 0.999999940 0.999999940
v 9.659036636 -39.9106903 3.353598594 0.999999940 0.999999940 0.999999940
v 9.857277870 -41.10952 7.600660324 0.999999940 0.999999940 0.999999940
v 9.753720283 -40.05336 6.659532547 0.999999940 0.999999940 0.999999940
v 11.05049419 -41.4045563 7.222889900 0.999999940 0.999999940 0.999999940
v 10.78696918 -40.3840027 6.178123474 0.999999940 0.999999940 0.999999940
v 7.252942085 -39.665081 1.778178095 0.999999940 0.999999940 0.999999940
v 8.108988761 -40.0044441 4.135750293 0.999999940 0.999999940 0.999999940
v 8.969841957 -40.4129028 6.749446392 0.999999940 0.999999940 0.999999940
v 10.48353672 -40.2783051 3.103653669 0.999999940 0.999999940 0.999999940
v 11.61931228 -40.6635628 5.518035888 0.999999940 0.999999940 0.999999940
v 20.69691467 -18.1325722 -2.5481739 0.999999940 0.999999940 0.999999940
v 22.45492744 -17.100359 -2.41320467 0.999999940 0.999999940 0.999999940
v 24.33255195 -16.3254681 -2.51363873 0.999999940 0.999999940 0.999999940
v 20.56773185 -18.0897942 -0.71920842 0.999999940 0.999999940 0.999999940
v 22.45492744 -17.100359 -0.78678614 0.999999940 0.999999940 0.999999940
v 24.36872863 -16.1463299 -0.71713495 0.999999940 0.999999940 0.999999940
v 19.71698951 -16.3866463 -2.58943439 0.999999940 0.999999940 0.999999940
v 18.79143714 -14.6326294 -2.70904255 0.999999940 0.999999940 0.999999940
v 21.59233284 -15.4065676 -2.41320467 0.999999940 0.999999940 0.999999940
v 20.88427543 -13.4329329 -2.81245923 0.999999940 0.999999940 0.999999940
v 17.73202705 -12.9528761 -2.68593049 0.999999940 0.999999940 0.999999940
v 17.12268638 -11.1932583 -2.55869007 0.999999940 0.999999940 0.999999940
v 19.75516128 -11.8276739 -3.09365654 0.999999940 0.999999940 0.999999940
v 20.76573753 -11.5987253 -2.96172857 0.999999940 0.999999940 0.999999940
v 21.30744743 -11.2963858 -3.03600478 0.999999940 0.999999940 0.999999940
v 20.5164814 -11.2144461 -3.05002594 0.999999940 0.999999940 0.999999940
v 18.81252479 -9.947896 -2.80808902 0.999999940 0.999999940 0.999999940
v 23.56589126 -14.5726042 -2.56806874 0.999999940 0.999999940 0.999999940
v 22.92024612 -13.1553221 -2.5641911 0.999999940 0.999999940 0.999999940
v 22.91408157 -12.4765949 -2.39569783 0.999999940 0.999999940 0.999999940
v 24.47770309 -12.3997784 -2.2639823 0.999999940 0.999999940 0.999999940
v 24.90929985 -11.4728069 -2.10220456 0.999999940 0.999999940 0.999999940
v 22.21977996 -11.4481449 -2.79798317 0.999999940 0.999999940 0.999999940
v 21.7038517 -12.1939421 -2.72672248 0.999999940 0.999999940 0.999999940
v 21.45272636 -10.5423651 -2.92175746 0.999999940 0.999999940 0.999999940
v 20.57776832 -10.2211752 -2.92714047 0.999999940 0.999999940 0.999999940
v 21.80971717 -10.3357735 -2.57744884 0.999999940 0.999999940 0.999999940
v 21.81332397 -10.0534315 -2.35275984 0.999999940 0.999999940 0.999999940
v 21.18597602 -10.1432438 -2.84260917 0.999999940 0.999999940 0.999999940
v 20.87942886 -9.57674599 -2.76746345 0.999999940 0.999999940 0.999999940
v 22.80288124 -10.4619331 -2.39621449 0.999999940 0.999999940 0.999999940
v 19.63783836 -16.4189892 -0.88280314 0.999999940 0.999999940 0.999999940
v 18.54992485 -14.8357258 -0.06330252 0.999999940 0.999999940 0.999999940
v 21.59233284 -15.4065676 -0.78678614 0.999999940 0.999999940 0.999999940
v 20.73931884 -13.7315989 -0.60802555 0.999999940 0.999999940 0.999999940
v 17.70950889 -13.0505486 -0.09648057 0.999999940 0.999999940 0.999999940
v 17.24244689 -11.1246862 -0.55913079 0.999999940 0.999999940 0.999999940
v 19.87631225 -12.0363369 -0.34969807 0.999999940 0.999999940 0.999999940
v 18.86768341 -10.0554438 -0.46934929 0.999999940 0.999999940 0.999999940
v 23.56067848 -14.4004269 -0.88877612 0.999999940 0.999999940 0.999999940
v 22.92938423 -12.5568686 -0.09517788 0.999999940 0.999999940 0.999999940
v 23.20514679 -12.3539314 -1.05610859 0.999999940 0.999999940 0.999999940
v 24.68084716 -12.3851118 -0.96580088 0.999999940 0.999999940 0.999999940
v 25.11325836 -11.5428791 -0.90065235 0.999999940 0.999999940 0.999999940
v 22.99133682 -11.513464 -0.60697114 0.999999940 0.999999940 0.999999940
v 22.47122764 -11.5627718 -0.12417637 0.999999940 0.999999940 0.999999940
v 22.02994155 -11.3024902 -0.01368325 0.999999940 0.999999940 0.999999940
v 22.30718612 -10.8120518 -0.22802448 0.999999940 0.999999940 0.999999940
v 21.69100379 -9.8963604 -0.93539172 0.999999940 0.999999940 0.999999940
v 21.37994766 -10.2496243 -0.51763195 0.999999940 0.999999940 0.999999940
v 20.83470916 -9.27132034 -0.73105943 0.999999940 0.999999940 0.999999940
v 22.73665046 -10.5702581 -0.84099507 0.999999940 0.999999940 0.999999940
s 1
f 443 442 449 448
f 451 443 448 452
f 444 462 441 442
f 445 443 451 453
f 444 442 443 445
f 442 441 446 449
f 449 446 447 450
f 448 449 450 455
f 441 462 466 446
f 446 466 467 447
f 453 451 452 454
f 452 448 455 456
f 454 452 456 460
f 455 450 476 457
f 456 455 457 458
f 460 456 458 461
f 461 458 457 459
f 465 444 445 464
f 444 465 463 462
f 462 463 468 466
f 469 467 466 468
f 464 445 453 470
f 470 453 454 471
f 471 454 460 472
f 485 470 471 487
f 487 471 472 492
f 477 480 474 459
f 472 460 461 473
f 461 459 474 473
f 492 472 473 493
f 493 473 474 494
f 450 447 475 476
f 447 467 478 475
f 475 478 477 476
f 459 457 476 477
f 467 469 479 478
f 478 479 480 477
f 482 463 465 481
f 481 465 464 486
f 486 503 496 481
f 495 482 481 496
f 463 482 483 468
f 484 469 468 483
f 486 464 470 485
f 503 486 485 488
f 488 485 487 489
f 489 487 492 490
f 494 474 480 491
f 490 492 493 519
f 519 493 494 511
f 511 494 491 510
f 497 498 495 496
f 495 498 501 499
f 498 497 506 501
f 499 483 482 495
f 500 484 483 499
f 484 500 517 516
f 499 501 502 500
f 497 496 503 504
f 504 503 488 507
f 507 488 489 508
f 508 489 490 509
f 497 504 505 506
f 504 507 508 505
f 505 508 509 514
f 509 490 519 520
f 519 511 515 520
f 501 506 512 502
f 506 505 514 512
f 513 510 517 518
f 500 502 518 517
f 502 512 513 518
f 520 515 514 509
f 515 511 510 513
f 515 513 512 514
f 516 479 469 484
f 491 480 479 516
f 510 491 516 517
f 549 545 546
f 572 569 570
f 572 570 568
f 566 565 572 568
f 563 564 565 562
f 542 551 572 564
f 551 548 569 572
f 548 551 547
f 565 564 572
f 547 551 543
f 547 543 545 549
f 540 544 543
f 543 535 545
f 543 544 534 535
f 542 564 563 541
f 536 535 534
f 541 563 562 540
f 542 541 543 551
f 546 545 535 536
f 541 540 543
f 544 540 539 530
f 536 533 537 546
f 536 534 533
f 530 533 534 544
f 531 532 537 533
f 528 531 533 530
f 550 546 537
f 529 530 539 538
f 548 547 550
f 550 547 549
f 550 549 546
f 527 528 530 529
f 527 552 553 528
f 552 554 555 553
f 556 531 528 553
f 557 532 531 556
f 558 556 553 555
f 532 557 559 537
f 559 557 556 558
f 560 538 539 561
f 561 539 540 562
f 554 560 561 555
f 526 523 538 560
f 554 525 526 560
f 567 558 555 561
f 565 566 561 562
f 567 561 566
f 567 566 568
f 552 524 525 554
f 571 550 537 559
f 522 523 526 525
f 569 548 550 571
f 558 567 570 559
f 571 559 570
f 570 567 568
f 529 538 523 522
f 521 522 525 524
f 571 570 569
f 527 529 522 521
f 527 521 524 552
o Tube_2
usemtl Tube_2
v 6.147685051 -27.394062 -2.55477738 0.999999940 0.999999940 0.999999940
v 5.066940307 -27.5283985 -2.05792379 0.999999940 0.999999940 0.999999940
v 5.088235378 -27.5264988 -1.09232676 0.999999940 0.999999940 0.999999940
v 6.190276145 -27.390274 -0.62358326 0.999999940 0.999999940 0.999999940
v 7.271018028 -27.2559357 -1.12043726 0.999999940 0.999999940 0.999999940
v 7.249723911 -27.2578354 -2.08603382 0.999999940 0.999999940 0.999999940
v 6.229738712 -27.9218311 -2.55507112 0.999999940 0.999999940 0.999999940
v 5.148994922 -28.0561638 -2.05821729 0.999999940 0.999999940 0.999999940
v 5.170290470 -28.0542679 -1.09262037 0.999999940 0.999999940 0.999999940
v 6.272329330 -27.9180374 -0.62387681 0.999999940 0.999999940 0.999999940
v 7.353072166 -27.7837067 -1.12073076 0.999999940 0.999999940 0.999999940
v 7.331777572 -27.7855988 -2.08632755 0.999999940 0.999999940 0.999999940
v 6.375653743 -28.8603458 -2.55559301 0.999999940 0.999999940 0.999999940
v 5.294910430 -28.9946766 -2.05873966 0.999999940 0.999999940 0.999999940
v 5.316205501 -28.9927845 -1.09314251 0.999999940 0.999999940 0.999999940
v 6.418243408 -28.8565521 -0.62439895 0.999999940 0.999999940 0.999999940
v 7.498987674 -28.7222176 -1.12125289 0.999999940 0.999999940 0.999999940
v 7.477693080 -28.7241135 -2.08684945 0.999999940 0.999999940 0.999999940
v 6.603950500 -30.3287392 -2.55641007 0.999999940 0.999999940 0.999999940
v 5.523207187 -30.4630661 -2.05955648 0.999999940 0.999999940 0.999999940
v 5.544501781 -30.4611702 -1.09395945 0.999999940 0.999999940 0.999999940
v 6.646540164 -30.3249416 -0.62521589 0.999999940 0.999999940 0.999999940
v 7.727283954 -30.1906071 -1.12206972 0.999999940 0.999999940 0.999999940
v 7.705989360 -30.192503 -2.08766651 0.999999940 0.999999940 0.999999940
v 6.832046508 -31.7958317 -2.55722618 0.999999940 0.999999940 0.999999940
v 5.751303196 -31.9301701 -2.06037259 0.999999940 0.999999940 0.999999940
v 5.772598743 -31.9282722 -1.09477568 0.999999940 0.999999940 0.999999940
v 6.874636173 -31.7920399 -0.62603217 0.999999940 0.999999940 0.999999940
v 7.955381870 -31.6577148 -1.12288582 0.999999940 0.999999940 0.999999940
v 7.934085845 -31.6596107 -2.08848262 0.999999940 0.999999940 0.999999940
v 7.060273170 -33.2637711 -2.55804276 0.999999940 0.999999940 0.999999940
v 5.979529857 -33.3981056 -2.06118941 0.999999940 0.999999940 0.999999940
v 6.000823497 -33.3962059 -1.09559214 0.999999940 0.999999940 0.999999940
v 7.102863311 -33.2599754 -0.626849 0.999999940 0.999999940 0.999999940
v 8.183605194 -33.1256409 -1.12370253 0.999999940 0.999999940 0.999999940
v 8.162310600 -33.127533 -2.08929944 0.999999940 0.999999940 0.999999940
v 7.288618087 -34.7324677 -2.55886006 0.999999940 0.999999940 0.999999940
v 6.207874298 -34.8668022 -2.06200647 0.999999940 0.999999940 0.999999940
v 6.229169368 -34.8649063 -1.09640932 0.999999940 0.999999940 0.999999940
v 7.331208229 -34.7286758 -0.62766588 0.999999940 0.999999940 0.999999940
v 8.411952018 -34.5943413 -1.12451947 0.999999940 0.999999940 0.999999940
v 8.390656471 -34.5962372 -2.09011626 0.999999940 0.999999940 0.999999940
v 7.516889095 -36.2006989 -2.55967665 0.999999940 0.999999940 0.999999940
v 6.436145305 -36.3350334 -2.06282306 0.999999940 0.999999940 0.999999940
v 6.45744133 -36.3331375 -1.09722614 0.999999940 0.999999940 0.999999940
v 7.559480667 -36.1969109 -0.6284827 0.999999940 0.999999940 0.999999940
v 8.640223503 -36.0625725 -1.12533641 0.999999940 0.999999940 0.999999940
v 8.618928909 -36.0644684 -2.09093332 0.999999940 0.999999940 0.999999940
v 7.745096206 -37.6685104 -2.56049323 0.999999940 0.999999940 0.999999940
v 6.664351463 -37.8028374 -2.06363988 0.999999940 0.999999940 0.999999940
v 6.685648918 -37.8009453 -1.09804273 0.999999940 0.999999940 0.999999940
v 7.787686824 -37.6647186 -0.62929934 0.999999940 0.999999940 0.999999940
v 8.868430137 -37.5303841 -1.12615299 0.999999940 0.999999940 0.999999940
v 8.847135543 -37.53228 -2.09174967 0.999999940 0.999999940 0.999999940
v 7.971731662 -39.1262093 -2.56130433 0.999999940 0.999999940 0.999999940
v 6.890986919 -39.26054 -2.0644505 0.999999940 0.999999940 0.999999940
v 6.912281513 -39.2586441 -1.09885347 0.999999940 0.999999940 0.999999940
v 8.014321327 -39.1224174 -0.63011026 0.999999940 0.999999940 0.999999940
v 9.095065116 -38.9880829 -1.12696397 0.999999940 0.999999940 0.999999940
v 9.073771476 -38.9899788 -2.09256101 0.999999940 0.999999940 0.999999940
v 8.010550499 -39.3758965 -2.56144285 0.999999940 0.999999940 0.999999940
v 6.929807663 -39.5102234 -2.06458974 0.999999940 0.999999940 0.999999940
v 6.951101303 -39.5083237 -1.09899247 0.999999940 0.999999940 0.999999940
v 8.053140640 -39.3721008 -0.63024908 0.999999940 0.999999940 0.999999940
v 9.133884429 -39.2377663 -1.12710285 0.999999940 0.999999940 0.999999940
v 9.112589836 -39.2396622 -2.09269977 0.999999940 0.999999940 0.999999940
v 8.42973423 -42.0720482 -2.56294322 0.999999940 0.999999940 0.999999940
v 7.348989963 -42.2063789 -2.06608963 0.999999940 0.999999940 0.999999940
v 7.370285034 -42.2044907 -1.10049248 0.999999940 0.999999940 0.999999940
v 8.472325325 -42.0682602 -0.63174903 0.999999940 0.999999940 0.999999940
v 9.553066253 -41.9339256 -1.12860274 0.999999940 0.999999940 0.999999940
v 9.531772613 -41.9358177 -2.09419966 0.999999940 0.999999940 0.999999940
v 6.154073238 -27.3934956 -2.26509809 0.999999940 0.999999940 0.999999940
v 5.397552967 -27.4875278 -1.9173007 0.999999940 0.999999940 0.999999940
v 5.412458896 -27.4862003 -1.24138284 0.999999940 0.999999940 0.999999940
v 6.183886528 -27.3908386 -0.91326249 0.999999940 0.999999940 0.999999940
v 6.940407753 -27.2968063 -1.26106012 0.999999940 0.999999940 0.999999940
v 6.925499916 -27.2981319 -1.93697798 0.999999940 0.999999940 0.999999940
v 6.168980121 -27.3921661 -1.58918035 0.999999940 0.999999940 0.999999940
v 8.436122894 -42.0714836 -2.27326417 0.999999940 0.999999940 0.999999940
v 7.679602146 -42.1655121 -1.92546654 0.999999940 0.999999940 0.999999940
v 7.694508075 -42.1641846 -1.24954867 0.999999940 0.999999940 0.999999940
v 8.465936660 -42.0688324 -0.9214282 0.999999940 0.999999940 0.999999940
v 9.222456932 -41.9748001 -1.26922584 0.999999940 0.999999940 0.999999940
v 9.207550048 -41.9761238 -1.9451437 0.999999940 0.999999940 0.999999940
v 8.451028823 -42.0701561 -1.59734607 0.999999940 0.999999940 0.999999940
s 1
f 573 579 580 574
f 574 580 581 575
f 575 581 582 576
f 576 582 583 577
f 577 583 584 578
f 578 584 579 573
f 579 585 586 580
f 580 586 587 581
f 581 587 588 582
f 582 588 589 583
f 583 589 590 584
f 584 590 585 579
f 585 591 592 586
f 586 592 593 587
f 587 593 594 588
f 588 594 595 589
f 589 595 596 590
f 590 596 591 585
f 591 597 598 592
f 592 598 599 593
f 593 599 600 594
f 594 600 601 595
f 595 601 602 596
f 596 602 597 591
f 597 603 604 598
f 598 604 605 599
f 599 605 606 600
f 600 606 607 601
f 601 607 608 602
f 602 608 603 597
f 603 609 610 604
f 604 610 611 605
f 605 611 612 606
f 606 612 613 607
f 607 613 614 608
f 608 614 609 603
f 609 615 616 610
f 610 616 617 611
f 611 617 618 612
f 612 618 619 613
f 613 619 620 614
f 614 620 615 609
f 615 621 622 616
f 616 622 623 617
f 617 623 624 618
f 618 624 625 619
f 619 625 626 620
f 620 626 621 615
f 621 627 628 622
f 622 628 629 623
f 623 629 630 624
f 624 630 631 625
f 625 631 632 626
f 626 632 627 621
f 627 633 634 628
f 628 634 635 629
f 629 635 636 630
f 630 636 637 631
f 631 637 638 632
f 632 638 633 627
f 633 639 640 634
f 634 640 641 635
f 635 641 642 636
f 636 642 643 637
f 637 643 644 638
f 638 644 639 633
f 646 645 573 574
f 647 646 574 575
f 648 647 575 576
f 649 648 576 577
f 650 649 577 578
f 645 650 578 573
f 646 647 651 645
f 648 649 651 647
f 650 645 651 649
f 639 652 653 640
f 640 653 654 641
f 641 654 655 642
f 642 655 656 643
f 643 656 657 644
f 644 657 652 639
f 658 654 653 652
f 658 656 655 654
f 658 652 657 656
