# OBJ export from CozyBlanket
mtllib export.mtl
v -11.5885992050 10.6249523163 -3.9893217087
v -0.0008001328 12.8492546082 -4.1790413857
v -0.0008001328 13.3242473602 -4.9725871086
v -11.8155851364 10.7748718262 -2.2103066444
v -11.5300788879 10.6403951645 -0.5000798702
v -0.0008001328 12.2786369324 -0.4753830433
v -12.0186519623 9.9461364746 -4.0161161423
v -12.4415378571 10.3292808533 -2.1778795719
v -12.1363677979 10.1237955093 -0.3901619911
v -16.9215087891 2.1944131851 -4.9250450134
v -17.6967048645 2.7430257797 -1.8716588020
v -16.7373733521 1.9119925499 0.7160263062
v -11.0478725433 6.5542511940 1.5337007046
v -10.0386047363 7.0144958496 1.4898055792
v 1.6001791954 13.0084381104 -4.2342023849
v -13.7465553284 0.1091583967 1.9279072285
v -22.5129432678 -4.5143737793 -1.7802977562
v -21.2091484070 -5.9012017250 1.9025394917
v -17.7571105957 -8.7715835571 2.2234158516
v -21.3578605652 -5.4874224663 -5.4948396683
v -13.2318868637 -0.3348692656 -5.5390629768
v -16.9797248840 -8.8021392822 -5.4578766823
v -10.4739160538 7.9781475067 -5.1169452667
v -9.5334568024 8.7639207840 -5.0165262222
v -3.4788033962 11.8591985703 3.1423001289
v -9.1674098969 2.9229979515 -1.6103215218
v -10.9995021820 -1.6768100262 -1.6668183804
v -15.3499059677 -10.4889230728 -1.2038990259
v -9.3732185364 0.3442678452 0.4010332823
v -10.0535488129 4.1070356369 1.4145860672
v -9.1817111969 4.0782885551 1.7352725267
v -8.7393512726 -11.6324834824 -6.2143206596
v -0.0008001328 11.9750986099 1.0186975002
v -10.2314558029 -10.8269462585 0.0521675646
v -9.4906406403 -5.5334258080 -2.0067749023
v -9.7585773468 -5.7986779213 -0.4128911495
v -8.4982719421 5.1292076111 -4.6590266228
v -8.8211908340 0.7660279274 -3.7801346779
v -7.5980653763 4.8228149414 -5.4088678360
v -5.2034482956 13.1811017990 -1.9142956734
v -9.1166677475 -5.3599843979 -3.8877558708
v -7.7389783859 -0.2038507462 -5.5522074699
v -7.9637451172 -5.3813781738 -5.6484298706
v -10.4651775360 -10.6624107361 -2.0338144302
v -10.4863719940 -11.6828460693 -4.2104282379
v -7.1996850967 -0.7727934718 1.9671832323
v -7.9673690796 -5.8512878418 1.9067281485
v -8.5370883942 -11.3409519196 2.0562920570
v -2.8358943462 13.0422086716 -5.6025705338
v 3.8398697376 12.2074108124 -1.3186510801
v -0.0008001328 10.1665592194 3.0583803654
v 3.5392990112 11.2786436081 1.0387742519
v -0.0008001328 18.1316928864 -2.7069725990
v -0.0008001328 25.7706565857 4.0054283142
v -2.4545834064 -11.3890686035 4.8898496628
v -2.4697480202 -6.0686531067 4.1491270065
v -2.8193724155 -1.4814466238 3.7456173897
v -4.2880902290 4.6185994148 3.7838938236
v -5.6168045998 8.0956192017 3.0097630024
v -7.5632658005 11.7353363037 1.2004652023
v -8.0797929764 12.0178232193 -2.0435149670
v -6.6924424171 12.1634912491 -4.9475269318
v -4.5796880722 9.8835611343 -6.7676320076
v -3.5032999516 5.0819296837 -7.5194377899
v -3.4400269985 -0.7865277529 -7.3671259880
v -3.5588977337 -5.2800331116 -7.7362775803
v -3.8012940884 -11.6289501190 -8.3532552719
v -0.0008001328 25.7919082642 6.7387514114
v -2.6015827656 -11.0540266037 3.5370111465
v -7.4842271805 -11.0713663101 0.5135167241
v -7.8557624817 -10.7832059860 -0.9805512428
v -7.8653507233 -10.7311496735 -1.9699547291
v -7.9560289383 -11.0186023712 -3.3399024010
v -7.4776096344 -11.5918312073 -4.7841053009
v -3.4382390976 -11.3137350082 -7.0212802887
v -0.0008001328 29.8455772400 2.9064712524
v -3.4738991261 -16.5137290955 2.7931377888
v -0.0008001328 29.8611812592 -4.8288226128
v -6.5074710846 -15.5226783752 2.0421891212
v -9.2987909317 -17.6921615601 -0.2482315898
v -9.6676597595 -18.1006984711 -2.2398760319
v -8.4810323715 -18.0529308319 -4.4121084213
v -4.3277597427 -16.3685913086 -6.3091230392
v -6.9808225632 -17.4661140442 -5.4972953796
v -0.0008001328 19.6293888092 -7.7244148254
v -0.0008001328 25.3125534058 -8.1119613647
v -2.9980847836 -21.4796905518 2.4047760963
v -6.6226768494 -20.4181938171 2.5485250950
v -10.0936565399 -20.7220230103 -0.0448890328
v -10.3615207672 -20.8505916595 -2.2639014721
v -9.3432979584 -21.0370540619 -4.2500309944
v -7.0679512024 -20.8060741425 -5.5491995811
v -2.9043500423 -20.8809890747 -5.5308542252
v 4.2741312981 29.2099285126 -3.9101490974
v 4.3406848907 29.0810623169 0.8577734232
v -2.9014222622 -23.2501792908 2.2728157043
v -6.9412441254 -23.1009712219 2.6359462738
v -10.2342691422 -21.7782554626 0.0189298987
v -10.5688228607 -21.8261222839 -2.2694175243
v -9.5986595154 -22.0325469971 -4.1664853096
v -6.9121484756 -22.1839427948 -5.5995898247
v -3.8900618553 -31.8600616455 -4.5802969933
v -2.7646999359 -21.8609333038 -5.4048128128
v -2.1853280067 -32.3973007202 -1.4627926350
v -3.3126151562 -31.9790592194 1.1734572649
v -8.2886142731 -30.7335147858 2.8584730625
v -12.0386657715 -29.5741615295 0.5654420257
v -12.7644100189 -29.5192241669 -1.9494254589
v -11.9915056229 -29.4437484741 -4.2035264969
v -8.5366239548 -30.6585063934 -5.6464500427
v 5.6400742531 25.6100769043 -6.3937335014
v -3.4581968784 13.9370450974 3.2366323471
v -4.8852429390 15.0449428558 -1.6203219891
v -2.7785356045 15.3948783875 -4.1739401817
v 4.4065084457 17.7215003967 -1.9316949844
v -18.6375465393 1.3555526733 -1.8525979519
v -17.8119316101 0.7061376572 -5.0178866386
v -13.9108161926 -1.9755876064 -5.6555967331
v -11.8500928879 -3.3682808876 -1.5818004608
v -14.5214242935 -1.5898982286 2.0686573982
v -17.6601295471 0.4556591511 0.9848670959
v -14.0058507919 8.3934288025 -2.1280632019
v -13.3520107269 7.8774127960 -4.2939414978
v -13.3831224442 7.9155340195 -0.0818371773
v -11.6718311310 4.9464926720 1.4642801285
v -9.5482892990 1.9218120575 -1.6667392254
v -11.1717844009 5.7713041306 -5.1689753532
v -19.8703613281 -7.0519585609 -0.6510210037
v -20.8233947754 -6.1491298676 -1.7325737476
v -20.0468559265 -6.8677616119 -3.4107081890
v -18.5085411072 -8.0441541672 -3.1755197048
v -18.5601158142 -8.3216381073 -0.0710096955
v -17.6682701111 -8.8669738770 -1.5755746365
v -5.1293125153 -30.7307147980 -3.4188046455
v -4.5901236534 -30.1602401733 -1.3029818535
v -5.2969694138 -30.8158149719 0.0430134833
v -7.6786680222 -30.2460193634 1.1989722252
v -10.2541589737 -29.2583808899 -0.2824345827
v -10.6704530716 -29.0671443939 -1.9860694408
v -7.8169341087 -29.5769329071 -4.0803737640
v -9.9296836853 -29.0594787598 -3.2285344601
v 4.7506814003 19.5511054993 -7.0678901672
v 4.0283694267 16.0889968872 0.1093185842
v -5.0655193329 22.1531925201 2.5560407639
v -5.5402035713 24.3396816254 2.5499939919
v -4.0410075188 17.2247524261 2.4780192375
v -0.0008001328 16.0960083008 0.0765449703
v -0.0008001328 25.8151798248 9.8176889420
v -5.3833522797 24.3939666748 6.4740462303
v -3.0585806370 24.9473896027 8.8688955307
v 3.0535094738 25.5105209351 8.8869800568
v -5.5038509369 24.8880958557 2.3071665764
v -5.3833923340 24.9520225525 6.4690437317
v -3.0551097393 25.5105209351 8.8869800568
v 5.3817920685 24.9520225525 6.4690437317
v 5.5022506714 24.8880958557 2.3071665764
v -4.0299696922 16.0889968872 0.1093185842
v -4.7522816658 19.5511054993 -7.0678901672
v -4.4081087112 17.7215003967 -1.9316949844
v -5.6416745186 25.6100769043 -6.3937335014
v -4.3422851562 29.0810623169 0.8577734232
v -4.2757315636 29.2099285126 -3.9101490974
v -0.0008001328 25.2487926483 9.7947406769
v 3.0569803715 24.9473896027 8.8688955307
v 5.3817520142 24.3939666748 6.4740462303
v -0.0008001328 25.2219047546 7.2576894760
v -0.0008001328 16.0962066650 4.5868706703
v 4.0394072533 17.2247524261 2.4780192375
v 5.5386033058 24.3396816254 2.5499939919
v -3.5408992767 11.2786436081 1.0387742519
v 5.0639190674 22.1531925201 2.5560407639
v -3.8414700031 12.2074108124 -1.3186510801
v -0.0008001328 23.4406852722 4.5855822563
v -1.6017794609 13.0084381104 -4.2342023849
v -0.0008001328 25.1805362701 4.1591858864
v 9.9280834198 -29.0594787598 -3.2285344601
v 7.8153338432 -29.5769329071 -4.0803737640
v 11.5869989395 10.6249523163 -3.9893217087
v -0.0008001328 -11.4249563217 5.0137033463
v -0.0008001328 -5.8681049347 4.1814365387
v 11.8139848709 10.7748718262 -2.2103066444
v 11.5284786224 10.6403951645 -0.5000798702
v -0.0008001328 -1.6717336178 3.7886784077
v 12.0170516968 9.9461364746 -4.0161161423
v 12.4399375916 10.3292808533 -2.1778795719
v 12.1347675323 10.1237955093 -0.3901619911
v 16.9199104309 2.1944131851 -4.9250450134
v 17.6951026917 2.7430257797 -1.8716588020
v 16.7357749939 1.9119925499 0.7160263062
v 11.0462722778 6.5542511940 1.5337007046
v 10.0370044708 7.0144958496 1.4898055792
v -0.0008001328 4.7295279503 4.3308925629
v 13.7449550629 0.1091583967 1.9279072285
v 22.5113449097 -4.5143737793 -1.7802977562
v 21.2075500488 -5.9012017250 1.9025394917
v 17.7555122375 -8.7715835571 2.2234158516
v 21.3562622070 -5.4874224663 -5.4948396683
v 13.2302865982 -0.3348692656 -5.5390629768
v 16.9781227112 -8.8021392822 -5.4578766823
v 10.4723157883 7.9781475067 -5.1169452667
v 9.5318565369 8.7639207840 -5.0165262222
v 3.4772031307 11.8591985703 3.1423001289
v 9.1658096313 2.9229979515 -1.6103215218
v 10.9979019165 -1.6768100262 -1.6668183804
v 15.3483057022 -10.4889230728 -1.2038990259
v 9.3716182709 0.3442678452 0.4010332823
v 10.0519485474 4.1070356369 1.4145860672
v 9.1801109314 4.0782885551 1.7352725267
v 8.7377510071 -11.6324834824 -6.2143206596
v -0.0008001328 9.2825937271 4.1985263824
v 10.2298555374 -10.8269462585 0.0521675646
v 9.4890403748 -5.5334258080 -2.0067749023
v 9.7569770813 -5.7986779213 -0.4128911495
v 8.4966716766 5.1292076111 -4.6590266228
v 8.8195905685 0.7660279274 -3.7801346779
v 7.5964651108 4.8228149414 -5.4088678360
v 5.2018480301 13.1811017990 -1.9142956734
v 9.1150674820 -5.3599843979 -3.8877558708
v 7.7373781204 -0.2038507462 -5.5522074699
v 7.9621448517 -5.3813781738 -5.6484298706
v 10.4635772705 -10.6624107361 -2.0338144302
v 10.4847717285 -11.6828460693 -4.2104282379
v 7.1980848312 -0.7727934718 1.9671832323
v 7.9657688141 -5.8512878418 1.9067281485
v 8.5354881287 -11.3409519196 2.0562920570
v 2.8342940807 13.0422086716 -5.6025705338
v -0.0008001328 5.4233536720 -7.8737459183
v -0.0008001328 -0.9762314558 -7.5685434341
v -0.0008001328 -5.3864879608 -7.8075857162
v -0.0008001328 -11.5407428741 -8.7395296097
v -0.0008001328 11.8805007935 -6.5086503029
v 2.4529831409 -11.3890686035 4.8898496628
v 2.4681477547 -6.0686531067 4.1491270065
v 2.8177721500 -1.4814466238 3.7456173897
v 4.2864899635 4.6185994148 3.7838938236
v 5.6152043343 8.0956192017 3.0097630024
v 7.5616655350 11.7353363037 1.2004652023
v 8.0781927109 12.0178232193 -2.0435149670
v 6.6908421516 12.1634912491 -4.9475269318
v 4.5780878067 9.8835611343 -6.7676320076
v 3.5016996861 5.0819296837 -7.5194377899
v 3.4384267330 -0.7865277529 -7.3671259880
v 3.5572974682 -5.2800331116 -7.7362775803
v 3.7996938229 -11.6289501190 -8.3532552719
v -0.0008001328 -10.9744033813 3.8818995953
v 2.5999825001 -11.0540266037 3.5370111465
v 7.4826269150 -11.0713663101 0.5135167241
v 7.8541622162 -10.7832059860 -0.9805512428
v 7.8637504578 -10.7311496735 -1.9699547291
v 7.9544286728 -11.0186023712 -3.3399024010
v 7.4760093689 -11.5918312073 -4.7841053009
v 3.4366388321 -11.3137350082 -7.0212802887
v -0.0008001328 -10.8776187897 -7.5252180099
v 3.4722988605 -16.5137290955 2.7931377888
v -0.0008001328 -18.5624160767 1.8445945978
v 6.5058708191 -15.5226783752 2.0421891212
v 9.2971906662 -17.6921615601 -0.2482315898
v 9.6660594940 -18.1006984711 -2.2398760319
v 8.4794321060 -18.0529308319 -4.4121084213
v 4.3261594772 -16.3685913086 -6.3091230392
v 6.9792222977 -17.4661140442 -5.4972953796
v -0.0008001328 -15.8161869049 -6.8479743004
v -0.0008001328 -20.3355827332 0.3069006801
v 2.9964845181 -21.4796905518 2.4047760963
v 6.6210765839 -20.4181938171 2.5485250950
v 10.0920562744 -20.7220230103 -0.0448890328
v 10.3599205017 -20.8505916595 -2.2639014721
v 9.3416976929 -21.0370540619 -4.2500309944
v 7.0663509369 -20.8060741425 -5.5491995811
v 2.9027497768 -20.8809890747 -5.5308542252
v -0.0008001328 -20.7579803467 -3.6729569435
v -0.0008001328 -21.6437988281 -3.1553134918
v 2.8998219967 -23.2501792908 2.2728157043
v 6.9396438599 -23.1009712219 2.6359462738
v 10.2326688766 -21.7782554626 0.0189298987
v 10.5672225952 -21.8261222839 -2.2694175243
v 9.5970592499 -22.0325469971 -4.1664853096
v 6.9105482101 -22.1839427948 -5.5995898247
v 3.8884615898 -31.8600616455 -4.5802969933
v 2.7630996704 -21.8609333038 -5.4048128128
v 2.1837277412 -32.3973007202 -1.4627926350
v 3.3110148907 -31.9790592194 1.1734572649
v 8.2870140076 -30.7335147858 2.8584730625
v 12.0370655060 -29.5741615295 0.5654420257
v 12.7628097534 -29.5192241669 -1.9494254589
v 11.9899053574 -29.4437484741 -4.2035264969
v 8.5350236893 -30.6585063934 -5.6464500427
v -0.0008001328 10.1080369949 3.7818875313
v 3.4565966129 13.9370450974 3.2366323471
v 4.8836426735 15.0449428558 -1.6203219891
v 2.7769353390 15.3948783875 -4.1739401817
v -0.0008001328 15.3831577301 -5.8085050583
v 18.6359481812 1.3555526733 -1.8525979519
v 17.8103332520 0.7061376572 -5.0178866386
v 13.9092159271 -1.9755876064 -5.6555967331
v 11.8484926224 -3.3682808876 -1.5818004608
v 14.5198240280 -1.5898982286 2.0686573982
v 17.6585273743 0.4556591511 0.9848670959
v 14.0042505264 8.3934288025 -2.1280632019
v 13.3504104614 7.8774127960 -4.2939414978
v 13.3815221786 7.9155340195 -0.0818371773
v 11.6702308655 4.9464926720 1.4642801285
v 9.5466890335 1.9218120575 -1.6667392254
v 11.1701841354 5.7713041306 -5.1689753532
v 19.8687591553 -7.0519585609 -0.6510210037
v 20.8217964172 -6.1491298676 -1.7325737476
v 20.0452575684 -6.8677616119 -3.4107081890
v 18.5069389343 -8.0441541672 -3.1755197048
v 18.5585174561 -8.3216381073 -0.0710096955
v 17.6666679382 -8.8669738770 -1.5755746365
v 5.1277122498 -30.7307147980 -3.4188046455
v 4.5885233879 -30.1602401733 -1.3029818535
v 5.2953691483 -30.8158149719 0.0430134833
v 7.6770677567 -30.2460193634 1.1989722252
v 10.2525587082 -29.2583808899 -0.2824345827
v 10.6688528061 -29.0671443939 -1.9860694408
vn -0.4682733417 0.6946377158 -0.5460755229
vn 0.0000000000 0.9740199447 0.2264619321
vn -0.0000000471 0.6460285783 0.7633131742
vn -0.5128932595 0.8583617210 -0.0124759832
vn -0.4297747016 0.7476193905 0.5063191056
vn 0.0000000428 0.9768792987 0.2137914300
vn -0.5539746284 0.4907489717 -0.6725158095
vn -0.7418785691 0.6701859236 -0.0216071419
vn -0.5403648615 0.5885809660 0.6013138294
vn -0.5292178392 0.3773967624 -0.7599343061
vn -0.8311471939 0.5530298948 0.0578994341
vn -0.5394392014 0.4099514782 0.7354896665
vn -0.2525299489 0.1357392818 0.9580205679
vn -0.2830761075 0.1888193637 0.9403271675
vn -0.3794486821 0.7006266117 0.6042689681
vn 0.2709423006 -0.0175014809 0.9624364972
vn -0.9995567799 -0.0020339137 0.0297002178
vn -0.7338979244 -0.1903888732 0.6520322561
vn -0.0999399051 -0.6497195959 0.7535757422
vn -0.7156816721 -0.1926442981 -0.6713330150
vn 0.4011727571 -0.1080600768 -0.9096061587
vn 0.0388245247 -0.6810975075 -0.7311626077
vn -0.2225088477 0.0430669077 -0.9739789367
vn -0.3161886632 0.1347920448 -0.9390718341
vn -0.4378793836 0.2483090609 0.8640626073
vn -0.5686824322 -0.7168089151 -0.4034664333
vn 0.9287588596 -0.3657302856 0.0604022890
vn 0.3682151437 -0.9267421961 0.0746102110
vn -0.9275099039 -0.0953993723 0.3614198864
vn -0.8149591088 -0.2223161310 0.5351795554
vn -0.3977292776 -0.0998525918 0.9120531082
vn -0.4971214533 -0.6526174545 -0.5718048215
vn 0.0000000101 0.9018756151 0.4319957495
vn -0.7815754414 -0.5843503475 0.2183452547
vn -0.9881476164 0.1127832532 -0.1041362807
vn -0.9422075152 0.0922722816 0.3220728040
vn -0.6995405555 -0.1876564026 -0.6895130277
vn -0.9066160321 -0.0198591966 -0.4214890599
vn -0.5137162805 -0.0326387696 -0.8573390245
vn -0.6781678200 0.7331077456 -0.0513957106
vn -0.9167326689 0.1207271665 -0.3808228672
vn -0.6398245692 0.0291378815 -0.7679684162
vn -0.6308849454 0.1047366187 -0.7687746882
vn -0.8369366527 -0.5450769663 0.0492764935
vn -0.7488500476 -0.6481720805 -0.1381902695
vn -0.5066783428 -0.0518142767 0.8605768085
vn -0.5753604770 0.0696892738 0.8149254918
vn -0.4857415259 -0.6962062716 0.5285377502
vn -0.3763551116 0.4782033861 -0.7935227752
vn -0.6271547079 0.7121666670 0.3154292405
vn -0.0000000486 0.9616132975 -0.2744082212
vn -0.5940613747 0.8039711714 0.0268606059
vn -0.0000000037 -0.8950940967 -0.4458773136
vn -0.0000000378 0.8605736494 0.5093260407
vn -0.1532351375 -0.7070437074 0.6903681755
vn -0.2060354799 0.0976506025 0.9736599922
vn -0.2113482952 -0.0020701429 0.9774086475
vn -0.2532430887 -0.0104830861 0.9673458934
vn -0.3207367957 0.1231857091 0.9391235709
vn -0.3703489006 0.6928072572 0.6187566519
vn -0.3008626997 0.9533066750 0.0262299143
vn -0.3327667415 0.7325875759 -0.5937858820
vn -0.2323145419 0.2252546847 -0.9461978078
vn -0.2305803746 0.0370351858 -0.9723482728
vn -0.2396767437 0.0236126296 -0.9705656171
vn -0.2320073396 0.0937692448 -0.9681838155
vn -0.1430445164 -0.7059531808 -0.6936629415
vn -0.0000000072 0.9995120168 -0.0312364139
vn -0.0634078681 -0.8626757860 0.5017669201
vn -0.4966045022 -0.7847429514 0.3708941936
vn -0.7118528485 -0.6887682676 0.1373451650
vn -0.7458887696 -0.6647224426 0.0423562862
vn -0.6503759027 -0.7559710741 -0.0742897242
vn -0.4303086698 -0.7812872529 -0.4521333873
vn -0.1025085375 -0.8390763402 -0.5342687368
vn -0.0000000427 0.7697889209 0.6382984519
vn -0.0598611385 -0.0848844126 0.9945910573
vn 0.0000000029 0.8826888800 -0.4699577987
vn -0.5212083459 0.0957219675 0.8480443358
vn -0.8774296045 0.2012375444 0.4354545772
vn -0.9622178674 0.2285306454 -0.1480217874
vn -0.7843415141 0.1365533322 -0.6051127911
vn -0.1496858895 -0.1295484900 -0.9802098870
vn -0.4685805142 0.0068853763 -0.8833940029
vn 0.0000000026 -0.5594863892 -0.8288395405
vn -0.0000000163 0.2955412865 -0.9553300142
vn 0.3460359275 -0.2118105143 0.9139996767
vn -0.3302579820 0.0632628426 0.9417682290
vn -0.8598276973 0.1804441363 0.4776360691
vn -0.9597827792 0.2157920301 -0.1795853376
vn -0.7133679986 0.1227750033 -0.6899510622
vn -0.2965004146 -0.0141675761 -0.9549276233
vn 0.1863779873 -0.1942410022 -0.9630854726
vn 0.5858389735 0.7544826269 -0.2958863080
vn 0.6279638410 0.6896966100 0.3605274260
vn 0.5652796626 -0.1829884797 0.8043470383
vn -0.2186189294 0.0440090783 0.9748174548
vn -0.8249880672 0.1827762723 0.5347779393
vn -0.9632584453 0.2302596122 -0.1382520199
vn -0.6988220811 0.1524305642 -0.6988652945
vn -0.1605048478 0.0010914492 -0.9870344400
vn 0.0979554802 -0.8072421551 -0.5820351243
vn 0.4194670320 -0.1433109194 -0.8963868022
vn 0.4781613946 -0.8746388555 -0.0798035190
vn 0.2891830206 -0.8170189261 0.4988518953
vn -0.3042158186 -0.6830420494 0.6640076637
vn -0.7267209291 -0.5683746934 0.3857809603
vn -0.7921387553 -0.6024355292 -0.0979162753
vn -0.6536492705 -0.5564012527 -0.5129913688
vn -0.3181910813 -0.7655305862 -0.5592113733
vn 0.7740374804 0.2399352640 -0.5859156251
vn -0.0217566192 0.8890204430 0.4573503435
vn -0.3810071647 0.8960112333 0.2280295938
vn -0.0704007819 0.9964767098 -0.0455848686
vn 0.6963858604 -0.6673330069 -0.2640328109
vn -0.8328043818 0.5505256653 0.0579503551
vn -0.5150710344 0.3498100042 -0.7825183272
vn 0.4191964865 -0.1731578261 -0.8912298083
vn 0.9074026346 -0.4108327031 0.0885263756
vn 0.3123526275 -0.0664919987 0.9476363063
vn -0.5042021871 0.3850696087 0.7729821801
vn -0.8226840496 0.5684497952 0.0074673984
vn -0.5580072999 0.4053185284 -0.7241165042
vn -0.6219680309 0.4216490388 0.6598241329
vn 0.2082892805 -0.0128568886 0.9779828191
vn 0.9411414266 -0.3338261843 0.0530370325
vn 0.3486889303 -0.0458618924 -0.9361158609
vn -0.6611078978 -0.7501566410 -0.0141880130
vn -0.6781859994 -0.7345913053 -0.0209587738
vn -0.6410000920 -0.7646685243 -0.0663394928
vn -0.6050843596 -0.7900611162 -0.0983690619
vn -0.6244516969 -0.7810251713 -0.0077361143
vn -0.5903354287 -0.8046637177 -0.0634060949
vn -0.4025234282 -0.8688568473 0.2882062793
vn -0.4230563939 -0.9055684805 -0.0311303567
vn -0.3641170859 -0.9009665251 -0.2359620929
vn -0.2519193590 -0.9278212190 -0.2751077116
vn -0.0857664645 -0.9765537977 -0.1974508315
vn 0.0066166786 -0.9988611937 -0.0472491905
vn -0.2424189597 -0.9248053432 0.2932029963
vn -0.0878670812 -0.9805756807 0.1753589064
vn 0.6066961884 -0.5104637146 -0.6093821526
vn 0.5635880232 -0.8099637628 -0.1622566730
vn -0.8124805093 -0.1027233079 0.5738669038
vn -0.9212282896 -0.2713710368 0.2787404656
vn -0.7004063725 -0.5111293197 0.4981744587
vn 0.0000000420 -0.9693365097 -0.2457370311
vn 0.0000004498 0.6724422574 0.7401496768
vn -0.6591028571 -0.6804760098 0.3202122152
vn -0.3343580067 -0.6525930166 0.6799463034
vn 0.4568794668 0.6425793767 0.6151039600
vn -0.9211818576 0.3268264234 0.2112075239
vn -0.7592812777 0.5828800797 0.2893832922
vn -0.4568791986 0.6425791383 0.6151044369
vn 0.7592813373 0.5828805566 0.2893821895
vn 0.9211819768 0.3268262744 0.2112069428
vn -0.5635879040 -0.8099637628 -0.1622567326
vn -0.6066961288 -0.5104636550 -0.6093822122
vn -0.6963858008 -0.6673330665 -0.2640329003
vn -0.7740374207 0.2399352640 -0.5859156847
vn -0.6279638410 0.6896966100 0.3605275750
vn -0.5858389735 0.7544826269 -0.2958861291
vn 0.0000004389 -0.6182266474 0.7860000730
vn 0.3343585730 -0.6525924802 0.6799467802
vn 0.6591033340 -0.6804760098 0.3202111423
vn -0.0000000024 -0.9992922544 0.0376150981
vn 0.0000000292 -0.6309416890 0.7758303285
vn 0.7004063129 -0.5111293197 0.4981745481
vn 0.9212285280 -0.2713714540 0.2787393928
vn 0.5940613151 0.8039711118 0.0268605296
vn 0.8124805093 -0.1027233079 0.5738669634
vn 0.6271547079 0.7121666670 0.3154292107
vn 0.0000000000 0.0190651398 0.9998182654
vn 0.3794487119 0.7006266117 0.6042689085
vn 0.0000000265 -0.7731153965 0.6342653036
vn 0.0878669843 -0.9805755615 0.1753591597
vn 0.2424187660 -0.9248055220 0.2932027876
vn 0.4682737589 0.6946385503 -0.5460742116
vn 0.0000000023 -0.7525699735 0.6585122943
vn -0.0000000113 0.1150910109 0.9933549762
vn 0.5128931999 0.8583616614 -0.0124774743
vn 0.4297753870 0.7476205826 0.5063165426
vn -0.0000000048 0.0200649835 0.9997987747
vn 0.5539750457 0.4907496870 -0.6725149751
vn 0.7418783903 0.6701861620 -0.0216088109
vn 0.5403657556 0.5885822177 0.6013117433
vn 0.5292177200 0.3773971498 -0.7599341869
vn 0.8311471343 0.5530298948 0.0578994080
vn 0.5394394398 0.4099515080 0.7354895473
vn 0.2525297105 0.1357391924 0.9580206275
vn 0.2830761075 0.1888194680 0.9403271675
vn 0.0000000048 0.0136817973 0.9999063611
vn -0.2709423304 -0.0175015945 0.9624364972
vn 0.9995567799 -0.0020341738 0.0297007021
vn 0.7338981032 -0.1903891116 0.6520318389
vn 0.0999403149 -0.6497203708 0.7535750866
vn 0.7156816721 -0.1926444322 -0.6713328958
vn -0.4011727273 -0.1080600023 -0.9096061587
vn -0.0388249680 -0.6810975671 -0.7311625481
vn 0.2225088924 0.0430672690 -0.9739789367
vn 0.3161886632 0.1347923279 -0.9390717745
vn 0.4378794134 0.2483090311 0.8640626073
vn 0.5686823726 -0.7168089747 -0.4034666717
vn -0.9287588000 -0.3657303452 0.0604022071
vn -0.3682150245 -0.9267420173 0.0746103376
vn 0.9275099039 -0.0953993574 0.3614198565
vn 0.8149591684 -0.2223159671 0.5351796746
vn 0.3977292776 -0.0998525470 0.9120531082
vn 0.4971215725 -0.6526175737 -0.5718044043
vn 0.0000000000 0.1103364825 0.9938942790
vn 0.7815752029 -0.5843502879 0.2183460444
vn 0.9881474972 0.1127833426 -0.1041362211
vn 0.9422074556 0.0922722891 0.3220729232
vn 0.6995404363 -0.1876563132 -0.6895130873
vn 0.9066160321 -0.0198591296 -0.4214889705
vn 0.5137164593 -0.0326386578 -0.8573390245
vn 0.6781678796 0.7331076860 -0.0513958149
vn 0.9167327285 0.1207271591 -0.3808227777
vn 0.6398246288 0.0291379187 -0.7679682970
vn 0.6308850646 0.1047365665 -0.7687745094
vn 0.8369365335 -0.5450772643 0.0492761172
vn 0.7488499284 -0.6481720805 -0.1381906718
vn 0.5066783428 -0.0518143140 0.8605768085
vn 0.5753604770 0.0696892589 0.8149254918
vn 0.4857412875 -0.6962060928 0.5285379887
vn 0.3763551414 0.4782034457 -0.7935227752
vn 0.0000000036 0.0772342607 -0.9970129728
vn 0.0000000030 0.0174281057 -0.9998480678
vn 0.0000000047 0.0969519168 -0.9952890277
vn -0.0000000234 -0.7514142394 -0.6598307490
vn 0.0000000243 0.3098674119 -0.9507797956
vn 0.1532351226 -0.7070437074 0.6903682351
vn 0.2060354948 0.0976506248 0.9736599326
vn 0.2113483101 -0.0020701296 0.9774086475
vn 0.2532431185 -0.0104830889 0.9673458934
vn 0.3207367957 0.1231857240 0.9391235709
vn 0.3703489006 0.6928073764 0.6187565327
vn 0.3008627295 0.9533066750 0.0262296945
vn 0.3327668011 0.7325875759 -0.5937858820
vn 0.2323145121 0.2252546996 -0.9461977482
vn 0.2305803299 0.0370352045 -0.9723482132
vn 0.2396767139 0.0236126035 -0.9705656171
vn 0.2320073396 0.0937691480 -0.9681838155
vn 0.1430444121 -0.7059531808 -0.6936630011
vn 0.0000000017 -0.8937110305 0.4486430883
vn 0.0634078458 -0.8626756668 0.5017669797
vn 0.4966044426 -0.7847428322 0.3708945811
vn 0.7118528485 -0.6887682676 0.1373457164
vn 0.7458886504 -0.6647225618 0.0423558429
vn 0.6503756642 -0.7559711933 -0.0742903352
vn 0.4303085804 -0.7812873721 -0.4521332383
vn 0.1025085077 -0.8390761614 -0.5342688560
vn -0.0000000391 -0.8964024782 -0.4432410300
vn 0.0598611720 -0.0848843977 0.9945910573
vn 0.0000000000 -0.2347065061 0.9720662832
vn 0.5212084055 0.0957220271 0.8480442762
vn 0.8774297833 0.2012375742 0.4354543388
vn 0.9622179866 0.2285306752 -0.1480216980
vn 0.7843415141 0.1365532577 -0.6051127315
vn 0.1496859193 -0.1295484900 -0.9802098870
vn 0.4685804248 0.0068852906 -0.8833940029
vn -0.0000000244 -0.2326405346 -0.9725628495
vn 0.0000000479 -0.5123471022 0.8587784767
vn -0.3460358977 -0.2118104547 0.9139997363
vn 0.3302578330 0.0632628053 0.9417683482
vn 0.8598279953 0.1804441214 0.4776355326
vn 0.9597825408 0.2157922089 -0.1795861572
vn 0.7133677602 0.1227751076 -0.6899513006
vn 0.2965001464 -0.0141675752 -0.9549276829
vn -0.1863780469 -0.1942408830 -0.9630854726
vn -0.0000000433 -0.3161547780 -0.9487075806
vn 0.0000000000 -0.6847690344 -0.7287602425
vn -0.5652796030 -0.1829884350 0.8043470979
vn 0.2186187655 0.0440089926 0.9748174548
vn 0.8249884248 0.1827762872 0.5347774625
vn 0.9632582664 0.2302597761 -0.1382528991
vn 0.6988219023 0.1524307579 -0.6988654137
vn 0.1605046093 0.0010915187 -0.9870344400
vn -0.0979556143 -0.8072422147 -0.5820350051
vn -0.4194670916 -0.1433108151 -0.8963868022
vn -0.4781613052 -0.8746389151 -0.0798034370
vn -0.2891830206 -0.8170191050 0.4988517463
vn 0.3042160273 -0.6830423474 0.6640073061
vn 0.7267220616 -0.5683752298 0.3857779205
vn 0.7921386361 -0.6024351716 -0.0979196057
vn 0.6536487937 -0.5564014912 -0.5129919052
vn 0.3181906641 -0.7655305266 -0.5592116714
vn -0.0000000470 0.5676681995 0.8232575059
vn 0.0217565708 0.8890205026 0.4573503435
vn 0.3810071647 0.8960111141 0.2280298173
vn 0.0704008415 0.9964766502 -0.0455844775
vn -0.0000000310 0.9500255585 -0.3121721148
vn 0.8328043818 0.5505256057 0.0579504222
vn 0.5150709748 0.3498101234 -0.7825183272
vn -0.4191965163 -0.1731577367 -0.8912298083
vn -0.9074025750 -0.4108328223 0.0885264426
vn -0.3123525977 -0.0664921924 0.9476363063
vn 0.5042020082 0.3850694001 0.7729825377
vn 0.8226841092 0.5684497356 0.0074671744
vn 0.5580072403 0.4053184092 -0.7241165638
vn 0.6219678521 0.4216489792 0.6598242521
vn -0.2082894892 -0.0128569193 0.9779826403
vn -0.9411414862 -0.3338260651 0.0530369505
vn -0.3486889005 -0.0458617285 -0.9361158609
vn 0.6611077785 -0.7501568198 -0.0141884591
vn 0.6781857014 -0.7345916033 -0.0209579673
vn 0.6409997344 -0.7646688223 -0.0663391054
vn 0.6050839424 -0.7900612354 -0.0983687565
vn 0.6244518757 -0.7810249329 -0.0077377204
vn 0.5903354287 -0.8046637177 -0.0634060875
vn 0.4025233090 -0.8688564301 0.2882072628
vn 0.4230564833 -0.9055684209 -0.0311297923
vn 0.3641170263 -0.9009663463 -0.2359623760
vn 0.2519193292 -0.9278212786 -0.2751078010
vn 0.0857663006 -0.9765539765 -0.1974497885
vn -0.0066167666 -0.9988612533 -0.0472477600
vt 0.2219492197 0.1776426136
vt 0.2847184539 0.1330090165
vt 0.2329685837 0.0517033227
vt 0.2647175491 0.1080227718
vt 0.5889879465 0.9604492188
vt 0.3520737588 0.9604492188
vt 0.3013488650 0.4898163080
vt 0.2819236815 0.5068233609
vt 0.0893852711 0.2764406502
vt 0.0794037431 0.2973631620
vt 0.1880941540 0.0813931599
vt 0.2116200775 0.1387217790
vt 0.1250547916 0.1341000497
vt 0.1677066237 0.2000343055
vt 0.2732875347 0.4991260767
vt 0.2819236815 0.5068233609
vt 0.2947612703 0.4805637598
vt 0.2732875347 0.4991260767
vt 0.3013488650 0.4898163080
vt 0.0884155482 0.3021844327
vt 0.0991864353 0.2810267508
vt 0.0884155482 0.3021844327
vt 0.0893852711 0.2764406502
vt 0.0991864353 0.2810267508
vt 0.1787367016 0.4111805856
vt 0.2460536212 0.4759578109
vt 0.2067484409 0.3812163472
vt 0.1787367016 0.4111805856
vt 0.2709532678 0.4534718990
vt 0.1934012771 0.3580793142
vt 0.2125504762 0.3295027912
vt 0.1934012771 0.3580793142
vt 0.1314598471 0.2900172174
vt 0.2125504762 0.3295027912
vt 0.1500663757 0.2453519851
vt 0.0991864353 0.2810267508
vt 0.1364679039 0.2339141220
vt 0.1500663757 0.2453519851
vt 0.0893852711 0.2764406502
vt 0.1364679039 0.2339141220
vt 0.1677066237 0.2000343055
vt 0.1745027006 0.2119034231
vt 0.0004882812 0.2431660295
vt 0.4411418140 0.8804090023
vt 0.2356455475 0.2942346632
vt 0.2125504762 0.3295027912
vt 0.1736506075 0.2580548525
vt 0.2356455475 0.2942346632
vt 0.2878037393 0.3989257812
vt 0.1897619665 0.3667469919
vt 0.2917119563 0.3635893762
vt 0.2878037393 0.3989257812
vt 0.2301262021 0.3383241892
vt 0.2917119563 0.3635893762
vt 0.3111032844 0.3402889073
vt 0.2917119563 0.3635893762
vt 0.2531800866 0.3048270941
vt 0.3111032844 0.3402889073
vt 0.1060086489 0.3573985398
vt 0.1631735414 0.3973970115
vt 0.1118033677 0.3208007812
vt 0.1060086489 0.3573985398
vt 0.1381430179 0.4464223981
vt 0.1787367016 0.4111805856
vt 0.0735561028 0.3831147552
vt 0.1228292286 0.4325202703
vt 0.1060086489 0.3573985398
vt 0.0735561028 0.3831147552
vt 0.2371667475 0.5221919417
vt 0.2732875347 0.4991260767
vt 0.1381430179 0.4464223981
vt 0.2086291909 0.5008644462
vt 0.2499861717 0.5374407172
vt 0.2819236815 0.5068233609
vt 0.2371667475 0.5221919417
vt 0.2499861717 0.5374407172
vt 0.3349290192 0.5377766490
vt 0.0794037431 0.2973631620
vt 0.3293092549 0.6363741159
vt 0.3778088689 0.8657226562
vt 0.2704061270 0.2516619861
vt 0.2356455475 0.2942346632
vt 0.2317127287 0.2264563888
vt 0.0949979872 0.4846115112
vt 0.1500663757 0.2453519851
vt 0.2198955268 0.2185741663
vt 0.3442576826 0.3265518248
vt 0.3111032844 0.3402889073
vt 0.2871769071 0.2651583552
vt 0.0310923494 0.3861172497
vt 0.0735561028 0.3831147552
vt 0.0310923494 0.3861172497
vt 0.0949979872 0.4846115112
vt 0.1381430179 0.4464223981
vt 0.1445344687 0.5322081447
vt 0.2371667475 0.5221919417
vt 0.2219492197 0.1776426136
vt 0.2198955268 0.2185741663
vt 0.1745027006 0.2119034231
vt 0.2219492197 0.1776426136
vt 0.1500663757 0.2453519851
vt 0.1745027006 0.2119034231
vt 0.6441990137 0.9375758767
vt 0.6622527838 0.9561754465
vt 0.1364679039 0.2339141220
vt 0.1677066237 0.2000343055
vt 0.0225633401 0.6024123430
vt 0.0250183884 0.6170968413
vt 0.0250183884 0.6170968413
vt 0.0727992728 0.6070679426
vt 0.2219492197 0.1776426136
vt 0.2116200775 0.1387217790
vt 0.1364679039 0.2339141220
vt 0.0900275707 0.1753763258
vt 0.2847184539 0.1330090165
vt 0.3189043403 0.0973579288
vt 0.3189043403 0.0973579288
vt 0.3338435888 0.1098991260
vt 0.2951568365 0.1484029889
vt 0.1445344687 0.5322081447
vt 0.2847184539 0.1330090165
vt 0.2951568365 0.1484029889
vt 0.6441990137 0.9375758767
vt 0.6574298143 0.9050916433
vt 0.1934784353 0.5569052696
vt 0.2371667475 0.5221919417
vt 0.1310893297 0.5652359128
vt 0.1934784353 0.5569052696
vt 0.1445344687 0.5322081447
vt 0.1310893297 0.5652359128
vt 0.1931059957 0.5751183033
vt 0.2499861717 0.5374407172
vt 0.1934784353 0.5569052696
vt 0.1931059957 0.5751183033
vt 0.0268073883 0.1718198359
vt 0.4838867188 0.9196711779
vt 0.0564838313 0.2273459136
vt 0.0893852711 0.2764406502
vt 0.0671123192 0.5883291960
vt 0.1310893297 0.5652359128
vt 0.0588370077 0.5719375610
vt 0.0671123192 0.5883291960
vt 0.1270898879 0.5932816267
vt 0.1931059957 0.5751183033
vt 0.1310893297 0.5652359128
vt 0.1270898879 0.5932816267
vt 0.0727992728 0.6070679426
vt 0.1270898879 0.5932816267
vt 0.0671123192 0.5883291960
vt 0.0727992728 0.6070679426
vt 0.0225633401 0.6024123430
vt 0.0671123192 0.5883291960
vt 0.0199849159 0.5873297453
vt 0.0225633401 0.6024123430
vt 0.0588370077 0.5719375610
vt 0.3338435888 0.1098991260
vt 0.2802850604 0.0258859936
vt 0.3077202737 0.0786360130
vt 0.1677066237 0.2000343055
vt 0.2116200775 0.1387217790
vt 0.2647175491 0.1080227718
vt 0.2847184539 0.1330090165
vt 0.2116200775 0.1387217790
vt 0.2647175491 0.1080227718
vt 0.3077202737 0.0786360130
vt 0.3189043403 0.0973579288
vt 0.2647175491 0.1080227718
vt 0.3077202737 0.0786360130
vt 0.2819236815 0.5068233609
vt 0.3078585267 0.5780284405
vt 0.6441990137 0.9375758767
vt 0.6067312956 0.9163282514
vt 0.5889879465 0.9604492188
vt 0.6441990137 0.9375758767
vt 0.1270898879 0.5932816267
vt 0.1302928030 0.6499217153
vt 0.5686243773 0.9545593262
vt 0.4110120535 0.9604492188
vt 0.2052543610 0.6415593624
vt 0.1931059957 0.5751183033
vt 0.0727992728 0.6070679426
vt 0.0814837590 0.6546913385
vt 0.5686243773 0.9545593262
vt 0.6067312956 0.9163282514
vt 0.0250183884 0.6170968413
vt 0.0252829734 0.6565878391
vt 0.2499861717 0.5374407172
vt 0.2732863724 0.6189334393
vt 0.3143097162 0.6865582466
vt 0.3167417049 0.8780471683
vt 0.2130856514 0.6907320023
vt 0.6856902838 0.6865582466
vt 0.2724427879 0.0034119417
vt 0.2802850604 0.0258859936
vt 0.2189793587 0.0284463670
vt 0.2329685837 0.0517033227
vt 0.1753778905 0.0490970723
vt 0.1880941540 0.0813931599
vt 0.0985060632 0.0794654265
vt 0.1250547916 0.1341000497
vt 0.0355555341 0.1040776372
vt 0.0900275707 0.1753763258
vt 0.0268073883 0.1718198359
vt 0.0564838313 0.2273459136
vt 0.3618164062 0.5772653818
vt 0.0360808894 0.2671738267
vt 0.3293092549 0.6363741159
vt 0.3078585267 0.5780284405
vt 0.3143097162 0.6865582466
vt 0.2732863724 0.6189334393
vt 0.2130856514 0.6907320023
vt 0.2052543610 0.6415593624
vt 0.1302714944 0.6909179688
vt 0.1302928030 0.6499217153
vt 0.0817715004 0.6909179688
vt 0.0814837590 0.6546913385
vt 0.0228779800 0.6893793344
vt 0.0252829734 0.6565878391
vt 0.2329685837 0.0517033227
vt 0.2802850604 0.0258859936
vt 0.1880941540 0.0813931599
vt 0.2329685837 0.0517033227
vt 0.1250547916 0.1341000497
vt 0.1880941540 0.0813931599
vt 0.0900275707 0.1753763258
vt 0.1250547916 0.1341000497
vt 0.0564838313 0.2273459136
vt 0.0900275707 0.1753763258
vt 0.0360808894 0.2671738267
vt 0.0564838313 0.2273459136
vt 0.3078585267 0.5780284405
vt 0.3349290192 0.5377766490
vt 0.2732863724 0.6189334393
vt 0.3078585267 0.5780284405
vt 0.2052543610 0.6415593624
vt 0.2732863724 0.6189334393
vt 0.1302928030 0.6499217153
vt 0.2052543610 0.6415593624
vt 0.0814837590 0.6546913385
vt 0.1302928030 0.6499217153
vt 0.0252829734 0.6565878391
vt 0.0814837590 0.6546913385
vt 0.2724427879 0.0034119417
vt 0.7156925201 0.0004882812
vt 0.2843074799 0.0004882812
vt 0.3435511589 0.7418982387
vt 0.2934086919 0.0251702163
vt 0.2802850604 0.0258859936
vt 0.2934086919 0.0251702163
vt 0.3448063433 0.8289211988
vt 0.3231585026 0.0720123276
vt 0.3077202737 0.0786360130
vt 0.3231585026 0.0720123276
vt 0.3517121375 0.8503988981
vt 0.3361522853 0.0810582265
vt 0.3189043403 0.0973579288
vt 0.3361522853 0.0810582265
vt 0.3549804688 0.8642471433
vt 0.3452148438 0.0857095942
vt 0.0199849159 0.5873297453
vt 0.0004882812 0.5964603424
vt 0.4814749062 0.0857348144
vt 0.0062696771 0.6065247059
vt 0.0225633401 0.6024123430
vt 0.0062696771 0.6065247059
vt 0.4609007835 0.0916215628
vt 0.0114416135 0.6182839870
vt 0.0250183884 0.6170968413
vt 0.0114416135 0.6182839870
vt 0.4002594352 0.0776923522
vt 0.0137422448 0.6562228203
vt 0.0252829734 0.6565878391
vt 0.0137422448 0.6562228203
vt 0.3525650501 0.0659179688
vt 0.5350455642 0.9278404713
vt 0.4313756526 0.9545593262
vt 0.3432366252 0.7009707093
vt 0.7760288715 0.7164803743
vt 0.2239711434 0.7164803743
vt 0.2615914345 0.7631023526
vt 0.2615914345 0.7631023526
vt 0.3435511589 0.7418982387
vt 0.2615914345 0.7631023526
vt 0.2784249187 0.8070141077
vt 0.2784249187 0.8070141077
vt 0.3448063433 0.8289211988
vt 0.2784249187 0.8070141077
vt 0.2501720190 0.8592411876
vt 0.2501720190 0.8592411876
vt 0.3517121375 0.8503988981
vt 0.2501720190 0.8592411876
vt 0.2485198081 0.8878777027
vt 0.2485198081 0.8878777027
vt 0.4995117188 0.0819644704
vt 0.4949387312 0.1817229092
vt 0.4632415175 0.1782419384
vt 0.4632415175 0.1782419384
vt 0.4814749062 0.0857348144
vt 0.4609007835 0.0916215628
vt 0.4401319623 0.1675962955
vt 0.4401319623 0.1675962955
vt 0.4059222341 0.1481421590
vt 0.4059222341 0.1481421590
vt 0.4002594352 0.0776923522
vt 0.4632415175 0.1782419384
vt 0.4401319623 0.1675962955
vt 0.4059222341 0.1481421590
vt 0.3486604393 0.1356043816
vt 0.6067312956 0.9163282514
vt 0.6205562353 0.8874166012
vt 0.2239711434 0.7164803743
vt 0.8075095415 0.7132759094
vt 0.1924904287 0.7132759094
vt 0.1905721873 0.7641133070
vt 0.1905721873 0.7641133070
vt 0.2615914345 0.7631023526
vt 0.1905721873 0.7641133070
vt 0.2110582292 0.8099101782
vt 0.2110582292 0.8099101782
vt 0.2784249187 0.8070141077
vt 0.2110582292 0.8099101782
vt 0.2090475261 0.8651689291
vt 0.2090475261 0.8651689291
vt 0.2501720190 0.8592411876
vt 0.2090475261 0.8651689291
vt 0.2104802579 0.8936610818
vt 0.2104802579 0.8936610818
vt 0.4949387312 0.1817229092
vt 0.4954247475 0.2176771462
vt 0.4677773714 0.2175552994
vt 0.4677773714 0.2175552994
vt 0.4632415175 0.1782419384
vt 0.4677773714 0.2175552994
vt 0.4359562099 0.2103839070
vt 0.4359562099 0.2103839070
vt 0.4401319623 0.1675962955
vt 0.4359562099 0.2103839070
vt 0.3829288185 0.2074002624
vt 0.3829288185 0.2074002624
vt 0.4059222341 0.1481421590
vt 0.3829288185 0.2074002624
vt 0.3396494091 0.2105996013
vt 0.5829699039 0.9160693884
vt 0.6067312956 0.9163282514
vt 0.1924904287 0.7132759094
vt 0.8493625522 0.6938476562
vt 0.1506374478 0.6938476562
vt 0.1689794660 0.7696424127
vt 0.1689794660 0.7696424127
vt 0.1905721873 0.7641133070
vt 0.1689794660 0.7696424127
vt 0.1787049472 0.8161772490
vt 0.1787049472 0.8161772490
vt 0.2110582292 0.8099101782
vt 0.1787049472 0.8161772490
vt 0.1957421154 0.8663475513
vt 0.1957421154 0.8663475513
vt 0.2090475261 0.8651689291
vt 0.1957421154 0.8663475513
vt 0.1977052391 0.8950195312
vt 0.1977052391 0.8950195312
vt 0.4954247475 0.2176771462
vt 0.4952858686 0.2299982458
vt 0.4692339003 0.2301243842
vt 0.4692339003 0.2301243842
vt 0.4677773714 0.2175552994
vt 0.4692339003 0.2301243842
vt 0.4322845638 0.2271439284
vt 0.4322845638 0.2271439284
vt 0.4359562099 0.2103839070
vt 0.3829288185 0.2074002624
vt 0.3811013401 0.2198729962
vt 0.2111921310 0.3677284718
vt 0.2301262021 0.3383241892
vt 0.4382255971 0.3205462098
vt 0.3933182359 0.3301715553
vt 0.4322845638 0.2271439284
vt 0.3811013401 0.2198729962
vt 0.1631735414 0.3973970115
vt 0.1897619665 0.3667469919
vt 0.0614065751 0.7827117443
vt 0.0840815604 0.7981384397
vt 0.1228292286 0.4325202703
vt 0.1631735414 0.3973970115
vt 0.0840815604 0.7981384397
vt 0.1074091122 0.8343387246
vt 0.0787045881 0.4671598673
vt 0.1228292286 0.4325202703
vt 0.1074091122 0.8343387246
vt 0.1105287299 0.8707406521
vt 0.2531800866 0.3048270941
vt 0.2871769071 0.2651583552
vt 0.1105287299 0.8707406521
vt 0.1018874645 0.8950195312
vt 0.2301262021 0.3383241892
vt 0.2531800866 0.3048270941
vt 0.4995117188 0.3244206309
vt 0.4749638438 0.3167736828
vt 0.2111921310 0.3677284718
vt 0.2067484409 0.3812163472
vt 0.4749638438 0.3167736828
vt 0.4382255971 0.3205462098
vt 0.1631735414 0.3973970115
vt 0.1787367016 0.4111805856
vt 0.3811013401 0.2198729962
vt 0.3374023438 0.2230010033
vt 0.5829699039 0.9160693884
vt 0.5746595860 0.8901425600
vt 0.3933182359 0.3301715553
vt 0.3621150851 0.3496200144
vt 0.4411418140 0.8804090023
vt 0.4253404140 0.8901425600
vt 0.4253404140 0.8901425600
vt 0.4712041616 0.9215007424
vt 0.5350455642 0.9278404713
vt 0.5829699039 0.9160693884
vt 0.3778088689 0.8657226562
vt 0.3794437349 0.8874166012
vt 0.3794437349 0.8874166012
vt 0.4253404140 0.8901425600
vt 0.3167417049 0.8780471683
vt 0.3425701559 0.9050916433
vt 0.3425701559 0.9050916433
vt 0.3794437349 0.8874166012
vt 0.2680664062 0.8925597072
vt 0.6948242188 0.9357924461
vt 0.3051757812 0.9357924461
vt 0.3425701559 0.9050916433
vt 0.1689794660 0.7696424127
vt 0.0840815604 0.7981384397
vt 0.1787049472 0.8161772490
vt 0.1074091122 0.8343387246
vt 0.1957421154 0.8663475513
vt 0.1105287299 0.8707406521
vt 0.4952858686 0.2299982458
vt 0.1018874645 0.8950195312
vt 0.4692339003 0.2301243842
vt 0.4749638438 0.3167736828
vt 0.4322845638 0.2271439284
vt 0.4382255971 0.3205462098
vt 0.3811013401 0.2198729962
vt 0.3933182359 0.3301715553
vt 0.1506374478 0.6938476562
vt 0.3621150851 0.3496200144
vt 0.1228292286 0.4325202703
vt 0.1381430179 0.4464223981
vt 0.0787045881 0.4671598673
vt 0.2704061270 0.2516619861
vt 0.2531800866 0.3048270941
vt 0.2356455475 0.2942346632
vt 0.2301262021 0.3383241892
vt 0.2125504762 0.3295027912
vt 0.1174994484 0.3154854774
vt 0.1314598471 0.2900172174
vt 0.2460536212 0.4759578109
vt 0.2709532678 0.4534718990
vt 0.2086291909 0.5008644462
vt 0.2460536212 0.4759578109
vt 0.1329000741 0.5214570761
vt 0.2086291909 0.5008644462
vt 0.1314598471 0.2900172174
vt 0.0991864353 0.2810267508
vt 0.1736506075 0.2580548525
vt 0.1500663757 0.2453519851
vt 0.1329000741 0.5214570761
vt 0.2198955268 0.2185741663
vt 0.2086291909 0.5008644462
vt 0.2371667475 0.5221919417
vt 0.2460536212 0.4759578109
vt 0.2732875347 0.4991260767
vt 0.1174994484 0.3154854774
vt 0.2947612703 0.4805637598
vt 0.1314598471 0.2900172174
vt 0.1736506075 0.2580548525
vt 0.1736506075 0.2580548525
vt 0.2317127287 0.2264563888
vt 0.3101354241 0.3873388767
vt 0.1118033677 0.3208007812
vt 0.3156552315 0.3712491691
vt 0.0857014582 0.3299857080
vt 0.2917119563 0.3635893762
vt 0.3156552315 0.3712491691
vt 0.0841948688 0.3493377268
vt 0.1060086489 0.3573985398
vt 0.0857014582 0.3299857080
vt 0.0841948688 0.3493377268
vt 0.0680315495 0.3586907089
vt 0.0735561028 0.3831147552
vt 0.0841948688 0.3493377268
vt 0.0680315495 0.3586907089
vt 0.3216253519 0.3552455902
vt 0.3156552315 0.3712491691
vt 0.3111032844 0.3402889073
vt 0.3216253519 0.3552455902
vt 0.0480857901 0.3601974249
vt 0.3442576826 0.3265518248
vt 0.0680315495 0.3586907089
vt 0.3378458321 0.3527317941
vt 0.3378458321 0.3527317941
vt 0.3216253519 0.3552455902
vt 0.0685639456 0.3278947473
vt 0.3452148438 0.3698641658
vt 0.3939589858 0.3686523438
vt 0.0614065751 0.7827117443
vt 0.4060543478 0.3462275565
vt 0.0596607029 0.8184691668
vt 0.3933182359 0.3301715553
vt 0.4060543478 0.3462275565
vt 0.0766655952 0.8192008734
vt 0.0840815604 0.7981384397
vt 0.0596607029 0.8184691668
vt 0.0766655952 0.8192008734
vt 0.0927538276 0.8368346691
vt 0.1074091122 0.8343387246
vt 0.0766655952 0.8192008734
vt 0.0927538276 0.8368346691
vt 0.0945323706 0.8652864695
vt 0.1105287299 0.8707406521
vt 0.0927538276 0.8368346691
vt 0.0945323706 0.8652864695
vt 0.0840685219 0.8787574768
vt 0.4995117188 0.3244206309
vt 0.0945323706 0.8652864695
vt 0.0840685219 0.8787574768
vt 0.4386631250 0.3411192298
vt 0.0405273438 0.8327386379
vt 0.4382255971 0.3205462098
vt 0.4386631250 0.3411192298
vt 0.4655120969 0.3392804265
vt 0.0502432287 0.8629235029
vt 0.4749638438 0.3167736828
vt 0.4655120969 0.3392804265
vt 0.4819256365 0.3435049057
vt 0.0694239289 0.8789398670
vt 0.0502432287 0.8629235029
vt 0.0766655952 0.8192008734
vt 0.0927538276 0.8368346691
vt 0.0694239289 0.8789398670
vt 0.3554980457 0.6762695312
vt 0.6204255819 0.6799131036
vt 0.3795744479 0.6799131036
vt 0.3807445467 0.7523294687
vt 0.3807445467 0.7523294687
vt 0.3520507812 0.7544780970
vt 0.3520507812 0.7544780970
vt 0.0035792487 0.8980666995
vt 0.3795744479 0.6799131036
vt 0.5290012360 0.7109282017
vt 0.4709987640 0.7109282017
vt 0.4363322258 0.7493833899
vt 0.4363322258 0.7493833899
vt 0.3807445467 0.7523294687
vt 0.0004882812 0.9822962284
vt 0.0343921669 0.9499232769
vt 0.0343921669 0.9499232769
vt 0.0468536094 0.8872070312
vt 0.5287958384 0.9215007424
vt 0.4649544358 0.9278404713
vt 0.0343921669 0.9499232769
vt 0.0598878153 0.9257423282
vt 0.0598878153 0.9257423282
vt 0.0867483094 0.8959604502
vt 0.5053710938 0.8754882812
vt 0.4946289062 0.8075623512
vt 0.0004882812 0.9822962284
vt 0.4764411449 0.4278891683
vt 0.0033684452 0.9897460938
vt 0.0388116464 0.9538146853
vt 0.0388116464 0.9538146853
vt 0.0343921669 0.9499232769
vt 0.0388116464 0.9538146853
vt 0.0648588240 0.9294071794
vt 0.0648588240 0.9294071794
vt 0.0598878153 0.9257423282
vt 0.5585167408 0.7984690666
vt 0.5053710938 0.8075623512
vt 0.0648588240 0.9294071794
vt 0.0930935219 0.9005436301
vt 0.4709987640 0.7109282017
vt 0.5082552433 0.7644206882
vt 0.4917447567 0.7644206882
vt 0.4497734308 0.7725622058
vt 0.4497734308 0.7725622058
vt 0.4363322258 0.7493833899
vt 0.3807445467 0.7523294687
vt 0.4414832890 0.7984690666
vt 0.4414832890 0.7984690666
vt 0.4326514602 0.8670361042
vt 0.4326514602 0.8670361042
vt 0.4848632812 0.4282287657
vt 0.4497734308 0.7725622058
vt 0.4414832890 0.7984690666
vt 0.4848632812 0.5786527395
vt 0.4343393445 0.5228430629
vt 0.4343393445 0.5228430629
vt 0.4764411449 0.4278891683
vt 0.4343393445 0.5228430629
vt 0.4055922329 0.4852984250
vt 0.4055922329 0.4852984250
vt 0.4223193526 0.4355185032
vt 0.4223193526 0.4355185032
vt 0.4764411449 0.4278891683
vt 0.4848632812 0.5786527395
vt 0.4946289062 0.8754882812
vt 0.8969726562 0.9502587318
vt 0.0909965411 0.9897460938
vt 0.3802903891 0.5655677319
vt 0.4343393445 0.5228430629
vt 0.3802903891 0.5655677319
vt 0.6450195312 0.4931352735
vt 0.3549804688 0.4931352735
vt 0.4055922329 0.4852984250
vt 0.3549804688 0.4931352735
vt 0.6153874397 0.3899793327
vt 0.3846125901 0.3899793327
vt 0.4223193526 0.4355185032
vt 0.0388116464 0.9538146853
vt 0.1030273438 0.9502587318
vt 0.9090034366 0.9897460938
vt 0.5235588551 0.4278891683
vt 0.0033684452 0.9897460938
vt 0.4340300858 0.3627929688
vt 0.9069064856 0.9005436301
vt 0.1030273438 0.9502587318
vt 0.3846125901 0.3899793327
vt 0.5659699440 0.3627929688
vt 0.4946289062 0.8075623512
vt 0.4414832890 0.7984690666
vt 0.4917447567 0.7644206882
vt 0.5053710938 0.8075623512
vt 0.8969726562 0.9502587318
vt 0.9611883759 0.9538146853
vt 0.5776806474 0.4355185032
vt 0.6153874397 0.3899793327
vt 0.4170300961 0.9160693884
vt 0.4649544358 0.9278404713
vt 0.4253404140 0.8901425600
vt 0.4170300961 0.9160693884
vt 0.3932687044 0.9163282514
vt 0.4170300961 0.9160693884
vt 0.3794437349 0.8874166012
vt 0.3932687044 0.9163282514
vt 0.5944077969 0.4852984250
vt 0.6450195312 0.4931352735
vt 0.3932687044 0.9163282514
vt 0.4313756526 0.9545593262
vt 0.5656606555 0.5228430629
vt 0.6197096109 0.5655677319
vt 0.3558009863 0.9375758767
vt 0.4110120535 0.9604492188
vt 0.3932687044 0.9163282514
vt 0.3558009863 0.9375758767
vt 0.3425701559 0.9050916433
vt 0.3558009863 0.9375758767
vt 0.3377471864 0.9561754465
vt 0.3558009863 0.9375758767
vt 0.3051757812 0.9357924461
vt 0.6622527838 0.9561754465
vt 0.6197096109 0.5655677319
vt 0.4360964298 0.6215820312
vt 0.3377471864 0.9561754465
vt 0.6479262114 0.9604492188
vt 0.7152815461 0.1330090165
vt 0.7780507803 0.1776426136
vt 0.7352824211 0.1080227718
vt 0.7670314312 0.0517033227
vt 0.8246220946 0.0490970723
vt 0.0985060632 0.0794654265
vt 0.7180763483 0.5068233609
vt 0.6986511350 0.4898163080
vt 0.9205962420 0.2973631620
vt 0.9106147289 0.2764406502
vt 0.7883799076 0.1387217790
vt 0.8119058609 0.0813931599
vt 0.8322933912 0.2000343055
vt 0.8749452233 0.1341000497
vt 0.7180763483 0.5068233609
vt 0.7267124653 0.4991260767
vt 0.7267124653 0.4991260767
vt 0.7052386999 0.4805637598
vt 0.7052386999 0.4805637598
vt 0.9205962420 0.2973631620
vt 0.9115844369 0.3021844327
vt 0.9008135796 0.2810267508
vt 0.9008135796 0.2810267508
vt 0.9106147289 0.2764406502
vt 0.7539463639 0.4759578109
vt 0.8212633133 0.4111805856
vt 0.8212633133 0.4111805856
vt 0.7932515740 0.3812163472
vt 0.7932515740 0.3812163472
vt 0.8825005293 0.3154854774
vt 0.8065987229 0.3580793142
vt 0.7874495387 0.3295027912
vt 0.7874495387 0.3295027912
vt 0.8685401678 0.2900172174
vt 0.9008135796 0.2810267508
vt 0.8499336243 0.2453519851
vt 0.8499336243 0.2453519851
vt 0.8635320663 0.2339141220
vt 0.8635320663 0.2339141220
vt 0.9106147289 0.2764406502
vt 0.8254972696 0.2119034231
vt 0.8322933912 0.2000343055
vt 0.9731926322 0.1718198359
vt 0.6221911311 0.8657226562
vt 0.7874495387 0.3295027912
vt 0.7643544674 0.2942346632
vt 0.7643544674 0.2942346632
vt 0.8263493776 0.2580548525
vt 0.7888078690 0.3677284718
vt 0.8881966472 0.3208007812
vt 0.7121962309 0.3989257812
vt 0.7082880735 0.3635893762
vt 0.7082880735 0.3635893762
vt 0.7698737979 0.3383241892
vt 0.7082880735 0.3635893762
vt 0.6888967156 0.3402889073
vt 0.6888967156 0.3402889073
vt 0.7468199134 0.3048270941
vt 0.8368264437 0.3973970115
vt 0.8939913511 0.3573985398
vt 0.8939913511 0.3573985398
vt 0.8881966472 0.3208007812
vt 0.8212633133 0.4111805856
vt 0.8618569970 0.4464223981
vt 0.8771708012 0.4325202703
vt 0.9264438748 0.3831147552
vt 0.9264438748 0.3831147552
vt 0.8939913511 0.3573985398
vt 0.7267124653 0.4991260767
vt 0.7628332376 0.5221919417
vt 0.7913708091 0.5008644462
vt 0.8618569970 0.4464223981
vt 0.7180763483 0.5068233609
vt 0.7500138283 0.5374407172
vt 0.7500138283 0.5374407172
vt 0.7628332376 0.5221919417
vt 0.6986511350 0.4898163080
vt 0.9639191031 0.2671738267
vt 0.6381835938 0.5772653818
vt 0.6832582951 0.8780471683
vt 0.7643544674 0.2942346632
vt 0.7295938730 0.2516619861
vt 0.7295938730 0.2516619861
vt 0.8670999408 0.5214570761
vt 0.7801044583 0.2185741663
vt 0.8499336243 0.2453519851
vt 0.6888967156 0.3402889073
vt 0.6557422876 0.3265518248
vt 0.6557422876 0.3265518248
vt 0.9212954044 0.4671598673
vt 0.9689076543 0.3861172497
vt 0.9264438748 0.3831147552
vt 0.8618569970 0.4464223981
vt 0.9050019979 0.4846115112
vt 0.7628332376 0.5221919417
vt 0.8554655313 0.5322081447
vt 0.7801044583 0.2185741663
vt 0.7780507803 0.1776426136
vt 0.7780507803 0.1776426136
vt 0.8254972696 0.2119034231
vt 0.8254972696 0.2119034231
vt 0.8499336243 0.2453519851
vt 0.7810206413 0.0284463670
vt 0.1753778905 0.0490970723
vt 0.8322933912 0.2000343055
vt 0.8635320663 0.2339141220
vt 0.9749816060 0.6170968413
vt 0.9774366617 0.6024123430
vt 0.9272007346 0.6070679426
vt 0.9749816060 0.6170968413
vt 0.7883799076 0.1387217790
vt 0.7780507803 0.1776426136
vt 0.9099724293 0.1753763258
vt 0.8635320663 0.2339141220
vt 0.6810956597 0.0973579288
vt 0.7152815461 0.1330090165
vt 0.6661564112 0.1098991260
vt 0.6810956597 0.0973579288
vt 0.7801044583 0.2185741663
vt 0.9411630034 0.5719375610
vt 0.7048431635 0.1484029889
vt 0.7152815461 0.1330090165
vt 0.7275571823 0.0034119417
vt 0.2189793587 0.0284463670
vt 0.7628332376 0.5221919417
vt 0.8065215349 0.5569052696
vt 0.8065215349 0.5569052696
vt 0.8689106703 0.5652359128
vt 0.8689106703 0.5652359128
vt 0.8554655313 0.5322081447
vt 0.7500138283 0.5374407172
vt 0.8068940043 0.5751183033
vt 0.8068940043 0.5751183033
vt 0.8065215349 0.5569052696
vt 0.9644444585 0.1040776372
vt 0.5588581562 0.8804090023
vt 0.9106147289 0.2764406502
vt 0.9435161948 0.2273459136
vt 0.8689106703 0.5652359128
vt 0.9328876734 0.5883291960
vt 0.9328876734 0.5883291960
vt 0.9411630034 0.5719375610
vt 0.8068940043 0.5751183033
vt 0.8729101419 0.5932816267
vt 0.8729101419 0.5932816267
vt 0.8689106703 0.5652359128
vt 0.8729101419 0.5932816267
vt 0.9272007346 0.6070679426
vt 0.9272007346 0.6070679426
vt 0.9328876734 0.5883291960
vt 0.9328876734 0.5883291960
vt 0.9774366617 0.6024123430
vt 0.9774366617 0.6024123430
vt 0.9800150990 0.5873297453
vt 0.9800150990 0.5873297453
vt 0.7048431635 0.1484029889
vt 0.6922796965 0.0786360130
vt 0.7197149396 0.0258859936
vt 0.7883799076 0.1387217790
vt 0.8322933912 0.2000343055
vt 0.7152815461 0.1330090165
vt 0.7352824211 0.1080227718
vt 0.7352824211 0.1080227718
vt 0.7883799076 0.1387217790
vt 0.6810956597 0.0973579288
vt 0.6922796965 0.0786360130
vt 0.6922796965 0.0786360130
vt 0.7352824211 0.1080227718
vt 0.6921414733 0.5780284405
vt 0.7180763483 0.5068233609
vt 0.9014939070 0.0794654265
vt 0.0355555341 0.1040776372
vt 0.9182285070 0.6909179688
vt 0.0228779800 0.6893793344
vt 0.8697072268 0.6499217153
vt 0.8729101419 0.5932816267
vt 0.7869143486 0.6907320023
vt 0.1302714944 0.6909179688
vt 0.8068940043 0.5751183033
vt 0.7947456241 0.6415593624
vt 0.9185162187 0.6546913385
vt 0.9272007346 0.6070679426
vt 0.8697285056 0.6909179688
vt 0.0817715004 0.6909179688
vt 0.9747170210 0.6565878391
vt 0.9749816060 0.6170968413
vt 0.7267136574 0.6189334393
vt 0.7500138283 0.5374407172
vt 0.6706907749 0.6363741159
vt 0.7319335938 0.8925597072
vt 0.5639035702 0.6215820312
vt 0.5673485398 0.8670361042
vt 0.7197149396 0.0258859936
vt 0.7275571823 0.0034119417
vt 0.7670314312 0.0517033227
vt 0.7810206413 0.0284463670
vt 0.8119058609 0.0813931599
vt 0.8246220946 0.0490970723
vt 0.8749452233 0.1341000497
vt 0.9014939070 0.0794654265
vt 0.9099724293 0.1753763258
vt 0.9644444585 0.1040776372
vt 0.9435161948 0.2273459136
vt 0.9731926322 0.1718198359
vt 0.6650710106 0.5377766490
vt 0.9995117188 0.2431660295
vt 0.6921414733 0.5780284405
vt 0.6706907749 0.6363741159
vt 0.7267136574 0.6189334393
vt 0.6856902838 0.6865582466
vt 0.7947456241 0.6415593624
vt 0.7869143486 0.6907320023
vt 0.8697072268 0.6499217153
vt 0.8697285056 0.6909179688
vt 0.9185162187 0.6546913385
vt 0.9182285070 0.6909179688
vt 0.9747170210 0.6565878391
vt 0.9771220088 0.6893793344
vt 0.7197149396 0.0258859936
vt 0.7670314312 0.0517033227
vt 0.7670314312 0.0517033227
vt 0.8119058609 0.0813931599
vt 0.8119058609 0.0813931599
vt 0.8749452233 0.1341000497
vt 0.8749452233 0.1341000497
vt 0.9099724293 0.1753763258
vt 0.9099724293 0.1753763258
vt 0.9435161948 0.2273459136
vt 0.9435161948 0.2273459136
vt 0.9639191031 0.2671738267
vt 0.6650710106 0.5377766490
vt 0.6921414733 0.5780284405
vt 0.6921414733 0.5780284405
vt 0.7267136574 0.6189334393
vt 0.7267136574 0.6189334393
vt 0.7947456241 0.6415593624
vt 0.7947456241 0.6415593624
vt 0.8697072268 0.6499217153
vt 0.8697072268 0.6499217153
vt 0.9185162187 0.6546913385
vt 0.9185162187 0.6546913385
vt 0.9747170210 0.6565878391
vt 0.5235588551 0.4278891683
vt 0.5776806474 0.4355185032
vt 0.7065913081 0.0251702163
vt 0.6567633748 0.7009707093
vt 0.7197149396 0.0258859936
vt 0.7065913081 0.0251702163
vt 0.6768414974 0.0720123276
vt 0.6564488411 0.7418982387
vt 0.6922796965 0.0786360130
vt 0.6768414974 0.0720123276
vt 0.6638476849 0.0810582265
vt 0.6551936865 0.8289211988
vt 0.6810956597 0.0973579288
vt 0.6638476849 0.0810582265
vt 0.6547851562 0.0857095942
vt 0.6482878923 0.8503988981
vt 0.6661564112 0.1098991260
vt 0.9995117188 0.5964603424
vt 0.9937303066 0.6065247059
vt 0.5004882812 0.0819644704
vt 0.9774366617 0.6024123430
vt 0.9937303066 0.6065247059
vt 0.9885584116 0.6182839870
vt 0.5185251236 0.0857348144
vt 0.9749816060 0.6170968413
vt 0.9885584116 0.6182839870
vt 0.9862577319 0.6562228203
vt 0.5390992165 0.0916215628
vt 0.9747170210 0.6565878391
vt 0.9862577319 0.6562228203
vt 0.9893179536 0.6873535514
vt 0.5997405648 0.0776923522
vt 0.9771220088 0.6893793344
vt 0.0106820557 0.6873535514
vt 0.5776806474 0.4355185032
vt 0.5944077969 0.4852984250
vt 0.7384085655 0.7631023526
vt 0.7760288715 0.7164803743
vt 0.6564488411 0.7418982387
vt 0.7384085655 0.7631023526
vt 0.7215750813 0.8070141077
vt 0.7384085655 0.7631023526
vt 0.6551936865 0.8289211988
vt 0.7215750813 0.8070141077
vt 0.7498279810 0.8592411876
vt 0.7215750813 0.8070141077
vt 0.6482878923 0.8503988981
vt 0.7498279810 0.8592411876
vt 0.7514802217 0.8878777027
vt 0.7498279810 0.8592411876
vt 0.6450195312 0.8642471433
vt 0.5050612688 0.1817229092
vt 0.5367584825 0.1782419384
vt 0.5050612688 0.1817229092
vt 0.5185251236 0.0857348144
vt 0.5367584825 0.1782419384
vt 0.5598680377 0.1675962955
vt 0.5390992165 0.0916215628
vt 0.5940777659 0.1481421590
vt 0.5598680377 0.1675962955
vt 0.5997405648 0.0776923522
vt 0.5940777659 0.1481421590
vt 0.5598680377 0.1675962955
vt 0.5367584825 0.1782419384
vt 0.6513395309 0.1356043816
vt 0.5940777659 0.1481421590
vt 0.6474349499 0.0659179688
vt 0.3486604393 0.1356043816
vt 0.5944077969 0.4852984250
vt 0.5656606555 0.5228430629
vt 0.8094277978 0.7641133070
vt 0.8075095415 0.7132759094
vt 0.7384085655 0.7631023526
vt 0.8094277978 0.7641133070
vt 0.7889417410 0.8099101782
vt 0.8094277978 0.7641133070
vt 0.7215750813 0.8070141077
vt 0.7889417410 0.8099101782
vt 0.7909524441 0.8651689291
vt 0.7889417410 0.8099101782
vt 0.7498279810 0.8592411876
vt 0.7909524441 0.8651689291
vt 0.7895197272 0.8936610818
vt 0.7909524441 0.8651689291
vt 0.7514802217 0.8878777027
vt 0.5045752525 0.2176771462
vt 0.5322226286 0.2175552994
vt 0.5045752525 0.2176771462
vt 0.5367584825 0.1782419384
vt 0.5322226286 0.2175552994
vt 0.5640437603 0.2103839070
vt 0.5322226286 0.2175552994
vt 0.5598680377 0.1675962955
vt 0.5640437603 0.2103839070
vt 0.6170711517 0.2074002624
vt 0.5640437603 0.2103839070
vt 0.5940777659 0.1481421590
vt 0.6170711517 0.2074002624
vt 0.6603505611 0.2105996013
vt 0.6170711517 0.2074002624
vt 0.6513395309 0.1356043816
vt 0.3396494091 0.2105996013
vt 0.5235588551 0.4278891683
vt 0.5656606555 0.5228430629
vt 0.8310205340 0.7696424127
vt 0.8493625522 0.6938476562
vt 0.8094277978 0.7641133070
vt 0.8310205340 0.7696424127
vt 0.8212950230 0.8161772490
vt 0.8310205340 0.7696424127
vt 0.7889417410 0.8099101782
vt 0.8212950230 0.8161772490
vt 0.8042578697 0.8663475513
vt 0.8212950230 0.8161772490
vt 0.7909524441 0.8651689291
vt 0.8042578697 0.8663475513
vt 0.8022947311 0.8950195312
vt 0.8042578697 0.8663475513
vt 0.7895197272 0.8936610818
vt 0.5047141314 0.2299982458
vt 0.5307661295 0.2301243842
vt 0.5047141314 0.2299982458
vt 0.5322226286 0.2175552994
vt 0.5307661295 0.2301243842
vt 0.5677154064 0.2271439284
vt 0.5307661295 0.2301243842
vt 0.5640437603 0.2103839070
vt 0.5677154064 0.2271439284
vt 0.6188986301 0.2198729962
vt 0.6170711517 0.2074002624
vt 0.7698737979 0.3383241892
vt 0.7888078690 0.3677284718
vt 0.6066817641 0.3301715553
vt 0.5617743731 0.3205462098
vt 0.6188986301 0.2198729962
vt 0.5677154064 0.2271439284
vt 0.8102380037 0.3667469919
vt 0.8368264437 0.3973970115
vt 0.9159184694 0.7981384397
vt 0.9385934472 0.7827117443
vt 0.8368264437 0.3973970115
vt 0.8771708012 0.4325202703
vt 0.8925908804 0.8343387246
vt 0.9159184694 0.7981384397
vt 0.8771708012 0.4325202703
vt 0.9212954044 0.4671598673
vt 0.8894712925 0.8707406521
vt 0.8925908804 0.8343387246
vt 0.7128230929 0.2651583552
vt 0.7468199134 0.3048270941
vt 0.8981125355 0.8950195312
vt 0.8894712925 0.8707406521
vt 0.7468199134 0.3048270941
vt 0.7698737979 0.3383241892
vt 0.5250361562 0.3167736828
vt 0.5004882812 0.3244206309
vt 0.8065987229 0.3580793142
vt 0.8102380037 0.3667469919
vt 0.5617743731 0.3205462098
vt 0.5250361562 0.3167736828
vt 0.8212633133 0.4111805856
vt 0.8368264437 0.3973970115
vt 0.6625976562 0.2230010033
vt 0.6188986301 0.2198729962
vt 0.6603505611 0.2105996013
vt 0.3374023438 0.2230010033
vt 0.6378849149 0.3496200144
vt 0.6066817641 0.3301715553
vt 0.5746595860 0.8901425600
vt 0.5588581562 0.8804090023
vt 0.5287958384 0.9215007424
vt 0.5746595860 0.8901425600
vt 0.5161132812 0.9196711779
vt 0.4712041616 0.9215007424
vt 0.6205562353 0.8874166012
vt 0.6221911311 0.8657226562
vt 0.5746595860 0.8901425600
vt 0.6205562353 0.8874166012
vt 0.6574298143 0.9050916433
vt 0.6832582951 0.8780471683
vt 0.6205562353 0.8874166012
vt 0.6574298143 0.9050916433
vt 0.5656606555 0.5228430629
vt 0.5151367188 0.5786527395
vt 0.6574298143 0.9050916433
vt 0.6948242188 0.9357924461
vt 0.9159184694 0.7981384397
vt 0.8310205340 0.7696424127
vt 0.8925908804 0.8343387246
vt 0.8212950230 0.8161772490
vt 0.8894712925 0.8707406521
vt 0.8042578697 0.8663475513
vt 0.5004882812 0.3244206309
vt 0.8022947311 0.8950195312
vt 0.5250361562 0.3167736828
vt 0.5307661295 0.2301243842
vt 0.5617743731 0.3205462098
vt 0.5677154064 0.2271439284
vt 0.6066817641 0.3301715553
vt 0.6188986301 0.2198729962
vt 0.9385934472 0.7827117443
vt 0.6625976562 0.2230010033
vt 0.8618569970 0.4464223981
vt 0.8771708012 0.4325202703
vt 0.9050019979 0.4846115112
vt 0.7128230929 0.2651583552
vt 0.7643544674 0.2942346632
vt 0.7468199134 0.3048270941
vt 0.7874495387 0.3295027912
vt 0.7698737979 0.3383241892
vt 0.8685401678 0.2900172174
vt 0.8825005293 0.3154854774
vt 0.7290467024 0.4534718990
vt 0.7539463639 0.4759578109
vt 0.7539463639 0.4759578109
vt 0.7913708091 0.5008644462
vt 0.7913708091 0.5008644462
vt 0.8670999408 0.5214570761
vt 0.9008135796 0.2810267508
vt 0.8685401678 0.2900172174
vt 0.8499336243 0.2453519851
vt 0.8263493776 0.2580548525
vt 0.8554655313 0.5322081447
vt 0.7682873011 0.2264563888
vt 0.7628332376 0.5221919417
vt 0.7913708091 0.5008644462
vt 0.7267124653 0.4991260767
vt 0.7539463639 0.4759578109
vt 0.9115844369 0.3021844327
vt 0.7290467024 0.4534718990
vt 0.8263493776 0.2580548525
vt 0.8685401678 0.2900172174
vt 0.7682873011 0.2264563888
vt 0.8263493776 0.2580548525
vt 0.7121962309 0.3989257812
vt 0.9142985344 0.3299857080
vt 0.6898645759 0.3873388767
vt 0.9314360619 0.3278947473
vt 0.6843447685 0.3712491691
vt 0.7082880735 0.3635893762
vt 0.8939913511 0.3573985398
vt 0.9158051014 0.3493377268
vt 0.9158051014 0.3493377268
vt 0.9142985344 0.3299857080
vt 0.9264438748 0.3831147552
vt 0.9319684505 0.3586907089
vt 0.9319684505 0.3586907089
vt 0.9158051014 0.3493377268
vt 0.6843447685 0.3712491691
vt 0.6783746481 0.3552455902
vt 0.6783746481 0.3552455902
vt 0.6888967156 0.3402889073
vt 0.9689076543 0.3861172497
vt 0.6621541977 0.3527317941
vt 0.9519141912 0.3601974249
vt 0.6547851562 0.3698641658
vt 0.6783746481 0.3552455902
vt 0.6621541977 0.3527317941
vt 0.9319684505 0.3586907089
vt 0.6843447685 0.3712491691
vt 0.6378849149 0.3496200144
vt 0.9403393269 0.8184691668
vt 0.6060410142 0.3686523438
vt 0.9594726562 0.8327386379
vt 0.5939456224 0.3462275565
vt 0.6066817641 0.3301715553
vt 0.9159184694 0.7981384397
vt 0.9233344197 0.8192008734
vt 0.9233344197 0.8192008734
vt 0.9403393269 0.8184691668
vt 0.8925908804 0.8343387246
vt 0.9072461724 0.8368346691
vt 0.9072461724 0.8368346691
vt 0.9233344197 0.8192008734
vt 0.8894712925 0.8707406521
vt 0.9054676294 0.8652864695
vt 0.9054676294 0.8652864695
vt 0.9072461724 0.8368346691
vt 0.8981125355 0.8950195312
vt 0.5180743933 0.3435049057
vt 0.9159314632 0.8787574768
vt 0.9054676294 0.8652864695
vt 0.5939456224 0.3462275565
vt 0.9497567415 0.8629235029
vt 0.5613368750 0.3411192298
vt 0.5617743731 0.3205462098
vt 0.5613368750 0.3411192298
vt 0.9305760860 0.8789398670
vt 0.5344879031 0.3392804265
vt 0.5250361562 0.3167736828
vt 0.5344879031 0.3392804265
vt 0.9159314632 0.8787574768
vt 0.9233344197 0.8192008734
vt 0.9497567415 0.8629235029
vt 0.9305760860 0.8789398670
vt 0.9072461724 0.8368346691
vt 0.5585167408 0.7984690666
vt 0.5502265692 0.7725622058
vt 0.6192554235 0.7523294687
vt 0.6204255819 0.6799131036
vt 0.6479492188 0.7544780970
vt 0.6192554235 0.7523294687
vt 0.6445019245 0.6762695312
vt 0.9995117188 0.9822962284
vt 0.6479492188 0.7544780970
vt 0.5151367188 0.5786527395
vt 0.5636677742 0.7493833899
vt 0.5290012360 0.7109282017
vt 0.6192554235 0.7523294687
vt 0.5636677742 0.7493833899
vt 0.9656078219 0.9499232769
vt 0.9995117188 0.9822962284
vt 0.9531463981 0.8872070312
vt 0.9656078219 0.9499232769
vt 0.9964207411 0.8980666995
vt 0.0468536094 0.8872070312
vt 0.9401121736 0.9257423282
vt 0.9656078219 0.9499232769
vt 0.9132516980 0.8959604502
vt 0.9401121736 0.9257423282
vt 0.9531463981 0.8872070312
vt 0.0867483094 0.8959604502
vt 0.9966315627 0.9897460938
vt 0.5151367188 0.4282287657
vt 0.9611883759 0.9538146853
vt 0.9966315627 0.9897460938
vt 0.9656078219 0.9499232769
vt 0.9611883759 0.9538146853
vt 0.9351412058 0.9294071794
vt 0.9611883759 0.9538146853
vt 0.9401121736 0.9257423282
vt 0.9351412058 0.9294071794
vt 0.9132516980 0.8959604502
vt 0.0930935219 0.9005436301
vt 0.9069064856 0.9005436301
vt 0.9351412058 0.9294071794
vt 0.5673485398 0.8670361042
vt 0.5585167408 0.7984690666
vt 0.5502265692 0.7725622058
vt 0.5082552433 0.7644206882
vt 0.5636677742 0.7493833899
vt 0.5502265692 0.7725622058
vt 0.5585167408 0.7984690666
vt 0.6192554235 0.7523294687
usemtl CBMaterial
f 13/38/13 30/102/30 31/41/31 14/105/14
f 35/119/35 36/121/36 29/1/29 26/98/26
f 1/8/1 7/15/7 8/17/8 4/19/4
f 4/10/4 8/20/8 9/21/9 5/23/5
f 10/25/10 11/27/11 122/29/122 123/455/123
f 11/30/11 12/31/12 124/33/124 122/453/122
f 9/24/9 13/35/13 14/37/14 5/39/5
f 61/77/61 62/231/62 1/169/1 4/7/4
f 12/34/12 16/45/16 125/47/125 124/473/124
f 17/49/17 18/51/18 121/53/121 116/373/116
f 18/54/18 19/55/19 120/57/120 121/395/121
f 20/59/20 17/61/17 116/50/116 117/379/117
f 22/65/22 20/67/20 117/60/117 118/383/118
f 21/71/21 10/64/10 123/26/123 127/457/127
f 1/16/1 24/73/24 23/75/23 7/70/7
f 59/114/59 60/227/60 5/138/5 14/40/14
f 16/48/16 27/81/27 126/83/126 125/475/125
f 19/58/19 28/87/28 119/89/119 120/391/120
f 28/90/28 22/91/22 118/66/118 119/387/119
f 27/84/27 21/94/21 127/72/127 126/459/126
f 26/86/26 29/97/29 30/99/30 13/101/13
f 47/161/47 46/163/46 29/111/29 36/2/36
f 43/150/43 32/109/32 45/107/45 41/152/41
f 46/112/46 31/159/31 30/42/30 29/100/29
f 44/156/44 34/117/34 36/115/36 35/122/35
f 55/157/55 56/219/56 47/4/47 48/168/48
f 23/96/23 37/125/37 38/127/38 26/129/26
f 24/76/24 39/131/39 37/133/37 23/126/23
f 60/137/60 61/229/61 4/78/4 5/9/5
f 38/130/38 41/139/41 35/141/35 26/120/26
f 39/134/39 42/143/42 38/145/38 37/128/37
f 42/146/42 43/147/43 41/149/41 38/140/38
f 41/142/41 45/151/45 44/153/44 35/155/35
f 57/11/57 58/223/58 31/14/31 46/160/46
f 56/3/56 57/221/57 46/12/46 47/164/47
f 34/116/34 48/165/48 47/167/47 36/162/36
f 58/13/58 59/225/59 14/113/14 31/106/31
f 66/182/66 67/241/67 32/185/32 43/110/43
f 64/179/64 65/237/65 42/175/42 39/144/39
f 65/176/65 66/239/66 43/181/43 42/148/42
f 62/170/62 63/233/63 24/187/24 1/74/1
f 63/188/63 64/235/64 39/180/39 24/132/24
f 180/786/180 56/196/56 55/220/55 179/193/179
f 183/766/183 57/198/57 56/222/56 180/195/180
f 192/668/192 58/200/58 57/224/57 183/197/183
f 210/834/210 59/202/59 58/226/58 192/199/192
f 114/422/114 292/427/292 231/425/231 49/190/49
f 61/206/61 60/230/60 25/203/25 40/43/40
f 62/208/62 61/232/61 40/205/40 49/79/49
f 63/210/63 62/234/62 49/207/49 231/189/231
f 64/212/64 63/236/63 231/209/231 227/191/227
f 228/840/228 65/214/65 64/238/64 227/211/227
f 229/846/229 66/216/66 65/240/65 228/213/228
f 230/836/230 67/218/67 66/242/66 229/215/229
f 55/194/55 69/247/69 245/245/245 179/243/179
f 55/248/55 48/158/48 70/251/70 69/249/69
f 48/252/48 34/166/34 71/255/71 70/253/70
f 34/256/34 44/118/44 72/259/72 71/257/71
f 44/260/44 45/154/45 73/263/73 72/261/72
f 45/264/45 32/108/32 74/267/74 73/265/73
f 32/268/32 67/186/67 75/271/75 74/269/74
f 253/938/253 75/273/75 67/272/67 230/217/230
f 69/246/69 77/281/77 255/279/255 245/277/245
f 69/282/69 70/250/70 79/285/79 77/283/77
f 70/286/70 71/254/71 80/289/80 79/287/79
f 71/290/71 72/258/72 81/293/81 80/291/80
f 72/294/72 73/262/73 82/297/82 81/295/81
f 75/270/75 83/303/83 84/301/84 74/299/74
f 74/266/74 84/300/84 82/305/82 73/298/73
f 262/972/262 83/307/83 75/304/75 253/274/253
f 77/280/77 87/315/87 263/313/263 255/311/255
f 77/316/77 79/284/79 88/319/88 87/317/87
f 80/288/80 89/323/89 88/321/88 79/320/79
f 81/292/81 90/327/90 89/325/89 80/324/80
f 82/296/82 91/331/91 90/329/90 81/328/81
f 82/332/82 84/306/84 92/335/92 91/333/91
f 84/336/84 83/302/83 93/339/93 92/337/92
f 271/1006/271 93/341/93 83/340/83 262/308/262
f 87/314/87 96/349/96 272/347/272 263/345/263
f 88/318/88 97/353/97 96/351/96 87/350/87
f 89/322/89 98/357/98 97/355/97 88/354/88
f 89/358/89 90/326/90 99/361/99 98/359/98
f 90/362/90 91/330/91 100/365/100 99/363/99
f 91/366/91 92/334/92 101/369/101 100/367/100
f 12/452/12 11/32/11 116/399/116 121/374/121
f 93/338/93 103/372/103 101/377/101 92/370/92
f 11/400/11 10/28/10 117/403/117 116/380/116
f 10/404/10 21/63/21 118/445/118 117/384/117
f 21/446/21 27/93/27 119/447/119 118/388/118
f 27/448/27 16/82/16 120/449/120 119/392/119
f 16/450/16 12/46/12 121/451/121 120/396/120
f 9/462/9 8/22/8 122/471/122 124/454/124
f 272/1070/272 103/405/103 93/371/93 271/342/271
f 8/472/8 7/18/7 123/469/123 122/456/122
f 288/1078/288 112/413/112 25/411/25 210/136/210
f 25/44/25 112/412/112 113/419/113 40/417/40
f 113/418/113 114/423/114 49/421/49 40/80/40
f 59/228/59 210/201/210 25/135/25 60/204/60
f 106/432/106 105/385/105 96/429/96 97/352/97
f 107/434/107 106/389/106 97/431/97 98/356/98
f 108/436/108 107/393/107 98/433/98 99/360/99
f 109/438/109 108/397/108 99/435/99 100/364/100
f 110/440/110 109/401/109 100/437/100 101/368/101
f 102/442/102 110/375/110 101/439/101 103/378/103
f 104/444/104 102/409/102 103/441/103 272/406/272
f 105/430/105 104/381/104 272/443/272 96/348/96
f 13/464/13 9/36/9 124/461/124 125/474/125
f 26/466/26 13/85/13 125/463/125 126/476/126
f 23/468/23 26/95/26 126/465/126 127/460/127
f 7/470/7 23/69/23 127/467/127 123/458/123
f 17/52/17 129/477/129 128/479/128 18/481/18
f 17/478/17 20/62/20 130/483/130 129/485/129
f 20/484/20 22/68/22 131/487/131 130/489/130
f 18/56/18 128/482/128 132/491/132 19/493/19
f 22/488/22 28/92/28 133/495/133 131/497/131
f 19/88/19 132/494/132 133/499/133 28/496/28
f 130/486/130 131/490/131 128/501/128 129/480/129
f 133/498/133 132/500/132 128/492/128 131/502/131
f 104/410/104 135/503/135 134/505/134 102/507/102
f 105/382/105 136/509/136 135/511/135 104/504/104
f 106/386/106 137/513/137 136/515/136 105/510/105
f 107/390/107 138/517/138 137/519/137 106/514/106
f 108/394/108 139/521/139 138/523/138 107/518/107
f 102/376/102 134/508/134 140/525/140 110/527/110
f 140/528/140 141/529/141 109/531/109 110/402/110
f 109/398/109 141/532/141 139/533/139 108/522/108
f 135/506/135 136/512/136 140/535/140 134/526/134
f 139/524/139 141/534/141 137/537/137 138/520/138
f 140/530/140 136/536/136 137/516/137 141/538/141
f 145/545/145 144/543/144 173/541/173 175/539/175
f 144/542/144 146/551/146 167/549/167 173/547/173
f 166/1220/166 149/555/149 145/553/145 175/546/175
f 163/1226/163 150/561/150 149/559/149 166/556/166
f 149/554/149 153/569/153 152/567/152 145/565/145
f 149/570/149 150/560/150 154/573/154 153/571/153
f 148/1238/148 154/577/154 150/574/150 163/562/163
f 146/550/146 157/583/157 147/581/147 167/579/167
f 145/544/145 158/589/158 159/587/159 144/585/144
f 144/552/144 159/586/159 157/591/157 146/584/146
f 145/590/145 152/566/152 160/595/160 158/593/158
f 152/596/152 161/601/161 162/599/162 160/597/160
f 85/660/85 158/603/158 160/594/160 86/607/86
f 162/598/162 78/611/78 86/609/86 160/608/160
f 162/612/162 161/600/161 76/615/76 78/613/78
f 68/624/68 153/617/153 154/572/154 148/578/148
f 54/606/54 152/621/152 153/568/153 68/618/68
f 152/602/152 54/622/54 76/625/76 161/616/161
f 157/582/157 159/592/159 53/627/53 147/629/147
f 53/564/53 159/628/159 158/588/158 85/604/85
f 51/558/51 170/635/170 112/637/112 288/414/288
f 112/420/112 170/638/170 172/639/172 113/641/113
f 33/276/33 172/645/172 170/640/170 51/636/51
f 6/178/6 174/649/174 172/651/172 33/646/33
f 172/642/172 174/652/174 114/653/114 113/424/113
f 174/654/174 3/655/3 292/657/292 114/428/114
f 2/6/2 3/661/3 174/656/174 6/650/6
f 191/700/191 208/767/208 207/703/207 190/764/190
f 203/781/203 206/760/206 213/663/213 212/783/212
f 181/670/181 185/681/185 184/679/184 178/677/178
f 182/672/182 186/685/186 185/683/185 181/682/181
f 300/687/300 299/1117/299 188/691/188 187/689/187
f 299/692/299 301/1115/301 189/695/189 188/693/188
f 182/686/182 191/701/191 190/699/190 186/697/186
f 181/739/181 178/669/178 239/831/239 238/893/238
f 301/696/301 302/1135/302 193/709/193 189/707/189
f 293/711/293 298/1035/298 195/715/195 194/713/194
f 298/716/298 297/1057/297 196/719/196 195/717/195
f 294/721/294 293/1041/293 194/712/194 197/723/197
f 295/727/295 294/1045/294 197/722/197 199/729/199
f 304/733/304 300/1119/300 187/688/187 198/726/198
f 184/678/184 200/732/200 201/737/201 178/735/178
f 191/776/191 182/702/182 237/800/237 236/889/236
f 302/710/302 303/1137/303 204/745/204 193/743/193
f 297/720/297 296/1053/296 205/751/205 196/749/196
f 296/752/296 295/1049/295 199/728/199 205/753/205
f 303/746/303 304/1121/304 198/734/198 204/756/204
f 190/748/190 207/763/207 206/761/206 203/759/203
f 213/823/213 206/664/206 223/773/223 224/825/224
f 218/812/218 222/814/222 209/769/209 220/771/220
f 206/774/206 207/762/207 208/704/208 223/821/223
f 212/818/212 213/784/213 211/777/211 221/779/221
f 225/819/225 224/830/224 233/666/233 232/881/232
f 203/758/203 215/791/215 214/789/214 200/787/200
f 200/738/200 214/788/214 216/795/216 201/793/201
f 182/799/182 181/671/181 238/740/238 237/891/237
f 203/792/203 212/782/212 218/803/218 215/801/215
f 214/796/214 215/790/215 219/807/219 216/805/216
f 215/808/215 218/802/218 220/811/220 219/809/219
f 212/804/212 221/817/221 222/815/222 218/813/218
f 223/673/223 208/822/208 235/676/235 234/885/234
f 224/665/224 223/826/223 234/674/234 233/883/233
f 213/778/213 224/824/224 225/829/225 211/827/211
f 208/675/208 191/768/191 236/775/236 235/887/235
f 220/844/220 209/772/209 244/847/244 243/903/243
f 216/841/216 219/806/219 242/837/242 241/899/241
f 219/838/219 220/810/220 243/843/243 242/901/242
f 178/832/178 201/736/201 240/849/240 239/895/239
f 201/850/201 216/794/216 241/842/241 240/897/240
f 180/858/180 179/785/179 232/855/232 233/882/233
f 183/860/183 180/765/180 233/857/233 234/884/234
f 192/862/192 183/667/183 234/859/234 235/886/235
f 210/864/210 192/833/192 235/861/235 236/888/236
f 292/426/292 291/1089/291 226/1084/226 231/852/231
f 217/868/217 202/705/202 237/865/237 238/892/238
f 226/870/226 217/741/217 238/867/238 239/894/239
f 231/872/231 226/851/226 239/869/239 240/896/240
f 231/192/231 240/871/240 241/898/241 227/874/227
f 228/876/228 227/839/227 241/873/241 242/900/242
f 229/878/229 228/845/228 242/875/242 243/902/243
f 230/880/230 229/835/229 243/877/243 244/904/244
f 245/244/245 246/907/246 232/909/232 179/856/179
f 246/910/246 247/911/247 225/913/225 232/820/232
f 247/914/247 248/915/248 211/917/211 225/828/225
f 248/918/248 249/919/249 221/921/221 211/780/211
f 249/922/249 250/923/250 222/925/222 221/816/221
f 250/926/250 251/927/251 209/929/209 222/770/222
f 251/930/251 252/931/252 244/933/244 209/848/209
f 252/934/252 253/935/253 230/937/230 244/879/244
f 255/278/255 254/941/254 246/943/246 245/908/245
f 254/944/254 256/945/256 247/947/247 246/912/246
f 256/948/256 257/949/257 248/951/248 247/916/247
f 257/952/257 258/953/258 249/955/249 248/920/248
f 258/956/258 259/957/259 250/959/250 249/924/249
f 251/932/251 261/961/261 260/963/260 252/965/252
f 250/928/250 259/960/259 261/967/261 251/962/251
f 252/936/252 260/966/260 262/969/262 253/971/253
f 263/312/263 264/975/264 254/977/254 255/942/255
f 264/978/264 265/979/265 256/981/256 254/946/254
f 256/950/256 265/982/265 266/983/266 257/985/257
f 257/954/257 266/986/266 267/987/267 258/989/258
f 258/958/258 267/990/267 268/991/268 259/993/259
f 268/994/268 269/995/269 261/997/261 259/968/259
f 269/998/269 270/999/270 260/1001/260 261/964/261
f 270/1002/270 271/1003/271 262/1005/262 260/970/260
f 272/346/272 273/1009/273 264/1011/264 263/976/263
f 264/980/264 273/1012/273 274/1013/274 265/1015/265
f 265/984/265 274/1016/274 275/1017/275 266/1019/266
f 275/1020/275 276/1021/276 267/1023/267 266/988/266
f 276/1024/276 277/1025/277 268/1027/268 267/992/267
f 277/1028/277 278/1029/278 269/1031/269 268/996/268
f 298/1114/298 293/1036/293 188/1061/188 189/694/189
f 269/1000/269 278/1032/278 280/1039/280 270/1034/270
f 293/1062/293 294/1042/294 187/1065/187 188/690/188
f 294/1066/294 295/1046/295 198/1107/198 187/725/187
f 295/1108/295 296/1050/296 204/1109/204 198/755/198
f 296/1110/296 297/1054/297 193/1111/193 204/744/204
f 297/1112/297 298/1058/298 189/1113/189 193/708/193
f 301/1124/301 299/1116/299 185/1133/185 186/684/186
f 280/1033/280 272/1067/272 271/1069/271 270/1004/270
f 299/1134/299 300/1118/300 184/1131/184 185/680/185
f 202/798/202 289/1073/289 288/1075/288 210/1077/210
f 217/706/217 290/1079/290 289/1081/289 202/1074/202
f 217/1080/217 226/742/226 291/1083/291 290/1085/290
f 237/890/237 202/866/202 210/797/210 236/863/236
f 274/1094/274 273/1014/273 282/1091/282 283/1047/283
f 275/1096/275 274/1018/274 283/1093/283 284/1051/284
f 276/1098/276 275/1022/275 284/1095/284 285/1055/285
f 277/1100/277 276/1026/276 285/1097/285 286/1059/286
f 278/1102/278 277/1030/277 286/1099/286 287/1063/287
f 280/1104/280 278/1040/278 287/1101/287 279/1037/279
f 272/1106/272 280/1068/280 279/1103/279 281/1071/281
f 273/1092/273 272/1010/272 281/1105/281 282/1043/282
f 302/1126/302 301/1136/301 186/1123/186 190/698/190
f 303/1128/303 302/1138/302 190/1125/190 203/747/203
f 304/1130/304 303/1122/303 203/1127/203 200/757/200
f 300/1132/300 304/1120/304 200/1129/200 184/731/184
f 195/714/195 305/1143/305 306/1141/306 194/1139/194
f 306/1140/306 307/1147/307 197/1145/197 194/724/194
f 307/1146/307 308/1151/308 199/1149/199 197/730/197
f 196/718/196 309/1155/309 305/1153/305 195/1144/195
f 308/1150/308 310/1159/310 205/1157/205 199/754/199
f 205/750/205 310/1158/310 309/1161/309 196/1156/196
f 306/1148/306 305/1142/305 308/1163/308 307/1152/307
f 308/1160/308 305/1164/305 309/1154/309 310/1162/310
f 279/1072/279 311/1169/311 312/1167/312 281/1165/281
f 281/1044/281 312/1166/312 313/1173/313 282/1171/282
f 282/1048/282 313/1172/313 314/1177/314 283/1175/283
f 283/1052/283 314/1176/314 315/1181/315 284/1179/284
f 284/1056/284 315/1180/315 316/1185/316 285/1183/285
f 287/1038/287 177/1189/177 311/1187/311 279/1170/279
f 287/1190/287 286/1064/286 176/1193/176 177/1191/177
f 285/1060/285 316/1184/316 176/1195/176 286/1194/286
f 311/1168/311 177/1188/177 313/1197/313 312/1174/312
f 315/1186/315 314/1182/314 176/1199/176 316/1196/316
f 176/1192/176 314/1200/314 313/1178/313 177/1198/177
f 173/540/173 171/1203/171 169/1205/169 175/1207/175
f 167/548/167 168/1211/168 171/1213/171 173/1204/173
f 169/1208/169 165/1215/165 166/1217/166 175/1219/175
f 165/1218/165 164/1221/164 163/1223/163 166/1225/166
f 169/1216/169 156/1227/156 155/1229/155 165/1231/165
f 155/1232/155 151/1233/151 164/1235/164 165/1222/165
f 151/1236/151 148/1239/148 163/1237/163 164/1224/164
f 147/580/147 143/1243/143 168/1245/168 167/1212/167
f 171/1206/171 115/1247/115 142/1241/142 169/1209/169
f 168/1214/168 143/1246/143 115/1201/115 171/1248/171
f 142/1210/142 111/1087/111 156/1007/156 169/1228/169
f 111/1008/111 94/973/94 95/939/95 156/905/156
f 142/1088/142 85/853/85 86/659/86 111/647/111
f 78/610/78 94/643/94 111/974/111 86/648/86
f 76/614/76 95/633/95 94/940/94 78/644/78
f 151/1240/151 155/1234/155 68/631/68 148/623/148
f 156/1230/156 54/619/54 68/605/68 155/632/155
f 54/626/54 156/620/156 95/906/95 76/634/76
f 53/630/53 115/575/115 143/1202/143 147/1244/147
f 115/1242/115 53/576/53 85/563/85 142/854/142
f 289/1076/289 52/407/52 51/415/51 288/557/288
f 290/1082/290 50/309/50 52/343/52 289/408/289
f 52/416/52 50/344/50 33/183/33 51/275/51
f 50/184/50 15/171/15 6/173/6 33/177/33
f 290/310/290 291/1086/291 15/123/15 50/172/50
f 3/658/3 15/103/15 291/124/291 292/1090/292
f 2/662/2 6/5/6 15/174/15 3/104/3
