# Blender v3.6.2 OBJ File: 'calavara.blend'
# www.blender.org
mtllib calavara.mtl
o entity2_brush0
v -3.000000 -2.625000 0.000000
v -3.250000 0.500000 -0.000000
v -2.656250 -2.625000 -2.250000
v 2.281250 -3.875000 -1.875000
v 1.031250 -4.500000 -1.875000
v 0.187500 -3.562500 0.000000
v 3.375000 -0.500000 0.000000
v -1.500000 3.000000 -0.000000
v -2.906250 0.750000 -2.625000
v 1.031250 -4.500000 0.000000
v -1.031250 2.625000 -2.000000
v 1.031250 -4.500000 1.875000
v 2.281250 -0.000000 -2.625000
v 2.500000 3.000000 -0.000000
v 1.406250 2.625000 -2.000000
v -2.656250 -2.625000 2.250000
v 3.375000 -4.500000 0.000000
v 2.281250 0.000000 2.625000
v -2.906250 0.750000 2.625000
v -1.031250 2.625000 2.000000
v 1.406250 2.625000 2.000000
v 2.281250 -3.875000 1.875000
v -0.011434 -3.620472 -2.046652
v -0.011434 -3.633688 2.020220
vt 0.756305 0.348159
vt 0.972172 0.179042
vt 0.771748 0.179746
vt 0.972679 0.323347
vt 0.225489 0.500981
vt 0.212678 0.369722
vt 0.417111 0.369639
vt 0.395123 0.513954
vt 0.978272 0.655928
vt 0.677214 0.561186
vt 0.818157 0.585017
vt 0.663552 0.800919
vt 0.981839 0.865608
vt 0.500167 0.522110
vt 0.616355 0.560839
vt 0.662830 0.800961
vt 0.500167 0.769977
vt 0.611408 0.180309
vt 0.617872 0.308560
vt 0.461541 0.309109
vt 0.390942 0.181084
vt 0.859229 0.974997
vt 0.708429 0.966403
vt 0.624101 0.963623
vt 0.500167 0.986861
vt 0.755122 0.011446
vt 0.971665 0.034737
vt 0.225384 0.240147
vt 0.395006 0.225342
vt 0.021136 0.656195
vt 0.181175 0.584399
vt 0.322154 0.561327
vt 0.017656 0.865877
vt 0.335917 0.801054
vt 0.383979 0.560839
vt 0.337504 0.800961
vt 0.616971 0.052017
vt 0.291108 0.966557
vt 0.140312 0.975214
vt 0.460640 0.052566
vt 0.376233 0.963623
vt 0.158563 0.369743
vt 0.158611 0.489999
vt 0.008244 0.369804
vt 0.242603 0.527101
vt 0.078441 0.490031
vt 0.158514 0.249488
vt 0.078344 0.249521
vt 0.756751 0.526927
vn -0.6610 0.2522 -0.7067
vn -0.8039 -0.5947 -0.0008
vn -0.9715 0.2371 -0.0000
vn -0.5841 -0.5376 -0.6082
vn -0.2776 -0.6009 -0.7496
vn -0.5257 -0.8507 -0.0014
vn 0.4920 -0.3906 -0.7780
vn 0.5465 0.0896 -0.8327
vn 0.7657 -0.6432 0.0000
vn 0.9944 0.1059 0.0000
vn -0.4376 0.8992 -0.0000
vn -0.2228 0.7595 -0.6112
vn 0.3071 0.6844 -0.6613
vn 0.6504 0.7596 -0.0000
vn -0.6610 0.2522 0.7067
vn -0.5846 -0.5372 0.6080
vn -0.2857 -0.6324 0.7200
vn 0.4908 -0.3909 0.7786
vn 0.5465 0.0896 0.8327
vn -0.2228 0.7595 0.6112
vn 0.3071 0.6844 0.6613
vn -0.3743 -0.9273 -0.0007
vn -0.1961 -0.7800 -0.5943
vn -0.1972 -0.7744 0.6012
usemtl __TB_empty
s 1
f 9/1/1 1/2/2 2/3/3
f 3/4/4 1/2/2 9/1/1
f 23/5/5 6/6/6 1/7/2 3/8/4
f 3/9/4 4/10/7 23/11/5
f 13/12/8 3/9/4 9/13/1
f 3/9/4 13/12/8 4/10/7
f 17/14/9 4/15/7 13/16/8
f 7/17/10 17/14/9 13/16/8
f 8/18/11 9/1/1 2/3/3
f 9/1/1 8/18/11 11/19/12
f 15/20/13 11/19/12 8/18/11 14/21/14
f 9/13/1 11/22/12 15/23/13
f 13/12/8 9/13/1 15/23/13
f 13/16/8 15/24/13 14/25/14
f 14/25/14 7/17/10 13/16/8
f 2/3/3 1/2/2 19/26/15
f 19/26/15 1/2/2 16/27/16
f 24/28/17 16/29/16 1/7/2 6/6/6
f 16/30/16 24/31/17 22/32/18
f 19/33/15 16/30/16 18/34/19
f 16/30/16 22/32/18 18/34/19
f 22/35/18 17/14/9 18/36/19
f 17/14/9 7/17/10 18/36/19
f 2/3/3 19/26/15 8/18/11
f 8/18/11 19/26/15 20/37/20
f 21/38/21 20/39/20 19/33/15
f 14/21/14 8/18/11 20/37/20 21/40/21
f 21/38/21 19/33/15 18/34/19
f 14/25/14 21/41/21 18/36/19
f 14/25/14 18/36/19 7/17/10
f 10/42/22 5/43/23 17/44/9
f 12/45/24 22/32/18 24/31/17
f 5/43/23 4/46/7 17/44/9
f 12/47/24 10/42/22 17/44/9
f 22/48/18 12/47/24 17/44/9
f 10/42/22 12/47/24 24/28/17 6/6/6
f 10/42/22 6/6/6 23/5/5 5/43/23
f 23/11/5 4/10/7 5/49/23
o Cube_Cube.001
v 1.849105 -0.416470 2.553593
v 1.849105 -0.115251 2.553593
v 1.849105 -0.127117 1.178968
v 1.849105 0.174102 1.178968
v 4.115099 -0.379134 2.479044
v 4.115099 -0.077915 2.479044
v 5.337700 -0.089781 1.357885
v 5.337700 0.211438 1.357885
v 1.849105 0.026462 -0.000000
v 1.849105 0.327681 -0.000000
v 5.799902 0.063798 -0.000000
v 5.799902 0.365017 -0.000000
v 1.849105 -0.416470 -2.553593
v 1.849105 -0.115251 -2.553593
v 1.849105 -0.127117 -1.178968
v 1.849105 0.174102 -1.178968
v 4.115099 -0.379134 -2.479044
v 4.115099 -0.077915 -2.479044
v 5.337700 -0.089781 -1.357885
v 5.337700 0.211438 -1.357885
vt 0.890177 0.346079
vt 0.901030 0.346079
vt 0.911456 0.400938
vt 0.900603 0.400938
vt 0.605164 0.399942
vt 0.730866 0.392857
vt 0.747596 0.446470
vt 0.605243 0.446415
vt 0.933036 0.395788
vt 0.943766 0.393984
vt 0.942430 0.461168
vt 0.931700 0.462972
vt 0.956854 0.343610
vt 0.967706 0.343412
vt 0.967706 0.433904
vt 0.956854 0.434102
vt 0.890029 0.399942
vt 0.764327 0.392857
vt 0.808522 0.349032
vt 0.605015 0.346079
vt 0.686671 0.349032
vt 0.927842 0.503847
vt 0.916990 0.503733
vt 0.916990 0.346079
vt 0.927842 0.346193
vt 0.916989 0.447988
vt 0.906136 0.447988
vt 0.931700 0.345217
vt 0.942430 0.343412
vt 0.889950 0.446415
vt 0.747596 0.446470
vt 0.890177 0.549896
vt 0.900603 0.495038
vt 0.911456 0.495038
vt 0.901030 0.549896
vt 0.605164 0.493788
vt 0.730866 0.500945
vt 0.954493 0.402745
vt 0.956854 0.461903
vt 0.946126 0.460081
vt 0.943766 0.400924
vt 0.978557 0.343610
vt 0.978557 0.434090
vt 0.967706 0.433892
vt 0.967706 0.343412
vt 0.890029 0.493788
vt 0.890177 0.549346
vt 0.808522 0.546364
vt 0.764327 0.500945
vt 0.686671 0.546364
vt 0.605015 0.549346
vt 0.946126 0.343412
vt 0.956854 0.345234
vn -0.5545 -0.6456 0.5252
vn -0.5838 0.4993 0.6403
vn -0.7038 0.7004 0.1184
vn -0.7110 -0.6934 -0.1172
vn 0.6062 0.6363 0.4771
vn 0.6841 0.6165 -0.3898
vn -0.6411 0.6847 -0.3466
vn 0.6610 -0.6657 0.3464
vn 0.2779 0.5516 0.7865
vn 0.3126 -0.7113 0.6295
vn -0.6936 -0.6443 -0.3222
vn 0.7381 -0.5683 -0.3636
vn -0.5545 -0.6456 -0.5252
vn -0.7110 -0.6934 0.1172
vn -0.7038 0.7004 -0.1184
vn -0.5838 0.4993 -0.6403
vn 0.6062 0.6363 -0.4771
vn 0.6610 -0.6657 -0.3464
vn 0.3126 -0.7113 -0.6295
vn 0.2779 0.5516 -0.7865
usemtl None
s 1
f 25/50/25 26/51/26 28/52/27 27/53/28
f 28/54/27 32/55/29 36/56/30 34/57/31
f 31/58/32 32/59/29 30/60/33 29/61/34
f 29/62/34 30/63/33 26/64/26 25/65/25
f 27/66/28 31/67/32 29/68/34 25/50/25
f 32/55/29 28/54/27 26/69/26 30/70/33
f 33/71/35 34/72/31 36/73/30 35/74/36
f 27/53/28 28/52/27 34/75/31 33/76/35
f 32/59/29 31/58/32 35/77/36 36/78/30
f 31/67/32 27/66/28 33/79/35 35/80/36
f 37/81/37 39/82/38 40/83/39 38/84/40
f 40/85/39 34/57/31 36/56/30 44/86/41
f 43/87/42 41/88/43 42/89/44 44/90/41
f 41/91/43 37/92/37 38/93/40 42/94/44
f 39/95/38 37/96/37 41/97/43 43/98/42
f 44/86/41 42/99/44 38/100/40 40/85/39
f 39/82/38 33/76/35 34/75/31 40/83/39
f 44/90/41 36/101/30 35/102/36 43/87/42
f 43/98/42 35/80/36 33/79/35 39/95/38
