mtllib calavera.mtl
# vertices
v -2.906250004395474 0.7499999995816324 -2.6249999997489795
v -3 -2.625 -0
v -3.249999999959346 0.5000000000261018 -0
v -2.656250000257387 -2.6250000000000004 -2.249999999792635
v 3.374999999998118 -4.499999999999366 -0
v 2.2812499999019256 -3.8750000000000355 -1.8749999999993525
v 2.2812499995307007 0 -2.624999999792635
v 3.374999999898419 -0.4999999999566066 -0
v -1.500000000010914 3 -0
v -2.9062500000800355 0.750000000003638 -2.6249999997817213
v -3.2500000000011995 0.5000000000047493 -0
v -1.0312500002103646 2.624999999993815 -2
v 3.3749999999692646 -0.49999999999079336 -0
v 2.281250001209586 0 -2.624999999781723
v 2.5000000000035314 3 -0
v 1.4062499977881089 2.624999999993815 -2
v -0.02185150795769774 -3.3298872171497464 -1.0573308257048097
v -0.06608606985901133 -3.2807377039280254 -2.0532786887242764
v 1.0312499966094038 -4.5 -1.874999999996362
v 1.0312499966094038 -4.5 -0
v 0.1874999953887896 -3.562499998643762 -0
v 3.374999999999999 -4.5 -0
v 2.2812499993195123 -3.8750000000112745 -1.8749999999971962
v -3.249999999990905 0.5000000000109139 -0
v -3 -2.625 -0
v -2.9062500044198956 0.7499999998744804 2.624999999986056
v -2.656250000260062 -2.6250000000000004 2.2500000000002616
v 3.374999999996362 -4.5 -0
v 2.2812499998986517 -3.8749999999999547 1.87500000020684
v 2.2812499995279465 0 2.625000000000261
v 3.3749999999669287 -0.4999999999843673 -0
v -3.2500000000063665 0.499999999996362 -0
v -2.9062500000836735 0.749999999996362 2.624999999996362
v -1.5000000000029106 3 -0
v -1.0312500002033071 2.62500000000097 2
v 3.37499999998181 -0.500000000001819 -0
v 2.281250001200533 0 2.6249999999963625
v 1.406249997933628 2.62500000000097 2
v 2.5000000000027924 3 -0
v 0.1874999953892803 -3.562499998644307 -0
v 1.0312499966094038 -4.5 -0
v 1.0312499966094038 -4.5 1.8750000002025666
v -0.0660860698579635 -3.2807377039251477 2.0532786889308388
v -0.021851507959748155 -3.329887217145387 1.0573308258473357
v 3.3749999999972697 -4.5 -0
v 2.281249999279983 -3.8749999999999973 1.8750000002066058

# texture coordinates
vt 0.012817383 0.0036621094
vt 0 -0.012817383
vt 0 0.0024414062
vt 0.010986328 -0.012817383
vt -0.0146484375 -0
vt -0.012969971 0.010986328
vt 0.016479492 -0
vt 0.011138916 0.009155273
vt 0.011138916 -0
vt -0.012969971 -0.012817383
vt -0.014190674 0.0036621094
vt 0.016479492 -0.0024414062
vt -0.01586914 0.0024414062
vt -0.0146484375 -0.012817383
vt 0.016479492 -0.021972656
vt 0.011138916 -0.018920898
vt 0.011138916 0.012817383
vt -0.014190674 0.012817383
vt -0.01586914 -0
vt 0 -0.021972656
vt 0.009155273 -0.018920898
vt 0.012817383 -0
vt 0 -0.0024414062
vt 0 0.0146484375
vt -0.0073242188 -0
vt -0.0050354004 0.009765625
vt 0.012207031 0.0146484375
vt -0.0073242188 0.0146484375
vt 0.006866455 0.009765625
vt 0.012207031 -0
vt -0.0050354004 0.012817383
vt 0.006866455 0.012817383
vt 0.009765625 0.012817383
vt 0.005162748 -0.016259214
vt 0.010025775 -0.016019227
vt 0.009155273 -0.021972656
vt 0 -0.01739502
vt 0.0009155273 -0.01739502
vt 0.0050354004 -0.021972656
vt 0.0050354004 -0
vt 0.0050354004 0.009155273
vt -0.0003226859 -0.016019227
vt -0.0003226859 0.010025775
vt -0.00010669682 0.005162748
vt 0.0009155273 -0

# normals
vn -0.9874396496997327 -0.0789951719759786 -0.13683092123257357
vn -0.9845500524516986 -0.08964267573399516 -0.15041736902567868
vn -0.28190450500996656 -0.9584753170338862 -0.043068743792653144
vn -0.22787802365851972 -0.955821710339591 -0.18567838963375913
vn -0.016134600523311626 -0.11159765370470034 -0.9936224828140511
vn 0 0 1
vn 0.026449489891293892 -0.18995542754756126 -0.9814363759458448
vn 0.14218570183475415 0.9834511051072398 0.11228156597192356
vn 0.14807901615858496 0.9810234820506254 0.12516202554597705
vn 0.8441307395947375 -0.10187784777488709 -0.5263688807328927
vn 0.9230769230075552 0 -0.3846153847818675
vn -0.8180981705757402 0.5726687194030181 -0.05259202523134368
vn -0.6293167755878947 0.7237142918257649 -0.28319254893232465
vn -0.14829692840446637 -0.9824671506795897 -0.11298813593173798
vn -0.1419165052766082 -0.9815891617388539 -0.127837487017262
vn -0 0.9828721869343219 -0.18428853505018536
vn -0 0.3162277659227568 -0.9486832980818741
vn 0.035063708966739 0.24252398707981387 -0.9695115533114632
vn 0.7803278395121925 0.37861701370458856 -0.49773247816036
vn 0.9133672718115785 0.22834181795289463 -0.3370760165859347
vn -0.7432941462471664 -0.6689647316224497 -0
vn 0 -1 0
vn 0.05010274633473319 -0.10020549288997309 -0.9937044701541776
vn 0.2426068115220381 0.9694163842234736 0.03706492954528273
vn 0.2788285922755705 0.9480172137369396 0.15335572564489827
vn 0.39036002851830526 -0.7807200587546202 -0.4879500363698832
vn -0.9874396497011094 -0.0789951719769509 0.136830921222077
vn -0.9845500524540681 -0.08964267573254357 0.1504173690110348
vn -0.28190450501012954 -0.9584753170340301 0.04306874378838143
vn -0.22787802366096707 -0.9558217103430364 0.18567838961302024
vn -0.016134600523311626 -0.11159765370470034 0.9936224828140511
vn 0 -0 -1
vn 0.026449489891293892 -0.18995542754756126 0.9814363759458448
vn 0.1421857018348952 0.9834511051082155 -0.11228156596319767
vn 0.14807901615876756 0.9810234820518351 -0.1251620255362803
vn 0.8441307396233176 -0.10187784776633638 0.526368880688714
vn 0.9230769230183025 0 0.3846153847560739
vn -0.8180981705759183 0.5726687194031428 0.052592025227215795
vn -0.6293167755716229 0.7237142918403373 0.2831925489312433
vn -0.1482969284046154 -0.9824671506805769 0.11298813592295862
vn -0.14191650527679073 -0.9815891617401165 0.12783748700736478
vn 0 0.31622776601683794 0.9486832980505139
vn 0 0.9828721869343219 0.18428853505018536
vn 0.0350637089776339 0.24252398715517032 0.9695115532922187
vn 0.7803278394970915 0.3786170137382669 0.49773247815841626
vn 0.9133672718197464 0.2283418179549366 0.33707601656241903
vn 0.05010274633473319 -0.10020549288997309 0.9937044701541776
vn 0.24260681152233227 0.9694163842235397 -0.037064929541630015
vn 0.2788285922764061 0.948017213739375 -0.1533557256283245
vn 0.3903600285285465 -0.7807200587751028 0.487950036328918

o entity2_brush0
usemtl green1
f  1/1/1  2/2/1  3/3/1
usemtl green1
f  4/4/2  2/2/2  1/1/2
usemtl green1
f  2/5/3  4/6/3  5/7/3
usemtl green1
f  5/7/4  4/6/4  6/8/4
usemtl green1
f  7/9/5  4/10/5  1/11/5
usemtl green1
f  8/12/6  3/13/6  2/14/6  5/15/6
usemtl green1
f  6/16/7  4/10/7  7/9/7
usemtl green1
f  7/17/8  1/18/8  3/19/8
usemtl green1
f  7/17/9  3/19/9  8/7/9
usemtl green1
f  5/20/10  6/21/10  7/22/10
usemtl green1
f  5/20/11  7/22/11  8/23/11

o entity2_brush1
usemtl green1
f  9/24/12  10/1/12  11/3/12
usemtl green1
f  10/18/13  9/25/13  12/26/13
usemtl green1
f  11/19/14  10/18/14  13/7/14
usemtl green1
f  13/7/15  10/18/15  14/17/15
usemtl green1
f  15/27/6  9/28/6  11/13/6  13/12/6
usemtl green1
f  16/29/16  12/26/16  9/25/16  15/30/16
usemtl green1
f  10/11/17  12/31/17  16/32/17
usemtl green1
f  14/9/18  10/11/18  16/32/18
usemtl green1
f  14/22/19  16/33/19  15/24/19
usemtl green1
f  15/24/20  13/23/20  14/22/20

o entity2_brush2
usemtl green1
f  17/34/21  18/35/21  19/36/21  20/20/21  21/37/21
usemtl green1
f  21/38/6  20/39/6  22/15/6
usemtl green1
f  22/7/22  20/40/22  19/41/22
usemtl green1
f  19/39/23  18/42/23  23/16/23
usemtl green1
f  23/8/24  18/43/24  17/44/24
usemtl green1
f  23/8/25  17/44/25  21/45/25  22/7/25
usemtl green1
f  19/41/26  23/8/26  22/7/26

o entity3_brush0
usemtl green1
f  24/3/27  25/2/27  26/1/27
usemtl green1
f  26/1/28  25/2/28  27/4/28
usemtl green1
f  28/7/29  27/6/29  25/5/29
usemtl green1
f  29/8/30  27/6/30  28/7/30
usemtl green1
f  26/11/31  27/10/31  30/9/31
usemtl green1
f  28/15/32  25/14/32  24/13/32  31/12/32
usemtl green1
f  30/9/33  27/10/33  29/16/33
usemtl green1
f  24/19/34  26/18/34  30/17/34
usemtl green1
f  31/7/35  24/19/35  30/17/35
usemtl green1
f  30/22/36  29/21/36  28/20/36
usemtl green1
f  31/23/37  30/22/37  28/20/37

o entity3_brush1
usemtl green1
f  32/3/38  33/1/38  34/24/38
usemtl green1
f  34/25/39  33/18/39  35/26/39
usemtl green1
f  36/7/40  33/18/40  32/19/40
usemtl green1
f  37/17/41  33/18/41  36/7/41
usemtl green1
f  38/32/42  35/31/42  33/11/42
usemtl green1
f  39/30/43  34/25/43  35/26/43  38/29/43
usemtl green1
f  36/12/32  32/13/32  34/28/32  39/27/32
usemtl green1
f  38/32/44  33/11/44  37/9/44
usemtl green1
f  39/24/45  38/33/45  37/22/45
usemtl green1
f  39/24/46  37/22/46  36/23/46

o entity3_brush2
usemtl green1
f  40/37/21  41/20/21  42/36/21  43/35/21  44/34/21
usemtl green1
f  42/41/22  41/40/22  45/7/22
usemtl green1
f  45/15/32  41/39/32  40/38/32
usemtl green1
f  46/16/47  43/42/47  42/39/47
usemtl green1
f  44/44/48  43/43/48  46/8/48
usemtl green1
f  45/7/49  40/45/49  44/44/49  46/8/49
usemtl green1
f  45/7/50  46/8/50  42/41/50

