mtllib cap.mtl
# vertices
v -1.25 -0.12499999999636202 -0
v -1.25 0.1785714298239327 -0
v -1.25 0.05357142983484664 -1
v -1.25 -0.2500000000001072 -1
v 2.4999999999906635 -0.25000000000010497 -1.3750000000009397
v 2.499999999947296 0.05357142983907102 -1.37499999999777
v 2.6249999999899956 0.1785714298239327 -0
v 2.6250000004046785 -0.12499999999636245 -0
v -1.25 0.05357142981050611 -1
v -1.25 -0.32142857014696347 -2.5
v -1.25 -0.6250000000000127 -2.5
v -1.25 -0.24999999999984907 -1
v 1 -0.6250000000000127 -2.625
v 1 -0.32142857015156784 -2.6249999999943556
v 2.4999999999088303 0.053571429844399 -1.3749999999999183
v 2.5000000000194262 -0.24999999999986972 -1.3749999999995643
v -1.25 -0.25 1
v -1.25 -0.625 2.5
v -1.25 -0.32142857015060144 2.5
v -1.25 0.053571429806819504 1
v 1 -0.3214285701552057 2.624999999994297
v 1 -0.625 2.6249999999999996
v 2.4999999999087446 0.05357142984075808 1.3750000000000022
v 2.500000000017992 -0.2500000000000059 1.375
v -1.25 -0.12500000000296996 -0
v -1.25 -0.250000000003638 1
v -1.25 0.05357142983120866 1
v -1.25 0.17857142983220087 -0
v 2.500000000327418 0.053571429835433455 1.3750000000372893
v 2.4999999999896043 -0.25000000000329364 1.3750000000025975
v 2.6249999999973497 0.17857142983219987 -0
v 2.6249999996703743 -0.1250000000029696 -0

# texture coordinates
vt 0 0.375
vt 0 0.67857146
vt -1 0.5535714
vt -1 0.25
vt 2.625 0.25
vt -1.125 0.25
vt -1.125 0.5535714
vt 2.625 0.5535714
vt 2.625 -1.375
vt -1.125 -1
vt -1.125 -0
vt 2.75 0.67857146
vt -1.125 0.67857146
vt -1.125 0.375
vt 2.75 0.375
vt 2.75 -0
vt -1.375 0.25
vt -1.375 0.5535714
vt -2.5 0.17857143
vt -2.5 -0.125
vt 1.125 -0.125
vt -1.125 -0.125
vt -1.125 0.17857143
vt 1.125 0.17857143
vt -1.125 -2.5
vt 1.125 -2.625
vt 3 0.5535714
vt 3 0.25
vt 1.5 -0.125
vt 1.5 0.17857143

# normals
vn -1 0 -0
vn -0.0995037190212658 -3.824647044994449e-12 -0.9950371902099624
vn -0.012402519455744372 0.992201556453624 -0.12402519454593057
vn 0 0 1
vn 0 -0.9922778767136676 0.12403473458920845
vn -0 0.9958932064686791 -0.09053574603178954
vn 0.008972309321909148 -0.9959263347299708 0.0897230932188484
vn 0.995893206466747 3.5805600709820625e-11 -0.09053574605304525
vn -0.05547001962254521 0 -0.9984603532054112
vn -0.024246432254676306 0.9698572899436594 -0.24246432246015073
vn -0.015039719708416539 0.962542061463212 -0.2707149547868434
vn 0.013472978409163904 -0.97005444545941 0.2425136113648525
vn 0.025864952407058002 -0.9656248898689392 0.25864952407182107
vn 0.0995037190205262 3.581761942784623e-11 0.9950371902100363
vn 0.6401843996257196 2.304424539620287e-10 -0.768221279629676
vn -0.055470019622522855 0 0.9984603532054124
vn -0.024246432254676306 0.9698572899436594 0.24246432246015073
vn -0.01503971970841134 0.9625420614632075 0.27071495478685914
vn 0.013472978409158459 -0.9700544454594101 -0.24251361136485253
vn 0.02586495240705957 -0.965624889868935 -0.2586495240718368
vn 0.0995037190205262 3.581761942784623e-11 -0.9950371902100363
vn 0.6401843996259486 2.3044245396211114e-10 0.7682212796294853
vn -0.0995037190212658 -3.824647044994449e-12 0.9950371902099624
vn -0.012402519455744372 0.992201556453624 0.12402519454593057
vn 0 0.9958932064686791 0.09053574603178954
vn 0 -0.9922778767136676 -0.12403473458920845
vn 0 0 -1
vn 0.008972309321909148 -0.9959263347299708 -0.0897230932188484
vn 0.995893206466747 3.5805600709820625e-11 0.09053574605304525

o entity2_brush0
usemtl entitiy/skip
f  1/1/1  2/2/1  3/3/1  4/4/1
usemtl entitiy/skip
f  5/5/2  4/6/2  3/7/2  6/8/2
usemtl entitiy/skip
f  6/9/3  3/10/3  2/11/3
usemtl entitiy/skip
f  7/12/4  2/13/4  1/14/4  8/15/4
usemtl entitiy/skip
f  8/16/5  1/11/5  4/10/5
usemtl entitiy/skip
f  6/9/6  2/11/6  7/16/6
usemtl entitiy/skip
f  8/16/7  4/10/7  5/9/7
usemtl entitiy/skip
f  5/17/8  6/18/8  7/2/8  8/1/8

o entity2_brush1
usemtl entitiy/skip
f  9/3/1  10/19/1  11/20/1  12/4/1
usemtl entitiy/skip
f  13/21/9  11/22/9  10/23/9  14/24/9
usemtl entitiy/skip
f  15/9/10  10/25/10  9/10/10
usemtl entitiy/skip
f  14/26/11  10/25/11  15/9/11
usemtl entitiy/skip
f  12/10/12  11/25/12  13/26/12
usemtl entitiy/skip
f  16/9/13  12/10/13  13/26/13
usemtl entitiy/skip
f  15/8/14  9/7/14  12/6/14  16/5/14
usemtl entitiy/skip
f  15/27/15  16/28/15  13/29/15  14/30/15

o entity2_brush2
usemtl entitiy/skip
f  17/4/1  18/20/1  19/19/1  20/3/1
usemtl entitiy/skip
f  21/24/16  19/23/16  18/22/16  22/21/16
usemtl entitiy/skip
f  20/10/17  19/25/17  23/9/17
usemtl entitiy/skip
f  23/9/18  19/25/18  21/26/18
usemtl entitiy/skip
f  22/26/19  18/25/19  17/10/19
usemtl entitiy/skip
f  22/26/20  17/10/20  24/9/20
usemtl entitiy/skip
f  24/5/21  17/6/21  20/7/21  23/8/21
usemtl entitiy/skip
f  21/30/22  22/29/22  24/28/22  23/27/22

o entity2_brush3
usemtl entitiy/skip
f  25/1/1  26/4/1  27/3/1  28/2/1
usemtl entitiy/skip
f  29/8/23  27/7/23  26/6/23  30/5/23
usemtl entitiy/skip
f  28/11/24  27/10/24  29/9/24
usemtl entitiy/skip
f  31/16/25  28/11/25  29/9/25
usemtl entitiy/skip
f  26/10/26  25/11/26  32/16/26
usemtl entitiy/skip
f  32/15/27  25/14/27  28/13/27  31/12/27
usemtl entitiy/skip
f  30/9/28  26/10/28  32/16/28
usemtl entitiy/skip
f  29/18/29  30/17/29  32/1/29  31/2/29

