mtllib skull.mtl
# vertices
v -2.906250004395474 0.7499999995816324 -2.6249999997489795
v -3 -2.625 -0
v -3.249999999959346 0.5000000000261018 -0
v -2.656250000257387 -2.6250000000000004 -2.249999999792635
v 3.374999999998118 -4.499999999999366 -0
v 2.2812499999019256 -3.8750000000000355 -1.8749999999993525
v 2.2812499995307007 0 -2.624999999792635
v 3.374999999898419 -0.4999999999566066 -0
v -1.500000000010914 3 -0
v -2.9062500000800355 0.750000000003638 -2.6249999997817213
v -3.2500000000011995 0.5000000000047493 -0
v -1.0312500002103646 2.624999999993815 -2
v 3.3749999999692646 -0.49999999999079336 -0
v 2.281250001209586 0 -2.624999999781723
v 2.5000000000035314 3 -0
v 1.4062499977881089 2.624999999993815 -2
v -0.02185150795769774 -3.3298872171497464 -1.0573308257048097
v -0.06608606985901133 -3.2807377039280254 -2.0532786887242764
v 1.0312499966094038 -4.5 -1.874999999996362
v 1.0312499966094038 -4.5 -0
v 0.1874999953887896 -3.562499998643762 -0
v 3.374999999999999 -4.5 -0
v 2.2812499993195123 -3.8750000000112745 -1.8749999999971962
v -3.2500000000095497 0.49999999999272404 -0
v -3 -2.625 -0
v -2.906250004436421 0.7500000000982587 2.6250000000109215
v -2.6562500002599996 -2.6250000000000004 2.25000000000034
v 3.375 -4.5 -0
v 2.2812499998986127 -3.8749999999998987 1.8750000000003142
v 2.2812499995280056 0 2.6250000000003397
v 3.3750000000237455 -0.5000000000111717 -0
v -3.2499999999972715 0.49999999999954525 -0
v -2.9062500000763976 0.75 2.625000000007276
v -1.4999999999974538 3 -0
v -1.0312500002020952 2.6249999999985447 2
v 3.375000000025466 -0.500000000003638 -0
v 2.281250001196895 0 2.6250000000072746
v 1.40624999758802 2.624999999998545 2
v 2.4999999999949054 3 -0
v 0.18749999538878906 -3.5624999986437613 -0
v 1.0312499966094038 -4.5 -0
v 1.0312499966094038 -4.5 1.8749999999959617
v -0.06608606985796439 -3.2807377039251464 2.0532786888224557
v -0.021851507956273372 -3.3298872171492477 1.0573308257132785
v 3.375 -4.5 -0
v 2.2812499992799826 -3.8749999999999964 1.8750000000000009

# texture coordinates
vt -2.125 0.2499975
vt 0.5 -3.1250024
vt 0.5 -2.503395e-06
vt -1.75 -3.125
vt 0.5 -3.125
vt -2.125 0.25
vt -3.2499998 0.5
vt -2.9062498 -1.75
vt 3.1250002 0.5
vt 3.125 0.49282837
vt -2.90625 -1.7571716
vt 2.03125 -1.3821716
vt 2.03125 -0.5
vt -2.90625 -3.125
vt -3.15625 0.25
vt 3.125 -1
vt -3.5 -0
vt -3.25 -3.125
vt 3.125 -5
vt 2.0312498 -4.375001
vt -2.9062502 -3.1250012
vt 2.0312498 -0.5000012
vt 2.0312502 -2.125
vt -3.1562498 -2.125
vt -3.4999998 0.5
vt 2.03125 -2.125
vt -3.5 0.5
vt 3.125 0.5
vt 0.48986816 -5.000001
vt -1.3851318 -4.375001
vt -2.1351318 -0.5000012
vt 0.5 -5.0000014
vt -2.125 -0.5000013
vt 0.5 -1.0000013
vt 0.5 2.4999974
vt -2.125 0.24999738
vt 0.5 -2.6226044e-06
vt -3.519907 -1.8966601
vt -2.113657 0.7283399
vt -1.644907 -1.2716601
vt -3.15625 -2.125
vt 3.1250005 0.5
vt -3.1562495 -2.125
vt 2.0312505 -2.125
vt 2.25 2.5
vt -1.75 2.5
vt 1.15625 -1.5
vt -1.28125 -1.5
vt -1.75 0.5
vt 2.25 0.5
vt -1.28125 2.125
vt 1.15625 2.125
vt 2.0312498 -0.5
vt -3.1562502 0.25
vt 1.1562498 2.125
vt -2.1250002 -0.5
vt -1.5000002 2.125
vt 0.49999976 2.5
vt 0.5 2.5000024
vt 0.5 -0.9999976
vt -2.125 -0.49999762
vt -0.55733085 -3.8298874
vt -1.5532787 -3.7807379
vt -1.375 -5
vt 0.5 -5
vt 0.5 -4.0625
vt -0.0625 -4.0625
vt 0.78125 -5
vt 0.78125 0.5
vt 0.78125 -1.375
vt 0.7812501 -5.0000005
vt -0.31608593 -3.780738
vt 2.03125 -4.3750005
vt 2.03125 -1.375
vt -0.31608605 -1.5532787
vt -0.2718515 -0.55733085
vt 2.03125 -1.3783188
vt -0.2718515 -0.56064963
vt -0.0625 0.4966812
vt 3.125 0.4966812
vt 0.27403855 -1.5096169
vt 1.5240386 -1.5096169
vt 2.6177886 0.36538315

# normals
vn -0.9874396496997327 -0.0789951719759786 -0.13683092123257357
vn -0.9845500524516986 -0.08964267573399516 -0.15041736902567868
vn -0.28190450500996656 -0.9584753170338862 -0.043068743792653144
vn -0.22787802365851972 -0.955821710339591 -0.18567838963375913
vn -0.016134600523311626 -0.11159765370470034 -0.9936224828140511
vn 0 0 1
vn 0.026449489891293892 -0.18995542754756126 -0.9814363759458448
vn 0.14218570183475415 0.9834511051072398 0.11228156597192356
vn 0.14807901615858496 0.9810234820506254 0.12516202554597705
vn 0.8441307395947375 -0.10187784777488709 -0.5263688807328927
vn 0.9230769230075552 0 -0.3846153847818675
vn -0.8180981705757402 0.5726687194030181 -0.05259202523134368
vn -0.6293167755878947 0.7237142918257649 -0.28319254893232465
vn -0.14829692840446637 -0.9824671506795897 -0.11298813593173798
vn -0.1419165052766082 -0.9815891617388539 -0.127837487017262
vn -0 0.9828721869343219 -0.18428853505018536
vn -0 0.3162277659227568 -0.9486832980818741
vn 0.035063708966739 0.24252398707981387 -0.9695115533114632
vn 0.7803278395121925 0.37861701370458856 -0.49773247816036
vn 0.9133672718115785 0.22834181795289463 -0.3370760165859347
vn -0.7432941462471664 -0.6689647316224497 -0
vn 0 -1 0
vn 0.05010274633473319 -0.10020549288997309 -0.9937044701541776
vn 0.2426068115220381 0.9694163842234736 0.03706492954528273
vn 0.2788285922755705 0.9480172137369396 0.15335572564489827
vn 0.39036002851830526 -0.7807200587546202 -0.4879500363698832
vn -0.9874396497013265 -0.07899517197610612 0.1368309212209986
vn -0.9845500524540681 -0.08964267573254357 0.1504173690110348
vn -0.2819045050100187 -0.9584753170340635 0.0430687437883645
vn -0.2278780236506512 -0.9558217103405761 0.18567838963834582
vn -0.016134600523311626 -0.11159765370470034 0.9936224828140511
vn 0 -0 -1
vn 0.026449489918831223 -0.18995542759786085 0.9814363759353671
vn 0.14218570183489757 0.9834511051082319 -0.11228156596305174
vn 0.1480790161587704 0.981023482051854 -0.12516202553612882
vn 0.844130739587109 -0.10187784780422059 0.5263688807394489
vn 0.9230769230179618 0 0.38461538475689144
vn -0.8180981705759549 0.5726687194031684 0.05259202522636779
vn -0.6293167755719252 0.7237142918403796 0.28319254893046353
vn -0.14829692840461797 -0.9824671506805941 0.11298813592280645
vn -0.14191650527679342 -0.9815891617401349 0.12783748700721967
vn 0 0.31622776601683794 0.9486832980505139
vn 0 0.9828721869343219 0.18428853505018536
vn 0.0350637089776339 0.24252398715517032 0.9695115532922187
vn 0.7803278394965804 0.3786170137382842 0.4977324781592045
vn 0.9133672718194542 0.22834181795486355 0.3370760165632605
vn 0.050102746361990594 -0.1002054929444879 0.993704470147306
vn 0.24260681152089147 0.9694163842239087 -0.03706492954140989
vn 0.2788285922755878 0.9480172137369987 -0.15335572564450206
vn 0.39036002851819707 -0.7807200587544039 0.487950036370316

o entity2_brush0
usemtl __TB_empty
f  1/1/1  2/2/1  3/3/1
usemtl __TB_empty
f  4/4/2  2/5/2  1/6/2
usemtl __TB_empty
f  2/7/3  4/8/3  5/9/3
usemtl __TB_empty
f  5/10/4  4/11/4  6/12/4
usemtl __TB_empty
f  7/13/5  4/14/5  1/15/5
usemtl __TB_empty
f  8/16/6  3/17/6  2/18/6  5/19/6
usemtl __TB_empty
f  6/20/7  4/21/7  7/22/7
usemtl __TB_empty
f  7/23/8  1/24/8  3/25/8
usemtl __TB_empty
f  7/26/9  3/27/9  8/28/9
usemtl __TB_empty
f  5/29/10  6/30/10  7/31/10
usemtl __TB_empty
f  5/32/11  7/33/11  8/34/11

o entity2_brush1
usemtl __TB_empty
f  9/35/12  10/36/12  11/37/12
usemtl __TB_empty
f  10/38/13  9/39/13  12/40/13
usemtl __TB_empty
f  11/27/14  10/41/14  13/28/14
usemtl __TB_empty
f  13/42/15  10/43/15  14/44/15
usemtl __TB_empty
f  15/45/6  9/46/6  11/17/6  13/16/6
usemtl __TB_empty
f  16/47/16  12/48/16  9/49/16  15/50/16
usemtl __TB_empty
f  10/15/17  12/51/17  16/52/17
usemtl __TB_empty
f  14/53/18  10/54/18  16/55/18
usemtl __TB_empty
f  14/56/19  16/57/19  15/58/19
usemtl __TB_empty
f  15/59/20  13/60/20  14/61/20

o entity2_brush2
usemtl __TB_empty
f  17/62/21  18/63/21  19/64/21  20/65/21  21/66/21
usemtl __TB_empty
f  21/67/6  20/68/6  22/19/6
usemtl __TB_empty
f  22/28/22  20/69/22  19/70/22
usemtl __TB_empty
f  19/71/23  18/72/23  23/73/23
usemtl __TB_empty
f  23/74/24  18/75/24  17/76/24
usemtl __TB_empty
f  23/77/25  17/78/25  21/79/25  22/80/25
usemtl __TB_empty
f  19/81/26  23/82/26  22/83/26

o entity3_brush0
usemtl __TB_empty
f  24/3/27  25/2/27  26/1/27
usemtl __TB_empty
f  26/6/28  25/5/28  27/4/28
usemtl __TB_empty
f  28/9/29  27/8/29  25/7/29
usemtl __TB_empty
f  29/12/30  27/11/30  28/10/30
usemtl __TB_empty
f  26/15/31  27/14/31  30/13/31
usemtl __TB_empty
f  28/19/32  25/18/32  24/17/32  31/16/32
usemtl __TB_empty
f  30/22/33  27/21/33  29/20/33
usemtl __TB_empty
f  24/25/34  26/24/34  30/23/34
usemtl __TB_empty
f  31/28/35  24/27/35  30/26/35
usemtl __TB_empty
f  30/31/36  29/30/36  28/29/36
usemtl __TB_empty
f  31/34/37  30/33/37  28/32/37

o entity3_brush1
usemtl __TB_empty
f  32/37/38  33/36/38  34/35/38
usemtl __TB_empty
f  34/39/39  33/38/39  35/40/39
usemtl __TB_empty
f  36/28/40  33/41/40  32/27/40
usemtl __TB_empty
f  37/44/41  33/43/41  36/42/41
usemtl __TB_empty
f  38/52/42  35/51/42  33/15/42
usemtl __TB_empty
f  39/50/43  34/49/43  35/48/43  38/47/43
usemtl __TB_empty
f  36/16/32  32/17/32  34/46/32  39/45/32
usemtl __TB_empty
f  38/55/44  33/54/44  37/53/44
usemtl __TB_empty
f  39/58/45  38/57/45  37/56/45
usemtl __TB_empty
f  39/59/46  37/61/46  36/60/46

o entity3_brush2
usemtl __TB_empty
f  40/66/21  41/65/21  42/64/21  43/63/21  44/62/21
usemtl __TB_empty
f  42/70/22  41/69/22  45/28/22
usemtl __TB_empty
f  45/19/32  41/68/32  40/67/32
usemtl __TB_empty
f  46/73/47  43/72/47  42/71/47
usemtl __TB_empty
f  44/76/48  43/75/48  46/74/48
usemtl __TB_empty
f  45/80/49  40/79/49  44/78/49  46/77/49
usemtl __TB_empty
f  45/83/50  46/82/50  42/81/50

